<?xml version="1.0" encoding="utf-8"?>
<!-- Generator: Adobe Illustrator 27.5.0, SVG Export Plug-In . SVG Version: 6.00 Build 0)  -->
<svg version="1.1" xmlns="http://www.w3.org/2000/svg" xmlns:xlink="http://www.w3.org/1999/xlink" x="0px" y="0px"
	 viewBox="0 0 750 500" style="enable-background:new 0 0 750 500;" xml:space="preserve">
<g id="BACKGROUND">
	<rect style="fill:#EBE0D1;" width="750" height="500"/>
</g>
<g id="OBJECTS">
	<g>
		<g>
			<path style="fill:#C4AC90;" d="M200.246,152.103c-29.661,0-53.792-18.343-53.792-40.889s24.131-40.89,53.792-40.89
				c29.661,0,53.791,18.343,53.791,40.89S229.907,152.103,200.246,152.103z M200.246,71.446c-29.042,0-52.669,17.839-52.669,39.768
				c0,21.928,23.627,39.767,52.669,39.767s52.669-17.839,52.669-39.767C252.916,89.285,229.288,71.446,200.246,71.446z"/>
			<path style="fill:#C4AC90;" d="M200.246,152.103c-21.44,0-38.883-18.343-38.883-40.889s17.443-40.89,38.883-40.89
				c21.44,0,38.883,18.343,38.883,40.89S221.686,152.103,200.246,152.103z M200.246,71.446c-20.821,0-37.761,17.839-37.761,39.768
				c0,21.928,16.939,39.767,37.761,39.767s37.761-17.839,37.761-39.767C238.007,89.285,221.067,71.446,200.246,71.446z"/>
			<path style="fill:#C4AC90;" d="M200.246,152.103c-10.682,0-19.372-18.343-19.372-40.889s8.69-40.89,19.372-40.89
				c10.682,0,19.372,18.343,19.372,40.89S210.928,152.103,200.246,152.103z M200.246,71.446c-10.063,0-18.249,17.839-18.249,39.768
				c0,21.928,8.186,39.767,18.249,39.767s18.25-17.839,18.25-39.767C218.496,89.285,210.309,71.446,200.246,71.446z"/>
			<rect x="181.436" y="66.11" style="fill:#C4AC90;" width="37.622" height="6.937"/>
			<rect x="181.436" y="148.958" style="fill:#C4AC90;" width="37.622" height="6.937"/>
		</g>
		<g>
			<path style="fill:#C4AC90;" d="M613.157,152.103c-29.66,0-53.791-18.343-53.791-40.889s24.131-40.89,53.791-40.89
				s53.791,18.343,53.791,40.89S642.817,152.103,613.157,152.103z M613.157,71.446c-29.042,0-52.67,17.839-52.67,39.768
				c0,21.928,23.628,39.767,52.67,39.767c29.042,0,52.67-17.839,52.67-39.767C665.827,89.285,642.199,71.446,613.157,71.446z"/>
			<path style="fill:#C4AC90;" d="M613.157,152.103c-21.44,0-38.883-18.343-38.883-40.889s17.442-40.89,38.883-40.89
				c21.439,0,38.882,18.343,38.882,40.89S634.596,152.103,613.157,152.103z M613.157,71.446c-20.821,0-37.762,17.839-37.762,39.768
				c0,21.928,16.94,39.767,37.762,39.767c20.821,0,37.761-17.839,37.761-39.767C650.918,89.285,633.978,71.446,613.157,71.446z"/>
			<path style="fill:#C4AC90;" d="M613.157,152.103c-10.682,0-19.372-18.343-19.372-40.889s8.69-40.89,19.372-40.89
				c10.682,0,19.371,18.343,19.371,40.89S623.839,152.103,613.157,152.103z M613.157,71.446c-10.063,0-18.251,17.839-18.251,39.768
				c0,21.928,8.188,39.767,18.251,39.767c10.063,0,18.25-17.839,18.25-39.767C631.407,89.285,623.219,71.446,613.157,71.446z"/>
			<rect x="594.346" y="66.11" style="fill:#C4AC90;" width="37.621" height="6.937"/>
			<rect x="594.346" y="148.958" style="fill:#C4AC90;" width="37.621" height="6.937"/>
		</g>
		<g>
			<path style="fill:#C4AC90;" d="M455.337,200.337H342.414V87.415h112.922V200.337z M343.536,199.215h110.679V88.537H343.536
				V199.215z"/>
			<path style="fill:#C4AC90;" d="M442.962,193.572h-88.174v-0.561c0-2.783-2.264-5.047-5.047-5.047h-0.561V99.788h0.561
				c2.783,0,5.047-2.264,5.047-5.047V94.18h88.174v0.561c0,2.783,2.265,5.047,5.048,5.047h0.561v88.175h-0.561
				c-2.783,0-5.048,2.264-5.048,5.047V193.572z M355.885,192.45h85.982c0.267-2.955,2.627-5.315,5.583-5.583v-85.982
				c-2.956-0.268-5.316-2.628-5.583-5.583h-85.982c-0.268,2.955-2.628,5.315-5.583,5.583v85.982
				C353.257,187.135,355.617,189.495,355.885,192.45z"/>
			<rect x="366.659" y="111.356" style="fill:#C4AC90;" width="64.433" height="2.48"/>
			<rect x="366.659" y="126.484" style="fill:#C4AC90;" width="64.433" height="2.48"/>
			<rect x="366.659" y="141.611" style="fill:#C4AC90;" width="64.433" height="2.48"/>
			<rect x="366.659" y="156.738" style="fill:#C4AC90;" width="64.433" height="2.48"/>
			<rect x="366.659" y="171.866" style="fill:#C4AC90;" width="64.433" height="2.48"/>
		</g>
	</g>
	<g>
		<g>
			<path style="fill:#470E0E;" d="M575.419,319.025h-60.414c-8.769,0-15.878,7.109-15.878,15.878h92.17
				C591.298,326.134,584.189,319.025,575.419,319.025z"/>
			<polygon style="fill:#8F2A05;" points="545.212,334.903 539.597,334.903 543.664,438.497 545.212,438.497 546.762,438.497 
				550.828,334.903 			"/>
			<polygon style="fill:#D1580C;" points="505.856,334.903 494.384,438.498 497.579,438.498 516.022,334.903 			"/>
			<polygon style="fill:#D1580C;" points="584.569,334.903 596.042,438.498 592.847,438.498 574.403,334.903 			"/>
		</g>
		<g>
			<g>
				<path style="fill:#470E0E;" d="M380.304,438.497h66.014c3.368-9.119-2.559-22.525-2.559-22.525
					c-19.232,2.101-20.889,0.041-20.889,0.041c-8.086,4.826-17.738,6.581-28.728,7.749
					C383.151,424.93,380.304,430.896,380.304,438.497z"/>
				<path style="fill:#D1580C;" d="M503.1,261.473l-2.345,5.653c0,0-75.234-0.24-86.239,21.049
					c-11.005,21.289,3.969,127.798,3.969,127.798c9.562,2.462,31.392,0,31.392,0l-4.871-104.164c0,0,37.526,14.614,73.068,11.547
					c35.542-3.067,42.218-60.62,42.218-60.62L503.1,261.473z"/>
				<path style="fill:#470E0E;" d="M411.319,438.497h66.014c3.368-9.119-2.559-22.525-2.559-22.525
					c-19.232,2.101-20.889,0.041-20.889,0.041c-8.086,4.826-17.738,6.581-28.728,7.749
					C414.166,424.93,411.319,430.896,411.319,438.497z"/>
				<path style="fill:#D1580C;" d="M586.543,267.126c4.059,17.35,2.18,51.9-35.715,59.838c-37.895,7.939-86.878-6.766-86.878-6.766
					l16.598,96.132c-11.637,4.272-31.452,1.083-31.452,1.083s-35.803-113.511-23.083-130.561
					c12.719-17.049,88.453-15.492,88.453-15.492l3.248-3.633L586.543,267.126z"/>
				<path style="fill:#6B1515;" d="M504.467,271.141c-15.738,0.539-31.444,1.917-47.034,4.136c-3.94,0.561-7.872,1.175-11.795,1.843
					c-3.119,0.531-6.248,1.091-9.262,2.076c-2.719,0.889-5.359,2.134-7.542,4.009c-2.199,1.889-3.777,4.371-4.675,7.119
					c-1.922,5.885-0.998,12.346-0.005,18.315c1.074,6.457,2.258,12.895,3.512,19.32c2.708,13.871,5.74,27.678,8.969,41.436
					c3.143,13.393,6.478,26.742,10.002,40.04c0.406,1.531,0.814,3.061,1.225,4.591c0.058,0.218,0.397,0.125,0.338-0.093
					c-3.466-12.902-6.749-25.854-9.857-38.848c-3.255-13.611-6.322-27.269-9.099-40.986c-1.314-6.487-2.561-12.987-3.713-19.505
					c-1.085-6.139-2.463-12.446-2.04-18.714c0.21-3.103,0.938-6.215,2.573-8.89c1.593-2.606,3.962-4.567,6.669-5.937
					c2.766-1.4,5.797-2.209,8.821-2.831c3.448-0.709,6.937-1.24,10.415-1.78c15.482-2.406,31.093-3.98,46.743-4.717
					c1.917-0.09,3.835-0.168,5.754-0.233C504.692,271.483,504.693,271.133,504.467,271.141L504.467,271.141z"/>
				<path style="fill:#6B1515;" d="M502.681,269.197c-2.735,0.787-5.47,1.573-8.205,2.36c-0.216,0.062-0.124,0.401,0.093,0.338
					c2.735-0.787,5.47-1.573,8.205-2.36C502.99,269.473,502.898,269.135,502.681,269.197L502.681,269.197z"/>
				<path style="fill:#6B1515;" d="M453.95,305.151c1.487,4.242,3.85,8.161,6.903,11.46c0.873,0.943,1.802,1.832,2.781,2.665
					c0.171,0.145,0.42-0.101,0.248-0.248c-3.389-2.884-6.166-6.462-8.126-10.458c-0.559-1.14-1.049-2.313-1.469-3.512
					C454.214,304.847,453.875,304.938,453.95,305.151L453.95,305.151z"/>
				<path style="fill:#6B1515;" d="M450.13,307.789c1.679,2.689,4.134,4.876,6.995,6.242c0.799,0.382,1.628,0.699,2.477,0.949
					c0.217,0.064,0.309-0.274,0.093-0.338c-2.965-0.871-5.652-2.6-7.693-4.918c-0.581-0.66-1.104-1.366-1.57-2.111
					C450.313,307.421,450.01,307.597,450.13,307.789L450.13,307.789z"/>
				<g>
					<g>
						<path style="fill:#6B1515;" d="M459.763,315.449c0.716,0,0.717-1.113,0-1.113
							C459.047,314.336,459.046,315.449,459.763,315.449L459.763,315.449z"/>
					</g>
				</g>
			</g>
			<g>
				<path style="fill:#FFC09E;" d="M511.818,155.29c-13.867,8.053-26.433,73.995-26.433,73.995l-63.97,14.794v14.163
					c0,0,68.206-2.706,78.956-12.449C511.121,236.051,511.818,155.29,511.818,155.29z"/>
				<path style="fill:#E24340;" d="M511.818,155.29c-16.934,5.527-24.151,49.11-24.151,49.11c11.005,5.13,25.619,5.236,25.619,5.236
					L511.818,155.29z"/>
				<g>
					<g>
						<g>
							<g>
								<g>
									<g>
										<g>
											<path style="fill:#E24340;" d="M500.372,265.842c2.212,8.768,54.646,9.84,87.39,0.235l-19.034-116.94l-19.922-2.723
												l-17.288,1.242l-19.7,7.635L500.372,265.842z"/>
										</g>
									</g>
								</g>
							</g>
						</g>
					</g>
				</g>
				<ellipse style="fill:#FF6666;" cx="539.021" cy="198.044" rx="12.988" ry="26.748"/>
				<path style="fill:#6B1515;" d="M511.879,159.427c-1.193,5.594-2.17,11.234-2.931,16.903c-0.758,5.654-1.3,11.336-1.623,17.032
					c-0.183,3.222-0.295,6.447-0.338,9.673c-0.003,0.226,0.348,0.226,0.351,0c0.076-5.704,0.369-11.405,0.882-17.086
					c0.514-5.694,1.247-11.369,2.198-17.007c0.532-3.153,1.132-6.295,1.799-9.423C512.264,159.3,511.926,159.206,511.879,159.427
					L511.879,159.427z"/>
				<path style="fill:#FFC09E;" d="M425.452,245.549c-0.967-1.16-2.834-0.6-4.579-2.356c-1.745-1.756-2.872-5.88-4.551-6.841
					c-1.678-0.961-15.368-4.822-15.998-1.72c-0.375,1.845,7.292,3.61,7.37,3.803c0.078,0.193-9.748-0.974-9.988,1.62
					c-0.24,2.594,11.197,2.46,11.247,2.735c0.049,0.274-8.829,1.094-8.491,3.526c0.338,2.432,8.867,0.767,9.009,0.988
					c0.141,0.221-6.431,3.376-5.859,5.01c0.571,1.634,8.774-1.874,8.986-1.542c0.213,0.332,0.725,4.172,2.893,6.272
					c2.167,2.101,8.698,2.004,10.011,0.058C426.814,255.158,426.709,247.059,425.452,245.549z"/>
				<g>
					<path style="fill:#FFC09E;" d="M568.727,149.136c19.973,3.923,13.072,34.774,7.821,48.049
						c-4.84,12.236-14.35,41.752-27.9,41.752c-19.846,0-44.944-61.955-44.944-61.955l10.665-8.046l33.016,42.217L568.727,149.136z"
						/>
					<path style="fill:#E24340;" d="M568.727,149.136l-11.39,8.506l-10.674,41.604c0,0,20.928,10.645,29.228,10.39
						C575.891,209.635,595.015,153.781,568.727,149.136z"/>
					<g>
						<polygon style="fill:#FFFFFF;" points="501.904,179.388 486.408,173.924 495.545,142.424 514.546,149.124 						"/>
						<polygon style="fill:#99201D;" points="501.421,175.578 489.174,171.259 495.419,149.131 510.437,154.426 						"/>
					</g>
					<g>
						<path style="fill:#FFC09E;" d="M506.488,179.388c-1.964-2.723-5.104-1.962-6.974-4.732c-2.19-3.244-0.761-7.917-2.398-9.227
							c-1.637-1.309-5.626-0.807-5.886-2.447c-0.286-1.804,1.142-2.109,1.142-2.109c-0.521-1.205,0.621-2.466,1.306-2.518
							c-0.237-2.009,2.143-2.503,2.143-2.503c-0.217-0.774-0.009-1.343,1.801-2.27c1.798-0.92,3.49-2.259,5.477-2.168
							c2.48,0.114,8.371,4.112,9.286,6.568c0.915,2.456,2.466,13.641,2.466,13.641L506.488,179.388z"/>
						<g>
							<path style="fill:#C06B5B;" d="M493.058,160.927c1.48-0.595,3.097-0.81,4.657-0.417c1.108,0.28,2.155,0.841,2.986,1.629
								c0.312,0.296,0.604,0.625,0.809,1.005c0.08,0.149,0.308,0.016,0.227-0.133c-0.437-0.809-1.216-1.454-1.987-1.926
								c-1.154-0.707-2.503-1.072-3.856-1.041c-1,0.023-1.98,0.256-2.905,0.629C492.833,160.736,492.901,160.99,493.058,160.927
								L493.058,160.927z"/>
							<path style="fill:#C06B5B;" d="M494.561,158.308c1.593-0.581,3.313-0.805,4.98-0.427c1.155,0.262,2.242,0.791,3.175,1.518
								c0.332,0.259,0.645,0.542,0.933,0.849c0.116,0.123,0.302-0.063,0.186-0.186c-1.612-1.711-3.916-2.702-6.272-2.63
								c-1.052,0.032-2.086,0.263-3.073,0.623C494.334,158.112,494.402,158.366,494.561,158.308L494.561,158.308z"/>
							<path style="fill:#C06B5B;" d="M496.837,155.87c1.556-0.806,3.332-1.269,5.08-0.919c1.218,0.244,2.344,0.859,3.221,1.736
								c0.359,0.36,0.68,0.763,0.921,1.212c0.08,0.149,0.307,0.016,0.227-0.133c-1.212-2.261-3.947-3.446-6.433-3.147
								c-1.107,0.133-2.162,0.512-3.149,1.023C496.554,155.721,496.687,155.948,496.837,155.87L496.837,155.87z"/>
						</g>
					</g>
				</g>
			</g>
			<path style="fill:#6B1515;" d="M556.746,159.376c-1.51,4.577-2.887,9.198-4.128,13.855c-1.241,4.657-2.346,9.351-3.314,14.072
				c-0.542,2.646-1.041,5.302-1.497,7.964c-0.038,0.221,0.3,0.316,0.338,0.093c0.814-4.751,1.764-9.478,2.852-14.173
				c1.088-4.695,2.313-9.359,3.673-13.983c0.762-2.592,1.567-5.171,2.413-7.736C557.155,159.255,556.816,159.163,556.746,159.376
				L556.746,159.376z"/>
			<g>
				<path style="fill:#470E0E;" d="M564.675,90.975c-1.619-2.294-4.275-3.924-7.083-3.957c-2.448-5.458-6.749-9.965-11.951-12.917
					c-5.202-2.952-11.361-4.191-17.299-3.47c-6.603,0.803-13.044,4.194-16.679,9.765c-3.634,5.571-4.003,13.359-0.16,18.788
					c-0.633,3.058-0.521,6.236,0.504,9.185c1.025,2.949,2.569,5.686,4.105,8.405l32.547,10.735
					c7.336-4.933,13.114-12.146,16.328-20.381c1.021-2.616,1.794-5.362,1.875-8.169C566.945,96.152,566.294,93.269,564.675,90.975z"
					/>
				<path style="fill:#FFC09E;" d="M556.069,120.682c0,0-6.703,13.693-7.005,31.995c-3.87,8.27-15.064,6.947-17.767-0.512
					c0.193-6.958-1.005-10.23-3.2-12.64c-0.182-0.202-0.364-0.38-0.554-0.573c-0.13-0.137-0.259-0.258-0.406-0.387
					c-0.259-0.242-0.559-0.465-0.842-0.714c-0.404-0.32-0.823-0.639-1.26-0.966l-0.009,0c-1.722-1.284-3.738-2.641-5.977-4.658
					c-3.264-2.916-5.688-6.913-6.622-13.148c-0.019-0.075-0.03-0.149-0.042-0.232c-0.02-0.091-0.031-0.182-0.043-0.274
					c-0.022-0.166-0.036-0.316-0.05-0.474c-0.019-0.074-0.022-0.141-0.032-0.207c-0.695-6.101-0.092-14.242,2.349-25.467
					c2.535-11.637,30.913-15.84,38.532-0.882C556.276,97.718,556.069,120.682,556.069,120.682z"/>
				<path style="fill:#470E0E;" d="M554.575,117.125c-3.67-4.599-5.171-10.857-3.987-16.62c-2.498-0.886-4.197-3.625-3.88-6.257
					c-7.664,1.664-15.631,1.92-23.386,0.751c-3.665-0.553-7.57-1.595-9.871-4.501c6.564-6.59,15.759-10.653,25.058-10.503
					c3.647,0.059,7.393,0.739,10.44,2.743c3.984,2.62,6.297,7.191,7.478,11.811C558.317,101.936,557.582,110.118,554.575,117.125z"
					/>
				<path style="fill:#C16B5B;" d="M530.008,121.998c-1.696,1.374-3.984,1.69-6.009,0.906c-0.758-0.294-1.148,0.906-0.394,1.198
					c2.452,0.95,5.215,0.477,7.25-1.17C531.487,122.42,530.637,121.488,530.008,121.998z"/>
				<g>
					<path style="fill:#C16B5B;" d="M525.726,115.96c-0.408-0.208-0.843-0.333-1.302-0.36c-0.409-0.024-0.859,0.03-1.198,0.276
						c-0.364,0.265-0.547,0.675-0.582,1.116c-0.034,0.422,0.104,0.838,0.261,1.223c0.084,0.207,0.283,0.38,0.523,0.305
						c0.198-0.062,0.396-0.301,0.305-0.523c-0.115-0.281-0.241-0.587-0.237-0.896c0.002-0.159,0.043-0.319,0.137-0.447
						c-0.005,0.008-0.01,0.016-0.016,0.024c0.087-0.136,0.254-0.186,0.404-0.213c0.011-0.002,0.023-0.004,0.04-0.006
						c0.032-0.001,0.064-0.005,0.097-0.006c0.085-0.004,0.171-0.002,0.257,0.003c0.044,0.003,0.087,0.007,0.13,0.011
						c0.023,0.002,0.025,0.002,0.032,0.002c0.007,0.002,0.008,0.002,0.027,0.006c0.267,0.048,0.494,0.157,0.746,0.246
						c0.19,0.067,0.423,0.011,0.523-0.174C525.977,116.355,525.939,116.068,525.726,115.96z"/>
					<path style="fill:#470E0E;" d="M516.25,105.212c2.248-1.219,4.975-1.338,7.271-0.153c0.562,0.29,0.874,1.034,0.557,1.617
						c-0.411,0.757-1.15,0.757-1.845,0.444c-0.619-0.279-1.286-0.45-1.963-0.504c0.002-0.037,0.06,0.027,0.022,0.025
						c-0.867-0.047-1.724,0.13-2.514,0.487c-0.047,0.021-0.093,0.043-0.168,0.079c-0.553,0.294-1.299,0.275-1.669-0.314
						C515.623,106.389,515.656,105.534,516.25,105.212z"/>
					<path style="fill:#470E0E;" d="M530.833,105.296c2.381-0.931,5.103-0.712,7.234,0.748c0.522,0.357,0.739,1.134,0.352,1.674
						c-0.374,0.523-1.115,0.735-1.674,0.353c-0.214-0.147-0.437-0.274-0.663-0.401c-0.022-0.011-0.018-0.009-0.032-0.017
						c-0.041-0.018-0.082-0.037-0.123-0.055c-0.089-0.038-0.179-0.074-0.27-0.108c-0.242-0.091-0.49-0.167-0.741-0.228
						c-0.063-0.015-0.466-0.136-0.156-0.038c-0.104-0.033-0.229-0.035-0.336-0.047c-0.241-0.027-0.483-0.042-0.726-0.043
						c-0.13,0-0.258,0.007-0.388,0.01c-0.014,0-0.019,0-0.029,0c-0.019,0.003-0.044,0.006-0.082,0.011
						c-0.24,0.03-0.479,0.073-0.714,0.13c-0.126,0.03-0.25,0.065-0.374,0.103c-0.049,0.015-0.098,0.032-0.146,0.048
						c-0.009,0.003-0.005,0.002-0.016,0.006c-0.003,0.001-0.007,0.001-0.011,0.002c-0.004,0.001-0.007,0.003-0.011,0.004
						c0.005-0.002,0.003-0.001,0.008-0.003c-0.585,0.223-1.323,0.112-1.617-0.518C530.066,106.386,530.204,105.542,530.833,105.296z
						"/>
					<path d="M534.656,111.681c-0.945-0.533-2.214-0.375-2.936,0.459c-0.401,0.464-0.638,1.052-0.62,1.669
						c0.009,0.293,0.252,0.575,0.561,0.561c0.297-0.013,0.57-0.247,0.561-0.561c-0.002-0.069,0.001-0.136,0.003-0.205
						c0.001-0.019,0-0.02-0.001-0.026c0.002-0.007,0.004-0.008,0.009-0.028c0.015-0.058,0.026-0.116,0.043-0.174
						c0.004-0.014,0.029-0.082,0.036-0.105c0.046-0.102,0.103-0.196,0.163-0.29c0.011-0.017,0.012-0.021,0.014-0.026
						c0.005-0.004,0.008-0.007,0.023-0.023c0.035-0.037,0.068-0.076,0.105-0.112c0.016-0.015,0.171-0.144,0.082-0.078
						c0.041-0.03,0.084-0.059,0.128-0.085c0.049-0.03,0.1-0.056,0.152-0.081c0.031-0.011,0.062-0.022,0.094-0.032
						c0.05-0.015,0.101-0.028,0.153-0.039c0.021-0.004,0.041-0.008,0.062-0.011c0.003,0,0.018-0.001,0.049-0.004
						c0.052,0,0.105-0.004,0.158-0.003c0.014,0,0.102,0.007,0.133,0.008c0.029,0.006,0.119,0.023,0.134,0.027
						c0.051,0.013,0.102,0.027,0.151,0.044c0.033,0.011,0.066,0.023,0.099,0.036c-0.045-0.019-0.05-0.02-0.014-0.003
						c0.055,0.028,0.109,0.056,0.161,0.089c0.012,0.007,0.061,0.042,0.075,0.051c0.047,0.039,0.092,0.08,0.134,0.123
						c0.028,0.029,0.055,0.06,0.081,0.092c0.006,0.012,0.057,0.085,0.065,0.099c0.031,0.051,0.058,0.104,0.086,0.157
						c0.01,0.019,0.01,0.018,0.014,0.025c0.002,0.008,0.001,0.008,0.008,0.03c0.034,0.105,0.063,0.211,0.081,0.32
						c0.002,0.025,0.007,0.069,0.007,0.082c0.003,0.068,0,0.136-0.003,0.205c-0.001,0.022,0,0.021,0.001,0.03
						c-0.002,0.008-0.003,0.006-0.007,0.024c-0.014,0.067-0.03,0.133-0.05,0.199c-0.084,0.281,0.101,0.624,0.392,0.69
						c0.302,0.069,0.6-0.091,0.69-0.392C536.041,113.4,535.596,112.212,534.656,111.681z"/>
					<path d="M520.331,111.004c-0.945-0.533-2.214-0.375-2.936,0.459c-0.401,0.463-0.638,1.052-0.62,1.669
						c0.008,0.293,0.252,0.575,0.561,0.561c0.297-0.013,0.57-0.247,0.561-0.561c-0.002-0.069,0.001-0.136,0.003-0.205
						c0.001-0.019,0-0.02-0.001-0.026c0.002-0.007,0.004-0.008,0.009-0.028c0.015-0.058,0.026-0.116,0.043-0.174
						c0.004-0.014,0.029-0.082,0.036-0.105c0.046-0.102,0.103-0.196,0.163-0.29c0.011-0.018,0.012-0.021,0.014-0.026
						c0.005-0.004,0.008-0.007,0.024-0.023c0.035-0.037,0.068-0.076,0.105-0.112c0.015-0.015,0.171-0.144,0.082-0.078
						c0.041-0.03,0.084-0.059,0.128-0.085c0.049-0.03,0.1-0.056,0.152-0.081c0.031-0.011,0.063-0.022,0.094-0.032
						c0.05-0.015,0.101-0.028,0.153-0.039c0.021-0.004,0.041-0.007,0.062-0.011c0.003,0,0.018-0.001,0.049-0.004
						c0.052,0,0.105-0.004,0.158-0.003c0.014,0,0.102,0.007,0.133,0.009c0.029,0.006,0.12,0.023,0.134,0.027
						c0.051,0.013,0.101,0.027,0.151,0.044c0.033,0.011,0.066,0.023,0.099,0.036c-0.045-0.019-0.05-0.02-0.014-0.003
						c0.055,0.028,0.109,0.056,0.161,0.089c0.012,0.007,0.061,0.042,0.075,0.051c0.047,0.039,0.092,0.08,0.134,0.123
						c0.028,0.029,0.055,0.06,0.081,0.092c0.006,0.012,0.057,0.085,0.065,0.099c0.031,0.051,0.059,0.104,0.086,0.157
						c0.01,0.019,0.01,0.018,0.014,0.025c0.002,0.008,0.001,0.008,0.008,0.03c0.034,0.105,0.063,0.211,0.081,0.32
						c0.002,0.026,0.007,0.069,0.007,0.082c0.003,0.069,0,0.136-0.003,0.205c-0.001,0.022,0,0.021,0.001,0.029
						c-0.002,0.008-0.003,0.006-0.006,0.024c-0.014,0.067-0.03,0.133-0.05,0.199c-0.084,0.281,0.101,0.624,0.391,0.69
						c0.302,0.069,0.6-0.091,0.69-0.392C521.715,112.722,521.271,111.534,520.331,111.004z"/>
				</g>
				<g>
					<path style="fill:#FFC09E;" d="M562.242,121.384c-2.505,2.816-6.348,3.488-8.584,1.5c-2.236-1.988-2.017-5.884,0.488-8.7
						c2.505-2.817,6.348-3.488,8.584-1.5C564.964,114.672,564.746,118.567,562.242,121.384z"/>
					<path style="fill:#C16B5B;" d="M561.108,114.051c-1.013-0.574-2.387-0.589-3.672-0.036c-0.641,0.274-1.109,0.619-1.435,1.05
						c-0.431,0.572-0.567,1.302-0.355,1.905c0.189,0.541,0.605,0.901,0.974,1.219c0.266,0.23,0.518,0.447,0.656,0.701
						c0.212,0.391,0.14,0.928-0.169,1.249c-0.308,0.32-0.841,0.411-1.241,0.213c-0.235-0.117-0.518-0.021-0.635,0.213
						c-0.116,0.233-0.021,0.518,0.213,0.635c0.256,0.128,0.536,0.193,0.819,0.201c0.562,0.016,1.131-0.195,1.526-0.606
						c0.593-0.616,0.727-1.607,0.317-2.358c-0.22-0.405-0.565-0.702-0.869-0.965c-0.305-0.263-0.593-0.512-0.699-0.816
						c-0.107-0.303-0.021-0.704,0.218-1.022c0.096-0.128,0.227-0.242,0.369-0.352c0.47,0.009,1.054,0.171,1.342,0.505
						c0.324,0.376,0.466,0.912,0.372,1.398c-0.05,0.257,0.118,0.504,0.374,0.555c0.025,0.005,0.051,0.008,0.077,0.008
						c0.227,0.007,0.433-0.152,0.477-0.383c0.152-0.775-0.067-1.596-0.583-2.197c-0.193-0.223-0.437-0.377-0.694-0.504
						c0.789-0.188,1.56-0.124,2.15,0.21c0.729,0.413,1.258,1.439,0.854,2.25c-0.116,0.234-0.02,0.518,0.213,0.635
						c0.234,0.116,0.517,0.022,0.635-0.213C562.93,116.365,562.365,114.764,561.108,114.051z"/>
				</g>
			</g>
		</g>
	</g>
	<g>
		<g>
			<path style="fill:#470E0E;" d="M300.007,329.383h-60.414c-8.769,0-15.878,7.109-15.878,15.878h92.17
				C315.885,336.492,308.776,329.383,300.007,329.383z"/>
			<polygon style="fill:#8F2A05;" points="269.8,345.261 264.185,345.261 268.251,448.855 269.8,448.855 271.349,448.855 
				275.415,345.261 			"/>
			<polygon style="fill:#D1580C;" points="230.444,345.261 218.971,448.855 222.166,448.855 240.61,345.261 			"/>
			<polygon style="fill:#D1580C;" points="309.156,345.261 320.629,448.855 317.434,448.855 298.99,345.261 			"/>
		</g>
		<g>
			<path style="fill:#470E0E;" d="M255.278,122.548c-3.458,8.203-1.901,18.004-5.303,26.234
				c-3.417,8.266-11.509,14.12-13.176,22.966c-1.303,6.918,1.872,14.167,6.813,18.915c4.941,4.748,11.408,7.339,17.891,9.045
				c8.876,2.336,18.41,3.167,27.06,0.027c8.65-3.141,16.193-10.898,17.414-20.469c1.309-10.261-4.555-20.421-3.252-30.683
				c0.784-6.176,4.084-11.816,3.981-18.129c-0.089-5.44-2.481-10.417-6.575-13.72c-10.228-8.251-28.149-10.765-38.872-2.142
				C258.672,116.673,256.602,119.408,255.278,122.548z"/>
			<g>
				<path style="fill:#FF8A15;" d="M351.504,326.857c-4.458,0.921-47.223,9.546-65.707,1.624
					c-20.207-8.66-25.799-48.352-25.799-48.352l39.821-2.646l2.487,5.292c0,0,69.764,7.821,76.646,30.43
					c9.538,31.332-38.583,113.166-38.583,113.166s-2.335,2.902-20.889-0.041C319.479,426.331,333.462,340.389,351.504,326.857z"/>
				<path style="fill:#8F2A05;" d="M446.255,448.855h-66.014c-3.368-9.119,2.559-22.524,2.559-22.524
					c19.232,2.101,20.889,0.041,20.889,0.041c8.086,4.826,17.738,6.582,28.728,7.749
					C443.408,435.288,446.255,441.254,446.255,448.855z"/>
				<path style="fill:#8F2A05;" d="M382.934,448.855H316.92c-3.368-9.119,2.559-22.524,2.559-22.524
					c19.232,2.101,20.889,0.041,20.889,0.041c8.086,4.826,17.738,6.582,28.728,7.749
					C380.087,435.288,382.934,441.254,382.934,448.855z"/>
				<path style="fill:#FF8A15;" d="M226.734,282.083c0,33.949,15.943,52.893,43.894,53.885c47.974,1.703,89.175-3.157,89.175-3.157
					c-2.83,40.052,22.998,93.52,22.998,93.52c5.373,3.545,20.889,0.041,20.889,0.041s-9.608-96.989-22.598-118.639
					c-10.017-16.695-90.641-19.936-90.641-19.936l-7.181-8.66L226.734,282.083z"/>
				<g>
					<path style="fill:#6B1515;" d="M301.297,288.86c3.813,0.166,7.622,0.406,11.425,0.721c3.803,0.316,7.6,0.706,11.388,1.171
						c3.81,0.468,7.61,1.011,11.398,1.63c3.766,0.615,7.521,1.304,11.26,2.067c3.739,0.763,7.463,1.6,11.17,2.509
						c0.456,0.112,0.912,0.225,1.368,0.34c0.219,0.055,0.312-0.283,0.093-0.338c-3.72-0.932-7.458-1.791-11.213-2.575
						c-3.736-0.78-7.487-1.487-11.25-2.12c-3.76-0.632-7.533-1.19-11.315-1.674c-3.804-0.487-7.618-0.899-11.438-1.236
						c-3.82-0.336-7.647-0.597-11.478-0.782c-0.469-0.023-0.939-0.044-1.409-0.064C301.071,288.5,301.072,288.85,301.297,288.86
						L301.297,288.86z"/>
					<path style="fill:#6B1515;" d="M345.801,334.4c4.489,0.119,8.997-0.667,13.18-2.298c1.173-0.458,2.321-0.981,3.436-1.566
						c0.2-0.105,0.023-0.408-0.177-0.303c-3.935,2.065-8.282,3.334-12.71,3.71c-1.24,0.105-2.485,0.14-3.729,0.107
						C345.575,334.043,345.575,334.394,345.801,334.4L345.801,334.4z"/>
					<path style="fill:#6B1515;" d="M359.631,331.685c-0.272,2.842-0.436,5.693-0.488,8.548c-0.053,2.868,0.005,5.738,0.173,8.602
						c0.166,2.838,0.442,5.669,0.822,8.486c0.382,2.829,0.872,5.643,1.47,8.435c0.598,2.791,1.302,5.56,2.113,8.297
						c0.103,0.347,0.208,0.694,0.314,1.04c0.066,0.215,0.405,0.123,0.338-0.093c-0.833-2.716-1.563-5.463-2.185-8.235
						c-0.626-2.785-1.144-5.594-1.555-8.419c-0.41-2.823-0.711-5.662-0.903-8.509c-0.193-2.848-0.276-5.703-0.25-8.558
						c0.026-2.84,0.16-5.68,0.404-8.51c0.031-0.361,0.064-0.721,0.099-1.082C360.003,331.461,359.652,331.462,359.631,331.685
						L359.631,331.685z"/>
					<path style="fill:#6B1515;" d="M360.25,332.019c2.064,0.294,4.174,0.088,6.138-0.616c0.211-0.076,0.12-0.414-0.093-0.338
						c-1.901,0.682-3.951,0.901-5.952,0.617C360.123,331.65,360.027,331.987,360.25,332.019L360.25,332.019z"/>
					<g>
						<g>
							<path style="fill:#6B1515;" d="M366.427,331.709c0.716,0,0.717-1.113,0-1.113
								C365.711,330.596,365.71,331.709,366.427,331.709L366.427,331.709z"/>
						</g>
					</g>
				</g>
			</g>
			<g>
				<g>
					<path style="fill:#FFC09E;" d="M294.156,186.096c17.064,7.197,23.198,49.254,23.198,49.254l30.13-38.449l10.284,6.314
						c0,0-28.419,58.281-42.556,58.27c-16.659-0.012-22.935-39.812-22.935-39.812L294.156,186.096z"/>
					<path style="fill:#845584;" d="M294.156,186.096c14.839,6.475,21.056,29.929,21.056,29.929
						c-7.89,6.777-24.98,5.737-24.98,5.737L294.156,186.096z"/>
					<g>
						<g>
							<path style="fill:#FFC09E;" d="M347.269,198.6c1.117-1.885-3.307-13.568-0.914-14.726c2.189-1.059,5.221,3.366,4.994,6.118
								c1.974-2.861,6.299-16.222,8.938-14.954c1.952,0.938-2.43,10.613-2.43,10.613s6.306-10.666,8.608-9.01
								c2.302,1.656-5.422,11.71-5.422,11.71s7.056-8.14,8.667-6.513c1.584,1.6-6.423,9.44-6.423,9.44s7.221-5.228,8.056-4.256
								c0.835,0.972-2.825,5.181-6.526,7.545c-2.325,7.239-8.42,10.236-8.42,10.236L347.269,198.6z"/>
						</g>
					</g>
				</g>
				<g>
					<g>
						<g>
							<g>
								<g>
									<g>
										<g>
											<g>
												<g>
													<g>
														<g>
															<g>
																<g>
																	<g>
																		<g>
																			<g>
																				<g>
																					<g>
																						<g>
																							<g>
																								<g>
																									<g>
																										<g>
																											<path style="fill:#845584;" d="M225.934,283.377c72.927,20.627,76.012-2.104,76.012-2.104l-7.536-43.973
																												c12.382-2.457,10.059-24.669,1.313-31.51l-0.987-12.415l-0.245-3.07l-0.335-4.21l-12.254-5.733
																												l-16.592-1.693l-14.429,3.191l-0.862,7.053l-6.851,47.964
																												C226.734,254.27,225.934,283.377,225.934,283.377z"/>
																										</g>
																									</g>
																								</g>
																							</g>
																						</g>
																					</g>
																				</g>
																			</g>
																		</g>
																	</g>
																</g>
															</g>
														</g>
													</g>
												</g>
											</g>
										</g>
									</g>
								</g>
							</g>
						</g>
					</g>
				</g>
				<g>
					<path style="fill:#653F64;" d="M294.441,190.043c0.086,3.981,0.173,7.962,0.259,11.943c0.024,1.131,0.049,2.262,0.074,3.393
						c0.005,0.225,0.355,0.226,0.35,0c-0.086-3.981-0.173-7.962-0.259-11.943c-0.025-1.131-0.049-2.262-0.074-3.393
						C294.787,189.818,294.436,189.817,294.441,190.043L294.441,190.043z"/>
					<path style="fill:#653F64;" d="M294.861,205.53c2.605,1.668,4.741,4.016,6.163,6.764c0.104,0.2,0.406,0.023,0.303-0.177
						c-1.125-2.174-2.697-4.114-4.594-5.662c-0.541-0.441-1.107-0.851-1.695-1.227C294.847,205.105,294.671,205.409,294.861,205.53
						L294.861,205.53z"/>
				</g>
				<g>
					<g>
						<path style="fill:#FFC09E;" d="M301.304,150.428c-0.008,0.115-0.027,0.231-0.036,0.347c-0.018,0.137-0.027,0.252-0.045,0.388
							c-0.816,6.492-3.227,10.571-6.538,13.586c-1.774,1.625-3.419,2.818-4.867,3.882c-0.465,0.344-0.9,0.666-1.324,0.988
							c-0.331,0.247-0.641,0.504-0.961,0.772c-3.233,2.647-5.078,5.584-4.778,14.089c-2.635,7.364-13.678,8.767-17.546,0.63
							c-0.248-10.299-2.513-19.116-4.439-24.783c-0.488-1.48-0.961-2.739-1.367-3.749c-0.769-1.936-1.312-2.995-1.312-2.995
							s-0.323-22.645,2.722-28.769c7.418-14.776,35.433-10.814,38.008,0.659C301.293,136.435,301.94,144.432,301.304,150.428z"/>
						<path style="fill:#470E0E;" d="M301.587,132.569c-2.99-2.724-5.307-6.18-6.691-9.98c-4.672,7.533-13.923,11.95-22.719,10.846
							c0.558,4.402-1.858,8.849-5.45,11.455c-3.592,2.606-8.177,3.555-12.613,3.453c-1.008-7.277-0.156-14.96,2.031-21.972
							c0.906-2.904,2.139-5.819,4.355-7.903c1.65-1.552,3.745-2.546,5.867-3.341c7.662-2.868,16.18-3.401,24.14-1.509
							c2.612,0.621,5.242,1.541,7.23,3.346c2.052,1.863,3.239,4.527,3.799,7.242C302.095,126.921,301.606,129.798,301.587,132.569z"
							/>
						<path style="fill:#8E4136;" d="M283.75,153.938c0.294-0.172,0.744-0.083,0.906,0.237c0.409,0.811,1.43,1.171,2.25,1.4
							c1.004,0.28,2.07,0.343,3.099,0.163c0.352-0.061,0.713,0.095,0.814,0.462c0.088,0.319-0.108,0.752-0.462,0.814
							c-1.301,0.228-2.634,0.181-3.906-0.193c-1.115-0.328-2.387-0.885-2.939-1.979C283.352,154.524,283.429,154.126,283.75,153.938
							z"/>
						<g>
							<path style="fill:#C16B5B;" d="M288.512,148.413c0.404-0.197,0.833-0.312,1.284-0.331c0.401-0.017,0.843,0.043,1.171,0.291
								c0.353,0.266,0.525,0.672,0.553,1.106c0.026,0.415-0.116,0.821-0.276,1.196c-0.086,0.201-0.284,0.368-0.519,0.29
								c-0.194-0.064-0.383-0.302-0.291-0.519c0.117-0.274,0.246-0.572,0.248-0.875c0.001-0.156-0.036-0.315-0.127-0.441
								c0.005,0.008,0.01,0.016,0.015,0.024c-0.083-0.135-0.246-0.187-0.393-0.216c-0.011-0.002-0.023-0.004-0.039-0.006
								c-0.032-0.001-0.063-0.006-0.095-0.008c-0.084-0.005-0.168-0.005-0.252-0.001c-0.043,0.002-0.085,0.005-0.128,0.009
								c-0.022,0.002-0.025,0.002-0.031,0.002c-0.007,0.001-0.008,0.002-0.027,0.005c-0.263,0.043-0.487,0.145-0.736,0.229
								c-0.188,0.063-0.415,0.004-0.511-0.179C288.258,148.797,288.301,148.516,288.512,148.413z"/>
							<path style="fill:#470E0E;" d="M298.039,138.501c-2.007-1.507-4.639-2.015-7.039-1.194c-0.587,0.201-0.997,0.879-0.773,1.49
								c0.29,0.794,1.008,0.901,1.727,0.697c1.477-0.419,3.034-0.18,4.325,0.649c0.043,0.027,0.084,0.056,0.152,0.101
								c0.495,0.365,1.222,0.454,1.666-0.064C298.478,139.734,298.57,138.898,298.039,138.501z"/>
							<path style="fill:#470E0E;" d="M283.567,137.55c-2.397-0.743-5.047-0.335-7.03,1.246c-0.485,0.387-0.643,1.163-0.226,1.664
								c0.404,0.485,1.144,0.641,1.664,0.226c0.589-0.47,1.268-0.805,1.992-1.012c-0.031,0.014-0.062,0.027-0.094,0.041
								c0.904-0.236,1.812-0.198,2.716,0.005c0.617,0.139,1.337,0.072,1.597-0.609C284.396,138.563,284.201,137.746,283.567,137.55z
								"/>
							<g>
								<g>
									<path d="M278.899,145.829c-0.054,1.059,0.76,1.962,1.819,2.017c1.059,0.055,1.962-0.76,2.017-1.819
										c0.055-1.059-0.76-1.962-1.819-2.017C279.857,143.956,278.954,144.77,278.899,145.829z"/>
									<path style="fill:#FFFFFF;" d="M280.962,145.321c-0.016,0.309,0.221,0.572,0.53,0.588c0.309,0.016,0.572-0.221,0.588-0.53
										c0.016-0.309-0.221-0.572-0.53-0.588C281.241,144.775,280.978,145.012,280.962,145.321z"/>
								</g>
								<g>
									<path d="M292.915,145.698c-0.055,1.059,0.76,1.962,1.819,2.017c1.059,0.055,1.962-0.76,2.017-1.819
										s-0.76-1.962-1.819-2.017C293.873,143.824,292.97,144.638,292.915,145.698z"/>
									<path style="fill:#FFFFFF;" d="M294.977,145.189c-0.016,0.309,0.222,0.572,0.53,0.588c0.309,0.016,0.572-0.221,0.588-0.53
										c0.016-0.309-0.222-0.572-0.53-0.588C295.256,144.643,294.993,144.88,294.977,145.189z"/>
								</g>
							</g>
						</g>
						<g>
							<path style="fill:#FFC09E;" d="M252.016,154.318c2.488,2.762,6.283,3.4,8.476,1.425c2.192-1.975,1.952-5.816-0.535-8.578
								c-2.489-2.762-6.283-3.401-8.476-1.425C249.289,147.715,249.528,151.556,252.016,154.318z"/>
							<path style="fill:#C16B5B;" d="M253.089,147.078c0.996-0.573,2.351-0.596,3.621-0.058c0.634,0.267,1.098,0.603,1.422,1.027
								c0.428,0.561,0.567,1.281,0.362,1.876c-0.183,0.535-0.591,0.892-0.952,1.208c-0.261,0.228-0.508,0.444-0.643,0.696
								c-0.207,0.387-0.133,0.916,0.174,1.231c0.306,0.314,0.832,0.4,1.225,0.202c0.231-0.117,0.511-0.024,0.628,0.206
								c0.116,0.23,0.024,0.511-0.206,0.628c-0.252,0.127-0.528,0.194-0.806,0.204c-0.554,0.019-1.117-0.186-1.509-0.588
								c-0.589-0.604-0.726-1.581-0.328-2.324c0.215-0.401,0.553-0.696,0.851-0.957c0.299-0.261,0.581-0.509,0.684-0.808
								c0.103-0.3,0.016-0.695-0.222-1.007c-0.096-0.126-0.225-0.237-0.366-0.345c-0.464,0.012-1.038,0.176-1.32,0.506
								c-0.317,0.373-0.454,0.902-0.358,1.381c0.051,0.253-0.113,0.499-0.365,0.549c-0.025,0.005-0.051,0.008-0.076,0.009
								c-0.224,0.008-0.428-0.147-0.473-0.374c-0.155-0.764,0.055-1.575,0.562-2.17c0.189-0.221,0.429-0.375,0.681-0.502
								c-0.779-0.181-1.539-0.112-2.119,0.221c-0.716,0.411-1.232,1.426-0.828,2.224c0.116,0.23,0.024,0.511-0.206,0.628
								c-0.23,0.116-0.51,0.024-0.628-0.206C251.306,149.372,251.853,147.79,253.089,147.078z"/>
						</g>
					</g>
				</g>
				<path style="fill:#FF8A15;" d="M325.18,208.142c-3.845,3.492-10.471,0.533-15.981-5.535c-5.51-6.068-7.817-12.947-3.972-16.439
					c3.845-3.492,12.388-2.273,17.897,3.795C328.634,196.031,329.025,204.65,325.18,208.142z"/>
				<g>
					<path style="fill:#FFC09E;" d="M250.881,181.86c-20.307,4.095-7.85,41.339-6.381,45.69c1.469,4.351,9.145,33.039,22.067,33.923
						c13.441,0.919,48.645-49.418,48.645-49.418l-9.849-7.818l-36.059,33.197L250.881,181.86z"/>
					<path style="fill:#845584;" d="M250.881,181.86c-22.293,4.764-11.503,39.812-11.503,39.812
						c8.155,1.087,23.31-8.174,23.31-8.174L250.881,181.86z"/>
					<path style="fill:#653F64;" d="M255.156,186.713c1.771,2.802,3.272,5.773,4.586,8.813c1.376,3.184,2.548,6.463,3.475,9.807
						c0.488,1.759,0.906,3.539,1.226,5.337c0.039,0.222,0.377,0.128,0.338-0.093c-0.585-3.288-1.488-6.518-2.578-9.673
						c-1.135-3.284-2.481-6.5-4.052-9.6c-0.826-1.628-1.716-3.225-2.692-4.768C255.338,186.346,255.035,186.521,255.156,186.713
						L255.156,186.713z"/>
					<g>
						<path style="fill:#FFC09E;" d="M314.036,212.861c3.698-0.893,4.296-8.485,4.296-8.485c1.753-1.286,4.827-1.137,6.294-1.942
							c1.466-0.804,1.031-2.864-0.427-3.138c1.365-1.187-0.192-2.445-0.721-2.633c1.686-1.596-0.77-5.232-9.543-1.922
							c4.042-3.582,6.015-2.398,7.771-3.526c1.756-1.128,1.251-3.166-2.094-2.941c-3.345,0.225-9.701,3.833-10.457,6.22
							c-1.564,4.945-4.265,10.346-4.265,10.346L314.036,212.861z"/>
						<path style="fill:#C06B5B;" d="M323.197,196.459c-2.8,0.073-5.56,0.82-8.015,2.168c-0.148,0.081-0.016,0.309,0.133,0.227
							c2.415-1.326,5.128-2.06,7.882-2.132C323.366,196.717,323.367,196.454,323.197,196.459L323.197,196.459z"/>
						<path style="fill:#C06B5B;" d="M323.65,199.312c-1.971,0.286-3.878,0.919-5.632,1.862c-0.149,0.08-0.017,0.307,0.133,0.227
							c1.735-0.933,3.621-1.552,5.57-1.835C323.887,199.541,323.816,199.288,323.65,199.312L323.65,199.312z"/>
					</g>
				</g>
			</g>
		</g>
	</g>
	<g>
		<g>
			<path style="fill:#470E0E;" d="M96.683,343.149h60.414c8.769,0,15.878,7.109,15.878,15.878h-92.17
				C80.805,350.258,87.914,343.149,96.683,343.149z"/>
			<polygon style="fill:#8F2A05;" points="126.89,359.027 132.505,359.027 128.439,462.621 126.89,462.621 125.341,462.621 
				121.275,359.027 			"/>
			<polygon style="fill:#D1580C;" points="166.246,359.027 177.719,462.621 174.524,462.621 156.08,359.027 			"/>
			<polygon style="fill:#D1580C;" points="87.534,359.027 76.061,462.621 79.256,462.621 97.7,359.027 			"/>
		</g>
		<g>
			<g>
				<path style="fill:#470E0E;" d="M355.079,431.978l-58.47,30.643c-7.216-6.513-8.189-21.138-8.189-21.138
					c18.01-7.066,18.521-9.66,18.521-9.66c9.402,0.522,18.766-2.404,29.042-6.472C346.259,421.283,351.55,425.245,355.079,431.978z"
					/>
				<path style="fill:#6B1515;" d="M169.002,285.596l2.345,5.653c0,0,70.861,2.667,86.239,21.048
					c14.112,16.869,53.894,117.271,53.894,117.271c-6.946,9.742-28.957,15.426-28.957,15.426l-55.428-109.062
					c0,0-37.527,14.614-73.069,11.547c-35.542-3.067-42.217-60.62-42.217-60.62L169.002,285.596z"/>
				<path style="fill:#470E0E;" d="M257.897,462.621h-66.014c-3.368-9.119,2.559-22.524,2.559-22.524
					c19.232,2.101,20.889,0.041,20.889,0.041c8.086,4.826,17.738,6.582,28.728,7.749
					C255.049,449.054,257.897,455.02,257.897,462.621z"/>
				<path style="fill:#6B1515;" d="M85.56,291.25c-4.059,17.35-2.18,51.899,35.715,59.838c37.895,7.939,86.878-6.766,86.878-6.766
					l-16.598,96.132c11.637,4.272,31.453,1.083,31.453,1.083s35.495-113.286,23.083-130.561
					c-14.173-19.726-88.453-15.492-88.453-15.492l-3.248-3.633L85.56,291.25z"/>
				<path style="fill:#470E0E;" d="M170.868,295.401c4.963-0.189,9.932-0.2,14.895-0.029c4.939,0.171,9.871,0.52,14.784,1.047
					c4.971,0.533,9.923,1.249,14.842,2.146c4.506,0.822,9.048,1.7,13.443,3.004c3.872,1.149,7.724,2.761,10.767,5.483
					c3.115,2.786,4.989,6.574,6.063,10.563c1.036,3.845,1.416,7.849,1.642,11.814c0.193,3.376,0.192,6.761-0.025,10.136
					c-0.228,3.545-0.686,7.071-1.27,10.574c-0.698,4.19-1.561,8.352-2.46,12.503c-0.255,1.179-0.514,2.357-0.775,3.535
					c-0.049,0.22,0.289,0.314,0.338,0.093c0.983-4.437,1.946-8.881,2.765-13.352c0.663-3.622,1.225-7.266,1.563-10.934
					c0.314-3.396,0.424-6.809,0.318-10.218c-0.118-3.83-0.409-7.7-1.126-11.468c-0.76-3.996-2.107-7.97-4.64-11.205
					c-2.513-3.209-6.07-5.325-9.83-6.769c-4.101-1.575-8.455-2.468-12.749-3.338c-4.883-0.99-9.801-1.799-14.743-2.431
					c-4.999-0.639-10.023-1.094-15.056-1.362c-5.008-0.267-10.027-0.351-15.041-0.25c-1.235,0.025-2.47,0.062-3.704,0.109
					C170.643,295.059,170.642,295.41,170.868,295.401L170.868,295.401z"/>
			</g>
			<g>
				<path style="fill:#F0A57D;" d="M232.236,249.307c0.714-1.309,2.629-1.123,3.983-3.157c1.354-2.034,1.655-6.243,3.096-7.495
					c1.441-1.252,13.957-7.611,15.161-4.728c0.716,1.715-6.369,4.891-6.408,5.093c-0.039,0.202,9.251-2.809,9.98-0.344
					c0.729,2.466-10.37,4.526-10.366,4.801c0.005,0.275,8.758-0.631,8.896,1.788c0.139,2.419-8.438,2.44-8.533,2.682
					c-0.095,0.242,6.873,2.038,6.632,3.729c-0.24,1.691-8.853-0.135-8.996,0.228c-0.142,0.362,0.097,4.178-1.6,6.627
					c-1.696,2.449-8.038,3.605-9.682,1.973C232.756,258.871,231.307,251.01,232.236,249.307z"/>
				<path style="fill:#C13A30;" d="M153.645,178.049c20.279,8.568,26.292,60.949,26.292,60.949l55.057,5.442
					c4.384,7.848,1.84,17.637,1.84,17.637s-61.829,0.477-70.441-5.098c-12.137-7.855-12.911-49.434-12.911-49.434L153.645,178.049z"
					/>
				<g>
					<g>
						<g>
							<g>
								<g>
									<g>
										<g>
											<path style="fill:#C13A30;" d="M170.427,287.917c-1.555,11.64-54.106,12.473-87.276,4.463l13.354-116.625l19.767-4.783
												l17.327,0.404l20.046,6.673L170.427,287.917z"/>
										</g>
									</g>
								</g>
							</g>
						</g>
					</g>
				</g>
				<g>
					<path style="fill:#FCB447;" d="M126.653,194.094c-1.364,0-1.366,2.12,0,2.12C128.017,196.214,128.02,194.094,126.653,194.094z"
						/>
					<path style="fill:#FCB447;" d="M134.592,193.673c-1.364,0-1.366,2.12,0,2.12C135.956,195.793,135.958,193.673,134.592,193.673z
						"/>
					<path style="fill:#FCB447;" d="M127.812,207.806c-1.364,0-1.366,2.12,0,2.12C129.176,209.926,129.179,207.806,127.812,207.806z
						"/>
					<path style="fill:#FCB447;" d="M135.751,207.385c-1.364,0-1.366,2.12,0,2.12C137.115,209.505,137.117,207.385,135.751,207.385z
						"/>
					<path style="fill:#FCB447;" d="M128.971,221.517c-1.364,0-1.366,2.12,0,2.12C130.335,223.637,130.338,221.517,128.971,221.517z
						"/>
					<path style="fill:#FCB447;" d="M136.91,221.096c-1.364,0-1.366,2.12,0,2.12C138.274,223.216,138.276,221.096,136.91,221.096z"
						/>
				</g>
				<path style="fill:#FCB447;" d="M134.582,230.116c-0.439-9.068-1.14-18.123-2.1-27.15c-0.542-5.098-1.169-10.186-1.874-15.263
					c-0.053-0.378-0.536-0.585-0.869-0.494c-0.408,0.112-0.546,0.49-0.493,0.869c1.247,8.987,2.233,18.011,2.959,27.055
					c0.724,9.02,1.19,18.061,1.396,27.108c0.116,5.091,0.149,10.183,0.101,15.275c-0.008,0.91,1.405,0.91,1.413,0
					C135.201,248.38,135.024,239.242,134.582,230.116z"/>
				<g>
					<polygon style="fill:#FFFFFF;" points="204.141,208.632 187.698,209.575 183.959,176.911 204.121,175.755 					"/>
					<polygon style="fill:#99201D;" points="202.22,205.295 189.225,206.04 186.438,183.161 202.373,182.248 					"/>
				</g>
				<path style="fill:#F0A57D;" d="M205.329,200.711c0.252-0.923,1.097-3.205-1.459-5.607c0,0-1.843,6.347-13.82,4.572
					c0,0,1.078-7.384-2.05-7.663c-3.128-0.279-4.842,10.398-9.613,12.983l8.544,16.084c6.554,0.755,15.754-0.045,16.535-6.297
					c0,0,4.132-2.049,1.492-6.799C204.958,207.984,207.948,203.816,205.329,200.711z"/>
				<path style="fill:#C13A30;" d="M96.504,175.755c-13.871,3.104-17.36,18.379-5.868,51.25c4.167,11.92,9.136,29.072,24.231,32.38
					c13.293,2.913,75.334-36.238,75.334-36.238s-5.092-16.143-10.685-19.931l-58.996,29.949L96.504,175.755z"/>
				<g>
					<path style="fill:#6B1515;" d="M98.705,182.438c1.279,3.367,2.584,6.724,3.915,10.071c1.34,3.369,2.705,6.728,4.095,10.077
						c1.387,3.34,2.798,6.67,4.234,9.989c1.44,3.329,2.906,6.648,4.396,9.955c1.482,3.287,2.988,6.563,4.519,9.827
						c0.188,0.4,0.376,0.8,0.565,1.2c0.096,0.204,0.398,0.026,0.303-0.177c-1.529-3.243-3.033-6.497-4.513-9.763
						c-1.489-3.287-2.954-6.586-4.393-9.896c-1.45-3.334-2.876-6.679-4.276-10.034c-1.397-3.348-2.769-6.706-4.115-10.075
						c-1.332-3.333-2.639-6.675-3.92-10.028c-0.158-0.413-0.315-0.826-0.472-1.24C98.964,182.135,98.625,182.226,98.705,182.438
						L98.705,182.438z"/>
					<path style="fill:#6B1515;" d="M172.546,206.45c-3.972,2.009-7.944,4.017-11.916,6.026c-3.972,2.009-7.944,4.017-11.916,6.026
						c-3.972,2.009-7.944,4.017-11.916,6.026c-3.705,1.874-7.437,3.705-11.079,5.701c-3.471,1.902-6.857,3.987-9.943,6.474
						c-0.389,0.313-0.773,0.634-1.152,0.96c-0.171,0.147,0.078,0.394,0.248,0.248c3.022-2.599,6.38-4.769,9.846-6.724
						c3.572-2.015,7.257-3.827,10.916-5.677c3.955-2,7.909-4,11.864-6c3.955-2,7.909-4,11.864-6c3.955-2,7.91-4,11.864-6
						c0.499-0.252,0.997-0.504,1.496-0.756C172.924,206.651,172.747,206.348,172.546,206.45L172.546,206.45z"/>
					<path style="fill:#6B1515;" d="M119.574,233.225c-2.797,0.174-5.567,0.689-8.238,1.537c-0.214,0.068-0.123,0.407,0.093,0.338
						c2.642-0.839,5.378-1.352,8.145-1.525C119.798,233.562,119.799,233.211,119.574,233.225L119.574,233.225z"/>
					<path style="fill:#6B1515;" d="M177.695,230.679c-6.44,3.639-12.933,7.187-19.475,10.64
						c-6.518,3.44-13.085,6.786-19.699,10.036c-3.268,1.606-6.526,3.269-9.888,4.672c-3.202,1.336-6.588,2.415-10.08,2.541
						c-6.284,0.227-11.972-3.023-16.124-7.552c-4.542-4.954-7.166-11.305-9.487-17.519c-0.295-0.79-0.586-1.581-0.877-2.372
						c-0.077-0.21-0.416-0.119-0.338,0.093c2.334,6.348,4.725,12.856,8.93,18.244c3.65,4.675,8.849,8.518,14.848,9.316
						c7.058,0.939,13.748-2.523,19.895-5.508c6.78-3.292,13.511-6.684,20.191-10.174c6.655-3.477,13.26-7.052,19.81-10.722
						c0.825-0.462,1.649-0.926,2.472-1.391C178.068,230.871,177.892,230.568,177.695,230.679L177.695,230.679z"/>
					<path style="fill:#6B1515;" d="M153.769,180.184c0.551,4.345,1.101,8.69,1.652,13.035c0.55,4.345,1.101,8.69,1.651,13.035
						c0.31,2.45,0.621,4.899,0.931,7.349c0.028,0.221,0.379,0.224,0.351,0c-0.55-4.345-1.101-8.69-1.651-13.035
						c-0.551-4.345-1.101-8.69-1.651-13.035c-0.31-2.449-0.621-4.899-0.931-7.349C154.091,179.963,153.74,179.96,153.769,180.184
						L153.769,180.184z"/>
					<path style="fill:#6B1515;" d="M162.169,239.411c0.616,4.264,1.233,8.528,1.849,12.792c0.176,1.218,0.352,2.437,0.528,3.655
						c0.032,0.222,0.37,0.128,0.338-0.093c-0.616-4.264-1.233-8.528-1.849-12.792c-0.176-1.218-0.352-2.437-0.528-3.655
						C162.475,239.095,162.137,239.189,162.169,239.411L162.169,239.411z"/>
				</g>
				<g>
					<path style="fill:#470E0E;" d="M157.688,103.713c0.039-2.626-1.049-5.336-3.165-6.893c-1.753-1.29-3.999-1.689-6.17-1.85
						c-4.964-0.368-10.111,0.456-14.79,2.156c0.113-1.251-0.82-2.414-1.96-2.942c-1.14-0.527-2.444-0.544-3.699-0.484
						c-5.97,0.286-11.858,2.136-16.919,5.314c-1.494,0.938-2.932,2.004-4.07,3.353c-1.138,1.349-1.684,2.912-1.815,4.672
						c-4.018,3.216-6.023,8.501-6.075,13.648s1.66,10.173,3.997,14.759c2.566,5.037,5.909,9.676,9.874,13.705l33.921-11.054
						c2.664-4.085,5.348-8.209,7.089-12.764c1.741-4.556,2.495-9.611,1.177-14.307C156.586,108.872,157.648,106.339,157.688,103.713
						z"/>
					<path style="fill:#F0A57D;" d="M109.405,144.806c0,0,6.703,13.693,7.005,31.995c3.87,8.27,15.064,6.947,17.767-0.512
						c-0.193-6.958,1.005-10.23,3.2-12.641c0.182-0.202,0.364-0.38,0.554-0.573c0.13-0.137,0.26-0.258,0.406-0.387
						c0.259-0.242,0.559-0.465,0.842-0.714c0.403-0.32,0.823-0.639,1.26-0.966l0.008,0c1.722-1.284,3.738-2.641,5.978-4.658
						c3.264-2.916,5.689-6.913,6.622-13.148c0.019-0.074,0.03-0.149,0.042-0.232c0.02-0.091,0.031-0.182,0.043-0.274
						c0.022-0.166,0.036-0.316,0.05-0.474c0.019-0.074,0.022-0.141,0.032-0.207c0.695-6.101,0.092-14.242-2.349-25.467
						c-2.535-11.637-30.913-15.84-38.532-0.882C109.198,121.842,109.405,144.806,109.405,144.806z"/>
					<path style="fill:#470E0E;" d="M152.818,113.141c-4.86,3.376-10.63,5.43-16.531,5.883c-5.901,0.453-11.916-0.695-17.236-3.289
						c-0.643,9.294-4.266,18.358-10.205,25.535c-0.76-3.494-1.549-7.159-1.775-10.727c-0.227-3.568,0.101-7.226,1.456-10.535
						c1.793-4.382,5.292-7.901,9.266-10.474c3.975-2.573,8.435-4.285,12.888-5.894c3.678-1.329,7.567-2.62,11.427-1.989
						C147.463,102.528,152.608,107.717,152.818,113.141z"/>
					<path style="fill:#C16B5B;" d="M135.465,146.122c1.696,1.374,3.984,1.69,6.009,0.906c0.758-0.294,1.148,0.906,0.394,1.198
						c-2.452,0.95-5.215,0.477-7.25-1.17C133.986,146.544,134.836,145.612,135.465,146.122z"/>
					<g>
						<path style="fill:#C16B5B;" d="M139.748,140.083c0.408-0.208,0.843-0.333,1.301-0.36c0.408-0.024,0.859,0.03,1.198,0.277
							c0.364,0.264,0.547,0.675,0.582,1.116c0.034,0.422-0.104,0.838-0.261,1.223c-0.084,0.206-0.283,0.38-0.523,0.305
							c-0.198-0.062-0.395-0.301-0.305-0.523c0.114-0.281,0.241-0.587,0.237-0.896c-0.002-0.159-0.043-0.32-0.137-0.447
							c0.005,0.008,0.01,0.016,0.015,0.024c-0.087-0.136-0.254-0.186-0.404-0.213c-0.012-0.002-0.023-0.004-0.04-0.006
							c-0.032-0.001-0.064-0.005-0.097-0.006c-0.085-0.004-0.171-0.003-0.257,0.003c-0.044,0.003-0.087,0.007-0.13,0.011
							c-0.023,0.002-0.025,0.002-0.032,0.002c-0.007,0.001-0.008,0.002-0.027,0.006c-0.267,0.048-0.494,0.156-0.745,0.246
							c-0.19,0.067-0.423,0.011-0.523-0.174C139.496,140.479,139.535,140.192,139.748,140.083z"/>
						<path style="fill:#470E0E;" d="M149.224,129.336c-2.248-1.219-4.975-1.338-7.271-0.153c-0.562,0.29-0.874,1.034-0.557,1.617
							c0.411,0.757,1.15,0.757,1.845,0.444c0.619-0.279,1.286-0.45,1.963-0.504c-0.002-0.037-0.06,0.027-0.022,0.025
							c0.867-0.047,1.724,0.13,2.514,0.487c0.047,0.021,0.093,0.043,0.168,0.079c0.554,0.294,1.299,0.275,1.669-0.313
							C149.85,130.513,149.818,129.658,149.224,129.336z"/>
						<path style="fill:#470E0E;" d="M134.641,129.419c-2.381-0.932-5.103-0.712-7.234,0.748c-0.522,0.357-0.739,1.135-0.352,1.674
							c0.374,0.523,1.115,0.735,1.674,0.353c0.215-0.147,0.437-0.274,0.663-0.401c0.023-0.011,0.018-0.009,0.032-0.016
							c0.041-0.018,0.082-0.037,0.123-0.055c0.089-0.038,0.179-0.074,0.27-0.108c0.242-0.09,0.49-0.167,0.741-0.227
							c0.063-0.015,0.466-0.136,0.156-0.038c0.104-0.033,0.229-0.035,0.336-0.047c0.241-0.027,0.483-0.042,0.726-0.043
							c0.13,0,0.258,0.007,0.387,0.01c0.014,0,0.019,0,0.029,0c0.019,0.003,0.044,0.006,0.082,0.011
							c0.24,0.03,0.479,0.073,0.714,0.13c0.126,0.031,0.25,0.065,0.374,0.103c0.049,0.015,0.098,0.032,0.146,0.048
							c0.009,0.003,0.005,0.002,0.016,0.006c0.003,0.001,0.007,0.001,0.011,0.002c0.004,0.001,0.007,0.003,0.011,0.004
							c-0.005-0.002-0.003-0.001-0.008-0.003c0.585,0.223,1.323,0.112,1.617-0.518C135.408,130.51,135.27,129.665,134.641,129.419z"
							/>
						<g>
							<path d="M129.81,137.585c-0.058,1.056,0.752,1.959,1.808,2.016c1.056,0.058,1.959-0.752,2.016-1.808
								c0.057-1.056-0.752-1.959-1.808-2.016C130.77,135.719,129.867,136.529,129.81,137.585z"/>
							<path style="fill:#FFFFFF;" d="M131.951,137.169c-0.015,0.273,0.195,0.507,0.467,0.521c0.273,0.015,0.507-0.194,0.521-0.467
								c0.015-0.273-0.194-0.506-0.467-0.521C132.199,136.686,131.966,136.896,131.951,137.169z"/>
						</g>
						<g>
							<path d="M144.422,136.937c-0.057,1.056,0.752,1.959,1.808,2.016c1.056,0.057,1.959-0.752,2.016-1.808
								c0.057-1.056-0.752-1.959-1.808-2.016C145.383,135.072,144.48,135.881,144.422,136.937z"/>
							<path style="fill:#FFFFFF;" d="M146.564,136.522c-0.015,0.273,0.195,0.506,0.467,0.521c0.273,0.015,0.506-0.194,0.521-0.468
								c0.015-0.273-0.195-0.506-0.468-0.521C146.812,136.039,146.579,136.249,146.564,136.522z"/>
						</g>
					</g>
					<g>
						<g>
							<g>
								<g>
									<path style="fill:#470E0E;" d="M148.817,144.951c-2.473,0-4.454-0.755-5.9-2.249c-3.033-3.135-2.509-8.347-2.484-8.568
										c0.044-0.405,0.371-0.72,0.777-0.749l14.653-1.025c0.417-0.03,0.802,0.259,0.884,0.673
										c0.046,0.231,1.099,5.685-1.539,9.159c-1.237,1.63-3.059,2.545-5.413,2.721
										C149.461,144.939,149.136,144.951,148.817,144.951z M142.073,135.012c-0.023,1.396,0.155,4.563,2.059,6.525
										c1.267,1.307,3.126,1.875,5.538,1.699c1.85-0.138,3.261-0.83,4.194-2.056c1.676-2.202,1.51-5.606,1.339-7.087
										L142.073,135.012z"/>
								</g>
							</g>
							<g>
								<g>
									<path style="fill:#470E0E;" d="M131.196,146.015c-2.473,0-4.455-0.755-5.901-2.25c-3.033-3.135-2.509-8.347-2.484-8.567
										c0.044-0.405,0.371-0.72,0.777-0.749l14.653-1.025c0.411-0.029,0.802,0.259,0.884,0.673
										c0.046,0.231,1.099,5.685-1.539,9.16c-1.237,1.629-3.059,2.545-5.413,2.721
										C131.839,146.002,131.513,146.015,131.196,146.015z M124.451,136.075c-0.023,1.396,0.155,4.564,2.059,6.526
										c1.267,1.306,3.121,1.873,5.538,1.699c1.85-0.139,3.261-0.831,4.194-2.057c1.676-2.201,1.51-5.606,1.339-7.087
										L124.451,136.075z"/>
								</g>
							</g>
							<g>
								<path style="fill:#470E0E;" d="M123.765,139.244c-0.021,0-0.044-0.001-0.066-0.003l-15.755-1.195
									c-0.463-0.035-0.81-0.439-0.775-0.902c0.036-0.464,0.439-0.822,0.904-0.775l15.755,1.195
									c0.463,0.035,0.81,0.439,0.775,0.902C124.569,138.908,124.201,139.244,123.765,139.244z"/>
							</g>
							<g>
								<path style="fill:#470E0E;" d="M138.602,138.28c-0.289,0-0.572-0.15-0.728-0.42c-0.233-0.402-0.095-0.916,0.305-1.149
									c1.038-0.603,2.341-0.741,3.485-0.374c0.442,0.142,0.685,0.616,0.542,1.059c-0.14,0.443-0.616,0.683-1.058,0.543
									c-0.698-0.227-1.495-0.14-2.124,0.228C138.891,138.244,138.747,138.28,138.602,138.28z"/>
							</g>
						</g>
					</g>
					<g>
						<path style="fill:#F0A57D;" d="M103.232,145.508c2.505,2.817,6.348,3.488,8.584,1.5c2.236-1.988,2.017-5.883-0.488-8.7
							c-2.505-2.817-6.348-3.488-8.584-1.5C100.509,138.796,100.727,142.691,103.232,145.508z"/>
						<path style="fill:#C16B5B;" d="M104.366,138.174c1.014-0.574,2.387-0.589,3.672-0.036c0.641,0.275,1.109,0.619,1.435,1.051
							c0.431,0.572,0.567,1.302,0.355,1.905c-0.189,0.541-0.605,0.901-0.973,1.218c-0.266,0.23-0.518,0.447-0.657,0.701
							c-0.212,0.391-0.14,0.928,0.169,1.249c0.308,0.32,0.841,0.411,1.241,0.213c0.235-0.117,0.518-0.021,0.635,0.213
							c0.116,0.233,0.021,0.518-0.213,0.635c-0.256,0.128-0.536,0.193-0.819,0.201c-0.562,0.016-1.131-0.196-1.526-0.606
							c-0.593-0.616-0.726-1.607-0.317-2.358c0.221-0.405,0.565-0.703,0.869-0.965c0.305-0.263,0.593-0.512,0.699-0.816
							c0.107-0.303,0.021-0.704-0.218-1.022c-0.096-0.128-0.226-0.242-0.369-0.352c-0.47,0.01-1.054,0.172-1.342,0.505
							c-0.324,0.376-0.466,0.912-0.372,1.398c0.05,0.257-0.118,0.505-0.374,0.555c-0.026,0.005-0.051,0.008-0.077,0.009
							c-0.227,0.007-0.433-0.152-0.477-0.383c-0.152-0.775,0.066-1.596,0.583-2.197c0.193-0.223,0.437-0.377,0.694-0.504
							c-0.789-0.188-1.56-0.124-2.15,0.21c-0.729,0.413-1.258,1.439-0.854,2.25c0.116,0.234,0.021,0.518-0.213,0.635
							c-0.234,0.116-0.517,0.022-0.635-0.213C102.543,140.488,103.109,138.888,104.366,138.174z"/>
					</g>
				</g>
				<path style="fill:#C13A30;" d="M109.727,172.555l4.368-5.472c0,0,4.619,8.346,12.317,10.03l2.887,4.931l1.684-5.352
					c2.887-1.504,4.39-8.239,4.39-8.239l4.124,4.887c0,0,3.333,9.787-8.755,10.749C118.655,185.051,110.001,176.958,109.727,172.555
					z"/>
			</g>
		</g>
	</g>
	<g>
		<g>
			<path style="fill:#470E0E;" d="M658.788,343.149h-60.414c-8.769,0-15.878,7.109-15.878,15.878h92.17
				C674.666,350.258,667.557,343.149,658.788,343.149z"/>
			<polygon style="fill:#8F2A05;" points="628.581,359.027 622.966,359.027 627.032,462.621 628.581,462.621 630.13,462.621 
				634.197,359.027 			"/>
			<polygon style="fill:#D1580C;" points="589.225,359.027 577.752,462.621 580.947,462.621 599.391,359.027 			"/>
			<polygon style="fill:#D1580C;" points="667.937,359.027 679.41,462.621 676.215,462.621 657.772,359.027 			"/>
		</g>
		<g>
			<g>
				<path style="fill:#653F64;" d="M552.923,337.915c4.459,0.921,42.006,12.254,60.49,4.332
					c20.207-8.66,25.799-48.352,25.799-48.352l-39.821-2.646l-2.487,5.292c0,0-80.882-5.292-85.473,20.518
					c-6.857,38.543,95.345,104.409,95.345,104.409s11.306-2.565,17.902-10.764C624.678,410.705,569.03,342.013,552.923,337.915z"/>
				<path style="fill:#FF8A15;" d="M484.247,462.621h66.014c3.368-9.119-2.559-22.524-2.559-22.524
					c-19.232,2.101-20.889,0.041-20.889,0.041c-8.086,4.826-17.738,6.582-28.728,7.749
					C487.094,449.054,484.247,455.02,484.247,462.621z"/>
				<path style="fill:#FF8A15;" d="M581.799,462.621l56.642-33.903c-1.793-9.554-13.764-18.013-13.764-18.013
					c-15.423,11.68-17.902,10.764-17.902,10.764c-4.459,8.294-11.839,14.757-20.67,21.403
					C577.274,449.518,577.896,456.099,581.799,462.621z"/>
				<path style="fill:#653F64;" d="M672.476,295.849c9.819,36.423-15.943,52.893-43.894,53.885
					c-47.974,1.703-85.386-14.831-85.386-14.831c10.103,22.552,4.507,105.193,4.507,105.193c-5.373,3.544-20.889,0.041-20.889,0.041
					s-26.995-107.087-12.742-130c10.284-16.532,94.687-8.575,94.687-8.575l7.181-8.66L672.476,295.849z"/>
				<path style="fill:#845584;" d="M605.913,298.831c-2.518,0.865-5.036,1.73-7.554,2.595c-0.212,0.073-0.121,0.412,0.093,0.338
					c2.518-0.865,5.036-1.73,7.554-2.595C606.219,299.096,606.128,298.757,605.913,298.831L605.913,298.831z"/>
				<g>
					<g>
						<path style="fill:#845584;" d="M526.409,303.772c10.212-2.205,20.625-3.332,31.061-3.684
							c10.366-0.349,20.744,0.046,31.085,0.791c5.865,0.422,11.721,0.958,17.573,1.537c0.178,0.018,0.177-0.261,0-0.278
							c-10.458-1.034-20.936-1.932-31.441-2.291c-10.374-0.355-20.78-0.179-31.108,0.913c-5.791,0.612-11.55,1.515-17.243,2.744
							C526.16,303.541,526.234,303.81,526.409,303.772L526.409,303.772z"/>
					</g>
				</g>
				<g>
					<g>
						<path style="fill:#845584;" d="M554.69,338.156c-6.913-1.661-13.464-5.578-18.44-10.628c-0.126-0.128-0.323,0.069-0.197,0.197
							c5.009,5.083,11.603,9.027,18.563,10.699C554.79,338.467,554.864,338.198,554.69,338.156L554.69,338.156z"/>
					</g>
				</g>
				<g>
					<g>
						<path style="fill:#845584;" d="M541.475,332.342c2.992,4.293,4.386,9.421,5.06,14.554c0.726,5.524,0.857,11.137,1.175,16.695
							c0.183,3.187,0.366,6.374,0.548,9.562c0.01,0.178,0.289,0.179,0.278,0c-0.332-5.795-0.665-11.59-0.997-17.385
							c-0.308-5.359-0.621-10.791-2.205-15.955c-0.828-2.7-2.002-5.29-3.62-7.611C541.614,332.056,541.373,332.195,541.475,332.342
							L541.475,332.342z"/>
					</g>
				</g>
			</g>
			<g>
				<path style="fill:#470E0E;" d="M671.246,169.193c-1.592-4.628-4.508-8.758-5.71-13.503c-1.071-4.227-0.711-8.662-0.747-13.023
					c-0.036-4.361-0.555-8.945-3.078-12.501c-2.088-2.943-5.927-4.859-9.353-4.239c-6.759-3.292-13.826-6.141-21.294-6.413
					c-8.627-0.314-17.968,3.642-21.52,11.509c-3.861,8.552-0.045,18.957-3.363,27.733c-2.264,5.989-7.577,10.43-9.868,16.409
					c-2.877,7.508-0.305,16.373,5.057,22.364c5.362,5.991,13.09,9.423,20.939,11.169c8.306,1.847,17.092,1.964,25.249-0.456
					c8.158-2.42,15.641-7.489,20.272-14.627C672.461,186.477,674.014,177.239,671.246,169.193z"/>
				<g>
					<path style="fill:#F0A57D;" d="M616.876,197.474c-16.813,5.08-40.963,42.384-40.963,42.384l-42.517-35.024l-8.787,9.669
						c0,0,38.065,46.97,52.783,46.97c13.712,0,38.622-38.051,38.622-38.051L616.876,197.474z"/>
					<path style="fill:#F0A57D;" d="M533.411,207.138c-1.374-1.905,3.855-9.829,2.393-11.553c-1.462-1.725-6.458,3.595-6.458,3.595
						c-4.808-4.023-10.369-6.444-11.986-5.634c-1.617,0.81-4.335,10-1.913,14.631c1.975,3.776,9.435,6.54,9.435,6.54
						L533.411,207.138z"/>
					<g>
						<polygon style="fill:#FFFFFF;" points="529.528,215.836 514.087,213.902 516.196,182.911 535.13,185.283 						"/>
						<polygon style="fill:#99201D;" points="528.313,212.408 516.11,210.879 517.432,189.143 532.395,191.018 						"/>
					</g>
					<g>
						<path style="fill:#F0A57D;" d="M512.557,194.057c1.142-4.506,10.268,0.323,9.885,1.741
							C521.845,198.016,511.586,197.892,512.557,194.057z"/>
						<path style="fill:#F0A57D;" d="M511.942,197.362c1.14-4.498,11.358,0.667,10.976,2.083
							C522.322,201.658,510.973,201.189,511.942,197.362z"/>
						<path style="fill:#F0A57D;" d="M512.355,201.095c1.045-4.127,9.403,0.296,9.053,1.594
							C520.86,204.72,511.465,204.606,512.355,201.095z"/>
						<path style="fill:#F0A57D;" d="M512.692,204.271c0.969-3.823,8.711,0.274,8.387,1.477
							C520.571,207.629,511.867,207.524,512.692,204.271z"/>
					</g>
					<path style="fill:#FF8A15;" d="M616.876,197.474c-16.692,4.839-26.976,19.605-26.976,19.605
						c6.675,9.771,22.372,16.368,22.372,16.368l7.583-10.026L616.876,197.474z"/>
				</g>
				<g>
					<g>
						<g>
							<g>
								<g>
									<g>
										<g>
											<g>
												<g>
													<g>
														<g>
															<g>
																<g>
																	<g>
																		<g>
																			<g>
																				<g>
																					<g>
																						<g>
																							<g>
																								<g>
																									<g>
																										<g>
																											<path style="fill:#FF8A15;" d="M672.476,295.849c-74.759,12.446-73.854-4.64-73.854-4.64l12.346-42.871
																												c-12.035-3.81-7.273-25.629,2.175-31.462l2.352-12.23l0.582-3.025l0.798-4.147l12.812-4.345l16.677,0.15
																												l13.989,4.765l0.078,7.105l1.512,48.427C668.591,276.798,672.476,295.849,672.476,295.849z"/>
																										</g>
																									</g>
																								</g>
																							</g>
																						</g>
																					</g>
																				</g>
																			</g>
																		</g>
																	</g>
																</g>
															</g>
														</g>
													</g>
												</g>
											</g>
										</g>
									</g>
								</g>
							</g>
						</g>
					</g>
				</g>
				<path style="fill:#6B1515;" d="M616.434,198.839c-1.422,4.488-2.324,9.137-2.682,13.831c-0.101,1.316-0.157,2.636-0.172,3.956
					c-0.003,0.226,0.348,0.226,0.351,0c0.054-4.677,0.646-9.342,1.767-13.883c0.317-1.282,0.676-2.553,1.075-3.811
					C616.84,198.717,616.502,198.624,616.434,198.839L616.434,198.839z"/>
				<path style="fill:#6B1515;" d="M613.588,216.537c-2.415,1.584-4.523,3.6-6.216,5.94c-0.133,0.183,0.172,0.358,0.303,0.177
					c1.656-2.289,3.728-4.265,6.091-5.814C613.953,216.716,613.778,216.413,613.588,216.537L613.588,216.537z"/>
				<g>
					<g>
						<path style="fill:#F0A57D;" d="M611.463,164.194c0.008,0.116,0.027,0.231,0.036,0.347c0.018,0.137,0.027,0.252,0.045,0.389
							c0.816,6.492,3.227,10.571,6.538,13.586c1.774,1.626,3.419,2.819,4.867,3.882c0.466,0.344,0.9,0.666,1.324,0.988
							c0.331,0.247,0.641,0.504,0.961,0.772c3.233,2.647,5.078,5.584,4.778,14.089c2.635,7.364,13.678,8.767,17.545,0.63
							c0.248-10.299,2.513-19.116,4.439-24.783c0.488-1.48,0.961-2.739,1.367-3.749c0.768-1.936,1.312-2.995,1.312-2.995
							s0.323-22.645-2.722-28.768c-7.418-14.776-35.433-10.814-38.008,0.659C611.473,150.202,610.827,158.198,611.463,164.194z"/>
						<path style="fill:#470E0E;" d="M610.285,148.137c5.445-1.48,10.244-5.202,13.031-10.109
							c3.687,6.34,10.969,10.417,18.301,10.246c-0.326,1.857,0.418,3.814,1.78,5.118c1.361,1.305,3.389,1.874,5.23,1.469
							c-0.407,2.465,0.336,5.095,1.973,6.982c1.637,1.887,4.136,2.995,6.633,2.94c1.277-5.44,1.877-11.175,1.094-16.707
							c-0.596-4.213-1.851-8.457-4.514-11.775c-2.99-3.724-7.536-5.966-12.213-6.936c-4.677-0.97-9.515-0.77-14.27-0.322
							c-4.25,0.401-8.77,1.126-11.914,4.014c-1.962,1.802-3.183,4.295-3.872,6.868C610.855,142.499,610.467,145.48,610.285,148.137z
							"/>
						<path style="fill:#8E4136;" d="M629.016,167.704c-0.294-0.172-0.744-0.083-0.906,0.237c-0.409,0.811-1.43,1.171-2.25,1.4
							c-1.004,0.28-2.07,0.343-3.099,0.163c-0.352-0.061-0.713,0.095-0.814,0.462c-0.088,0.319,0.108,0.752,0.462,0.814
							c1.301,0.228,2.634,0.181,3.906-0.193c1.115-0.328,2.387-0.885,2.938-1.979C629.414,168.29,629.338,167.892,629.016,167.704z"
							/>
						<g>
							<path style="fill:#C16B5B;" d="M624.255,162.18c-0.404-0.197-0.833-0.312-1.283-0.331c-0.401-0.017-0.843,0.043-1.172,0.291
								c-0.353,0.266-0.525,0.672-0.553,1.105c-0.026,0.415,0.116,0.821,0.276,1.196c0.086,0.201,0.284,0.368,0.519,0.291
								c0.193-0.064,0.383-0.302,0.29-0.519c-0.117-0.274-0.246-0.572-0.248-0.876c-0.001-0.155,0.037-0.314,0.127-0.441
								c-0.005,0.008-0.01,0.016-0.015,0.024c0.083-0.135,0.246-0.187,0.393-0.215c0.011-0.002,0.023-0.004,0.039-0.007
								c0.031-0.001,0.063-0.006,0.095-0.007c0.084-0.005,0.168-0.005,0.252-0.002c0.043,0.002,0.086,0.005,0.128,0.009
								c0.023,0.002,0.025,0.001,0.031,0.002c0.007,0.001,0.008,0.002,0.027,0.005c0.263,0.043,0.487,0.145,0.736,0.229
								c0.188,0.063,0.415,0.004,0.511-0.179C624.508,162.564,624.466,162.283,624.255,162.18z"/>
							<path style="fill:#2B1B10;" d="M614.727,152.267c2.007-1.507,4.639-2.015,7.039-1.194c0.587,0.201,0.997,0.879,0.773,1.49
								c-0.29,0.794-1.008,0.901-1.727,0.697c-1.477-0.419-3.034-0.181-4.325,0.649c-0.043,0.027-0.084,0.056-0.152,0.101
								c-0.495,0.365-1.222,0.454-1.666-0.064C614.289,153.499,614.197,152.665,614.727,152.267z"/>
							<path style="fill:#470E0E;" d="M629.199,151.316c2.398-0.743,5.047-0.335,7.03,1.246c0.485,0.387,0.643,1.163,0.226,1.664
								c-0.404,0.485-1.144,0.64-1.664,0.226c-0.59-0.47-1.268-0.805-1.992-1.012c0.031,0.014,0.062,0.027,0.094,0.041
								c-0.904-0.236-1.812-0.198-2.716,0.005c-0.617,0.138-1.337,0.072-1.597-0.609
								C628.371,152.329,628.566,151.512,629.199,151.316z"/>
							<g>
								<g>
									<path d="M633.867,159.596c0.055,1.059-0.76,1.962-1.819,2.017c-1.059,0.055-1.962-0.76-2.017-1.819
										c-0.055-1.059,0.76-1.962,1.819-2.017C632.91,157.722,633.813,158.536,633.867,159.596z"/>
									<path style="fill:#FFFFFF;" d="M631.805,159.087c0.016,0.309-0.221,0.572-0.53,0.588c-0.309,0.016-0.572-0.221-0.588-0.53
										c-0.016-0.309,0.221-0.572,0.53-0.588C631.526,158.541,631.789,158.778,631.805,159.087z"/>
								</g>
								<g>
									<path d="M619.852,159.464c0.055,1.059-0.76,1.962-1.819,2.017c-1.059,0.055-1.962-0.76-2.017-1.819
										c-0.055-1.059,0.76-1.962,1.819-2.017C618.894,157.59,619.797,158.404,619.852,159.464z"/>
									<path style="fill:#FFFFFF;" d="M617.79,158.955c0.016,0.309-0.221,0.572-0.53,0.588c-0.309,0.016-0.572-0.221-0.588-0.53
										c-0.016-0.309,0.221-0.572,0.53-0.588C617.51,158.409,617.773,158.646,617.79,158.955z"/>
								</g>
							</g>
						</g>
						<g>
							<path style="fill:#F0A57D;" d="M660.75,168.084c-2.488,2.762-6.283,3.4-8.476,1.425c-2.192-1.975-1.952-5.816,0.536-8.578
								c2.489-2.762,6.283-3.401,8.476-1.426C663.478,161.482,663.238,165.322,660.75,168.084z"/>
							<path style="fill:#C16B5B;" d="M659.678,160.844c-0.996-0.573-2.351-0.596-3.621-0.058c-0.634,0.267-1.098,0.603-1.422,1.027
								c-0.429,0.561-0.567,1.281-0.362,1.876c0.183,0.535,0.591,0.892,0.952,1.208c0.261,0.228,0.508,0.444,0.643,0.696
								c0.207,0.387,0.133,0.916-0.174,1.231c-0.306,0.314-0.833,0.4-1.225,0.202c-0.231-0.117-0.511-0.024-0.628,0.206
								c-0.115,0.23-0.024,0.511,0.206,0.628c0.252,0.128,0.528,0.194,0.806,0.204c0.554,0.019,1.117-0.186,1.509-0.588
								c0.589-0.604,0.726-1.581,0.328-2.324c-0.215-0.401-0.553-0.696-0.851-0.957c-0.299-0.261-0.581-0.509-0.684-0.808
								c-0.104-0.3-0.016-0.695,0.222-1.007c0.096-0.126,0.225-0.237,0.366-0.345c0.464,0.012,1.038,0.175,1.32,0.506
								c0.317,0.374,0.454,0.902,0.358,1.381c-0.051,0.253,0.113,0.499,0.365,0.549c0.025,0.006,0.051,0.008,0.076,0.009
								c0.224,0.008,0.427-0.147,0.473-0.374c0.155-0.764-0.055-1.575-0.562-2.17c-0.189-0.221-0.429-0.375-0.681-0.502
								c0.779-0.181,1.539-0.112,2.119,0.221c0.716,0.411,1.232,1.426,0.828,2.224c-0.116,0.23-0.024,0.511,0.206,0.628
								c0.231,0.116,0.51,0.024,0.628-0.206C661.461,163.138,660.913,161.556,659.678,160.844z"/>
						</g>
					</g>
				</g>
				<g>
					<path style="fill:#FF8A15;" d="M587.957,184.217c-0.692-1.686-2.141-3.117-3.925-3.491c-2.044-0.428-4.146,0.559-5.74,1.909
						c-1.07,0.905-2.247,2.066-3.624,1.81c-1.302-0.241-2.022-1.646-2.35-2.93c-0.328-1.283-0.512-2.707-1.454-3.638
						c-0.94-0.93-2.464-1.098-3.701-0.631c-1.237,0.467-2.206,1.477-2.889,2.611c-0.682,1.133-1.111,2.396-1.561,3.639
						c-0.288,0.795-0.63,1.641-1.344,2.095c-0.829,0.527-1.911,0.367-2.854,0.094c-0.943-0.273-1.91-0.645-2.878-0.482
						c-1.226,0.206-2.187,1.278-2.52,2.475c-0.333,1.198-0.124,2.489,0.306,3.656c0.7,1.901,1.988,3.581,3.642,4.751l29.494-1.32
						c0.694-1.685,1.392-3.383,1.746-5.171C588.657,187.807,588.649,185.902,587.957,184.217z"/>
					<path style="fill:#D1580C;" d="M586.688,185.349c-3.569-1.826-7.896-1.838-11.698-0.567c-2.33,0.778-4.53,2.037-6.2,3.839
						c-1.67,1.802-2.779,4.171-2.841,6.627l26.888-0.28C592.895,190.959,590.257,187.175,586.688,185.349z"/>
					<g>
						<g>
							<g>
								<path style="fill:#6B1515;" d="M551.785,193.091L551.785,193.091c0,10.745,8.711,19.456,19.456,19.456h8.888
									c10.745,0,19.456-8.711,19.456-19.456l0,0H551.785z"/>
							</g>
						</g>
					</g>
				</g>
				<g>
					<path style="fill:#F0A57D;" d="M660.354,198.044c19.513,7.036,8.121,27.423,1.108,40.092
						c-5.636,10.182-14.187,25.428-24.651,25.428c-12.992,0-53.766-41.947-53.766-41.947l8.571-11.982l43.63,32.249L660.354,198.044
						z"/>
					<path style="fill:#F0A57D;" d="M591.704,209.826c0,0-1.978-4.45-5.006-5.6c-3.865-1.467-10.73-1.597-11.416,0.619
						c-0.686,2.215,5.963,3.832,5.963,3.832s-6.3,3.774-9.465,3.085c-3.164-0.69-7.979-7.114-9.839-6.725
						c-1.86,0.389-1.175,3.397-1.175,3.397s-2.075,1.505-0.527,4.324c1.549,2.819,4.554,5.501,9.461,6.681
						c4.907,1.18,11.367,0.464,13.418,2.17L591.704,209.826z"/>
					<path style="fill:#FF8A15;" d="M660.354,198.044c21.799,7.276,7.005,38.067,7.005,38.067
						c-7.457,0.24-23.935-13.231-23.935-13.231L660.354,198.044z"/>
					<path style="fill:#6B1515;" d="M654.348,201.739c-1.516,2.531-3.032,5.063-4.462,7.645c-1.437,2.594-2.786,5.24-3.952,7.968
						c-0.66,1.544-1.263,3.112-1.809,4.7c-0.073,0.214,0.265,0.306,0.338,0.093c0.969-2.82,2.128-5.569,3.446-8.243
						c1.298-2.633,2.732-5.196,4.214-7.729c0.833-1.425,1.681-2.84,2.529-4.256C654.767,201.722,654.464,201.546,654.348,201.739
						L654.348,201.739z"/>
				</g>
			</g>
		</g>
	</g>
	<g>
		<g>
			<rect x="170.427" y="261.473" style="fill:#470E0E;" width="438.317" height="11.392"/>
			<rect x="179.431" y="270.443" style="fill:#8F2A05;" width="420.309" height="8.66"/>
			<polygon style="fill:#8F2A05;" points="185.337,279.103 170.427,462.621 174.106,462.621 197.342,279.103 			"/>
			<polygon style="fill:#8F2A05;" points="593.834,279.103 608.744,462.621 605.065,462.621 581.829,279.103 			"/>
			<path style="fill:#FFFFFF;" d="M542.901,261.263c0,0-10.302,8.169-25.449,19.952c-1.265,0.982-2.562,1.989-3.886,3.024
				c-5.745,4.452-12.059,9.331-18.683,14.412c-1.297,0.996-2.604,1.996-3.922,3.003c-6.123,4.689-12.468,9.511-18.839,14.309
				c-1.322,0.993-2.643,1.989-3.964,2.978c-6.444,4.837-12.871,9.614-19.086,14.161c-1.353,0.993-2.699,1.971-4.028,2.94
				c-6.939,5.045-13.546,9.755-19.531,13.885c-1.431,0.982-2.827,1.936-4.18,2.855c-11.642,7.872-20.358,13.055-23.63,13.44
				c-3.381,0.396-13.793-4.678-27.901-12.786c-1.477-0.848-2.993-1.728-4.544-2.639c-6.519-3.826-13.687-8.19-21.216-12.882
				c-1.445-0.901-2.904-1.813-4.378-2.738c-6.72-4.219-13.68-8.663-20.69-13.193c-1.431-0.922-2.865-1.852-4.3-2.784
				c-6.851-4.445-13.712-8.942-20.404-13.362c-1.424-0.94-2.841-1.88-4.25-2.812c-7.045-4.667-13.854-9.215-20.217-13.483
				c-1.424-0.961-2.83-1.904-4.208-2.834c-21.605-14.543-37.066-25.223-37.066-25.223l49.878-0.035l8.13-0.007l20.683-0.014
				l8.702-0.007l11.105-0.007l8.25-0.004l22.485-0.018l8.554-0.007l9.854-0.007l8.384-0.004l23.156-0.018l8.409-0.007l9.744-0.007
				l8.529-0.004l22.701-0.018l8.271-0.007l10.772-0.007l8.681-0.004l21.114-0.014l8.14-0.007L542.901,261.263z"/>
			<g style="opacity:0.3;">
				<path style="fill:#FF6666;" d="M425.512,349.928c-1.431,0.982-2.827,1.936-4.18,2.855c-0.438-0.258-0.88-0.52-1.318-0.781
					c-28.541-16.98-56.76-34.505-84.63-52.563c-19.157-12.412-38.151-25.078-56.979-37.988l8.13-0.007
					c5.045,3.445,10.105,6.868,15.175,10.274c27.569,18.521,55.492,36.512,83.746,53.965
					C398.734,333.888,412.086,341.968,425.512,349.928z"/>
				<path style="fill:#FF6666;" d="M449.071,333.103c-1.353,0.993-2.699,1.971-4.028,2.94
					c-28.251-16.821-56.181-34.173-83.775-52.05c-11.472-7.434-22.888-14.959-34.243-22.577l8.25-0.004
					c25.071,16.712,50.432,32.989,76.065,48.825C423.852,317.967,436.43,325.588,449.071,333.103z"/>
				<path style="fill:#FF6666;" d="M472.122,315.964c-1.322,0.993-2.643,1.989-3.964,2.978
					c-27.308-16.302-54.312-33.109-81.005-50.4c-3.667-2.374-7.328-4.763-10.984-7.162l8.384-0.004
					c17.426,11.349,34.982,22.485,52.672,33.413C448.803,301.941,460.434,308.996,472.122,315.964z"/>
				<path style="fill:#FF6666;" d="M494.882,298.651c-1.297,0.996-2.604,1.996-3.922,3.003
					c-21.895-13.115-43.599-26.552-65.098-40.31l8.529-0.004c9.532,6.063,19.107,12.062,28.721,17.998
					C473.655,285.851,484.247,292.288,494.882,298.651z"/>
				<path style="fill:#FF6666;" d="M517.452,281.215c-1.265,0.982-2.562,1.989-3.886,3.024c-12.539-7.54-25.018-15.182-37.43-22.93
					l8.681-0.004c1.392,0.862,2.788,1.724,4.18,2.586C498.444,269.729,507.93,275.502,517.452,281.215z"/>
			</g>
			<g style="opacity:0.2;">
				<path style="fill:#FF6666;" d="M514.071,261.285c-18.902,12.97-37.978,25.69-57.216,38.155
					c-27.873,18.058-56.089,35.582-84.633,52.563c-0.806,0.48-1.611,0.958-2.42,1.434c-1.477-0.848-2.993-1.728-4.544-2.639
					c13.917-8.239,27.764-16.613,41.525-25.114c28.255-17.454,56.177-35.445,83.746-53.965c5.144-3.456,10.278-6.932,15.401-10.426
					L514.071,261.285z"/>
				<path style="fill:#FF6666;" d="M465.363,261.317c-11.405,7.649-22.87,15.207-34.392,22.676
					c-27.873,18.058-56.092,35.582-84.633,52.563c-0.763,0.456-1.53,0.908-2.297,1.36c-1.445-0.901-2.904-1.813-4.378-2.738
					c13.822-8.183,27.566-16.5,41.232-24.94c25.682-15.864,51.086-32.169,76.196-48.913L465.363,261.317z"/>
				<path style="fill:#FF6666;" d="M416.118,261.352c-3.671,2.41-7.349,4.805-11.031,7.19
					c-27.873,18.058-56.092,35.586-84.633,52.566c-0.495,0.293-0.986,0.587-1.48,0.876c-1.431-0.922-2.865-1.852-4.3-2.784
					c13.518-8.013,26.965-16.15,40.338-24.411c17.701-10.932,35.268-22.075,52.697-33.431L416.118,261.352z"/>
				<path style="fill:#FF6666;" d="M366.314,261.387c-23.672,15.143-47.591,29.901-71.744,44.274c-0.099,0.06-0.201,0.12-0.3,0.177
					c-1.424-0.94-2.841-1.88-4.25-2.812c13.104-7.784,26.142-15.677,39.109-23.686c9.585-5.918,19.128-11.9,28.633-17.945
					L366.314,261.387z"/>
				<path style="fill:#FF6666;" d="M315.921,261.423c-15.274,9.536-30.646,18.909-46.118,28.12c-1.424-0.961-2.83-1.904-4.208-2.834
					c12.617-7.501,25.163-15.104,37.649-22.817c1.325-0.82,2.65-1.639,3.975-2.463L315.921,261.423z"/>
			</g>
		</g>
		<g>
			<path style="fill:#FCB447;" d="M427.557,220.243c-0.591-1.588-2.479-2.291-4.172-2.346c-2.095-0.068-4.207,0.577-5.908,1.802
				c-1.256,0.905-2.586,2.194-4.09,1.826c-1.519-0.372-2.145-2.213-3.448-3.076c-1.562-1.034-3.749-0.397-5.157,0.838
				c-1.408,1.235-2.291,2.945-3.406,4.45c-1.115,1.505-2.659,2.904-4.529,3.006c-1.509,0.082-2.938-0.697-4.445-0.798
				c-1.923-0.129-3.873,0.966-4.765,2.674c-0.892,1.708-0.675,3.934,0.529,5.438l30.812-0.06c1.487-2.896,3.431-5.557,5.737-7.854
				c0.821-0.818,1.698-1.602,2.311-2.586C427.641,222.574,427.961,221.33,427.557,220.243z"/>
			<path style="fill:#FF8A15;" d="M399.165,220.326c-1.348-1.291-3.666-1.561-5.105-0.372c-0.85,0.702-1.399,1.843-2.458,2.152
				c-1.158,0.338-2.365-0.546-2.916-1.619c-0.551-1.073-0.652-2.313-0.964-3.478c-0.312-1.165-0.948-2.372-2.079-2.791
				c-1.445-0.534-2.994,0.428-4.14,1.458c-1.146,1.03-2.335,2.249-3.873,2.342c-2.544,0.153-4.594-2.876-7.097-2.39
				c-1.296,0.252-2.234,1.419-2.716,2.648s-0.622,2.564-1.003,3.828c-0.38,1.264-1.083,2.534-2.279,3.093
				c-0.921,0.43-1.99,0.374-2.997,0.237c-1.007-0.137-2.027-0.344-3.031-0.187c-1.004,0.157-2.016,0.781-2.28,1.762
				c-0.245,0.907,0.196,1.854,0.711,2.64c1.232,1.882,2.972,3.429,4.985,4.431l30.878-0.912c1.632-0.907,3.276-1.824,4.685-3.048
				c1.409-1.224,2.584-2.796,3.013-4.612C400.929,223.692,400.513,221.618,399.165,220.326z"/>
			<path style="fill:#D1580C;" d="M388.914,224.835c-2.797-1.899-6.252-2.64-9.632-2.666c-3.532-0.028-7.172,0.734-10.037,2.799
				c-2.865,2.066-4.816,5.59-4.391,9.097l28.915-0.779C393.756,229.906,391.711,226.733,388.914,224.835z"/>
			<path style="fill:#FF8A15;" d="M414.064,226.66c-3.01-2.043-6.728-2.841-10.365-2.869c-3.801-0.03-7.718,0.789-10.802,3.012
				c-3.084,2.223-5.182,6.015-4.726,9.789l31.118-0.838C419.275,232.117,417.073,228.703,414.064,226.66z"/>
			<path style="fill:#845584;" d="M354.78,232.32L354.78,232.32c0,16.108,13.058,29.166,29.166,29.166h13.324
				c16.108,0,29.166-13.058,29.166-29.165v0H354.78z"/>
		</g>
		<g>
			<path style="fill:#FCB447;" d="M486.055,234.501c-0.966-1.791-3.467-2.008-5.456-1.574c-3.368,0.735-6.35,2.627-9.522,3.975
				c-3.172,1.349-6.905,2.132-10.002,0.618c-1.745-0.853-3.085-2.34-4.652-3.486c-1.568-1.147-3.638-1.967-5.434-1.228
				c-1.716,0.707-2.905,2.723-4.761,2.698c-1.819-0.024-3.524-2.08-5.137-1.24c-1.123,0.585-1.204,2.157-0.96,3.399
				c0.417,2.12,1.34,4.138,2.671,5.84l38.558,2.111c1.746-1.974,3.194-4.21,4.282-6.61
				C486.289,237.58,486.798,235.878,486.055,234.501z"/>
			<path style="fill:#FFFFFF;" d="M472.48,231.093c-5.343-2.292-11.552-2.489-17.03-0.543c-6.126,2.177-11.087,6.822-15.051,11.974
				l44.212,0.532C482.246,237.747,477.823,233.385,472.48,231.093z"/>
			<path style="fill:#6B1515;" d="M438.618,241.521L438.618,241.521c0,11.026,8.938,19.964,19.964,19.964h9.12
				c11.026,0,19.964-8.938,19.964-19.964l0,0H438.618z"/>
		</g>
		<g>
			<path style="fill:#D1580C;" d="M353.236,234.501c-0.966-1.791-3.467-2.008-5.456-1.574c-3.368,0.735-6.35,2.627-9.522,3.975
				c-3.172,1.349-6.905,2.132-10.002,0.618c-1.745-0.853-3.085-2.34-4.652-3.486c-1.568-1.147-3.638-1.967-5.434-1.228
				c-1.716,0.707-2.905,2.723-4.761,2.698c-1.819-0.024-3.524-2.08-5.137-1.24c-1.123,0.585-1.204,2.157-0.96,3.399
				c0.417,2.12,1.34,4.138,2.671,5.84l38.558,2.111c1.746-1.974,3.194-4.21,4.283-6.61
				C353.471,237.58,353.979,235.878,353.236,234.501z"/>
			<path style="fill:#FCB447;" d="M328.392,235.296c-3.466-1.486-7.494-1.615-11.047-0.352c-3.974,1.412-7.192,4.425-9.764,7.768
				l28.681,0.345C334.728,239.612,331.858,236.783,328.392,235.296z"/>
			<path style="fill:#FF8A15;" d="M342.858,237.735c-2.377-1.019-5.139-1.107-7.576-0.241c-2.725,0.969-4.932,3.035-6.696,5.327
				l19.667,0.237C347.202,240.695,345.234,238.754,342.858,237.735z"/>
			<path style="fill:#6B1515;" d="M305.8,241.521L305.8,241.521c0,11.026,8.938,19.964,19.964,19.964h9.12
				c11.026,0,19.964-8.938,19.964-19.964l0,0H305.8z"/>
		</g>
	</g>
</g>
</svg>
