<?xml version="1.0" encoding="utf-8"?>
<!-- Generator: Adobe Illustrator 27.5.0, SVG Export Plug-In . SVG Version: 6.00 Build 0)  -->
<svg version="1.1" xmlns="http://www.w3.org/2000/svg" xmlns:xlink="http://www.w3.org/1999/xlink" x="0px" y="0px"
	 viewBox="0 0 500 500" style="enable-background:new 0 0 500 500;" xml:space="preserve">
<g id="BACKGROUND">
	<rect x="0.123" style="fill:#F9F0E1;" width="500" height="500"/>
</g>
<g id="OBJECTS">
	<g>
		<g>
			<path style="fill:#AC8F75;" d="M243.095,279.839H165.4c-1.482,0-2.683-1.201-2.683-2.683v-0.219c0-1.482,1.201-2.683,2.683-2.683
				h77.695c1.482,0,2.683,1.201,2.683,2.683v0.219C245.778,278.638,244.577,279.839,243.095,279.839z"/>
			<path style="fill:#AC8F75;" d="M158.989,368.98l11.104-91.165c0.164-1.347,1.576-2.326,3.154-2.186l0,0
				c1.578,0.14,2.724,1.346,2.559,2.693l-11.104,91.165c-0.164,1.347-1.576,2.326-3.154,2.186h0
				C159.971,371.534,158.825,370.328,158.989,368.98z"/>
			<path style="fill:#AC8F75;" d="M250.283,368.98l-11.104-91.165c-0.164-1.347-1.576-2.326-3.154-2.186h0
				c-1.578,0.14-2.724,1.346-2.559,2.693l11.104,91.165c0.164,1.347,1.576,2.326,3.154,2.186l0,0
				C249.302,371.534,250.447,370.328,250.283,368.98z"/>
		</g>
		<g>
			<path style="fill:#AC8F75;" d="M338.026,279.839h-77.695c-1.482,0-2.683-1.201-2.683-2.683v-0.219
				c0-1.482,1.201-2.683,2.683-2.683h77.695c1.482,0,2.683,1.201,2.683,2.683v0.219C340.71,278.638,339.508,279.839,338.026,279.839
				z"/>
			<path style="fill:#AC8F75;" d="M253.92,368.98l11.104-91.165c0.164-1.347,1.576-2.326,3.154-2.186l0,0
				c1.578,0.14,2.724,1.346,2.56,2.693l-11.104,91.165c-0.164,1.347-1.576,2.326-3.154,2.186l0,0
				C254.902,371.534,253.756,370.328,253.92,368.98z"/>
			<path style="fill:#AC8F75;" d="M345.215,368.98l-11.104-91.165c-0.164-1.347-1.576-2.326-3.154-2.186l0,0
				c-1.578,0.14-2.724,1.346-2.56,2.693l11.104,91.165c0.164,1.347,1.576,2.326,3.154,2.186l0,0
				C344.233,371.534,345.379,370.328,345.215,368.98z"/>
		</g>
		<path style="fill:#DBA74B;" d="M270.959,249.948c-3.137,6.025-4.553,12.934-4.039,19.708c0.092,1.218,0.293,2.533,1.168,3.385
			c0.93,0.906,2.348,1.03,3.645,1.098c18.958,0.996,37.972,0.933,56.923-0.188c1.027-0.061,2.16-0.173,2.86-0.926
			c0.502-0.539,1.147-2.488,1.28-3.212c0.729-3.974-0.249-9.575-1.308-12.546c-1.194-3.349-2.665-5.123-3.828-6.055
			c-3.843-3.079-12.164-2.29-16.534-2.254C297.837,249.07,284.363,247.781,270.959,249.948z"/>
		<g>
			<path style="fill:#EEC25C;" d="M280.031,262.394c-3.867-0.455-8.404-0.001-10.656,3.176c-2.251,3.177-2.761,7.241-3.01,11.127
				c-0.388,6.059-0.31,12.137-0.232,18.207c0.27,20.987,0.545,42.039,3.387,62.678c8.971,1.209,18.007-1.04,27.329-3.137
				c-1.896-22.702-3.255-45.45-4.076-68.216c-0.172-4.76-0.627-9.519-1.974-14.088C289.149,266.538,285.662,263.057,280.031,262.394
				z"/>
			<g>
				<path style="fill:#53291B;" d="M270.619,370.09c-0.728-4.545,0.997-9.41,4.426-12.481c3.429-3.071,8.454-4.25,12.892-3.027
					c1.91,0.527,3.724,1.486,5.104,2.908c3.191,3.29,3.548,8.32,3.722,12.9C288.298,370.796,279.813,370.763,270.619,370.09z"/>
				<g>
					<defs>
						<path id="SVGID_1_" d="M270.619,370.09c-0.728-4.545,0.997-9.41,4.426-12.481c3.429-3.071,8.454-4.25,12.892-3.027
							c1.91,0.527,3.724,1.486,5.104,2.908c3.191,3.29,3.548,8.32,3.722,12.9C288.298,370.796,279.813,370.763,270.619,370.09z"/>
					</defs>
					<clipPath id="SVGID_00000163783095509876473220000001213821986865076620_">
						<use xlink:href="#SVGID_1_"  style="overflow:visible;"/>
					</clipPath>
					<path style="clip-path:url(#SVGID_00000163783095509876473220000001213821986865076620_);fill:#2F1207;" d="M299.026,367.462
						c-10.078,0.115-20.16-0.007-30.232-0.365c0.113,1.263,0.237,2.526,0.374,3.786c0.034,0.311,0.084,0.653,0.322,0.856
						c0.175,0.149,0.415,0.19,0.642,0.224c7.027,1.059,14.151,1.478,21.254,1.251c1.828-0.059,3.723-0.178,5.335-1.041
						C298.332,371.31,299.579,369.493,299.026,367.462z"/>
				</g>
			</g>
		</g>
		<g>
			<path style="fill:#EEC25C;" d="M317.501,260.008c3.839-0.652,8.393-0.43,10.804,2.628s3.127,7.091,3.574,10.959
				c0.697,6.031,0.93,12.105,1.161,18.172c0.802,20.974,1.603,42.012-0.182,62.769c-8.897,1.665-18.037-0.119-27.454-1.738
				c0.734-22.77,0.93-45.557,0.587-68.336c-0.072-4.762,0.14-9.539,1.251-14.17C308.607,264.612,311.912,260.958,317.501,260.008z"
				/>
			<g>
				<path style="fill:#53291B;" d="M330.989,369.531c0.728-4.545-0.997-9.41-4.426-12.481c-3.429-3.071-8.454-4.25-12.892-3.027
					c-1.91,0.527-3.724,1.486-5.104,2.908c-3.191,3.29-3.548,8.32-3.722,12.901C313.309,370.236,321.795,370.203,330.989,369.531z"
					/>
				<g>
					<defs>
						<path id="SVGID_00000080164700679880065780000014374903408115703459_" d="M330.989,369.531
							c0.728-4.545-0.997-9.41-4.426-12.481c-3.429-3.071-8.454-4.25-12.892-3.027c-1.91,0.527-3.724,1.486-5.104,2.908
							c-3.191,3.29-3.548,8.32-3.722,12.901C313.309,370.236,321.795,370.203,330.989,369.531z"/>
					</defs>
					<clipPath id="SVGID_00000145752715504110684450000001766388933800550285_">
						<use xlink:href="#SVGID_00000080164700679880065780000014374903408115703459_"  style="overflow:visible;"/>
					</clipPath>
					<path style="clip-path:url(#SVGID_00000145752715504110684450000001766388933800550285_);fill:#2F1207;" d="M302.581,366.903
						c10.078,0.115,20.16-0.007,30.233-0.365c-0.113,1.263-0.237,2.526-0.374,3.786c-0.034,0.311-0.084,0.653-0.322,0.856
						c-0.175,0.149-0.415,0.19-0.642,0.224c-7.027,1.059-14.151,1.478-21.254,1.251c-1.828-0.058-3.723-0.178-5.335-1.041
						C303.275,370.751,302.029,368.934,302.581,366.903z"/>
				</g>
			</g>
		</g>
		<g>
			<path style="fill:#2E3E47;" d="M340.692,211.803c-0.526-4.738-1.818-9.354-3.184-13.921c-1.302-4.353-2.689-8.719-4.892-12.694
				c-2.203-3.974-5.294-7.573-9.316-9.686c-2.26-1.187-4.742-1.875-7.203-2.554c-1.602-0.442-3.203-0.884-4.805-1.326
				c-3.873-1.069-7.777-2.322-13.363-2.775c-4.24-0.344-8.514-0.273-12.74,0.211c-2.314,0.265-4.635,0.66-6.794,1.532
				c-3.612,1.458-6.598,4.193-8.911,7.326c-2.313,3.133-4.01,6.671-5.632,10.212c-0.931,2.034-1.846,4.087-2.268,5.698
				c-4.442,10.51-6.928,22.038-6.309,33.43c0.215,3.958,1.7,10.063,2.965,13.819c2.047,6.076,5.435,9.213,9.979,14.334
				c0.653-0.351,1.312-0.692,1.969-1.036c2.779-1.456,5.599-2.868,8.502-4.28c1.072-0.522,2.152-1.044,3.248-1.57
				c-6.752-7.459-10.515-17.55-10.297-27.608c0.208-9.565,3.862-18.773,8.535-26.395c-2.947,13.735-4.74,27.717-3.897,42.909
				c8.632,1.703,14.919,1.747,23.701,2.281c8.782,0.534,16.318,0.812,24.65-2.584c-0.636-9.343-0.323-18.685-0.912-28.106
				c2.555,6.777,5.342,13.466,8.354,20.053c0.41,0.897,0.931,1.888,1.879,2.161c0.916,0.264,1.875-0.263,2.578-0.906
				c1.293-1.183,2.124-2.789,2.742-4.429C340.951,221.439,341.218,216.541,340.692,211.803z"/>
			<g>
				<path style="fill:#A16A49;" d="M295.829,123.916c-1.563-0.637-3.445-0.849-4.873,0.052c-1.341,0.846-1.967,2.45-2.448,3.962
					c-1.624,5.103-2.572,10.421-2.812,15.771c-0.131,2.917-0.048,5.873,0.677,8.702c0.725,2.829,2.132,5.54,4.328,7.465
					c2.073,1.818,4.741,2.848,7.667,3.46c3.518,1.109,7.294,0.93,10.978,0.74c1.59-0.082,3.209-0.17,4.704-0.718
					c2.953-1.084,4.994-3.804,6.429-6.604c1.604-3.131,2.669-6.536,2.47-9.807c3.411-3.153,4.667-8.128,4.294-12.758
					c-0.142-1.756-0.499-3.514-1.264-5.101c-1.311-2.718-3.727-4.751-6.299-6.328c-5.632-3.453-12.683-5.075-18.965-3.029
					C298.636,120.4,296.542,121.615,295.829,123.916z"/>
				<path style="fill:#7C452B;" d="M290.06,139.773c0.032-3.277,1.054-6.539,2.897-9.249
					C291.687,133.377,290.394,136.328,290.06,139.773z"/>
				<path style="fill:#7C452B;" d="M319.215,139.229c0.015-1.731-0.066-3.463-0.241-5.185c0.372,0.586,0.455,1.306,0.496,1.999
					C319.536,137.142,319.521,138.245,319.215,139.229z"/>
				<path style="fill:#7C452B;" d="M323.514,144.655c1.417-1.926,1.827-4.389,2.197-6.752
					C325.874,140.17,325.176,142.489,323.514,144.655z"/>
				<path style="fill:#7C452B;" d="M321.256,142.971c0.394-0.012,0.748-0.275,0.963-0.605c0.215-0.33,0.315-0.722,0.395-1.108
					c0.382-1.831,0.426-3.733,0.129-5.58c0.466,1.272,0.491,2.659,0.437,4.012c-0.032,0.805-0.093,1.62-0.362,2.379
					c-0.118,0.335-0.284,0.665-0.554,0.895S321.6,143.305,321.256,142.971z"/>
			</g>
			<path style="fill:#12191C;" d="M323.619,208.889c-0.273-4.595-0.554-9.233-1.813-13.661
				C322.355,199.757,322.905,204.286,323.619,208.889z"/>
			<g>
				<path style="fill:#BBBFC7;" d="M352.278,176.834c0.352-0.108,0.315-1.321-0.081-1.47c-0.396-0.149-0.842-0.104-1.253-0.004
					c-6.409,1.559-11.752,3.279-18.271,5.249c-0.433-0.879-1.673-0.86-2.641-0.709c-2.259,0.351-4.517,0.702-6.776,1.053
					c-0.454,0.07-1.055,0.387-0.865,0.805c0.13,0.286,0.526,0.294,0.838,0.257c2.002-0.234,4.004-0.467,6.006-0.701
					c0.568-0.066,1.21-0.111,1.643,0.263c-1,0.811-2.387,0.875-3.669,0.999c-1.19,0.115-2.372,0.313-3.535,0.591
					c-0.395,0.094-1.037,0.476-0.749,0.763c0.494,0.491,1.378,0.136,2.067,0.034c1.828-0.271,3.664-0.482,5.506-0.632
					c0.289-0.024,0.686,0.04,0.704,0.33c0.017,0.269-0.32,0.396-0.586,0.44c-1.926,0.315-3.856,0.6-5.79,0.857
					c-0.551,0.073-1.547,0.219-1.389,0.752c0.153,0.514,0.999,0.363,1.535,0.368c2.361,0.021,4.261-0.237,6.523-0.914
					c0.897-0.268,2.429-0.751,2.193-2.764C340.074,180.497,346.828,178.507,352.278,176.834z"/>
				<path style="fill:#8BB466;" d="M325.745,183.441c0.342-0.923,0.373-2.021-0.179-2.836c-0.551-0.815-1.786-1.177-2.572-0.585
					c0.02-0.593-0.503-1.107-1.085-1.227c-0.581-0.12-1.187,0.08-1.696,0.384c-0.639,0.382-1.186,0.948-1.445,1.646
					c-0.26,0.697-0.201,1.529,0.24,2.129c-1.282,0.084-2.464,1.024-2.836,2.254c-0.371,1.23,0.093,2.667,1.114,3.446
					c1.021,0.78,2.53,0.849,3.618,0.167c0.451,0.816,1.44,1.297,2.36,1.148c0.92-0.149,1.707-0.917,1.878-1.833
					c1.181,0.017,2.288-0.986,2.386-2.164C327.628,184.794,326.703,183.621,325.745,183.441z"/>
			</g>
			<path style="fill:#D39886;" d="M296.525,161.324c-0.223,1.574-0.495,3.152-1.049,4.642c-0.554,1.49-1.407,2.899-2.649,3.96
				c0.83,1.527,2.31,2.578,3.789,3.491c1.182,0.729,2.411,1.413,3.749,1.785c2.419,0.671,5.048,0.264,7.346-0.747
				c1.476-0.65,2.855-1.553,3.869-2.774c-1.273-0.578-1.839-2.071-2.068-3.45c-0.276-1.663-0.248-3.368-0.559-5.025
				c-0.311-1.657-1.035-3.339-2.435-4.28c-0.842-0.566-1.862-0.817-2.874-0.901c-1.613-0.135-3.259,0.133-4.746,0.773
				C297.889,159.232,296.723,159.923,296.525,161.324z"/>
			<g>
				<path style="fill:#F0C3B3;" d="M290.039,139.917c-0.744-1.141-2.352-1.546-3.628-1.071c-1.277,0.475-2.191,1.697-2.499,3.023
					c-0.309,1.327-0.069,2.737,0.454,3.994c0.38,0.913,0.928,1.787,1.736,2.358c0.808,0.571,1.909,0.79,2.588,0.415
					c-0.105,3.217,0.522,6.474,1.948,9.359c1.427,2.885,3.667,5.386,6.454,6.995c3.651,2.107,8.054,2.635,11.85,1.225
					c2.739-1.018,5.238-2.875,6.973-5.226c1.735-2.351,2.86-5.149,3.212-8.017c0.974,0.346,2.076,0.316,3.031-0.08
					c0.955-0.397,1.753-1.157,2.195-2.091c0.281-0.594,0.421-1.248,0.479-1.903c0.104-1.159-0.06-2.393-0.747-3.333
					c-0.686-0.94-1.984-1.488-3.003-1.165c0.045-0.358,0.09-0.715,0.135-1.073c0.01-0.083,0.021-0.168,0.005-0.25
					c-0.021-0.104-0.082-0.194-0.141-0.281c-0.771-1.124-1.557-2.332-1.733-3.808c0.024,0.573-0.441,1.125-1.01,1.199
					c-0.552,0.071-1.075-0.257-1.491-0.627c-0.559-0.497-1.021-1.092-1.473-1.688c-1.698-2.239-3.316-4.586-4.252-7.521
					c-0.069,1.41-0.568,2.796-1.412,3.927c-0.506,0.677-1.177,1.288-2.004,1.461c-0.663,0.139-1.362-0.021-1.964-0.33
					c-0.602-0.31-1.119-0.761-1.604-1.233c-1.547-1.506-2.84-3.271-3.996-5.233c-0.814,3.036-3.048,5.46-5.277,7.676
					C293.515,137.962,292.08,139.316,290.039,139.917z"/>
				<path style="fill:#C2867B;" d="M289.026,141.036c-0.356-0.818-1.68-0.756-2.524-0.467c-0.845,0.288-1.51,1.081-1.59,1.97
					c-0.005,0.056-0.003,0.123,0.043,0.156c0.075,0.052,0.165-0.038,0.221-0.111c0.271-0.356,0.722-0.516,1.149-0.648
					c0.389-0.119,0.802-0.231,1.197-0.134c0.187,0.046,0.361,0.137,0.551,0.169C288.505,142.044,289.313,141.695,289.026,141.036z"
					/>
				<path style="fill:#C2867B;" d="M320.898,146.355c0.51-0.717,1.665-0.368,2.342,0.096c0.677,0.464,1.075,1.378,0.934,2.259
					c-0.009,0.056-0.027,0.12-0.075,0.142c-0.079,0.034-0.137-0.073-0.168-0.156c-0.154-0.405-0.514-0.658-0.86-0.879
					c-0.315-0.201-0.653-0.399-1.025-0.39c-0.176,0.004-0.352,0.055-0.527,0.045C321.118,147.447,320.488,146.932,320.898,146.355z"
					/>
				<path style="fill:#A16A49;" d="M301.519,138.932c-1.292,0.082-2.598,0.167-3.833,0.553c-1.235,0.387-2.411,1.112-3.084,2.217
					c-0.056,0.092-0.111,0.197-0.092,0.304c0.036,0.197,0.282,0.264,0.482,0.274c0.727,0.037,1.447-0.123,2.168-0.224
					c1.371-0.193,2.762-0.176,4.145-0.113c0.327,0.015,0.668,0.03,0.969-0.1c0.38-0.165,0.631-0.538,0.784-0.922
					c0.171-0.428,0.243-0.926,0.043-1.342C302.901,139.164,302.359,138.879,301.519,138.932z"/>
				<path style="fill:#2E3E47;" d="M300.249,145.187c-0.049-0.189-0.315-0.494-0.592-0.513c-0.29-0.02-0.556,0.194-0.684,0.455
					c-0.127,0.261-0.143,0.562-0.144,0.852c-0.001,0.288,0.012,0.589,0.151,0.842c0.139,0.253,0.44,0.439,0.716,0.354
					c0.159-0.048,0.33-0.18,0.418-0.322C300.242,146.649,300.391,145.731,300.249,145.187z"/>
				<path style="fill:#2E3E47;" d="M311.774,146.322c0.064-0.185,0.354-0.467,0.631-0.464c0.291,0.003,0.539,0.238,0.645,0.509
					c0.106,0.271,0.097,0.571,0.075,0.861c-0.022,0.287-0.059,0.586-0.218,0.827c-0.159,0.241-0.474,0.402-0.742,0.296
					c-0.155-0.061-0.315-0.206-0.39-0.354C311.664,147.78,311.59,146.853,311.774,146.322z"/>
				<path style="fill:#A16A49;" d="M316.694,142.73c-1.238-1.128-2.709-1.999-4.293-2.544c-0.84-0.289-1.892-0.439-2.51,0.199
					c-0.256,0.265-0.389,0.627-0.459,0.989c-0.077,0.4-0.079,0.841,0.138,1.187c0.347,0.552,1.094,0.658,1.745,0.689
					c1.72,0.082,3.503,0.034,5.082,0.72c0.221,0.096,0.449,0.209,0.69,0.196c0.241-0.013,0.493-0.208,0.465-0.448
					c-0.011-0.099-0.067-0.186-0.126-0.266C317.235,143.192,316.976,142.986,316.694,142.73z"/>
				<path style="fill:#C2867B;" d="M306.901,142.189c0.48,1.936,0.817,3.908,1.007,5.894c0.086,0.897,0.236,1.903,0.067,2.788
					c-0.069,0.361-0.177,0.91-0.382,1.215c-0.359,0.536-0.926,0.844-1.539,1.045c-0.641,0.211-1.51,0.229-2.114-0.072
					c-0.175-0.087-0.946-0.465-1.044-0.296c-0.166,0.283,0.169,0.599,0.474,0.718c1.107,0.432,2.58,0.539,3.624-0.03
					c0.47-0.256,0.816-0.728,1.119-1.168c0.619-0.9,0.471-2.277,0.367-3.365c-0.216-2.262-0.542-4.513-0.977-6.742
					c-0.052-0.265-0.218-0.605-0.478-0.533C306.827,141.699,306.837,141.932,306.901,142.189z"/>
				<g>
					<path style="fill:#2E3E47;" d="M300.289,155.625c2.199,0.884,4.643,1.148,6.98,0.754c0.437-0.074,0.89-0.169,1.316-0.047
						c0.768,0.221,1.188,1.129,1.065,1.919c-0.123,0.79-0.668,1.455-1.29,1.958c-1.401,1.133-3.306,1.62-5.079,1.296
						c-1.773-0.324-3.382-1.455-4.285-3.016c-0.33-0.57-0.572-1.241-0.417-1.881C298.735,155.97,299.464,155.293,300.289,155.625z"
						/>
					<g>
						<defs>
							<path id="SVGID_00000093884883533148278190000009352145557439534232_" d="M300.289,155.625
								c2.199,0.884,4.643,1.148,6.98,0.754c0.437-0.074,0.89-0.169,1.316-0.047c0.768,0.221,1.188,1.129,1.065,1.919
								c-0.123,0.79-0.668,1.455-1.29,1.958c-1.401,1.133-3.306,1.62-5.079,1.296c-1.773-0.324-3.382-1.455-4.285-3.016
								c-0.33-0.57-0.572-1.241-0.417-1.881C298.735,155.97,299.464,155.293,300.289,155.625z"/>
						</defs>
						<clipPath id="SVGID_00000116196870855742076360000015828344440829827971_">
							<use xlink:href="#SVGID_00000093884883533148278190000009352145557439534232_"  style="overflow:visible;"/>
						</clipPath>
						<path style="clip-path:url(#SVGID_00000116196870855742076360000015828344440829827971_);fill:#FFFFFF;" d="M297.537,156.691
							c3.679,1.697,7.943,1.776,11.912,0.962c0.349-0.072,0.705-0.153,1.006-0.344c0.301-0.191,0.54-0.515,0.536-0.872
							c-0.004-0.365-0.265-0.689-0.582-0.872c-0.317-0.182-0.686-0.248-1.046-0.307c-2.799-0.461-5.626-0.725-8.45-0.988
							c-0.696-0.065-1.398-0.13-2.093-0.048c-0.254,0.03-0.516,0.084-0.722,0.236C297.612,154.819,297.633,155.541,297.537,156.691z
							"/>
					</g>
				</g>
				<g>
					<defs>
						<path id="SVGID_00000057843151153342797560000007547937917972466822_" d="M290.039,139.917
							c-0.744-1.141-2.352-1.546-3.628-1.071c-1.277,0.475-2.191,1.697-2.499,3.023c-0.309,1.327-0.069,2.737,0.454,3.994
							c0.38,0.913,0.928,1.787,1.736,2.358c0.808,0.571,1.909,0.79,2.588,0.415c-0.105,3.217,0.522,6.474,1.948,9.359
							c1.427,2.885,3.667,5.386,6.454,6.995c3.651,2.107,8.054,2.635,11.85,1.225c2.739-1.018,5.238-2.875,6.973-5.226
							c1.735-2.351,2.86-5.149,3.212-8.017c0.974,0.346,2.076,0.316,3.031-0.08c0.955-0.397,1.753-1.157,2.195-2.091
							c0.281-0.594,0.421-1.248,0.479-1.903c0.104-1.159-0.06-2.393-0.747-3.333c-0.686-0.94-1.984-1.488-3.003-1.165
							c0.045-0.358,0.09-0.715,0.135-1.073c0.01-0.083,0.021-0.168,0.005-0.25c-0.021-0.104-0.082-0.194-0.141-0.281
							c-0.771-1.124-1.557-2.332-1.733-3.808c0.024,0.573-0.441,1.125-1.01,1.199c-0.552,0.071-1.075-0.257-1.491-0.627
							c-0.559-0.497-1.021-1.092-1.473-1.688c-1.698-2.239-3.316-4.586-4.252-7.521c-0.069,1.41-0.568,2.796-1.412,3.927
							c-0.506,0.677-1.177,1.288-2.004,1.461c-0.663,0.139-1.362-0.021-1.964-0.33c-0.602-0.31-1.119-0.761-1.604-1.233
							c-1.547-1.506-2.84-3.271-3.996-5.233c-0.814,3.036-3.048,5.46-5.277,7.676C293.515,137.962,292.08,139.316,290.039,139.917z"
							/>
					</defs>
					<clipPath id="SVGID_00000129902938191226965920000016168660946148140709_">
						<use xlink:href="#SVGID_00000057843151153342797560000007547937917972466822_"  style="overflow:visible;"/>
					</clipPath>
					<path style="clip-path:url(#SVGID_00000129902938191226965920000016168660946148140709_);fill:#DAA292;" d="M320.811,155.387
						c-1.424-1.523-3.939-1.642-5.782-0.665c-1.843,0.977-3.083,2.826-3.845,4.768c-0.455,1.159-0.771,2.413-0.593,3.646
						c0.089,0.613,0.314,1.231,0.766,1.655c0.941,0.882,2.467,0.626,3.639,0.089C318.277,163.376,320.63,160.022,320.811,155.387z"
						/>
					<path style="clip-path:url(#SVGID_00000129902938191226965920000016168660946148140709_);fill:#DAA292;" d="M287.877,151.459
						c1.671-1.247,4.167-0.919,5.808,0.368c1.641,1.287,2.534,3.327,2.941,5.373c0.243,1.221,0.332,2.511-0.062,3.693
						c-0.196,0.588-0.527,1.156-1.046,1.493c-1.082,0.701-2.539,0.18-3.597-0.556C288.958,159.771,287.236,156.053,287.877,151.459z
						"/>
				</g>
			</g>
			<g>
				<path style="fill:#D39886;" d="M287.071,259.219c1.735,0.694,3.491,1.399,4.993,2.51c0.552,0.408,1.12,1.03,0.934,1.692
					c-0.117,0.418-0.511,0.701-0.913,0.865c-0.221,0.09-0.461,0.156-0.698,0.125c-0.323-0.043-0.594-0.258-0.839-0.473
					C289.235,262.784,288.126,261.398,287.071,259.219z"/>
				<path style="fill:#F0C3B3;" d="M271.031,259.121c0.167,0.644,0.364,1.303,0.783,1.82c0.822,1.016,2.271,1.242,3.578,1.25
					c1.307,0.008,2.681-0.115,3.858,0.454c1.154,0.559,1.908,1.685,2.606,2.76c0.646,0.995,1.291,1.989,1.937,2.984
					c0.312,0.481,0.639,0.977,1.12,1.288c0.482,0.311,1.165,0.388,1.734,0.032c0.114,0.651,0.362,1.278,0.723,1.832
					c0.13,0.2,0.281,0.396,0.487,0.517c0.206,0.121,0.479,0.154,0.681,0.026c0.179-0.113,0.27-0.322,0.302-0.49
					c0.136,0.267,0.192,0.6,0.438,0.773c0.109,0.077,0.244,0.111,0.377,0.114c0.463,0.012,0.877-0.329,1.09-0.74
					c0.213-0.411,0.265-0.884,0.314-1.345c0.011-0.108,0.023-0.216,0.072-0.299c0.551-0.403,0.732-1.14,0.784-1.82
					c0.184-2.447-0.836-4.875-2.383-6.781c-1.547-1.906-3.587-3.348-5.688-4.616c-0.688-0.415-1.396-0.822-1.943-1.41
					c-0.431-0.463-0.746-1.02-1.057-1.571c-0.663-1.176-1.327-2.352-1.99-3.529c-0.052-0.093-0.107-0.185-0.161-0.278
					c-2.902,1.412-5.723,2.824-8.502,4.28C270.347,255.974,270.628,257.563,271.031,259.121z"/>
				<path style="fill:#C2867B;" d="M286.66,269.434c-0.931-2.757-2.496-5.298-4.541-7.369
					C284.417,263.863,286.052,266.491,286.66,269.434z"/>
				<path style="fill:#C2867B;" d="M288.783,271.267c0.003-1.867-0.533-3.71-1.367-5.381c-0.833-1.671-1.957-3.182-3.173-4.599
					C287.238,263.573,288.967,267.419,288.783,271.267z"/>
				<path style="fill:#C2867B;" d="M290.984,269.994c-0.381-3.606-2.234-7.034-5.041-9.327c0.826,0.261,1.491,0.876,2.058,1.532
					C289.661,264.12,290.717,266.556,290.984,269.994z"/>
			</g>
			<g>
				<path style="fill:#F0C3B3;" d="M340.797,202.345c0.27-0.746,0.545-1.54,0.381-2.317c-0.103-0.487-0.369-0.92-0.586-1.368
					c-1.281-2.639-0.846-5.751-0.23-8.822c-0.791-0.938-1.582-1.875-2.373-2.813c-0.404-0.479-0.815-0.968-1.053-1.548
					c-0.238-0.579-0.281-1.275,0.043-1.811c0.323-0.537,1.075-0.824,1.757-0.417c-0.667-0.572-1.018-1.552-0.697-2.37
					c0.321-0.818,1.399-1.297,2.174-0.758c-0.446-0.704-0.288-1.727,0.349-2.263c0.637-0.537,1.672-0.518,2.281,0.247
					c-0.572-0.965-0.07-2.393,0.981-2.786c1.03-0.386,2.159,0.156,3.097,0.73c1.406,0.86,2.747,1.826,4.007,2.888
					c0.835,0.703,1.674,1.514,1.928,2.575c0.213,0.89-0.019,1.819-0.247,2.705c-1.287,4.99-2.507,10.1-2.127,15.24
					c0.111,1.495,0.3,3.183-0.677,4.32c-0.972,1.132-2.675,1.208-4.165,1.124C343.818,204.801,341.763,204.455,340.797,202.345z"/>
				<path style="fill:#C2867B;" d="M342.88,178.206c1.819,0.967,3.693,1.98,4.963,3.601
					C346.208,180.876,344.69,179.74,342.88,178.206z"/>
				<path style="fill:#C2867B;" d="M340.292,180.057c2.161,0.852,4.203,2.136,5.616,3.981
					C343.912,182.774,342.007,181.366,340.292,180.057z"/>
				<path style="fill:#C2867B;" d="M338.802,183.206c2.145,0.747,4.074,2.104,5.502,3.869
					C342.664,185.954,341.023,184.833,338.802,183.206z"/>
			</g>
			<path style="fill:#12191C;" d="M339.377,200.742c-1.481,4.725-2.892,9.471-4.234,14.237c-0.806,2.861-1.588,5.739-1.998,8.683
				c-0.247,1.774-0.357,3.57-0.271,5.359c0.056,1.167,0.222,2.399,0.952,3.311c0.555,0.694,1.373,1.119,2.186,1.477
				c1.225,0.539,2.522,0.973,3.86,1.01c3.3,0.09,6.263-2.306,7.827-5.214c1.564-2.907,2.241-6.268,2.653-9.544
				c0.82-6.512,1.799-13.26,2.142-19.657C348.257,200.46,344.022,200.623,339.377,200.742z"/>
			<g>
				<path style="fill:#5B743A;" d="M289.659,222.9c-0.849-0.711-1.029-2.095-0.39-2.999c0.639-0.905,2.004-1.197,2.957-0.634
					c-0.224-0.452,0.228-0.934,0.637-1.228c0.788-0.567,1.661-1.12,2.631-1.131c0.97-0.012,2.009,0.752,1.931,1.72
					c0.539-0.83,1.736-1.15,2.617-0.7c0.881,0.451,1.322,1.609,0.964,2.532c1.025-0.317,2.215,0.654,2.11,1.722
					c-0.105,1.068-1.462,1.788-2.405,1.277c0.493,0.926,0.297,2.169-0.458,2.897c-0.755,0.729-2.004,0.881-2.911,0.354
					c-0.355,1.046-1.464,1.783-2.566,1.704s-2.095-0.966-2.297-2.052c-0.721,0.657-1.987,0.572-2.614-0.176
					C289.239,225.438,289.377,224.176,289.659,222.9z"/>
				<path style="fill:#BF4343;" d="M304.062,222.164c0.364-0.832-0.024-1.891-0.799-2.364c-0.775-0.473-1.835-0.366-2.556,0.185
					c-0.797,0.608-1.169,1.728-0.876,2.686c0.293,0.958,1.242,1.682,2.244,1.694C303.077,224.376,303.462,223.536,304.062,222.164z"
					/>
				<path style="fill:#8BB466;" d="M280.189,230.503c-1.003-0.559-1.962-1.275-2.534-2.271c-0.572-0.996-0.683-2.318-0.038-3.269
					c0.645-0.951,2.135-1.297,3-0.541c-0.495-0.783-0.318-1.921,0.393-2.516c0.71-0.595,1.861-0.571,2.546,0.053
					c-0.26-0.676,0.045-1.467,0.565-1.972c0.52-0.505,1.215-0.78,1.9-1.017c1.001-0.347,2.07-0.645,3.108-0.433
					c1.038,0.212,2.012,1.09,1.983,2.149c0.895-0.861,2.503-0.81,3.34,0.106c0.838,0.917,0.745,2.523-0.193,3.337
					c1.165-0.038,2.234,1.072,2.153,2.234c-0.081,1.163-1.293,2.114-2.442,1.915c0.298,0.883-0.314,1.896-1.176,2.25
					c-0.862,0.355-1.87,0.16-2.692-0.281c-1.004,1.738-3.698,2.168-5.193,0.829C283.429,232.427,280.742,232.039,280.189,230.503z"
					/>
				<path style="fill:#8BB466;" d="M294.68,231.374c-0.82-0.194-1.636-0.544-2.19-1.179c-0.554-0.635-0.783-1.602-0.386-2.345
					c0.397-0.743,1.505-1.063,2.142-0.511c-0.574-0.847-0.481-2.085,0.214-2.836c0.695-0.751,1.923-0.939,2.811-0.431
					c0.523-0.981,1.167-1.967,2.157-2.474c0.99-0.507,2.401-0.34,2.957,0.623c0.276-1.515,2.048-2.562,3.509-2.073
					c1.46,0.489,2.244,2.392,1.552,3.768c0.865-0.47,2.071-0.156,2.596,0.677c0.525,0.833,0.29,2.056-0.506,2.635
					c0.83,0.383,1.256,1.465,0.911,2.312c-0.346,0.846-1.407,1.321-2.268,1.014c-0.56,0.672-1.504,0.999-2.36,0.819
					c-0.856-0.181-1.587-0.862-1.827-1.703c-0.091,1.013-0.929,1.91-1.933,2.07c-1.004,0.16-2.08-0.431-2.483-1.364
					c-0.193,0.712-0.819,1.287-1.546,1.418c-0.726,0.131-1.514-0.189-1.944-0.789C295.777,232.006,294.115,232.154,294.68,231.374z"
					/>
				<path style="fill:#BF4343;" d="M289.04,223.446c-0.681-0.436-1.57-0.778-2.326-0.49c-0.328,0.125-0.569,0.409-0.755,0.706
					c-0.4,0.638-0.611,1.471-0.269,2.142c0.496,0.976,1.96,1.095,2.863,0.475c0.412-0.283,0.749-0.695,0.876-1.179
					C289.555,224.617,289.662,223.844,289.04,223.446z"/>
				<path style="fill:#BF4343;" d="M294.831,219.312c-0.501-1.083-1.896-1.652-3.011-1.228c-1.115,0.423-1.781,1.775-1.438,2.917
					c0.344,1.142,1.645,1.902,2.808,1.64C294.354,222.378,295.612,220.999,294.831,219.312z"/>
				<path style="fill:#BF4343;" d="M305.793,228.421c-0.063-1.259-1.118-2.434-2.376-2.503c-1.258-0.069-2.479,1.113-2.331,2.365
					c0.079,0.667,0.489,1.257,0.987,1.708c0.293,0.265,0.629,0.497,1.012,0.591c0.589,0.144,1.227-0.063,1.694-0.449
					C305.247,229.747,305.834,229.234,305.793,228.421z"/>
				<polygon style="fill:#FFFFFF;" points="280.99,234.434 277.137,228.526 311.073,228.526 308.242,234.629 				"/>
			</g>
		</g>
		<path style="fill:#D39886;" d="M351.167,180.659c-0.058-2.349-0.812-4.677-2.143-6.614c-0.411-0.599-1.024-1.221-1.741-1.1
			c-0.371,0.063-0.683,0.324-0.895,0.634c-0.549,0.804-0.49,1.873-0.286,2.825c0.12,0.56,0.286,1.117,0.573,1.612
			C347.517,179.469,349.223,180.142,351.167,180.659z"/>
		<path style="fill:#BF4343;" d="M169.071,264.67"/>
		<g>
			<path style="fill:#EABFA2;" d="M136.363,185.962c-1.015,0.968-1.239,2.555-0.884,3.912c0.355,1.357,1.2,2.529,2.087,3.616
				c1.692,2.075,3.608,3.981,5.79,5.532c1.293,0.919,2.725,1.729,4.3,1.922c1.575,0.193,3.081-0.108,4.046-1.366
				C146.607,195.141,141.75,190.467,136.363,185.962z"/>
			<path style="fill:#EABFA2;" d="M137.666,182.195c5.459,5.472,11.019,10.844,16.735,16.044c1.205-1.521,1.384-3.677,0.836-5.538
				c-0.548-1.861-1.738-3.469-3.057-4.892c-2.095-2.258-4.338-4.395-7.065-5.829c-1.119-0.588-2.541-0.868-3.798-1
				C140.059,180.848,138.709,181.145,137.666,182.195z"/>
			<path style="fill:#E7B0D0;" d="M140.46,189.889c4.037,3.672,8.193,7.212,12.461,10.613c0.253,0.202,0.521,0.41,0.84,0.467
				c0.319,0.057,0.7-0.094,0.787-0.406c0.071-0.254-0.068-0.515-0.213-0.736c-0.667-1.013-1.565-1.85-2.457-2.672
				c-4.603-4.239-9.305-8.37-14.101-12.388c-0.978-0.819-1.842-1.761-2.707-0.824C134.335,184.739,137.896,187.557,140.46,189.889z"
				/>
			<path style="fill:#8BB466;" d="M139.267,182.732c-0.732-0.036-1.511-0.062-2.146,0.305c-0.635,0.367-1.007,1.283-0.551,1.857
				c0.378,0.476,1.087,0.488,1.692,0.43c-0.229,0.66-0.038,1.446,0.469,1.926c0.507,0.48,1.303,0.628,1.949,0.363
				c-0.102,1.404,1.451,2.656,2.802,2.258c0.04,1.657,1.611,3.118,3.266,3.037c-0.256,1.314,1.222,2.622,2.495,2.208
				c-0.184,1.246,1.183,2.443,2.393,2.095c-0.392,0.943,0.845,2.059,1.743,1.572c0.004,0.727,1.14,0.993,1.632,0.458
				c0.492-0.535,0.367-1.422-0.056-2.013c-0.423-0.591-1.071-0.971-1.665-1.389c-0.977-0.688-1.847-1.514-2.713-2.337
				C146.886,189.996,143.195,186.488,139.267,182.732z"/>
			<path style="fill:#CA816F;" d="M113.803,209.526c3.925,3.456,8,6.742,11.908,10.166c4.108-6.122,7.967-12.411,11.178-18.625
				c-0.106-2.331-1.196-4.579-1.006-6.904c0.095-1.154,0.505-2.264,1.048-3.287c0.204-0.385,0.46-0.788,0.872-0.929
				c0.518-0.178,1.103,0.147,1.39,0.613c0.287,0.466,0.339,1.036,0.354,1.583c0.028,1.018-0.047,2.04,0.061,2.927
				c1.898,2.028,3.933,4.143,6.606,4.898c1.514,0.428,3.148,0.377,4.655-0.074c-4.623,6.529-8.015,13.662-11.678,20.509
				c-1.442,3.092-3.598,5.951-5.267,8.927c-1.346,2.399-3.038,4.881-5.649,5.744c-3.071,1.015-6.353-0.524-9.171-2.112
				c-3.786-2.134-7.477-4.436-11.06-6.896c-1.916-1.315-3.812-2.686-5.426-4.358c-0.622-0.644-1.219-1.367-1.42-2.239
				c-0.244-1.06,0.138-2.17,0.681-3.113C104.098,212.5,108.658,210.727,113.803,209.526z"/>
			<g>
				<g>
					<g>
						<path style="fill:#9EA6B2;" d="M145.184,356.927c5.285,0.246,10.354,2.125,15.181,4.289c1.905,0.854,3.833,1.788,5.276,3.298
							c1.681,1.759,2.566,4.251,2.372,6.676c0,0-37.717-0.359-37.732-0.452c-0.302-3.417-0.077-6.881,0.666-10.23
							c0.256-1.155,0.584-2.32,1.247-3.301c1.253-1.853,3.584-2.782,5.82-2.754C140.25,354.482,141.99,356.779,145.184,356.927z"/>
						<g>
							<defs>
								<path id="SVGID_00000182501267019947447300000015137698095961374638_" d="M145.184,356.927
									c5.285,0.246,10.354,2.125,15.181,4.289c1.905,0.854,3.833,1.788,5.276,3.298c1.681,1.759,2.566,4.251,2.372,6.676
									c0,0-37.717-0.359-37.732-0.452c-0.302-3.417-0.077-6.881,0.666-10.23c0.256-1.155,0.584-2.32,1.247-3.301
									c1.253-1.853,3.584-2.782,5.82-2.754C140.25,354.482,141.99,356.779,145.184,356.927z"/>
							</defs>
							<clipPath id="SVGID_00000048487395417536578710000013459187875788749464_">
								<use xlink:href="#SVGID_00000182501267019947447300000015137698095961374638_"  style="overflow:visible;"/>
							</clipPath>
							<path style="clip-path:url(#SVGID_00000048487395417536578710000013459187875788749464_);fill:#F4F4F4;" d="M127.433,368.307
								c13.641,0.592,27.297,0.843,40.951,0.752c0.849-0.006,2.032,0.365,1.848,1.194c-0.098,0.441-0.569,0.676-0.991,0.84
								c-6.587,2.556-13.871,2.431-20.931,2.15c-4.499-0.179-8.997-0.406-13.494-0.634c-1.452-0.073-2.94-0.155-4.275-0.732
								C129.207,371.3,128.037,370.113,127.433,368.307z"/>
						</g>
					</g>
					<path style="fill:#CA816F;" d="M132.187,349.699c-0.205,2.53-0.28,5.07,0.022,7.497c4.428,1.652,9.459,1.63,13.747,0.153
						c-0.032-2.101-0.088-3.942-0.532-6.286C141.146,350.312,136.83,349.769,132.187,349.699z"/>
				</g>
				<path style="fill:#12191C;" d="M141.443,353.459c2.496-0.03,4.993-0.061,7.652-1.244c-0.258-24.239-2.63-48.454-7.08-72.283
					c-0.375-2.01-0.774-4.043-1.659-5.886c-1.178-2.453-3.16-4.437-5.32-6.092c-6.059-4.646-13.637-6.975-21.222-7.847
					c-7.585-0.872-15.253-0.373-22.872,0.127c-0.599,3.424-1.199,6.848-1.798,10.271c5.768,0.467,11.376,2.105,16.849,3.981
					c5.027,1.723,10.248,3.848,13.454,8.086c2.654,3.508,3.562,7.995,4.397,12.314c3.789,19.59,7.579,39.179,11.368,58.769
					C136.287,353.725,137.347,353.509,141.443,353.459z"/>
			</g>
			<g>
				<g>
					<g>
						<path style="fill:#BBBFC7;" d="M139.171,356.467c5.285,0.246,10.354,2.125,15.181,4.289c1.905,0.854,3.833,1.788,5.276,3.297
							c1.681,1.759,2.566,4.251,2.372,6.677c0,0-37.718-0.359-37.732-0.452c-0.302-3.417-0.077-6.881,0.666-10.23
							c0.256-1.155,0.584-2.32,1.247-3.301c1.253-1.853,3.584-2.782,5.82-2.754C134.237,354.022,135.977,356.319,139.171,356.467z"
							/>
						<g>
							<defs>
								<path id="SVGID_00000170245312689274826310000009792816728499118527_" d="M139.171,356.467
									c5.285,0.246,10.354,2.125,15.181,4.289c1.905,0.854,3.833,1.788,5.276,3.297c1.681,1.759,2.566,4.251,2.372,6.677
									c0,0-37.718-0.359-37.732-0.452c-0.302-3.417-0.077-6.881,0.666-10.23c0.256-1.155,0.584-2.32,1.247-3.301
									c1.253-1.853,3.584-2.782,5.82-2.754C134.237,354.022,135.977,356.319,139.171,356.467z"/>
							</defs>
							<clipPath id="SVGID_00000122679848000396255930000000083701743362770865_">
								<use xlink:href="#SVGID_00000170245312689274826310000009792816728499118527_"  style="overflow:visible;"/>
							</clipPath>
							<path style="clip-path:url(#SVGID_00000122679848000396255930000000083701743362770865_);fill:#FFFFFF;" d="M121.421,367.847
								c13.641,0.592,27.297,0.843,40.951,0.752c0.849-0.006,2.032,0.365,1.848,1.194c-0.098,0.441-0.569,0.676-0.99,0.84
								c-6.587,2.556-13.871,2.431-20.931,2.15c-4.499-0.179-8.997-0.406-13.494-0.633c-1.452-0.073-2.94-0.155-4.275-0.732
								C123.194,370.84,122.024,369.653,121.421,367.847z"/>
						</g>
					</g>
					<path style="fill:#CA816F;" d="M126.174,349.239c-0.205,2.53-0.28,5.07,0.022,7.497c4.428,1.652,9.459,1.63,13.747,0.153
						c-0.032-2.101-0.088-3.942-0.532-6.286C135.133,349.852,130.817,349.309,126.174,349.239z"/>
				</g>
				<path style="fill:#2E3E47;" d="M54.645,246.573c-2.645,7.941-5.274,16.725-2.071,24.458c1.415,3.415,3.863,6.291,6.398,8.982
					c1.642,1.743,3.99,2.171,6.034,2.585c15.709,3.187,31.59,0.514,48.487,2.845c1.552,5.683,2.171,12.047,2.784,17.906
					c0.543,5.186,1.086,10.372,1.628,15.558c0.495,4.732,0.991,9.469,1.116,14.225c0.163,6.229-0.31,12.48,0.694,18.635
					c8.448,1.072,17.046,0.963,25.577-0.751c-0.439-14.772-1.921-29.513-4.22-43.402c-0.979-9.998-1.958-19.996-2.937-29.994
					c-0.457-4.668-1.078-9.711-4.313-13.107c-2.189-2.298-5.276-3.492-8.328-4.559C102.073,257.915,78.814,253.997,54.645,246.573z"
					/>
			</g>
			<path style="fill:#CE9841;" d="M94.741,184.619c7.753,8.351,15.506,16.703,24.049,25.752c-5.129,4.87-10.614,9.366-16.449,13.415
				c-6.709-6.932-11.515-15.688-13.763-25.069c-0.673-2.808-1.118-5.766-0.423-8.569C88.851,187.345,90.916,184.724,94.741,184.619z
				"/>
			<path style="fill:#DBA74B;" d="M72.592,177.763c-4.217,2.406-7.465,6.268-9.803,10.524c-2.338,4.255-3.832,8.917-5.173,13.583
				c-4.552,15.835-7.515,32.125-9.213,48.264c14.13,6.829,30.335,7.695,46.443,7.232c0.957-9.479,1.913-18.958,2.87-28.437
				c0.464-4.598,0.929-9.21,0.817-13.83c-0.146-6.032,0.748-24.001-3.674-29.558c-0.757-0.951-0.927-2.298-1.817-3.127
				c-0.771-0.717-1.779-1.111-2.762-1.489C85.937,179.256,80.459,176.776,72.592,177.763z"/>
			<g>
				<path style="fill:#53291B;" d="M82.72,137.616c-2.143-0.332-4.337,0.74-5.768,2.37c-1.431,1.63-2.194,3.745-2.641,5.867
					c-1.449,6.874,0.127,14.025,2.323,20.699c0.623,1.894,1.349,3.853,2.821,5.198c1.472,1.345,3.916,1.839,5.565,0.505
					c3.321-2.786,5.728-6.538,7.443-10.519s2.775-8.209,3.701-12.568c4.133,0.554,8.471,1.086,12.367-0.401
					c1.313-0.501,2.531-1.218,3.742-1.932c2.777-1.637,5.58-3.292,7.929-5.501c0.515-0.484,1.017-1.01,1.286-1.663
					c0.269-0.653,0.259-1.464-0.193-2.007c-0.53-0.638-1.477-0.728-2.3-0.622c-1.166,0.15-2.293,0.596-3.499,1.43
					c0.944-0.64,1.772-1.452,2.431-2.384c0.624-0.882,1.106-2.01,0.736-3.026c-0.313-0.86-1.191-1.423-2.093-1.572
					c-0.903-0.149-1.828,0.055-2.695,0.346c-1.086,0.364-2.126,0.865-3.447,1.374c-6.524-3.684-14.661-5.216-21.583-2.347
					C85.917,132.074,83.078,134.424,82.72,137.616z"/>
				<path style="fill:#2F1207;" d="M115.571,138.102c-2.488,1.192-5.169,2.339-7.908,2.011c1.391,0.148,2.798,0.295,4.183,0.099
					C113.23,140.016,114.612,139.437,115.571,138.102z"/>
			</g>
			<g>
				<path style="fill:#BD6E61;" d="M112.236,151.407c2.318,2.264,4.113,5.061,5.204,8.111c0.385,1.075,0.686,2.203,0.634,3.343
					c-0.052,1.14-0.497,2.303-1.386,3.02c-0.798,0.643-1.869,0.864-2.894,0.829c-0.797-0.028-1.675-0.256-2.1-0.931
					c-0.333-0.531-0.303-1.204-0.262-1.829C111.701,159.88,111.969,155.809,112.236,151.407z"/>
				<path style="fill:#CA816F;" d="M85.5,154.083c-1.04-0.787-2.171-1.609-3.475-1.652c-2.086-0.069-3.725,1.926-4.211,3.956
					c-0.366,1.525-0.268,3.186,0.427,4.592c0.695,1.406,2.021,2.523,3.562,2.814c0.932,0.176,1.892,0.055,2.771-0.163
					c-0.68,4.914-2.643,9.645-5.497,13.44c4.264,5.666,10.352,9.936,17.353,11.916c-1.09-3.709-0.913-7.779,0.631-11.585
					c3.664,1.032,7.911,0.566,10.785-1.931c2.639-2.293,3.737-5.845,4.696-8.971c1.196-6.51,1.204-13.237-0.232-19.791
					c-6.81,0.983-13.76,1-20.487,0.021c-0.202,3.264-0.705,6.508-1.499,9.68c-0.424,1.693-0.951,3.405-2.002,4.798
					c-0.533,0.706-1.468,1.362-2.24,0.928c-0.53-0.298-0.699-0.971-0.785-1.573C84.982,158.354,85.49,156.233,85.5,154.083z"/>
				<path style="fill:#B25D50;" d="M84.267,155.416c-0.299-0.956-1.823-0.96-2.792-0.707s-1.785,1.027-2.09,1.981
					c0.177,0.105,0.393-0.033,0.565-0.146c0.711-0.468,1.653-0.565,2.445-0.251c0.438,0.174,0.928,0.466,1.34,0.238
					C84.043,156.361,84.439,155.964,84.267,155.416z"/>
				<path style="fill:#53291B;" d="M104.255,153.073c1.706-0.365,3.463-0.492,5.204-0.376c0.368,0.024,0.757,0.056,1.089-0.105
					c0.503-0.244,0.721-0.9,0.563-1.437c-0.158-0.537-0.621-0.945-1.14-1.153c-0.519-0.209-1.091-0.243-1.651-0.234
					c-1.917,0.032-3.89,0.597-5.282,1.915c-0.352,0.333-0.675,0.871-0.396,1.266C102.917,153.338,103.515,153.231,104.255,153.073z"
					/>
				<path style="fill:#2E3E47;" d="M109.448,156.327c-0.055-0.368-0.532-0.599-0.855-0.415c-0.178,0.102-0.289,0.29-0.368,0.479
					c-0.164,0.394-0.223,0.831-0.171,1.255c0.036,0.294,0.159,0.618,0.436,0.722c0.218,0.082,0.472-0.007,0.639-0.169
					c0.167-0.162,0.259-0.386,0.321-0.61C109.568,157.168,109.511,156.743,109.448,156.327z"/>
				<path style="fill:#BD6E61;" d="M94.474,159.145c-1.942,0.77-3.127,2.928-3.083,5.016c0.044,2.089,0.922,4.292,2.458,5.708
					c1.018,0.939,2.534,1.457,3.919,1.479c0.921,0.015,1.82-0.296,2.644-0.708c1.154-0.578,2.228-1.39,2.884-2.501
					c1.331-2.252,0.618-5.514-1.063-7.517c-0.817-0.974-1.86-1.545-3.062-1.958C97.967,158.251,96.612,158.296,94.474,159.145z"/>
				<path style="fill:#B25D50;" d="M96.707,177.39c-2.191-0.363-4.301-1.21-6.136-2.462
					C92.574,175.625,94.559,176.371,96.707,177.39z"/>
				<g>
					<defs>
						<path id="SVGID_00000094592173575966184850000014925771392633293207_" d="M85.5,154.083c-1.04-0.787-2.171-1.609-3.475-1.652
							c-2.086-0.069-3.725,1.926-4.211,3.956c-0.366,1.525-0.268,3.186,0.427,4.592c0.695,1.406,2.021,2.523,3.562,2.814
							c0.932,0.176,1.892,0.055,2.771-0.163c-0.68,4.914-2.643,9.645-5.497,13.44c4.264,5.666,10.352,9.936,17.353,11.916
							c-1.09-3.709-0.913-7.779,0.631-11.585c3.664,1.032,7.911,0.566,10.785-1.931c2.639-2.293,3.737-5.845,4.696-8.971
							c1.196-6.51,1.204-13.237-0.232-19.791c-6.81,0.983-13.76,1-20.487,0.021c-0.202,3.264-0.705,6.508-1.499,9.68
							c-0.424,1.693-0.951,3.405-2.002,4.798c-0.533,0.706-1.468,1.362-2.24,0.928c-0.53-0.298-0.699-0.971-0.785-1.573
							C84.982,158.354,85.49,156.233,85.5,154.083z"/>
					</defs>
					<clipPath id="SVGID_00000038408249279748972020000002763100467875562659_">
						<use xlink:href="#SVGID_00000094592173575966184850000014925771392633293207_"  style="overflow:visible;"/>
					</clipPath>
					<g style="clip-path:url(#SVGID_00000038408249279748972020000002763100467875562659_);">
						<path style="fill:#2E3E47;" d="M112.968,167.805c-1.107-0.427-2.214-0.854-3.321-1.281c-0.895-0.345-1.934-0.684-2.774-0.22
							c-0.679,0.375-1.016,1.218-0.929,1.99c0.087,0.771,0.539,1.465,1.109,1.992c1.091,1.009,2.571,1.462,3.996,1.884
							c0.339,0.101,0.734,0.193,1.024-0.01c0.212-0.149,0.301-0.415,0.372-0.663C112.773,170.356,112.998,169.188,112.968,167.805z"
							/>
						<g>
							<defs>
								<path id="SVGID_00000124847097345728263140000007437791560612268700_" d="M112.968,167.805
									c-1.107-0.427-2.214-0.854-3.321-1.281c-0.895-0.345-1.934-0.684-2.774-0.22c-0.679,0.375-1.016,1.218-0.929,1.99
									c0.087,0.771,0.539,1.465,1.109,1.992c1.091,1.009,2.571,1.462,3.996,1.884c0.339,0.101,0.734,0.193,1.024-0.01
									c0.212-0.149,0.301-0.415,0.372-0.663C112.773,170.356,112.998,169.188,112.968,167.805z"/>
							</defs>
							<clipPath id="SVGID_00000093151944183476800530000008794107838251823792_">
								<use xlink:href="#SVGID_00000124847097345728263140000007437791560612268700_"  style="overflow:visible;"/>
							</clipPath>
							<path style="clip-path:url(#SVGID_00000093151944183476800530000008794107838251823792_);fill:#FFFFFF;" d="M106.014,166.304
								c2.19,1.639,4.713,2.829,7.371,3.475c0.115,0.028,0.243,0.054,0.348-0.001c0.091-0.048,0.143-0.145,0.188-0.237
								c0.3-0.61,0.547-1.247,0.736-1.9c-1.894-0.722-3.788-1.443-5.682-2.165c-0.562-0.214-1.149-0.432-1.747-0.371
								C106.63,165.165,106.023,165.596,106.014,166.304z"/>
						</g>
					</g>
				</g>
			</g>
			<g>
				<path style="fill:#CA816F;" d="M70.311,219.423c3.453,12.734,8.922,25.551,19.122,33.919c1.825,1.497,3.816,2.851,6.06,3.585
					c2.403,0.785,4.974,0.824,7.497,0.986c5.383,0.346,10.708,1.286,16.02,2.225c3.258,0.576,7.022,0.685,10.071,1.968
					c3.049,1.283,5.406,3.818,7.106,6.587c0.101,0.226,0.207,0.46,0.392,0.624c0.185,0.164,0.474,0.239,0.684,0.109
					c0.109-0.068,0.182-0.18,0.241-0.294c0.266-0.513,0.298-1.142,0.09-1.79c0.359,0.272,0.936,0.189,1.203-0.174
					c0.134-0.183,0.191-0.412,0.217-0.638c0.098-0.824-0.157-1.645-0.474-2.581c0.318,0.123,0.687,0.243,0.984,0.077
					c0.309-0.173,0.394-0.578,0.39-0.932c-0.01-0.847-0.356-1.686-1.034-2.373c0.232-0.21,0.325-0.543,0.301-0.856
					s-0.15-0.607-0.299-0.883c-0.939-1.732-2.743-2.793-4.22-3.682c-4.654-2.449-9.564-4.411-14.505-5.99
					c-4.167-1.386-8.334-2.773-12.502-4.159c-2.604-0.866-5.951-1.985-8.26-3.469c-2.309-1.484-4.187-4.94-4.995-7.26
					c-2.103-6.037-4.132-10.343-4.911-16.37C83.38,218.213,77.28,218.767,70.311,219.423z"/>
				<path style="fill:#9C4941;" d="M137.566,267.268c-0.838-2.629-2.3-5.17-4.606-6.686
					C135.488,261.681,137.325,264.226,137.566,267.268z"/>
				<path style="fill:#9C4941;" d="M138.456,263.988c-1.055-2.343-2.922-4.312-5.205-5.491c1.227,0.54,2.428,1.181,3.415,2.087
					C137.654,261.491,138.419,262.69,138.456,263.988z"/>
				<path style="fill:#9C4941;" d="M138.778,260.641c-1.654-1.584-3.383-3.214-5.554-3.945c1.118,0.089,2.169,0.599,3.064,1.274
					C137.184,258.645,137.943,259.481,138.778,260.641z"/>
			</g>
			<path style="fill:#EEC25C;" d="M75.574,176.473c-4.027-0.023-7.692,4.025-9.397,7.674c-1.705,3.648-1.966,7.794-1.945,11.821
				c0.045,8.726,1.279,17.395,2.101,26.119c8.743,0.951,17.72-0.335,25.97-3.698c-0.811-8.212-1.904-15.633-2.975-23.331
				c-0.414-2.978-0.597-5.981-1.621-8.808c-1.023-2.827-2.947-6.214-5.435-7.902C80.376,177.062,78.132,176.488,75.574,176.473z"/>
			<path style="fill:#CA816F;" d="M152.31,188.74c-0.49,1-1.535,1.92-1.238,2.993c0.17,0.613,0.78,1.037,1.41,1.117
				c0.631,0.081,1.268-0.132,1.817-0.454c1.011-0.593,1.821-1.68,1.734-2.849c-0.087-1.169-1.353-2.206-2.445-1.783
				c0.567-0.496,0.669-1.44,0.22-2.045c-0.449-0.605-1.382-0.782-2.021-0.383c0.393-0.55,0.009-1.388-0.608-1.663
				c-0.617-0.275-1.341-0.127-1.966,0.128c0.374-0.289,0.368-0.894,0.092-1.278c-0.275-0.384-0.739-0.585-1.196-0.705
				c-1.174-0.309-2.456-0.194-3.556,0.32c-0.894,0.418-1.745,1.336-1.464,2.281c0.198,0.667,0.913,1.071,1.606,1.124
				c0.693,0.053,1.374-0.172,2.033-0.394c-0.613,0.516-1.251,1.309-0.908,2.033c0.217,0.457,0.758,0.67,1.262,0.715
				c0.718,0.065,1.456-0.13,2.048-0.541c-0.375,0.444-0.737,0.991-0.632,1.562c0.128,0.698,0.935,1.1,1.641,1.027
				C150.845,189.875,151.463,189.459,152.31,188.74z"/>
		</g>
		<g>
			<path style="fill:#395471;" d="M178.709,245.878c-3.202,3.697-5.586,8.099-6.932,12.801c-0.944,3.296-1.342,6.989,0.233,10.034
				c1.228,2.375,3.532,4.059,6.02,5.038s5.175,1.325,7.836,1.596c12.747,1.299,25.595,1.051,38.406,0.801
				c2.618-0.051,5.249-0.103,7.829-0.554c2.194-0.384,3.229-0.151,4.85-1.678c3.078-2.899,6.632-19.887-5.145-23.063
				c-15.962-4.304-30.082-6.149-46.588-5.224"/>
			<g>
				<path style="fill:#EAB59F;" d="M224.479,343.721c-0.464,4.458-0.928,8.916-1.392,13.374c-3.037,0.163-6.074,0.326-9.111,0.49
					c-0.514-4.362-0.813-8.749-0.893-13.14c-0.006-0.308-0.008-0.629,0.124-0.908c0.149-0.317,0.45-0.535,0.75-0.717
					C217.122,340.899,221.363,341.548,224.479,343.721z"/>
				<g>
					<path style="fill:#EEC25C;" d="M230.659,370.511c-0.126-2.878-0.611-6.19-1.742-8.84c-0.511-1.197-1.113-2.371-1.952-3.366
						c-1.996-2.365-5.172-3.486-8.264-3.606c-2.15-0.084-4.336,0.275-6.275,1.206c-1.939,0.931-3.619,2.454-4.584,4.377
						c-0.591,1.178-0.905,2.474-1.142,3.771c-0.381,2.088-0.573,4.21-0.573,6.332C212.589,370.836,229.915,370.63,230.659,370.511z"
						/>
					<g>
						<defs>
							<path id="SVGID_00000018223374706122633770000017548672675268716454_" d="M230.659,370.511
								c-0.126-2.878-0.611-6.19-1.742-8.84c-0.511-1.197-1.113-2.371-1.952-3.366c-1.996-2.365-5.172-3.486-8.264-3.606
								c-2.15-0.084-4.336,0.275-6.275,1.206c-1.939,0.931-3.619,2.454-4.584,4.377c-0.591,1.178-0.905,2.474-1.142,3.771
								c-0.381,2.088-0.573,4.21-0.573,6.332C212.589,370.836,229.915,370.63,230.659,370.511z"/>
						</defs>
						<clipPath id="SVGID_00000153699297887750092740000002330264143534317969_">
							<use xlink:href="#SVGID_00000018223374706122633770000017548672675268716454_"  style="overflow:visible;"/>
						</clipPath>
						<path style="clip-path:url(#SVGID_00000153699297887750092740000002330264143534317969_);fill:#FFFFFF;" d="M204.938,367.712
							c8.747,0.005,17.493,0.01,26.24,0.015c0.337,0,0.696,0.008,0.977,0.225c0.418,0.324,0.517,1.004,0.438,1.583
							c-0.117,0.853-0.544,1.642-1.154,2.13c-0.619,0.495-1.379,0.67-2.118,0.822c-5.711,1.173-11.532,1.612-17.324,1.306
							c-1.609-0.085-3.228-0.229-4.785-0.715c-0.618-0.193-1.245-0.453-1.709-0.969
							C204.687,371.203,204.565,369.756,204.938,367.712z"/>
					</g>
				</g>
				<path style="fill:#55709B;" d="M230.805,343.296c-6.735,1.947-14.023,1.941-21.115,0.107
					c-0.142-20.411-0.284-40.822-0.225-60.803c0.005-5.064,0.661-10.127,1.948-15.025c0.808-3.076,2.026-6.304,4.669-8.072
					c1.444-0.966,3.186-1.395,4.913-1.584c3.488-0.381,7.205,0.221,10.011,2.328c2.382,1.788,3.212,3.809,4.042,6.669
					c0.83,2.86,0.353,13.21,0.36,15.622C235.474,304.935,232.051,320.404,230.805,343.296z"/>
			</g>
			<g>
				<path style="fill:#EAB59F;" d="M180.471,343.959c0.464,4.458,0.928,8.916,1.392,13.374c3.037,0.163,6.074,0.326,9.111,0.49
					c0.514-4.362,0.813-8.749,0.894-13.14c0.006-0.308,0.008-0.629-0.124-0.908c-0.149-0.318-0.45-0.535-0.75-0.717
					C187.828,341.137,183.587,341.785,180.471,343.959z"/>
				<path style="fill:#55709B;" d="M176.66,344.72c6.735,1.947,14.023,1.941,21.115,0.107c0.142-20.411,0.284-40.822,0.225-60.803
					c-0.005-5.064-0.661-10.127-1.948-15.025c-0.808-3.076-2.026-6.305-4.67-8.072c-1.444-0.966-3.186-1.395-4.913-1.583
					c-3.488-0.381-7.205,0.221-10.011,2.328c-2.382,1.788-3.212,3.808-4.042,6.669c-0.83,2.86-0.353,13.21-0.36,15.622
					C171.991,306.36,175.414,321.829,176.66,344.72z"/>
				<g>
					<path style="fill:#EEC25C;" d="M174.291,370.749c0.126-2.878,0.611-6.19,1.742-8.84c0.511-1.197,1.113-2.371,1.952-3.365
						c1.996-2.365,5.172-3.486,8.264-3.606c2.15-0.084,4.336,0.275,6.275,1.206c1.939,0.931,3.619,2.454,4.583,4.377
						c0.591,1.178,0.905,2.474,1.142,3.771c0.381,2.088,0.573,4.21,0.573,6.332C192.361,371.073,175.035,370.868,174.291,370.749z"
						/>
					<g>
						<defs>
							<path id="SVGID_00000037691070859124138690000014463761960035794846_" d="M174.291,370.749
								c0.126-2.878,0.611-6.19,1.742-8.84c0.511-1.197,1.113-2.371,1.952-3.365c1.996-2.365,5.172-3.486,8.264-3.606
								c2.15-0.084,4.336,0.275,6.275,1.206c1.939,0.931,3.619,2.454,4.583,4.377c0.591,1.178,0.905,2.474,1.142,3.771
								c0.381,2.088,0.573,4.21,0.573,6.332C192.361,371.073,175.035,370.868,174.291,370.749z"/>
						</defs>
						<clipPath id="SVGID_00000056426454589374325230000017698800231459080868_">
							<use xlink:href="#SVGID_00000037691070859124138690000014463761960035794846_"  style="overflow:visible;"/>
						</clipPath>
						<path style="clip-path:url(#SVGID_00000056426454589374325230000017698800231459080868_);fill:#FFFFFF;" d="M200.012,367.95
							c-8.747,0.005-17.493,0.01-26.24,0.015c-0.337,0-0.696,0.008-0.977,0.225c-0.418,0.324-0.517,1.004-0.438,1.583
							c0.117,0.853,0.544,1.643,1.154,2.131c0.619,0.495,1.379,0.67,2.118,0.822c5.711,1.173,11.532,1.611,17.324,1.306
							c1.609-0.085,3.228-0.229,4.785-0.715c0.618-0.193,1.245-0.453,1.71-0.969C200.263,371.44,200.385,369.993,200.012,367.95z"/>
					</g>
				</g>
			</g>
		</g>
		<g>
			<path style="fill:#2E3E47;" d="M210.44,138.33c-2.823-1.683-6.34-2.156-9.508-1.279c-3.167,0.877-5.94,3.092-7.495,5.988
				c-1.928,3.59-2.06,8.121-4.751,11.181c-2.065,2.349-5.422,3.538-6.817,6.338c-1.406,2.821,0.867,6.089-0.234,9.042
				c-0.975,2.612-3.478,4.338-4.863,6.756c-1.186,2.07-1.483,4.515-1.757,6.886c-0.252,2.184,0.507,4.063,1.288,4.975
				c1.532,1.789,3.478,3.221,5.642,4.151c2.341,1.006,3.706,1.656,6.241,1.913c4.337,0.44,8.718,0.449,13.057,0.027
				c9.49-0.922,18.884-3.897,28.373-2.961c2.339,0.231,4.69,0.699,7.02,0.392c2.33-0.307,4.717-1.595,5.515-3.805
				c0.42-1.164,0.358-2.447,0.156-3.668c-0.538-3.254-2.045-6.341-4.279-8.766c-0.879-0.954-1.889-1.839-2.413-3.026
				c-1.549-3.514,1.837-7.599,0.77-11.288c-0.836-2.89-4.029-4.367-5.728-6.849c-1.85-2.702-1.733-6.256-2.782-9.358
				c-1.534-4.539-5.584-8.258-10.342-8.827C214.945,135.841,211.725,136.789,210.44,138.33z"/>
			<path style="fill:#DAA292;" d="M166.3,199.325c-2.939,3.82-5.12,8.156-7.282,12.463c-2.213,4.407-4.474,9.004-4.565,13.934
				c-0.011,0.621,0.038,1.307,0.472,1.751c0.738,0.755,2.003,0.336,2.95-0.132c4.304-2.124,8.602-4.341,12.376-7.305
				c3.775-2.964,7.27-6.508,8.925-11.013c0.31-0.845,0.327-2.006,0.083-2.872c-0.305-1.082-1.299-1.804-2.24-2.419
				c-1.943-1.271-3.938-2.464-5.977-3.574C169.92,199.547,168.54,198.959,166.3,199.325z"/>
			<g>
				<path style="fill:#DB6A5D;" d="M246.009,195.331c-2.563-4.816-5.57-9.552-9.897-12.874c-1.223-0.939-2.537-1.753-3.862-2.542
					c-3.642-2.165-7.479-4.177-11.66-4.87c-2.781-0.461-5.623-0.322-8.439-0.182c-2.877,0.143-5.765,0.393-11.235-0.217
					c-5.301-0.591-10.759,0.303-15.594,2.553c-7.425,3.456-13.052,9.841-17.902,16.441c-2.038,2.774-3.992,5.636-5.393,8.809
					c5.455,2.749,10.971,5.376,16.627,7.92c1.625-3.503,3.25-7.005,4.804-10.677c-1.281,12.987-2.453,25.984-2.717,38.509
					c18.337,2.237,33.326,2.136,51.833,0.773c-0.122-1.476-0.23-2.954-0.346-4.431c-13.52-0.1-27.04-0.199-40.56-0.299
					c-2.829-0.021-5.657-0.042-8.486-0.063c-0.27-0.002-0.556-0.009-0.781-0.158c-0.525-0.348-0.359-1.156-0.081-1.721
					c1-2.034,2.691-3.721,4.729-4.714c1.387-0.677,2.906-1.032,4.413-1.364c13.07-2.882,26.436-4.416,39.819-4.593
					c-0.496-7.307-0.941-14.615-1.355-21.918c0.909,5.042,1.819,10.084,2.737,14.885c0.576-0.148,1.149-0.305,1.724-0.455
					c4.997-1.309,9.966-2.725,14.904-4.244c0.763-0.235,1.529-0.464,2.29-0.704C251.615,209.185,248.31,199.655,246.009,195.331z"/>
				<path style="fill:#BF4343;" d="M229.541,198.738c-0.61-2.539-1.22-5.077-1.83-7.616
					C229.229,193.199,229.936,195.854,229.541,198.738z"/>
				<path style="fill:#BF4343;" d="M183.625,199.385c0.219-1.879,0.707-3.726,1.445-5.467
					C185.105,195.791,184.705,197.672,183.625,199.385z"/>
			</g>
			<path style="fill:#D39886;" d="M189.971,190.163c0.872-1.424,1.874-2.769,2.989-4.013c0.349-0.39,0.721-0.778,1.193-1.006
				c0.471-0.228,1.067-0.267,1.498,0.03c0.41,0.283,0.591,0.816,0.565,1.313c-0.026,0.497-0.229,0.967-0.455,1.411
				c-0.252,0.493-0.536,0.97-0.851,1.426c-0.19,0.275-0.395,0.546-0.669,0.737c-0.544,0.378-1.264,0.374-1.92,0.276
				C191.665,190.24,191.007,190.063,189.971,190.163z"/>
			<g>
				<path style="fill:#BBBFC7;" d="M203.632,195.069c-6.046-2.528-12.001-5.275-17.848-8.234c-0.341-0.173-0.692-0.354-0.932-0.652
					c-0.24-0.298-0.337-0.746-0.125-1.064c0.318-0.477,1.039-0.373,1.581-0.188c1.398,0.476,2.731,1.122,4.059,1.766
					c4.703,2.28,9.407,4.561,14.085,6.955c0.546-0.707,1.637-0.559,2.497-0.317c2.408,0.677,4.763,1.538,7.039,2.576
					c0.326,0.148,0.712,0.446,0.573,0.775c-0.629,0.186-1.235-0.273-1.865-0.457c-1.865-0.543-2.761-0.924-4.191-1.214
					c-0.084-0.017-0.175-0.033-0.253,0.003c-0.143,0.067-0.155,0.282-0.063,0.41c0.092,0.128,0.248,0.19,0.396,0.246
					c1.785,0.676,3.571,1.352,5.356,2.028c0.247,0.094,0.547,0.277,0.486,0.535c-0.057,0.245-0.385,0.291-0.635,0.263
					c-1.842-0.2-3.35-1.123-5.268-1.702c-0.365-0.11-0.825-0.229-1.005,0.106c-0.226,0.419,1.422,0.864,2.114,1.171
					c1.269,0.564,2.626,0.917,3.846,1.582c0.15,0.082,0.321,0.205,0.303,0.375c-0.023,0.217-0.313,0.27-0.531,0.258
					c-2.108-0.12-4.111-0.952-5.982-1.93C205.706,197.543,204.136,196.553,203.632,195.069z"/>
				<path style="fill:#8BB466;" d="M211.898,196.977c-0.385,0.428-0.782,0.878-0.931,1.434c-0.149,0.556,0.038,1.248,0.563,1.483
					c-0.793,0.386-1.465,1.094-1.64,1.959c-0.176,0.865,0.241,1.861,1.053,2.207c0.812,0.346,1.915-0.162,2.051-1.034
					c0.341,0.481,1,0.642,1.584,0.567c0.806-0.104,1.552-0.606,1.95-1.314c0.399-0.708,0.442-1.606,0.112-2.349
					c0.723,0.111,1.486,0.104,2.158-0.186c0.672-0.29,1.234-0.905,1.311-1.632c0.078-0.727-0.436-1.513-1.161-1.604
					c1.024-0.833,1.142-2.558,0.241-3.523c-0.463-0.496-1.336-0.745-1.793-0.244c0.079-0.88-0.814-1.624-1.697-1.642
					c-0.883-0.018-1.693,0.506-2.31,1.139C212.191,193.464,211.509,195.177,211.898,196.977z"/>
			</g>
			<path style="fill:none;" d="M229.927,199.713c0.413,7.303,0.859,14.611,1.355,21.918c1.578-0.021,3.156-0.033,4.734-0.016
				c-0.429-2.704-0.965-5.154-1.628-7.473c-0.575,0.151-1.149,0.307-1.724,0.455C231.746,209.797,230.837,204.755,229.927,199.713z"
				/>
			<g>
				<path style="fill:#EAB59F;" d="M249.292,209.899c-4.938,1.519-9.907,2.934-14.904,4.244c0.662,2.319,1.199,4.769,1.628,7.473
					c-1.578-0.017-3.156-0.005-4.734,0.016c-13.383,0.177-26.748,1.71-39.819,4.593c-1.508,0.333-3.026,0.688-4.413,1.364
					c-2.037,0.993-3.729,2.68-4.729,4.714c-0.278,0.566-0.445,1.373,0.081,1.721c0.225,0.149,0.512,0.156,0.781,0.158
					c2.829,0.021,5.657,0.042,8.486,0.063c13.52,0.1,27.04,0.199,40.56,0.299c3.128,0.023,6.255,0.046,9.383,0.069
					c1.762,0.013,3.617,0.003,5.148-0.87c2.04-1.164,3.002-3.568,3.559-5.85C251.795,221.843,251.032,215.985,249.292,209.899z"/>
				<path style="fill:#C08273;" d="M183.574,233.98c0.216-1.852,1.601-3.373,3.154-4.404c0.938-0.623,1.992-1.128,3.116-1.198
					c-1.343,0.499-2.626,1.195-3.697,2.146C185.075,231.476,184.22,232.693,183.574,233.98z"/>
				<path style="fill:#C08273;" d="M185.809,234.162c0.927-2.061,2.706-3.723,4.825-4.508c0.54-0.2,1.12-0.347,1.69-0.26
					C189.776,230.048,187.639,231.854,185.809,234.162z"/>
				<path style="fill:#C08273;" d="M188.654,234.102c1.153-2.105,3.549-3.466,5.947-3.377
					C192.808,231.294,190.942,231.907,188.654,234.102z"/>
			</g>
			<path style="fill:#DAA292;" d="M202.94,177.759c-0.518,2.251,0.481,4.704,2.25,6.188c1.769,1.485,3.959,2.054,6.257,1.824
				c1.142-0.115,2.297-0.668,3.203-1.374c1.084-0.846,1.941-1.932,2.246-3.272c0.448-1.966,0.235-4.2-1.076-5.732
				c-0.731-0.853-1.745-1.426-2.807-1.794c-2.626-0.91-5.648-0.597-8.032,0.831C204.023,175.004,203.384,175.832,202.94,177.759z"/>
			<g>
				<path style="fill:#EAB59F;" d="M195.251,158.307c-0.919-1.013-2.198-1.074-3.257-0.72c-1.059,0.354-1.796,1.385-2.025,2.479
					c-0.229,1.093-0.017,2.236,0.348,3.291c0.309,0.893,0.743,1.767,1.433,2.413c0.689,0.646,1.67,1.033,2.594,0.836
					c0.494-0.105,0.982-0.412,1.335-0.786c0.101,4.459,2.181,8.837,5.572,11.733c3.392,2.896,7.588,4.15,11.409,3.426
					c3.495-0.662,6.911-2.993,8.742-6.044c1.831-3.051,2.605-6.649,2.624-10.199c0.859,0.615,1.971,0.967,2.988,0.681
					c1.035-0.291,1.803-1.192,2.238-2.175c0.693-1.566,0.663-3.436-0.08-4.98c-0.213-0.441-0.487-0.863-0.868-1.17
					c-0.61-0.491-1.459-0.638-2.222-0.459c-0.762,0.179-1.434,0.663-1.793,1.207c-6.212-1.204-11.846-5.132-14.986-10.823
					c-1.301,2.659-3.446,4.846-5.9,6.501C200.95,155.173,198.359,156.879,195.251,158.307z"/>
				<path style="fill:#2E3E47;" d="M205.469,158.45c-0.913-0.404-1.98-0.373-2.929-0.062c-0.949,0.312-1.793,0.885-2.55,1.535
					c-0.161,0.138-0.324,0.287-0.409,0.481c-0.086,0.194-0.074,0.448,0.083,0.591c0.203,0.186,0.525,0.109,0.785,0.019
					c0.696-0.241,1.392-0.499,2.117-0.627c0.957-0.17,1.945-0.112,2.899-0.298c0.31-0.06,0.654-0.179,0.778-0.469
					C206.399,159.253,206.167,158.759,205.469,158.45z"/>
				<path style="fill:#2E3E47;" d="M213.648,158.212c0.913-0.404,1.98-0.373,2.929-0.062c0.949,0.311,1.793,0.885,2.551,1.535
					c0.161,0.138,0.324,0.287,0.409,0.481c0.086,0.195,0.074,0.448-0.083,0.591c-0.204,0.186-0.525,0.109-0.786,0.018
					c-0.696-0.241-1.392-0.499-2.117-0.627c-0.957-0.17-1.945-0.112-2.899-0.298c-0.31-0.06-0.654-0.179-0.778-0.469
					C212.717,159.015,212.95,158.521,213.648,158.212z"/>
				<path style="fill:#2E3E47;" d="M202.333,164.037c-0.011,0.502,0.01,1.021,0.219,1.478c0.21,0.456,0.65,0.839,1.152,0.843
					c0.481,0.004,0.916-0.344,1.127-0.776c0.211-0.433,0.232-0.934,0.184-1.413c0.129,0.434,0.222,0.888,0.173,1.339
					c-0.049,0.45-0.256,0.899-0.627,1.159c-0.233,0.162-0.514,0.241-0.794,0.287c-0.285,0.047-0.591,0.058-0.845-0.078
					c-0.179-0.097-0.315-0.259-0.426-0.43C202.183,165.962,202.033,165.375,202.333,164.037z"/>
				<path style="fill:#2E3E47;" d="M217.626,164.274c0.011,0.502-0.01,1.021-0.22,1.478c-0.21,0.456-0.65,0.839-1.152,0.843
					c-0.481,0.004-0.916-0.344-1.127-0.776c-0.211-0.432-0.232-0.934-0.184-1.413c-0.129,0.434-0.222,0.888-0.173,1.338
					c0.049,0.45,0.256,0.9,0.627,1.159c0.233,0.162,0.514,0.241,0.794,0.287c0.284,0.047,0.591,0.059,0.845-0.078
					c0.179-0.097,0.315-0.259,0.426-0.43C217.776,166.199,217.926,165.613,217.626,164.274z"/>
				<path style="fill:#C2867B;" d="M225.06,159.123c0.467-0.742,1.509-0.977,2.337-0.689c0.373,0.129,0.72,0.353,0.955,0.67
					s0.349,0.732,0.264,1.118c-0.218,0.042-0.383-0.18-0.537-0.34c-0.346-0.363-0.91-0.499-1.383-0.334
					c-0.26,0.091-0.484,0.26-0.733,0.379c-0.248,0.119-0.549,0.184-0.794,0.058C224.925,159.859,224.83,159.489,225.06,159.123z"/>
				<path style="fill:#C2867B;" d="M194.549,159.598c-0.467-0.742-1.508-0.977-2.337-0.689c-0.373,0.129-0.72,0.353-0.955,0.671
					c-0.235,0.317-0.349,0.732-0.264,1.118c0.218,0.042,0.383-0.18,0.537-0.34c0.346-0.363,0.91-0.499,1.383-0.334
					c0.26,0.091,0.484,0.26,0.733,0.379c0.248,0.119,0.549,0.184,0.794,0.058C194.685,160.334,194.78,159.964,194.549,159.598z"/>
				<path style="fill:#C2867B;" d="M210.18,159.257c-0.467,3.032-0.935,6.077-0.954,9.144c-0.004,0.696-0.078,1.404,0.143,2.064
					c0.221,0.66,0.671,1.036,1.314,1.303c0.643,0.267,1.701-0.422,1.961-0.241c0.394,0.276-0.658,0.87-1.204,0.916
					c-1.067,0.09-2.063-0.486-2.528-1.45c-0.251-0.521-0.325-1.109-0.347-1.687c-0.037-0.974,0.065-1.947,0.173-2.915
					c0.27-2.415,0.579-4.826,0.929-7.231c0.025-0.169,0.058-0.354,0.188-0.465C209.984,158.584,210.276,158.632,210.18,159.257z"/>
				<g>
					<path style="fill:#2E3E47;" d="M208.229,173.928c1.336,0.646,2.961,0.661,4.308,0.04c0.436-0.201,0.845-0.464,1.304-0.606
						c0.458-0.141,0.998-0.14,1.374,0.158c0.347,0.274,0.485,0.754,0.433,1.193c-0.052,0.439-0.271,0.842-0.531,1.199
						c-0.921,1.269-2.423,2.081-3.984,2.224c-1.561,0.143-3.161-0.367-4.393-1.337c-0.535-0.421-1.032-0.984-1.079-1.664
						c-0.041-0.579,0.288-1.168,0.802-1.437C206.978,173.429,207.577,173.612,208.229,173.928z"/>
					<g>
						<defs>
							<path id="SVGID_00000034082283286002207600000002831487260744144028_" d="M208.229,173.928
								c1.336,0.646,2.961,0.661,4.308,0.04c0.436-0.201,0.845-0.464,1.304-0.606c0.458-0.141,0.998-0.14,1.374,0.158
								c0.347,0.274,0.485,0.754,0.433,1.193c-0.052,0.439-0.271,0.842-0.531,1.199c-0.921,1.269-2.423,2.081-3.984,2.224
								c-1.561,0.143-3.161-0.367-4.393-1.337c-0.535-0.421-1.032-0.984-1.079-1.664c-0.041-0.579,0.288-1.168,0.802-1.437
								C206.978,173.429,207.577,173.612,208.229,173.928z"/>
						</defs>
						<clipPath id="SVGID_00000152971945865548733960000001472693124155171002_">
							<use xlink:href="#SVGID_00000034082283286002207600000002831487260744144028_"  style="overflow:visible;"/>
						</clipPath>
						<path style="clip-path:url(#SVGID_00000152971945865548733960000001472693124155171002_);fill:#FFFFFF;" d="M205.509,174.131
							c1.213,1.061,2.823,1.621,4.434,1.69c1.611,0.069,3.221-0.331,4.683-1.01c0.274-0.127,0.55-0.269,0.758-0.488
							c0.208-0.219,0.341-0.531,0.275-0.826c-0.079-0.349-0.417-0.591-0.766-0.669c-0.349-0.078-0.713-0.026-1.068,0.018
							c-1.759,0.217-3.546,0.214-5.304-0.008c-0.573-0.073-1.165-0.168-1.721-0.012C206.243,172.981,205.73,173.472,205.509,174.131
							z"/>
					</g>
				</g>
				<g>
					<defs>
						<path id="SVGID_00000145772760506736861840000003011747916774644393_" d="M195.251,158.307
							c-0.919-1.013-2.198-1.074-3.257-0.72c-1.059,0.354-1.796,1.385-2.025,2.479c-0.229,1.093-0.017,2.236,0.348,3.291
							c0.309,0.893,0.743,1.767,1.433,2.413c0.689,0.646,1.67,1.033,2.594,0.836c0.494-0.105,0.982-0.412,1.335-0.786
							c0.101,4.459,2.181,8.837,5.572,11.733c3.392,2.896,7.588,4.15,11.409,3.426c3.495-0.662,6.911-2.993,8.742-6.044
							c1.831-3.051,2.605-6.649,2.624-10.199c0.859,0.615,1.971,0.967,2.988,0.681c1.035-0.291,1.803-1.192,2.238-2.175
							c0.693-1.566,0.663-3.436-0.08-4.98c-0.213-0.441-0.487-0.863-0.868-1.17c-0.61-0.491-1.459-0.638-2.222-0.459
							c-0.762,0.179-1.434,0.663-1.793,1.207c-6.212-1.204-11.846-5.132-14.986-10.823c-1.301,2.659-3.446,4.846-5.9,6.501
							C200.95,155.173,198.359,156.879,195.251,158.307z"/>
					</defs>
					<clipPath id="SVGID_00000119825634404785458800000013092820576657185965_">
						<use xlink:href="#SVGID_00000145772760506736861840000003011747916774644393_"  style="overflow:visible;"/>
					</clipPath>
					<path style="clip-path:url(#SVGID_00000119825634404785458800000013092820576657185965_);fill:#D4958C;" d="M225.211,165.803
						c-1.173-0.997-2.985-0.795-4.348-0.078c-1.507,0.793-2.71,2.147-3.321,3.736c-0.611,1.589-0.626,3.4-0.039,4.999
						c0.463,1.262,1.426,2.47,2.753,2.68c0.795,0.125,1.611-0.129,2.308-0.534c1.519-0.883,2.554-2.461,3.035-4.151
						C226.08,170.764,226.051,168.965,225.211,165.803z"/>
					<path style="clip-path:url(#SVGID_00000119825634404785458800000013092820576657185965_);fill:#D4958C;" d="M194.5,166.99
						c1.173-0.997,2.985-0.795,4.348-0.078c1.507,0.793,2.71,2.147,3.322,3.736c0.611,1.589,0.626,3.4,0.039,4.999
						c-0.463,1.262-1.426,2.471-2.753,2.68c-0.795,0.125-1.611-0.129-2.308-0.534c-1.519-0.883-2.554-2.461-3.035-4.151
						C193.631,171.952,193.66,170.153,194.5,166.99z"/>
				</g>
			</g>
			<g>
				<path style="fill:#EAB59F;" d="M200.764,194.193c0.266,0.16,0.494,0.382,0.663,0.642c0.234,0.36,0.351,0.803,0.278,1.226
					c-0.073,0.423-0.351,0.815-0.745,0.984c0.365,0.281,0.646,0.676,0.769,1.13c0.123,0.454,0.065,0.98-0.249,1.331
					c-0.358,0.4-0.956,0.487-1.488,0.425c-0.533-0.062-0.905-0.245-1.44-0.286c-0.502-0.038-1.155-0.231-1.612-0.021
					c0.988,2.614,0.452,5.98-0.846,8.54c-1.298,2.561-3.29,4.693-5.297,6.747c-6.255,6.401-12.962,12.44-20.574,17.148
					c-2.161,1.336-4.534,2.6-7.074,2.517c-2.534,0.165-5.176-0.481-7.361-1.864c-0.692-0.374-1.23-1.254-1.521-2.177
					c-0.813-2.581,0.18-5.467,1.917-7.542c1.737-2.076,4.126-3.485,6.504-4.775c7.817-4.242,16.084-7.658,23.559-12.321
					c1.034-2.261,0.498-4.882,0.238-7.355c-0.16-1.525-0.205-3.083,0.15-4.574c0.354-1.491,1.144-2.922,2.391-3.812
					c0.911-0.65,2.007-0.98,3.093-1.251c1.233-0.308,2.525-0.553,3.766-0.281c0.408,0.089,0.818,0.243,1.11,0.542
					c0.292,0.299,0.436,0.77,0.249,1.398c0.715,0.142,1.41,0.381,2.062,0.709c0.554,0.279,1.094,0.64,1.414,1.172
					C201.037,192.976,201.081,193.711,200.764,194.193z"/>
				<path style="fill:#C08273;" d="M196.822,199.642c-0.833-0.079-1.583,0.463-2.244,0.976c-0.586,0.456-1.187,0.928-1.553,1.574
					C194.054,201.171,195.304,200.373,196.822,199.642z"/>
				<path style="fill:#C08273;" d="M197.175,190.485c-2.936-0.751-6.245,0.2-8.335,2.394
					C191.163,191.376,193.934,190.574,197.175,190.485z"/>
				<path style="fill:#C08273;" d="M200.611,194.113c-3.286-1.477-7.371-0.98-10.208,1.241
					C193.36,193.77,196.9,193.306,200.611,194.113z"/>
				<path style="fill:#C08273;" d="M201.106,197.195c-1.282-1.105-3.145-1.223-4.823-1.001c-1.768,0.234-3.534,0.806-4.915,1.936
					C194.304,196.731,197.721,196.369,201.106,197.195z"/>
			</g>
			<g>
				<path style="fill:#5B743A;" d="M223.192,228.332c0.956,0.135,1.992-0.133,2.669-0.821c0.677-0.688,0.918-1.814,0.464-2.666
					c-0.455-0.852-1.637-1.269-2.474-0.787c0.054-1.224-0.486-2.567-1.605-3.064c-1.12-0.498-2.717,0.313-2.661,1.538
					c-0.494-1.092-1.367-2.107-2.54-2.355c-1.172-0.248-2.577,0.589-2.582,1.787c-0.971-0.792-2.48-0.942-3.484-0.193
					s-1.239,2.409-0.354,3.296c-1.229,0.042-2.291,1.246-2.18,2.471c0.111,1.225,1.373,2.218,2.589,2.038
					c0.156,1.186,1.216,2.19,2.409,2.282c1.193,0.092,2.394-0.738,2.73-1.887c0.301,0.777,1.086,1.341,1.918,1.379
					c0.832,0.038,1.665-0.453,2.035-1.199c0.26,0.865,1.534,1.028,2.258,0.488C223.109,230.099,223.394,229.159,223.192,228.332z"/>
				<path style="fill:#5B743A;" d="M212.137,225.167c0.218-1.397-0.098-3.006-1.248-3.829c-1.15-0.823-3.164-0.272-3.335,1.132
					c0.42-1.141-0.302-2.564-1.471-2.899c-1.169-0.336-2.535,0.488-2.785,1.678c-0.084-1.216-1.34-2.26-2.531-1.998
					c-1.191,0.262-1.869,1.893-1.125,2.859c-0.824-0.896-2.289-1.215-3.316-0.56s-1.293,2.316-0.394,3.137
					c-0.461-0.633-1.529-0.34-1.998,0.287c-0.525,0.703-0.59,1.719-0.158,2.483s1.336,1.233,2.209,1.146
					c-0.544,1.183,0.026,2.753,1.202,3.312c1.176,0.559,2.754,0.008,3.326-1.162c0.391,1.019,1.56,1.674,2.633,1.476
					s1.931-1.228,1.932-2.32c0.475,0.813,1.457,1.299,2.391,1.182c0.934-0.117,1.767-0.829,2.026-1.735
					c0.835,0.51,1.998-0.02,2.48-0.871C212.459,227.633,211.912,226.604,212.137,225.167z"/>
				<path style="fill:#8BB466;" d="M218.212,231.302c0.873-0.485,1.676-1.174,2.062-2.095c0.386-0.921,0.264-2.097-0.474-2.77
					c-0.738-0.673-2.1-0.589-2.596,0.277c0.104-1.08-0.609-2.186-1.636-2.537c-1.027-0.351-2.267,0.087-2.846,1.005
					c-0.136-1.084-1.134-1.993-2.226-2.026c-1.092-0.033-2.144,0.813-2.346,1.886c-0.507-0.739-1.507-1.098-2.368-0.85
					c-0.861,0.248-1.517,1.086-1.552,1.981c-0.78-0.462-1.913-0.159-2.358,0.63c-0.446,0.789-0.12,1.915,0.678,2.345
					c-0.682,0.75-0.203,2.105,0.736,2.489s2.056-0.031,2.765-0.756c-0.162,1.007,0.865,1.926,1.885,1.916
					c1.02-0.009,1.924-0.717,2.484-1.57c0.401,0.905,1.353,1.538,2.343,1.559c0.99,0.021,1.967-0.572,2.406-1.46
					c-0.108,0.753,0.835,1.305,1.574,1.124C217.482,232.27,218.013,231.643,218.212,231.302z"/>
				<path style="fill:#BF4343;" d="M204.488,225.346c-0.681-0.436-1.57-0.778-2.326-0.49c-0.328,0.125-0.568,0.409-0.755,0.706
					c-0.4,0.638-0.611,1.471-0.269,2.142c0.496,0.976,1.96,1.095,2.863,0.475c0.412-0.283,0.749-0.695,0.875-1.179
					C205.003,226.517,205.11,225.744,204.488,225.346z"/>
				<path style="fill:#BF4343;" d="M218.391,227.471c-0.063-1.259-1.118-2.434-2.376-2.503c-1.258-0.069-2.479,1.113-2.331,2.364
					c0.079,0.667,0.489,1.257,0.988,1.708c0.292,0.265,0.628,0.497,1.012,0.591c0.589,0.144,1.227-0.063,1.694-0.449
					C217.845,228.797,218.432,228.284,218.391,227.471z"/>
				<path style="fill:#BF4343;" d="M216.685,221.362c0.324-0.9-0.151-2.011-1.026-2.398c-1.027-0.454-2.306,0.127-2.884,1.09
					c-0.332,0.554-0.477,1.23-0.34,1.861c0.235,1.085,1.369,1.893,2.471,1.763C216.008,223.547,216.922,222.495,216.685,221.362z"/>
				<polygon style="fill:#FFFFFF;" points="196.474,234.286 192.621,228.378 226.557,228.378 223.727,234.481 				"/>
			</g>
		</g>
		<g>
			<path style="fill:#BBECEF;" d="M316.182,234.228c-0.573-7.198-0.927-14.413-1.099-21.464c4.011,0.978,8.202,1.245,12.311,0.784
				c1.048-0.117,2.126-0.295,2.99-0.695c0.147,7.05,0.013,13.633-0.373,21.191C326.151,235.813,321.084,236.017,316.182,234.228z"/>
			<path style="fill:#95D1D1;" d="M315.091,212.8c-0.003-1.049,3.419-1.91,7.642-1.922c4.224-0.012,7.65,0.829,7.653,1.879
				c0.003,1.049-3.419,1.91-7.642,1.922C318.521,214.691,315.094,213.85,315.091,212.8z"/>
			<path style="fill:#7EB7B4;" d="M317.117,218.266c0,0,0.233,10.954,0.396,14.274c2.888,1.548,9.096,0.906,11.206-0.229
				c0.038-4.622,0.185-10.355,0.064-14.486C325.014,219.3,317.117,218.266,317.117,218.266z"/>
		</g>
		<g>
			<path style="fill:#BBECEF;" d="M164.367,235.416c-0.572-7.198-0.927-14.413-1.099-21.464c4.011,0.978,8.202,1.245,12.311,0.784
				c1.048-0.117,2.126-0.295,2.99-0.695c0.147,7.05,0.013,13.633-0.373,21.191C174.336,237.001,169.269,237.205,164.367,235.416z"/>
			<path style="fill:#95D1D1;" d="M163.277,213.988c-0.003-1.049,3.419-1.91,7.642-1.922c4.224-0.012,7.65,0.829,7.653,1.879
				c0.003,1.049-3.419,1.91-7.642,1.921C166.706,215.879,163.279,215.038,163.277,213.988z"/>
			<path style="fill:#7EB7B4;" d="M165.302,219.454c0,0,0.233,10.954,0.396,14.274c2.889,1.548,9.096,0.906,11.206-0.23
				c0.038-4.621,0.185-10.355,0.064-14.486C173.199,220.488,165.302,219.454,165.302,219.454z"/>
		</g>
		<g>
			<path style="fill:#BBECEF;" d="M228.989,235.823c-0.567-7.198-0.916-14.413-1.082-21.464c4.01,0.981,8.201,1.251,12.31,0.794
				c1.048-0.117,2.127-0.293,2.99-0.693c0.141,7.05,0.003,13.633-0.39,21.191C238.957,237.415,233.889,237.616,228.989,235.823z"/>
			<path style="fill:#95D1D1;" d="M227.915,214.394c-0.002-1.049,3.42-1.907,7.644-1.915c4.224-0.009,7.649,0.835,7.651,1.885
				c0.002,1.049-3.42,1.907-7.644,1.915C231.343,216.287,227.917,215.443,227.915,214.394z"/>
			<path style="fill:#7EB7B4;" d="M229.936,219.862c0,0,0.224,10.955,0.384,14.275c2.887,1.55,9.096,0.913,11.206-0.221
				c0.041-4.621,0.193-10.355,0.075-14.486C237.833,220.901,229.936,219.862,229.936,219.862z"/>
		</g>
		<g>
			<g>
				<g>
					<g>
						<path style="fill:#12191C;" d="M368.803,355.123c-3.261,0.562-6.58,0.784-9.81,1.501s-6.441,1.985-8.798,4.308
							c-2.357,2.323-3.709,5.853-3.306,9.152c12.145-0.074,24.288-0.372,36.078-0.592c0.376-3.862-0.495-8.705-1.286-11.484
							c-0.109-0.384-0.367-1.038-0.762-1.404c-0.333-0.308-0.878-0.519-1.202-0.615C377.093,355.211,373.1,354.383,368.803,355.123z
							"/>
						<g>
							<defs>
								<path id="SVGID_00000092431116558206552800000016563538855235827110_" d="M368.803,355.123
									c-3.261,0.562-6.58,0.784-9.81,1.501s-6.441,1.985-8.798,4.308c-2.357,2.323-3.709,5.853-3.306,9.152
									c12.145-0.074,24.288-0.372,36.078-0.592c0.376-3.862-0.495-8.705-1.286-11.484c-0.109-0.384-0.367-1.038-0.762-1.404
									c-0.333-0.308-0.878-0.519-1.202-0.615C377.093,355.211,373.1,354.383,368.803,355.123z"/>
							</defs>
							<clipPath id="SVGID_00000114773507690541937380000003706365194151684791_">
								<use xlink:href="#SVGID_00000092431116558206552800000016563538855235827110_"  style="overflow:visible;"/>
							</clipPath>
							<path style="clip-path:url(#SVGID_00000114773507690541937380000003706365194151684791_);fill:#FFFFFF;" d="M345.5,368.02
								c7.351-0.12,14.702-0.239,22.053-0.359c5.026-0.082,10.069-0.165,15.04-0.905c0.236-0.035,0.485-0.07,0.707,0.019
								c0.258,0.105,0.422,0.355,0.569,0.591c0.356,0.571,0.719,1.158,0.845,1.819c0.126,0.661-0.034,1.421-0.568,1.83
								c-0.434,0.333-1.018,0.376-1.565,0.406c-9.709,0.518-19.43,0.789-29.153,0.813c-1.985,0.005-3.986-0.002-5.932-0.397
								c-0.778-0.158-1.59-0.405-2.115-1.001C344.858,370.241,344.772,369.2,345.5,368.02z"/>
						</g>
					</g>
					<path style="fill:#995049;" d="M365.621,340.759c0.095,4.897,0.45,9.789,0.805,14.837c3.948,3.032,10.021,3.318,14.158,0.813
						c-0.607-5.824-0.456-11.647-1.063-17.471C375.831,337.41,370.556,337.799,365.621,340.759z"/>
				</g>
				<path style="fill:#C14944;" d="M415.823,257.579c-9.069,0.881-18.111,2.047-27.107,3.496
					c-7.614,1.226-15.381,2.723-21.997,6.687c-3.572,2.14-6.784,5.039-8.72,8.726c-2.943,5.602-2.649,12.288-2.148,18.596
					c1.392,17.524,3.82,34.966,7.554,52.194c5.971-1.52,11.986-2.871,18.403-4.237c-1.886-10.508-2.826-21.187-2.802-31.863
					c0.013-5.97,0.359-12.087,2.696-17.581c2.83-6.651,8.43-11.872,14.825-15.24c6.395-3.368,13.563-5.018,20.732-5.94
					c0.682-0.088,1.482-0.251,1.759-0.881c0.145-0.329,0.103-0.707,0.057-1.064C418.556,266.407,418.038,262.344,415.823,257.579z"
					/>
			</g>
			<g>
				<g>
					<path style="fill:#2E3E47;" d="M374.688,355.134c-3.261,0.562-6.58,0.784-9.81,1.501c-3.23,0.717-6.441,1.985-8.798,4.308
						c-2.357,2.323-3.71,5.853-3.306,9.152c12.145-0.074,24.288-0.372,36.078-0.592c0.376-3.862-0.495-8.705-1.286-11.484
						c-0.109-0.384-0.367-1.038-0.762-1.404c-0.333-0.308-0.878-0.519-1.202-0.615C382.978,355.221,378.985,354.393,374.688,355.134
						z"/>
					<g>
						<defs>
							<path id="SVGID_00000111185983616512846590000012160211294712997530_" d="M374.688,355.134
								c-3.261,0.562-6.58,0.784-9.81,1.501c-3.23,0.717-6.441,1.985-8.798,4.308c-2.357,2.323-3.71,5.853-3.306,9.152
								c12.145-0.074,24.288-0.372,36.078-0.592c0.376-3.862-0.495-8.705-1.286-11.484c-0.109-0.384-0.367-1.038-0.762-1.404
								c-0.333-0.308-0.878-0.519-1.202-0.615C382.978,355.221,378.985,354.393,374.688,355.134z"/>
						</defs>
						<clipPath id="SVGID_00000030453880032300723120000017778006157395812233_">
							<use xlink:href="#SVGID_00000111185983616512846590000012160211294712997530_"  style="overflow:visible;"/>
						</clipPath>
						<path style="clip-path:url(#SVGID_00000030453880032300723120000017778006157395812233_);fill:#FFFFFF;" d="M351.385,368.031
							c7.351-0.12,14.702-0.239,22.053-0.359c5.026-0.082,10.069-0.165,15.04-0.905c0.236-0.035,0.486-0.07,0.707,0.019
							c0.258,0.104,0.422,0.355,0.569,0.591c0.356,0.571,0.719,1.158,0.845,1.819c0.126,0.661-0.034,1.421-0.568,1.83
							c-0.434,0.333-1.018,0.376-1.565,0.406c-9.709,0.518-19.431,0.789-29.153,0.813c-1.985,0.005-3.986-0.002-5.932-0.397
							c-0.778-0.158-1.59-0.405-2.115-1.001C350.743,370.251,350.657,369.21,351.385,368.031z"/>
					</g>
				</g>
				<path style="fill:#B3685C;" d="M371.506,340.769c0.095,4.897,0.45,9.789,0.805,14.837c3.948,3.032,10.021,3.319,14.158,0.813
					c-0.607-5.824-0.456-11.647-1.063-17.471C381.716,337.42,376.441,337.81,371.506,340.769z"/>
				<path style="fill:#DB6A5D;" d="M412.484,253.331c-6.92,1.404-13.84,2.809-20.759,4.213c-5.41,1.098-10.868,2.21-15.928,4.418
					c-5.06,2.208-9.76,5.625-12.531,10.4c-3.826,6.592-3.502,14.717-2.847,22.311c1.411,16.354,3.838,32.619,7.651,49.425
					c6.347-0.639,12.652-1.702,19.31-2.493c-2.116-18.188-2.852-36.535-1.722-55.203c12.502-2.552,25.341-3.448,38.076-2.658
					c3.774,0.234,7.617,0.61,11.295-0.268c2.972-0.709,5.714-2.221,8.096-4.134c3.388-2.721,6.145-6.385,7.16-10.609
					c1.291-5.372,1.118-11.444-0.467-16.736c-8.364,2.466-19.167-0.468-28.399,2.316
					C418.161,253.756,414.855,253.479,412.484,253.331z"/>
			</g>
			<g>
				<g>
					<path style="fill:#192328;" d="M439.349,151.91c-1.501,6.544-0.59,13.613,2.522,19.562c0.352,0.674,1.004,1.442,1.714,1.169
						c0.322-0.124,0.528-0.435,0.692-0.738c0.928-1.706,1.217-3.75,0.799-5.647c0.503,2.988,1.353,5.918,2.529,8.71
						c0.521,1.237,1.628,2.68,2.879,2.194c0.875-0.34,1.143-1.428,1.263-2.359c0.749-5.843,0.412-11.823-0.989-17.544
						c-1.224-5.002-3.554-10.149-8.04-12.677c-1.222-0.688-2.86-1.115-3.947-0.228C437.468,145.415,437.902,147.471,439.349,151.91z
						"/>
					<path style="fill:#070A0C;" d="M445.293,167.577c0.331-3.301,0.062-6.662-0.79-9.868
						C444.393,160.809,444.542,163.918,445.293,167.577z"/>
				</g>
				<g>
					<path style="fill:#2E3E47;" d="M402.768,138.602c2.843-4.388,7.979-6.947,13.173-7.549c6.576-0.762,12.49,0.959,17.401,5.397
						c4.912,4.439,6.789,7.683,7.695,14.815c0.541,4.255-0.393,11.9-2.823,15.434c-1.337,1.946-3.012,3.659-5.342,4.856
						c-9.676,0.99-19.724-2.705-26.436-9.633c-5.409-2.874-9.206-8.582-9.767-14.681c-0.194-2.108-0.003-4.32,1.025-6.171
						S400.714,137.809,402.768,138.602z"/>
					<path style="fill:#192328;" d="M400.631,147.179c-0.427-1.592-0.314-3.324,0.315-4.848
						C400.977,143.896,400.879,145.464,400.631,147.179z"/>
					<path style="fill:#192328;" d="M426.584,154.218c-4.491-1.07-8.556-3.834-11.201-7.618
						C418.18,149.249,421.306,151.55,426.584,154.218z"/>
					<path style="fill:#192328;" d="M427.023,153.677c-1.578-0.851-2.877-2.156-3.923-3.612c-1.046-1.456-1.854-3.068-2.622-4.688
						C421.918,147.854,423.626,150.173,427.023,153.677z"/>
				</g>
			</g>
			<g>
				<path style="fill:#B3685C;" d="M342.284,231.105c-0.297,0.616-0.594,1.354-0.264,1.953c0.374,0.68,1.302,0.756,2.078,0.748
					c1.147-0.012,2.295-0.023,3.442-0.035c1.205-0.012,2.417-0.025,3.602-0.241c0.85-0.155,1.679-0.412,2.531-0.553
					c2.185-0.362,4.418,0.052,6.336,0.537c4.792,0.192,9.59,0.247,14.334-0.088c0.698-1.606,0.855-3.394,0.846-5.145
					c-0.009-1.751-0.175-3.502,0.001-5.141c-6.446,0.398-12.892,0.795-18.857,1.151c-2.633,0.012-5.261,0.59-7.656,1.682
					c-1.095,0.499-2.139,1.103-3.181,1.706C344.412,228.305,343.238,229.125,342.284,231.105z"/>
				<path style="fill:#8F3E37;" d="M343.311,233.593c1.248-3.058,4.138-5.387,7.391-5.959
					C348.283,229.007,346.057,230.72,343.311,233.593z"/>
				<path style="fill:#8F3E37;" d="M346.818,233.604c1.343-2.498,3.851-4.337,6.638-4.865
					C351.249,229.914,349.361,231.597,346.818,233.604z"/>
				<path style="fill:#476387;" d="M372.6,234.609c0.581-4.021-0.074-8.212-1.106-11.943c7.175-0.03,14.946-0.258,20.574-4.71
					c2.022-1.599,3.629-3.653,5.215-5.685c4.361-5.589,8.723-11.177,13.084-16.766c1.949-2.498,3.916-5.014,6.329-7.068
					c2.413-2.053,5.334-3.637,8.193-3.355c-3.548,12.918-8.872,25.347-15.776,36.828c-2.854,4.746-6.241,9.56-11.301,11.81
					c-4.202,1.869-8.989,1.709-13.584,1.516C380.947,235.097,377.665,234.958,372.6,234.609z"/>
			</g>
			<path style="fill:#55709B;" d="M420.642,187.21c-1.738,1.627-2.9,3.763-3.996,5.877c-1.121,2.161-2.204,4.341-3.251,6.539
				c-1.208,2.536-2.376,5.126-2.901,7.885c-0.751,3.943-0.115,8.135,1.899,11.962c2.907,11.202,0.618,23.018-1.856,34.167
				c13.596,2.843,27.732,3.078,41.538,0.693c0.458-14.644-0.61-29.335-3.181-43.759c-1.774-9.95-4.355-19.99-9.876-28.597
				c-2.425-2.617-6.61-2.966-9.936-1.675C425.754,181.593,423.486,184.548,420.642,187.21z"/>
			<g>
				<path style="fill:#995049;" d="M400.932,153.128c-1.898,3.874-2.89,8.19-2.872,12.504c0.005,1.364,0.186,2.886,1.229,3.765
					c1.291,1.088,3.225,0.677,4.847,0.208C402.907,164.274,401.916,158.887,400.932,153.128z"/>
				<path style="fill:#B3685C;" d="M400.469,146.943c-0.296,5.038-0.449,10.122,0.351,15.105c0.799,4.983,2.317,10.389,5.875,13.698
					c3.624,3.37,9.306,3.093,13.75,1.913c0.878,3.726,0.399,7.757-1.299,11.168c1.462-0.149,2.902-0.508,4.262-1.064
					c0.891-0.364,1.745-0.811,2.597-1.257c3.999-2.092,7.998-4.185,12.234-6.076c-1.777-2.912-3.561-5.835-4.79-9.143
					c-1.426-0.614-2.498-1.871-3.192-3.259s-1.055-2.916-1.382-4.882c1.15,0.581,2.609,0.372,3.658-0.377
					c1.048-0.749,1.701-1.972,1.924-3.241c0.223-1.269,0.045-2.582-0.324-3.817c-0.224-0.749-0.532-1.496-1.076-2.057
					c-0.392-0.403-0.891-0.691-1.42-0.882c-1.792-0.644-4.088,0.038-4.806,1.838c-3.428,0.942-7.095,0.377-10.51-0.612
					C410.852,152.415,405.755,149.787,400.469,146.943z"/>
				<path style="fill:#2E3E47;" d="M409.096,155.931c-0.656-0.605-1.344-1.19-2.137-1.599c-0.794-0.408-1.708-0.631-2.587-0.475
					c-0.879,0.156-1.706,0.734-2.024,1.568c-0.096,0.252-0.14,0.549-0.003,0.78c0.191,0.321,0.627,0.373,1,0.388
					c1.964,0.084,3.928,0.167,5.892,0.251c0.041,0.002,0.082,0.003,0.121-0.006c0.174-0.04,0.237-0.276,0.162-0.439
					C409.448,156.238,409.302,156.121,409.096,155.931z"/>
				<path style="fill:#2E3E47;" d="M405.412,161.889c0.008-0.378,0.025-0.874-0.378-1.226c-0.141-0.124-0.325-0.22-0.51-0.189
					c-0.261,0.043-0.419,0.316-0.487,0.572c-0.165,0.62-0.014,1.316,0.394,1.811c0.104,0.126,0.236,0.246,0.398,0.265
					c0.194,0.023,0.381-0.112,0.476-0.283C405.399,162.667,405.408,162.069,405.412,161.889z"/>
				<path style="fill:#A6564E;" d="M417.314,160.34c-1.735-0.384-3.632,0.317-4.807,1.651s-1.635,3.227-1.344,4.98
					c0.29,1.753,1.291,3.353,2.649,4.5c1.668,1.409,6.928,1.924,8.082-3.254c0.323-1.451,0.317-2.998-0.188-4.397
					C421.2,162.422,420.219,160.984,417.314,160.34z"/>
				<path style="fill:#8F3E37;" d="M428.362,155.326c0.635-0.635,1.57-0.997,2.452-0.826c0.881,0.171,1.651,0.931,1.714,1.826
					c0.002,0.033,0.003,0.068-0.014,0.096c-0.043,0.068-0.149,0.037-0.215-0.009c-0.268-0.187-0.433-0.495-0.704-0.677
					c-0.268-0.18-0.614-0.213-0.932-0.159c-0.318,0.054-0.617,0.188-0.911,0.322c-0.33,0.151-0.684,0.307-1.043,0.254
					C428.349,156.1,427.977,155.71,428.362,155.326z"/>
				<path style="fill:#8F3E37;" d="M420.428,177.587c2.074-1.854,4.197-3.771,5.43-6.265
					C425.119,173.912,423.215,176.145,420.428,177.587z"/>
				<g>
					<defs>
						<path id="SVGID_00000063628374861684272910000011916343181486803329_" d="M400.469,146.943
							c-0.296,5.038-0.449,10.122,0.351,15.105c0.799,4.983,2.317,10.389,5.875,13.698c3.624,3.37,9.306,3.093,13.75,1.913
							c0.878,3.726,0.399,7.757-1.299,11.168c1.462-0.149,2.902-0.508,4.262-1.064c0.891-0.364,1.745-0.811,2.597-1.257
							c3.999-2.092,7.998-4.185,12.234-6.076c-1.777-2.912-3.561-5.835-4.79-9.143c-1.426-0.614-2.498-1.871-3.192-3.259
							s-1.055-2.916-1.382-4.882c1.15,0.581,2.609,0.372,3.658-0.377c1.048-0.749,1.701-1.972,1.924-3.241
							c0.223-1.269,0.045-2.582-0.324-3.817c-0.224-0.749-0.532-1.496-1.076-2.057c-0.392-0.403-0.891-0.691-1.42-0.882
							c-1.792-0.644-4.088,0.038-4.806,1.838c-3.428,0.942-7.095,0.377-10.51-0.612
							C410.852,152.415,405.755,149.787,400.469,146.943z"/>
					</defs>
					<clipPath id="SVGID_00000059278367168322867260000017480634569255011501_">
						<use xlink:href="#SVGID_00000063628374861684272910000011916343181486803329_"  style="overflow:visible;"/>
					</clipPath>
					<path style="clip-path:url(#SVGID_00000059278367168322867260000017480634569255011501_);fill:#2E3E47;" d="M403.281,171.762
						c0.43,0.294,0.978,0.378,1.496,0.32c0.518-0.058,1.011-0.247,1.486-0.461c0.874-0.392,1.748-0.91,2.225-1.74
						c-0.159,0.769-0.652,1.448-1.288,1.909c-0.636,0.461-1.406,0.714-2.186,0.809C404.433,172.669,403.808,172.645,403.281,171.762
						z"/>
				</g>
			</g>
			<g>
				<path style="fill:#BBECEF;" d="M377.466,216.73c-0.193-7.218-0.168-14.441,0.03-21.492c3.954,1.187,8.125,1.674,12.253,1.43
					c1.053-0.062,2.139-0.182,3.022-0.537c-0.224,7.048-0.703,13.615-1.486,21.142C387.338,218.836,382.266,218.774,377.466,216.73z
					"/>
				<path style="fill:#95D1D1;" d="M377.503,195.274c0.052-1.048,3.514-1.727,7.733-1.517c4.219,0.21,7.596,1.23,7.544,2.278
					c-0.052,1.048-3.514,1.727-7.733,1.517C380.828,197.342,377.451,196.322,377.503,195.274z"/>
				<path style="fill:#7EB7B4;" d="M379.238,200.839c0,0-0.343,10.951-0.355,14.275c2.803,1.697,9.036,1.383,11.202,0.36
					c0.281-4.613,0.729-10.331,0.825-14.463C387.07,202.286,379.238,200.839,379.238,200.839z"/>
			</g>
			<g>
				<g>
					<path style="fill:#B3685C;" d="M376.145,216.299c-0.475,1.582,1.103,2.998,2.568,3.762c2.184,1.14,4.557,1.916,6.992,2.286
						c1.62,0.246,3.269,0.315,4.863,0.692c2.165,0.512,4.154,1.575,6.096,2.66c2.242,1.253,4.459,2.551,6.292,3.721
						c2.012-1.673,3.381-3.983,4.573-6.312c0.977-1.908,1.884-3.977,1.933-6.278c-2.528-0.85-5.074-1.707-7.403-3.007
						c-2.329-1.3-4.456-3.082-5.754-5.413c-0.51-0.916-0.89-1.91-1.499-2.763c-0.754-1.054-2.298-1.8-2.507-1.557
						c0.107,0.989,0.06,1.995-0.137,2.97c-0.052,0.259-0.118,0.523-0.269,0.741c-0.207,0.3-0.548,0.476-0.883,0.62
						c-2.88,1.246-6.183,1.025-9.255,0.384c-1.715-0.357-3.579-0.969-4.45-2.621c-0.974-0.073-1.837,0.853-1.896,1.828
						c-0.04,0.663,0.231,1.339,0.851,1.975c-0.547,0.341-0.914,0.956-0.954,1.6c-0.04,0.644,0.249,1.299,0.75,1.705
						c0.013-0.061,0.027-0.121,0.055-0.223c-0.423,0.21-0.7,0.658-0.77,1.125c-0.07,0.467,0.047,0.949,0.259,1.371
						C375.796,215.957,376.08,216.313,376.145,216.299z"/>
					<path style="fill:#8F3E37;" d="M376.401,209.994c0.848,1.339,2.416,2.19,4.001,2.169
						C379.101,211.564,377.844,210.867,376.401,209.994z"/>
					<path style="fill:#8F3E37;" d="M376.049,213.271c0.849,1.273,2.478,1.975,3.986,1.718
						C378.609,214.657,377.257,214.007,376.049,213.271z"/>
					<path style="fill:#8F3E37;" d="M376.268,216.314c0.753,1.31,2.305,2.115,3.809,1.976
						C378.892,217.686,377.705,217.081,376.268,216.314z"/>
				</g>
				<path style="fill:#476387;" d="M435.338,179.833c-3.532,0.046-6.235,3.496-7.632,6.74s-1.611,6.871-1.515,10.402
					c0.229,8.401,2.096,16.661,4.113,24.795c-7.579-1.264-15.045-3.202-22.73-5.815c-1.349,4.432-3.147,8.845-6.034,13.492
					c10.57,5.214,21.862,10.155,33.631,9.523c1.781-0.096,3.617-0.34,5.159-1.441c4.175-2.896,5.94-8.176,6.799-13.184
					c1.711-9.972,0.868-20.245-1.197-30.15c-0.618-2.966-1.359-5.946-2.785-8.619C441.723,182.902,439.593,179.777,435.338,179.833z
					"/>
				<path style="fill:#395471;" d="M431.079,222.067c2.084,0.598,4.149,1.264,6.19,1.995
					C435.32,222.581,432.886,221.75,431.079,222.067z"/>
			</g>
		</g>
		<polygon style="fill:#FFFFFF;" points="125.867,234.286 122.014,228.378 155.95,228.378 153.119,234.481 		"/>
		<polygon style="fill:#FFFFFF;" points="350.175,234.286 346.322,228.378 380.258,228.378 377.428,234.481 		"/>
		<path style="fill:#E7D9CC;" d="M460.734,383.472H39.155c-3.652,0-6.613-2.961-6.613-6.613v0c0-3.652,2.961-6.613,6.613-6.613
			h421.579c3.652,0,6.613,2.961,6.613,6.613l0,0C467.347,380.511,464.386,383.472,460.734,383.472z"/>
		<g>
			<rect x="128.101" y="238.16" style="fill:#96775E;" width="241.317" height="18.533"/>
			<path style="fill:#AC8F75;" d="M385.405,242.821H115.193c-2.574,0-4.661-2.087-4.661-4.661l0,0c0-2.574,2.087-4.661,4.661-4.661
				h270.211c2.574,0,4.661,2.087,4.661,4.661l0,0C390.066,240.734,387.979,242.821,385.405,242.821z"/>
			<path style="fill:#AC8F75;" d="M121.578,372.025L121.578,372.025c-1.561-0.095-2.75-1.438-2.655-3l7.672-125.806
				c0.095-1.561,1.438-2.75,3-2.655l0,0c1.561,0.095,2.75,1.438,2.655,2.999l-7.672,125.806
				C124.483,370.932,123.14,372.121,121.578,372.025z"/>
			<path style="fill:#AC8F75;" d="M377.957,372.025L377.957,372.025c1.561-0.095,2.75-1.438,2.655-3l-7.672-125.806
				c-0.095-1.561-1.438-2.75-3-2.655l0,0c-1.561,0.095-2.75,1.438-2.655,2.999l7.672,125.806
				C375.053,370.932,376.396,372.121,377.957,372.025z"/>
		</g>
		<g>
			<path style="fill:#AC8F75;" d="M109.124,287.849H46.245c-1.408,0-2.549-1.141-2.549-2.549l0,0c0-1.408,1.141-2.549,2.549-2.549
				h62.878c1.408,0,2.549,1.141,2.549,2.549l0,0C111.673,286.708,110.532,287.849,109.124,287.849z"/>
			<path style="fill:#AC8F75;" d="M43.074,285.701l-5.347-87.674c-0.079-1.296,0.907-2.41,2.203-2.489l0,0
				c1.296-0.079,2.41,0.907,2.489,2.203l5.347,87.674c0.079,1.296-0.907,2.41-2.203,2.489l0,0
				C44.267,287.983,43.153,286.997,43.074,285.701z"/>
			<path style="fill:#AC8F75;" d="M40.645,369.216l9.088-83.214c0.134-1.23,1.29-2.123,2.581-1.995h0
				c1.291,0.128,2.229,1.229,2.095,2.458l-9.088,83.214c-0.134,1.23-1.29,2.123-2.581,1.995l0,0
				C41.449,371.547,40.511,370.446,40.645,369.216z"/>
			<path style="fill:#AC8F75;" d="M115.36,369.216l-9.088-83.214c-0.134-1.23-1.29-2.123-2.581-1.995h0
				c-1.291,0.128-2.229,1.229-2.095,2.458l9.088,83.214c0.134,1.23,1.29,2.123,2.581,1.995l0,0
				C114.556,371.547,115.494,370.446,115.36,369.216z"/>
		</g>
		<g>
			<path style="fill:#AC8F75;" d="M389.697,288.234h62.879c1.408,0,2.549-1.141,2.549-2.549v0c0-1.408-1.141-2.549-2.549-2.549
				h-62.879c-1.408,0-2.549,1.141-2.549,2.549v0C387.148,287.092,388.29,288.234,389.697,288.234z"/>
			<path style="fill:#AC8F75;" d="M455.748,286.086l5.347-87.674c0.079-1.296-0.907-2.41-2.203-2.489l0,0
				c-1.296-0.079-2.41,0.907-2.489,2.203l-5.347,87.674c-0.079,1.296,0.907,2.41,2.203,2.489l0,0
				C454.554,288.368,455.669,287.382,455.748,286.086z"/>
			<path style="fill:#AC8F75;" d="M458.176,369.601l-9.088-83.214c-0.134-1.23-1.29-2.123-2.581-1.995l0,0
				c-1.291,0.128-2.229,1.229-2.095,2.458l9.088,83.214c0.134,1.23,1.29,2.123,2.581,1.995l0,0
				C457.372,371.932,458.31,370.831,458.176,369.601z"/>
			<path style="fill:#AC8F75;" d="M383.461,369.601l9.088-83.214c0.134-1.23,1.29-2.123,2.581-1.995l0,0
				c1.291,0.128,2.229,1.229,2.095,2.458l-9.088,83.214c-0.134,1.23-1.29,2.123-2.581,1.995l0,0
				C384.265,371.932,383.327,370.831,383.461,369.601z"/>
		</g>
	</g>
</g>
</svg>
