<?xml version="1.0" encoding="utf-8"?>
<!-- Generator: Adobe Illustrator 27.5.0, SVG Export Plug-In . SVG Version: 6.00 Build 0)  -->
<svg version="1.1" xmlns="http://www.w3.org/2000/svg" xmlns:xlink="http://www.w3.org/1999/xlink" x="0px" y="0px"
	 viewBox="0 0 750 500" style="enable-background:new 0 0 750 500;" xml:space="preserve">
<g id="BACKGROUND">
	<rect style="fill:#EBE0D1;" width="750" height="500"/>
</g>
<g id="OBJECTS">
	<g>
		<g>
			<g>
				<path style="fill:#D3BDA3;" d="M373.164,220.102c-0.655-0.655-1.309-1.309-1.964-1.964c-1.782-1.782-3.564-3.563-5.345-5.345
					c-2.636-2.636-5.271-5.271-7.907-7.907c-3.233-3.233-6.466-6.466-9.699-9.699c-3.525-3.525-7.049-7.049-10.574-10.574
					c-3.558-3.558-7.115-7.115-10.673-10.673c-3.318-3.318-6.635-6.635-9.953-9.953c-2.804-2.804-5.608-5.608-8.412-8.412
					c-2.018-2.018-4.035-4.035-6.053-6.053c-0.631-0.631-1.261-1.261-1.892-1.892c-0.317-0.317-0.624-0.708-0.981-0.981
					c-0.046-0.035-0.085-0.085-0.126-0.125c0,0.265,0,0.529,0,0.794c0.655-0.655,1.309-1.309,1.964-1.964
					c1.782-1.782,3.563-3.563,5.345-5.345c2.636-2.636,5.271-5.271,7.907-7.907c3.233-3.233,6.466-6.466,9.699-9.699
					c3.525-3.525,7.049-7.049,10.574-10.574c3.558-3.558,7.115-7.115,10.673-10.673c3.318-3.317,6.635-6.635,9.953-9.953
					c2.804-2.804,5.608-5.608,8.412-8.412c2.017-2.018,4.035-4.035,6.052-6.052c0.631-0.631,1.262-1.262,1.892-1.892
					c0.317-0.317,0.708-0.624,0.981-0.981c0.035-0.046,0.085-0.085,0.125-0.126c-0.265,0-0.529,0-0.794,0
					c0.655,0.655,1.309,1.309,1.964,1.964c1.782,1.782,3.564,3.563,5.345,5.345c2.636,2.636,5.271,5.271,7.907,7.907
					c3.233,3.233,6.466,6.466,9.699,9.699c3.525,3.525,7.049,7.049,10.574,10.574c3.558,3.558,7.115,7.115,10.673,10.673
					c3.318,3.318,6.635,6.635,9.953,9.953c2.804,2.804,5.608,5.608,8.412,8.412c2.018,2.018,4.035,4.035,6.052,6.053
					c0.631,0.631,1.262,1.261,1.892,1.892c0.317,0.317,0.625,0.708,0.981,0.981c0.046,0.035,0.085,0.085,0.125,0.126
					c0-0.265,0-0.529,0-0.794c-0.655,0.655-1.309,1.309-1.964,1.964c-1.782,1.782-3.564,3.563-5.345,5.345
					c-2.636,2.636-5.271,5.271-7.907,7.907c-3.233,3.233-6.466,6.466-9.699,9.699c-3.525,3.525-7.049,7.049-10.574,10.574
					c-3.558,3.558-7.115,7.115-10.673,10.673c-3.318,3.318-6.635,6.635-9.952,9.952c-2.804,2.804-5.608,5.608-8.412,8.412
					c-2.017,2.018-4.035,4.035-6.052,6.053c-0.956,0.956-1.943,1.891-2.873,2.873c-0.041,0.043-0.084,0.084-0.125,0.125
					c-0.512,0.512,0.282,1.306,0.794,0.794c0.655-0.655,1.309-1.309,1.964-1.964c1.782-1.782,3.563-3.563,5.345-5.345
					c2.636-2.636,5.271-5.271,7.907-7.907c3.233-3.233,6.466-6.466,9.699-9.699c3.525-3.525,7.049-7.049,10.574-10.574
					c3.558-3.558,7.115-7.115,10.673-10.673c3.317-3.318,6.635-6.635,9.953-9.953c2.804-2.804,5.608-5.608,8.412-8.412
					c2.017-2.017,4.035-4.035,6.052-6.053c0.956-0.956,1.943-1.891,2.873-2.873c0.041-0.043,0.084-0.084,0.126-0.125
					c0.214-0.214,0.215-0.579,0-0.794c-0.655-0.655-1.309-1.309-1.964-1.964c-1.782-1.782-3.564-3.563-5.345-5.345
					c-2.636-2.636-5.271-5.271-7.907-7.907c-3.233-3.233-6.466-6.466-9.699-9.699c-3.525-3.525-7.049-7.049-10.574-10.574
					c-3.558-3.558-7.115-7.115-10.673-10.673c-3.318-3.317-6.635-6.635-9.953-9.953c-2.804-2.804-5.608-5.608-8.412-8.412
					c-2.018-2.018-4.035-4.035-6.053-6.053c-0.956-0.956-1.891-1.942-2.873-2.873c-0.043-0.041-0.084-0.084-0.126-0.126
					c-0.214-0.214-0.579-0.215-0.794,0c-0.655,0.655-1.309,1.309-1.964,1.964c-1.782,1.782-3.564,3.563-5.345,5.345
					c-2.636,2.636-5.271,5.271-7.907,7.907c-3.233,3.233-6.466,6.466-9.699,9.699c-3.525,3.525-7.049,7.049-10.574,10.574
					c-3.558,3.558-7.116,7.115-10.673,10.673c-3.317,3.317-6.635,6.635-9.953,9.953c-2.804,2.804-5.608,5.608-8.412,8.412
					c-2.017,2.018-4.035,4.035-6.053,6.052c-0.956,0.956-1.943,1.891-2.873,2.873c-0.041,0.043-0.084,0.084-0.125,0.126
					c-0.214,0.214-0.215,0.579,0,0.794c0.655,0.655,1.309,1.309,1.964,1.964c1.782,1.782,3.564,3.563,5.345,5.345
					c2.636,2.636,5.271,5.271,7.907,7.907c3.233,3.233,6.466,6.466,9.699,9.699c3.525,3.525,7.05,7.049,10.574,10.574
					c3.558,3.558,7.115,7.116,10.673,10.673c3.318,3.318,6.635,6.635,9.953,9.953c2.804,2.804,5.608,5.608,8.412,8.412
					c2.018,2.018,4.035,4.035,6.053,6.053c0.956,0.956,1.891,1.942,2.873,2.873c0.043,0.041,0.084,0.084,0.125,0.126
					C372.882,221.408,373.676,220.614,373.164,220.102z"/>
				<path style="fill:#D3BDA3;" d="M373.561,212.672c-2.213-2.214-4.427-4.427-6.64-6.64c-5.285-5.285-10.57-10.57-15.854-15.854
					c-6.421-6.421-12.841-12.841-19.262-19.262c-5.526-5.526-11.053-11.053-16.579-16.579c-1.825-1.825-3.649-3.649-5.474-5.474
					c-0.813-0.813-1.653-1.972-2.615-2.614c-0.044-0.03-0.082-0.082-0.12-0.121c0,0.529,0,1.059,0,1.588
					c2.214-2.214,4.427-4.427,6.64-6.64c5.285-5.285,10.57-10.57,15.854-15.854c6.421-6.421,12.841-12.841,19.262-19.262
					c5.526-5.526,11.053-11.053,16.579-16.579c1.825-1.825,3.649-3.649,5.474-5.474c0.813-0.813,1.971-1.653,2.614-2.615
					c0.03-0.044,0.082-0.082,0.12-0.12c-0.529,0-1.059,0-1.588,0c2.214,2.214,4.427,4.427,6.64,6.64
					c5.285,5.285,10.57,10.57,15.854,15.854c6.421,6.421,12.841,12.841,19.262,19.262c5.527,5.526,11.053,11.053,16.579,16.579
					c1.825,1.825,3.649,3.649,5.474,5.474c0.813,0.813,1.653,1.972,2.614,2.614c0.044,0.03,0.082,0.082,0.121,0.121
					c0-0.529,0-1.059,0-1.588c-2.214,2.214-4.427,4.427-6.64,6.64c-5.285,5.285-10.57,10.57-15.854,15.854
					c-6.421,6.421-12.841,12.841-19.262,19.262c-5.527,5.526-11.053,11.053-16.579,16.579c-2.672,2.672-5.608,5.233-8.088,8.088
					c-0.037,0.043-0.081,0.081-0.121,0.121c-1.023,1.023,0.564,2.611,1.588,1.588c2.214-2.214,4.427-4.427,6.641-6.64
					c5.285-5.285,10.57-10.57,15.854-15.854c6.421-6.421,12.841-12.841,19.262-19.262c5.526-5.526,11.053-11.053,16.579-16.579
					c2.672-2.672,5.608-5.234,8.088-8.088c0.037-0.043,0.081-0.081,0.121-0.12c0.429-0.429,0.43-1.158,0-1.588
					c-2.214-2.214-4.427-4.427-6.64-6.64c-5.285-5.285-10.57-10.57-15.854-15.854c-6.421-6.421-12.841-12.841-19.262-19.262
					c-5.526-5.526-11.053-11.053-16.579-16.579c-2.672-2.672-5.233-5.608-8.088-8.088c-0.043-0.037-0.081-0.081-0.121-0.121
					c-0.429-0.429-1.158-0.43-1.588,0c-2.214,2.213-4.427,4.427-6.64,6.64c-5.285,5.285-10.57,10.57-15.854,15.854
					c-6.421,6.421-12.841,12.841-19.262,19.262c-5.526,5.526-11.053,11.053-16.579,16.579c-2.672,2.672-5.608,5.233-8.088,8.088
					c-0.037,0.042-0.081,0.081-0.121,0.12c-0.429,0.429-0.43,1.158,0,1.588c2.214,2.213,4.427,4.427,6.641,6.64
					c5.285,5.285,10.57,10.57,15.854,15.854c6.421,6.42,12.841,12.841,19.262,19.262c5.526,5.526,11.053,11.053,16.579,16.579
					c2.672,2.672,5.233,5.608,8.088,8.088c0.043,0.037,0.081,0.081,0.121,0.12C372.996,215.283,374.584,213.695,373.561,212.672z"/>
			</g>
			<path style="fill:#D3BDA3;" d="M396.44,154.456c-0.675-0.731-1.312-1.493-1.887-2.3c-0.179-0.649-0.543-1.26-1.098-1.696
				c-0.538-0.926-1.009-1.894-1.4-2.902c-0.566-1.459-1.948-2.471-3.568-2.025c-1.394,0.383-2.595,2.099-2.026,3.568
				c0.022,0.058,0.048,0.113,0.07,0.17c-3.974-0.351-7.947-0.535-11.916-0.524c0.582-2.493,1.033-4.996,1.345-7.505
				c2.328,0.264,4.648,0.678,6.957,1.258c3.621,0.91,5.166-4.683,1.542-5.593c-2.673-0.672-5.344-1.131-8.02-1.413
				c0.118-2.809,0.074-5.622-0.144-8.431c6.017-0.141,11.898-0.98,17.207-3.012c0.281-0.107,0.517-0.251,0.734-0.41
				c0.498-0.234,0.925-0.604,1.178-1.082c0.699-1.322,0.323-2.783-0.841-3.65c-0.176-0.174-0.383-0.309-0.605-0.418
				c-0.63-0.416-1.261-0.832-1.891-1.248c-1.204-0.795-3.097-0.278-3.766,0.987c-0.258,0.489-0.364,0.996-0.345,1.487
				c-3.919,1.004-8.105,1.452-12.367,1.533c-0.301-1.873-0.67-3.743-1.121-5.608c-0.878-3.626-6.473-2.091-5.593,1.542
				c0.32,1.32,0.598,2.643,0.834,3.967c-6.435-0.329-12.841-1.291-18.563-2.274c-1.258-0.216-2.26,0.313-2.894,1.116
				c-0.176,0.205-0.326,0.43-0.429,0.68c-0.253,0.547-0.353,1.147-0.289,1.711c-0.056,0.094-0.111,0.189-0.174,0.281
				c-0.812,1.194-0.265,3.104,0.987,3.766c1.394,0.737,2.899,0.286,3.766-0.987c0.107-0.158,0.191-0.335,0.283-0.506
				c5.727,0.939,11.905,1.787,18.086,2.058c0.235,2.728,0.295,5.458,0.18,8.185c-3.188-0.012-6.389,0.226-9.617,0.732
				c-3.677,0.576-2.116,6.167,1.542,5.594c2.531-0.397,5.055-0.592,7.572-0.598c-0.351,2.651-0.863,5.296-1.545,7.931
				c-0.005,0.02-0.004,0.038-0.009,0.059c-6.755,0.324-13.491,1.154-20.186,2.488c-3.369,0.671-2.316,5.456,0.724,5.641
				c1.34,5.695,1.556,11.404,0.516,17.225c-0.405,2.27,1.29,3.985,3.568,3.568c10.966-2.007,22.028-2.419,33.092-1.387
				c0.675,3.352,6.107,3.29,5.737-0.313c-0.016-0.154-0.025-0.308-0.04-0.462c0.548-0.974,0.462-2.373-0.243-3.397
				c-0.213-4.539,0.023-9.028,0.732-13.496c0.076,0.08,0.146,0.162,0.223,0.241c0.656,0.675,1.406,0.919,2.121,0.865
				c0.051,0.002,0.095,0.015,0.147,0.015C398.178,159.887,398.651,155.721,396.44,154.456z M385.926,170.598
				c-10.064-0.896-20.104-0.557-30.09,0.949c0.504-5.19,0.215-10.311-0.937-15.441c10.734-1.702,21.562-2.01,32.384-0.99
				C386.265,160.236,385.804,165.392,385.926,170.598z"/>
		</g>
		<g>
			<g>
				<g>
					<path style="fill:#D3BDA3;" d="M255.368,160.1c-17.477,0-32.483-8.802-36.485-22.948c-2.483-8.779-0.414-18.268,5.827-26.72
						c6.209-8.409,15.813-14.79,27.044-17.966c23.234-6.572,46.298,2.777,51.408,20.845c2.483,8.779,0.414,18.268-5.827,26.72
						c-6.209,8.409-15.814,14.79-27.044,17.966C265.248,159.424,260.213,160.1,255.368,160.1z M266.697,91.482
						c-4.75,0-9.688,0.663-14.637,2.063c-10.993,3.11-20.385,9.343-26.447,17.553c-6.03,8.167-8.037,17.311-5.65,25.748
						c4.942,17.471,27.382,26.473,50.023,20.071c10.993-3.11,20.385-9.343,26.447-17.553c6.03-8.167,8.037-17.311,5.65-25.748
						C298.22,99.965,283.673,91.482,266.697,91.482z"/>
					<path style="fill:#D3BDA3;" d="M265.414,158.671c-4.849,0-9.842-1.926-14.457-5.645c-6.127-4.938-10.86-12.459-13.327-21.178
						c-2.466-8.719-2.375-17.604,0.258-25.021c2.657-7.484,7.581-12.585,13.865-14.362c6.283-1.78,13.149-0.013,19.333,4.971
						c6.128,4.938,10.861,12.459,13.327,21.178l0,0c5.111,18.067-1.225,35.734-14.123,39.383
						C268.697,158.448,267.063,158.671,265.414,158.671z M256.625,92.915c-1.546,0-3.074,0.209-4.565,0.63
						c-5.924,1.676-10.581,6.526-13.112,13.657c-2.556,7.199-2.64,15.843-0.236,24.339c2.404,8.497,7.003,15.816,12.951,20.61
						c5.892,4.749,12.4,6.44,18.323,4.765c12.303-3.48,18.291-20.526,13.349-37.997l0,0c-2.403-8.497-7.003-15.816-12.951-20.609
						C265.974,94.757,261.22,92.915,256.625,92.915z"/>
					
						<rect x="235.693" y="87.74" transform="matrix(0.9622 -0.2722 0.2722 0.9622 -15.4249 71.913)" style="fill:#D3BDA3;" width="31.606" height="7.631"/>
					
						<rect x="254.739" y="155.068" transform="matrix(0.9622 -0.2722 0.2722 0.9622 -33.0322 79.6391)" style="fill:#D3BDA3;" width="31.607" height="7.631"/>
					<path style="fill:#D3BDA3;" d="M245.143,95.789c-0.346,0-0.683-0.017-1.008-0.053c-2.647-0.291-4.322-1.802-5.118-4.616
						c-0.835-2.949-0.614-6.979,0.575-10.517c1.371-4.08,3.734-6.781,6.654-7.607c2.919-0.826,6.349,0.238,9.653,2.994
						c2.866,2.391,5.165,5.708,5.999,8.657l0,0c1.853,6.552-4.491,8.346-9.588,9.788C249.866,95.127,247.322,95.789,245.143,95.789z
						 M248.263,73.843c-0.565,0-1.138,0.071-1.711,0.233c-3.444,0.975-5.172,4.732-5.896,6.885
						c-1.104,3.284-1.323,7.152-0.559,9.853c0.667,2.357,1.989,3.567,4.161,3.806c2.177,0.242,5.02-0.494,7.748-1.265
						c6.066-1.716,10.249-3.323,8.813-8.402l0,0c-0.764-2.701-2.978-5.881-5.638-8.101
						C253.727,75.639,251.094,73.843,248.263,73.843z"/>
				</g>
				<g>
					<path style="fill:#D3BDA3;" d="M122.711,146.414c-5.975,0-12.248-1.066-18.449-3.318c-22.696-8.245-35.946-29.31-29.537-46.957
						c3.115-8.575,10.339-15.066,20.343-18.278c9.952-3.195,21.474-2.761,32.445,1.224c22.697,8.244,35.947,29.309,29.537,46.957
						l0,0C152.391,138.867,138.607,146.414,122.711,146.414z M109.011,76.866c-4.716,0-9.309,0.686-13.601,2.063
						c-9.665,3.104-16.637,9.352-19.63,17.593c-6.199,17.065,6.75,37.485,28.865,45.518c22.115,8.034,45.15,0.684,51.349-16.383
						c6.199-17.066-6.75-37.485-28.865-45.518C121.134,77.962,114.974,76.866,109.011,76.866z"/>
					<path style="fill:#D3BDA3;" d="M110.365,144.158c-2.075,0-4.124-0.343-6.103-1.062c-12.599-4.577-17.634-22.658-11.224-40.306
						c3.094-8.516,8.36-15.673,14.831-20.153c6.53-4.52,13.505-5.783,19.644-3.553c6.138,2.229,10.678,7.674,12.785,15.332
						c2.087,7.588,1.533,16.457-1.561,24.974C133.334,134.264,121.496,144.158,110.365,144.158z M121.354,79.133
						c-4.208,0-8.617,1.499-12.846,4.427c-6.28,4.348-11.399,11.314-14.414,19.614c-6.199,17.066-1.465,34.502,10.552,38.866
						c12.015,4.367,26.837-5.968,33.036-23.035c3.015-8.299,3.559-16.927,1.533-24.292c-2.007-7.296-6.299-12.472-12.085-14.574
						C125.276,79.466,123.337,79.133,121.354,79.133z"/>
					
						<rect x="112.033" y="74.38" transform="matrix(0.9399 0.3414 -0.3414 0.9399 34.3767 -38.9452)" style="fill:#D3BDA3;" width="31.606" height="7.631"/>
					
						<rect x="88.144" y="140.146" transform="matrix(0.9399 0.3414 -0.3414 0.9399 55.3942 -26.8383)" style="fill:#D3BDA3;" width="31.607" height="7.631"/>
					<path style="fill:#D3BDA3;" d="M134.519,82.916c-2.452,0-5.229-1.008-7.705-1.907c-4.979-1.809-11.176-4.06-8.852-10.459
						c1.046-2.881,3.58-6.022,6.612-8.199c3.496-2.509,6.991-3.321,9.846-2.285c2.852,1.036,5.013,3.902,6.084,8.071
						c0.929,3.615,0.856,7.65-0.19,10.531v0C139.145,81.885,136.998,82.916,134.519,82.916z M131.847,60.747
						c-2.645,0-5.17,1.478-6.617,2.517c-2.815,2.02-5.253,5.031-6.211,7.669c-1.802,4.961,2.253,6.868,8.179,9.021
						c5.924,2.152,10.26,3.294,12.061-1.669l0,0c0.958-2.638,1.021-6.512,0.159-9.868c-0.565-2.2-2.016-6.073-5.38-7.294
						C133.311,60.859,132.574,60.747,131.847,60.747z"/>
				</g>
				<path style="fill:#D3BDA3;" d="M79.673,32.416c14.565,11.138,30.52,20.416,47.384,27.611
					c16.701,7.125,34.253,12.236,52.181,15.128c18.081,2.916,36.497,3.563,54.734,1.869c18.253-1.696,36.29-5.662,53.578-11.757
					c17.354-6.118,33.967-14.364,49.274-24.582c1.877-1.253,3.733-2.538,5.572-3.847c0.579-0.413,0.023-1.379-0.562-0.962
					c-14.913,10.627-31.151,19.362-48.229,25.97c-17.139,6.632-35.107,11.164-53.351,13.389
					c-18.001,2.196-36.251,2.132-54.234-0.208c-18.051-2.349-35.81-6.971-52.744-13.643c-16.867-6.645-32.928-15.362-47.656-25.935
					c-1.816-1.304-3.61-2.637-5.386-3.995C79.666,31.019,79.11,31.986,79.673,32.416L79.673,32.416z"/>
			</g>
			<g>
				<g>
					<path style="fill:#D3BDA3;" d="M599.397,159.246c-24.147,0-43.793-15.275-43.793-34.052s19.646-34.052,43.793-34.052
						c24.148,0,43.794,15.275,43.794,34.052S623.545,159.246,599.397,159.246z M599.397,92.265c-23.528,0-42.67,14.771-42.67,32.929
						s19.142,32.929,42.67,32.929c23.529,0,42.671-14.771,42.671-32.929S622.926,92.265,599.397,92.265z"/>
					<path style="fill:#D3BDA3;" d="M599.397,159.246c-13.404,0-24.31-15.275-24.31-34.052s10.905-34.052,24.31-34.052
						c13.405,0,24.311,15.275,24.311,34.052S612.802,159.246,599.397,159.246z M599.397,92.265
						c-12.785,0-23.186,14.771-23.186,32.929s10.401,32.929,23.186,32.929c12.786,0,23.188-14.771,23.188-32.929
						S612.183,92.265,599.397,92.265z"/>
					<rect x="583.594" y="86.381" style="fill:#D3BDA3;" width="31.606" height="7.631"/>
					<rect x="583.594" y="156.352" style="fill:#D3BDA3;" width="31.606" height="7.631"/>
					<path style="fill:#D3BDA3;" d="M599.397,93.19c-5.297,0-11.89,0-11.89-6.809c0-6.11,5.326-15.472,11.89-15.472
						c6.564,0,11.891,9.362,11.891,15.472C611.288,93.19,604.695,93.19,599.397,93.19z M599.397,72.032
						c-5.839,0-10.767,8.813-10.767,14.349c0,5.278,4.462,5.686,10.767,5.686c6.305,0,10.768-0.408,10.768-5.686
						C610.165,80.845,605.237,72.032,599.397,72.032z"/>
				</g>
				<g>
					<path style="fill:#D3BDA3;" d="M484.311,131.294c-3.709,0-7.491-0.384-11.27-1.161c-11.433-2.35-21.477-8.013-28.282-15.947
						c-6.84-7.975-9.596-17.288-7.759-26.224c1.837-8.937,8.042-16.408,17.473-21.038c9.383-4.606,20.845-5.85,32.279-3.5
						c11.433,2.35,21.477,8.013,28.282,15.947c6.84,7.975,9.596,17.288,7.759,26.224c-1.837,8.937-8.042,16.408-17.474,21.038
						C499.039,129.718,491.824,131.294,484.311,131.294z M475.48,63.387c-7.342,0-14.384,1.538-20.512,4.546
						c-9.112,4.474-15.103,11.667-16.868,20.256c-1.765,8.589,0.902,17.563,7.512,25.268c6.645,7.746,16.466,13.278,27.656,15.578
						c11.187,2.298,22.396,1.089,31.558-3.408c9.112-4.474,15.103-11.667,16.868-20.256c1.765-8.589-0.902-17.562-7.512-25.267
						c-6.645-7.746-16.466-13.278-27.656-15.578C482.822,63.763,479.114,63.387,475.48,63.387z"/>
					<path style="fill:#D3BDA3;" d="M476.633,130.499c-1.203,0-2.402-0.121-3.592-0.365c-13.13-2.699-20.737-19.857-16.957-38.248
						c1.824-8.875,5.996-16.722,11.747-22.094c5.806-5.421,12.525-7.683,18.921-6.367c13.13,2.699,20.736,19.856,16.956,38.248
						c-1.824,8.875-5.996,16.722-11.747,22.093C487.236,128.18,481.904,130.499,476.633,130.499z M483.167,64.183
						c-4.989,0-10.057,2.215-14.569,6.429c-5.583,5.214-9.637,12.849-11.414,21.498c-3.655,17.785,3.56,34.349,16.084,36.923
						c6.027,1.237,12.396-0.923,17.927-6.088c5.583-5.214,9.637-12.85,11.414-21.499c3.655-17.786-3.56-34.349-16.083-36.923
						C485.416,64.297,484.293,64.183,483.167,64.183z"/>
					
						<rect x="471.139" y="58.683" transform="matrix(0.9795 0.2013 -0.2013 0.9795 22.5525 -96.753)" style="fill:#D3BDA3;" width="31.606" height="7.631"/>
					
						<rect x="457.053" y="127.221" transform="matrix(0.9795 0.2013 -0.2013 0.9795 36.0631 -92.5151)" style="fill:#D3BDA3;" width="31.606" height="7.631"/>
					<path style="fill:#D3BDA3;" d="M492.695,66.289c-1.971,0-4.198-0.415-6.355-0.858c-5.189-1.066-11.646-2.394-10.275-9.063
						c1.229-5.984,8.323-14.087,14.762-12.761c2.973,0.611,5.526,3.133,7.191,7.102c1.443,3.442,1.957,7.445,1.34,10.447v0
						c-0.589,2.865-2.148,4.493-4.768,4.977C493.996,66.242,493.36,66.289,492.695,66.289z M489.393,44.585
						c-5.407,0-11.192,6.964-12.229,12.009c-1.063,5.169,3.227,6.468,9.402,7.737c2.776,0.57,5.665,1.095,7.819,0.697
						c2.148-0.397,3.379-1.699,3.872-4.099v0c0.565-2.75,0.064-6.591-1.275-9.787c-0.879-2.094-2.876-5.715-6.383-6.436
						C490.201,44.624,489.797,44.585,489.393,44.585z"/>
				</g>
				<path style="fill:#D3BDA3;" d="M458.667,26.296c10.138,9.695,22.424,16.71,35.288,22.132
					c13.597,5.731,27.859,9.956,42.112,13.711c15.066,3.97,30.353,7.139,45.799,9.209c15.49,2.076,31.146,3.043,46.772,2.507
					c15.447-0.53,30.864-2.535,45.86-6.312c1.853-0.467,3.698-0.962,5.536-1.48c0.689-0.194,0.396-1.269-0.296-1.074
					c-14.87,4.193-30.188,6.62-45.606,7.502c-15.318,0.876-30.701,0.264-45.939-1.471c-15.517-1.767-30.89-4.705-46.041-8.472
					c-14.248-3.543-28.474-7.624-42.188-12.895c-13.124-5.044-25.915-11.5-36.668-20.67c-1.314-1.121-2.594-2.281-3.842-3.475
					C458.937,25.013,458.148,25.799,458.667,26.296L458.667,26.296z"/>
			</g>
		</g>
	</g>
	<g>
		
			<rect x="350.339" y="434.818" transform="matrix(-1 -1.224647e-16 1.224647e-16 -1 782.5959 873.1436)" style="fill:#8F2A05;" width="81.918" height="3.508"/>
		<polygon style="fill:#470E0E;" points="350.084,360.078 365.431,360.078 348.549,475.734 339.121,475.734 		"/>
		<polygon style="fill:#470E0E;" points="432.512,360.078 417.165,360.078 434.047,475.734 443.475,475.734 		"/>
		<path style="fill:#845584;" d="M344.406,339.03h91.75c2.906,0,5.262,2.356,5.262,5.262v10.524c0,2.906-2.356,5.262-5.262,5.262
			h-91.75c-2.906,0-5.262-2.356-5.262-5.262v-10.524C339.144,341.386,341.5,339.03,344.406,339.03z"/>
	</g>
	<g>
		<g>
			<path style="fill:#653F64;" d="M352.276,344.095c3.979,0.822,30.141,0.412,46.639-6.659
				c18.035-7.729,23.027-43.156,23.027-43.156l-35.542-2.362l-2.22,4.724c0,0-62.418,11.223-68.561,31.403
				c-8.513,27.966,73.132,95.009,73.132,95.009s8.646-2.048,16.106-9.392C404.858,413.662,365.431,353.696,352.276,344.095z"/>
			<path style="fill:#C13A30;" d="M262.615,434.401l55.828,18.837c5.451-6.751,4.263-19.779,4.263-19.779
				c-10.546-1.126-17.678-5.926-17.678-5.926c-8.215,1.774-16.879,0.505-26.507-1.645
				C268.894,423.739,264.784,427.972,262.615,434.401z"/>
			<path style="fill:#C13A30;" d="M365.969,459.482l50.957-29.58c-1.486-8.548-12.068-16.241-12.068-16.241
				c-13.904,10.24-16.106,9.392-16.106,9.392c-4.079,7.349-10.743,13.028-18.704,18.854
				C362.087,447.733,362.563,453.614,365.969,459.482z"/>
			<path style="fill:#653F64;" d="M451.632,296.023c0,30.301-14.518,44.215-39.178,48.095c-44.309,6.972-74.952-10.3-74.952-10.3
				c9.742,32.754-14.796,99.641-14.796,99.641c-11.07-0.614-17.678-5.926-17.678-5.926s-3.221-96.638,9.969-111.834
				c11.391-13.123,79.763-14.575,79.763-14.575l6.409-7.729L451.632,296.023z"/>
			<path style="fill:#470E0E;" d="M365.999,342.882c-2.309-0.302-4.605-0.708-6.878-1.216c-2.265-0.506-4.507-1.113-6.718-1.818
				c-2.211-0.704-4.391-1.507-6.532-2.403c-2.149-0.9-4.257-1.896-6.316-2.984c-2.043-1.079-4.038-2.248-5.977-3.504
				c-0.247-0.16-0.493-0.321-0.738-0.484c-0.153-0.101-0.295,0.145-0.143,0.245c1.942,1.289,3.942,2.491,5.992,3.601
				c2.059,1.115,4.168,2.138,6.319,3.064c2.133,0.919,4.305,1.746,6.511,2.475c2.223,0.735,4.479,1.371,6.759,1.905
				c2.27,0.531,4.563,0.961,6.871,1.287c0.283,0.04,0.566,0.078,0.85,0.115C366.18,343.189,366.178,342.905,365.999,342.882
				L365.999,342.882z"/>
			<path style="fill:#470E0E;" d="M337.637,333.831c0.467,2.55,0.851,5.115,1.148,7.69c0.297,2.575,0.509,5.16,0.636,7.749
				c0.126,2.576,0.168,5.156,0.126,7.735c-0.042,2.579-0.169,5.156-0.38,7.727c-0.213,2.596-0.512,5.186-0.898,7.762
				c-0.048,0.317-0.097,0.634-0.147,0.951c-0.028,0.179,0.245,0.256,0.274,0.075c0.405-2.56,0.726-5.133,0.962-7.715
				c0.237-2.594,0.388-5.196,0.453-7.8c0.065-2.604,0.044-5.21-0.064-7.813c-0.107-2.603-0.3-5.202-0.579-7.792
				c-0.278-2.577-0.64-5.145-1.086-7.698c-0.055-0.316-0.112-0.632-0.17-0.947C337.878,333.576,337.604,333.652,337.637,333.831
				L337.637,333.831z"/>
			<path style="fill:#470E0E;" d="M356.444,303.765c5.274-0.63,10.564-1.121,15.864-1.473c5.273-0.35,10.555-0.561,15.839-0.634
				c2.977-0.041,5.955-0.038,8.932,0.009c0.183,0.003,0.183-0.281,0-0.284c-5.311-0.083-10.623-0.027-15.931,0.169
				c-5.281,0.195-10.556,0.529-15.82,1.001c-2.966,0.266-5.927,0.576-8.884,0.929C356.265,303.502,356.263,303.786,356.444,303.765
				L356.444,303.765z"/>
			<g>
				<g>
					<path style="fill:#470E0E;" d="M397.369,302.219c0.717,0,0.718-1.114,0-1.114C396.652,301.105,396.651,302.219,397.369,302.219
						L397.369,302.219z"/>
				</g>
			</g>
		</g>
		<g>
			<g>
				<path style="fill:#F0A57D;" d="M398.035,206.967c-11.818,2.757-24.747,45.773-24.747,45.773l-12.796-40.531l-10.816,2.221
					c0,0,6.056,36.725,10.816,48.547c5.847,14.519,19.448,13.018,24.653,3.313c5.749-10.719,13.934-35.079,13.934-35.079
					L398.035,206.967z"/>
				<path style="fill:#D1580C;" d="M398.035,206.967c-12.846,1.734-21.519,29.7-21.519,29.7c6.626,6.724,21.653,7.113,21.653,7.113
					L398.035,206.967z"/>
				<g>
					<path style="fill:#F0A57D;" d="M360.525,212.788c0.051-1.208-1.358-1.879-1.448-3.859c-0.091-1.979,1.459-5.031,0.981-6.503
						c-0.478-1.472-6.519-11.124-8.561-9.623c-1.214,0.893,2.382,6.061,2.325,6.218c-0.057,0.157-5.256-5.82-6.793-4.41
						c-1.537,1.409,5.316,7.48,5.198,7.67c-0.118,0.189-5.823-4.099-6.931-2.475s4.845,5.223,4.81,5.43
						c-0.035,0.208-5.629-1.456-6.168-0.18c-0.54,1.276,6.21,3.607,6.157,3.918c-0.053,0.311-1.814,2.863-1.658,5.274
						c0.155,2.411,4.08,5.866,5.904,5.418C356.166,219.217,360.459,214.359,360.525,212.788z"/>
				</g>
			</g>
			<g>
				<g>
					<g>
						<g>
							<g>
								<g>
									<g>
										<g>
											<g>
												<g>
													<g>
														<g>
															<g>
																<g>
																	<g>
																		<g>
																			<g>
																				<g>
																					<g>
																						<g>
																							<g>
																								<g>
																									<g>
																										<path style="fill:#D1580C;" d="M452.531,299.721c-66.201,13.898-68.653-4.88-68.653-4.88l10.502-40.344
																											c-10.875-2.947-7.445-22.582,0.761-28.138l2.893-19.392l10.972-2.404l14.878-0.49l12.653,3.725
																											l3.497,49.462C453.603,273.754,452.531,299.721,452.531,299.721z"/>
																									</g>
																								</g>
																							</g>
																						</g>
																					</g>
																				</g>
																			</g>
																		</g>
																	</g>
																</g>
															</g>
														</g>
													</g>
												</g>
											</g>
										</g>
									</g>
								</g>
							</g>
						</g>
					</g>
				</g>
			</g>
			<g>
				<path style="fill:#99201D;" d="M397.449,209.371c-1.193,4.359-1.983,8.828-2.355,13.332c-0.104,1.26-0.175,2.523-0.213,3.787
					c-0.006,0.183,0.278,0.183,0.284,0c0.138-4.493,0.689-8.97,1.65-13.361c0.27-1.235,0.574-2.464,0.908-3.683
					C397.771,209.27,397.497,209.194,397.449,209.371L397.449,209.371z"/>
				<path style="fill:#99201D;" d="M395.233,226.191c-1.899,1.246-3.526,2.881-4.788,4.767c-1.357,2.029-2.27,4.344-2.699,6.746
					c-0.251,1.404-0.34,2.833-0.262,4.257c0.01,0.182,0.294,0.183,0.284,0c-0.136-2.473,0.235-4.964,1.096-7.287
					c0.804-2.167,2.049-4.169,3.644-5.842c0.862-0.905,1.823-1.71,2.868-2.396C395.528,226.337,395.386,226.091,395.233,226.191
					L395.233,226.191z"/>
			</g>
			<g>
				<g>
					<path style="fill:#470E0E;" d="M430.264,153.189c-5.119-6.792-4.91-15.584,0.467-19.637c5.377-4.053,13.887-1.832,19.006,4.96
						c5.119,6.792,4.91,15.584-0.467,19.637C443.892,162.203,435.383,159.982,430.264,153.189z"/>
					<path style="fill:#FF8A15;" d="M427.791,155.054c-3.591-4.764-3.444-10.93,0.328-13.773c3.772-2.843,9.74-1.285,13.33,3.479
						c3.591,4.764,3.444,10.93-0.328,13.773C437.349,161.375,431.381,159.818,427.791,155.054z"/>
					<path style="fill:#470E0E;" d="M428.724,138.383c-7.573-4.368-16.81-5.427-25.371-3.564c-3.626-1.383-8.537-1.349-11.808,0.341
						c-3.564,1.841-6.28,5.252-7.275,9.138c-0.996,3.886-0.254,8.183,1.985,11.51c-2.189,7.079,0.356,15.158,5.134,20.822
						c4.778,5.664,11.761,9.156,18.986,10.801c5.853,1.333,12.122,1.513,17.743-0.594c9.451-3.544,15.783-13.631,15.651-23.723
						C443.637,153.02,437.468,143.425,428.724,138.383z"/>
					<path style="fill:#F0A57D;" d="M389.336,175.278c0.006,0.111,0.023,0.223,0.029,0.335c0.016,0.132,0.022,0.243,0.038,0.375
						c0.685,6.265,2.943,10.231,6.083,13.187c1.683,1.593,3.249,2.768,4.626,3.815c0.443,0.338,0.857,0.655,1.26,0.972
						c0.315,0.243,0.609,0.496,0.913,0.758c3.073,2.6,4.803,5.457,4.381,13.644c2.422,7.133,13.036,8.657,16.888,0.881
						c0.4-9.915,2.719-18.37,4.663-23.798c0.493-1.417,0.969-2.623,1.375-3.589c0.77-1.852,1.31-2.864,1.31-2.864
						s0.665-21.804-2.171-27.749c-6.913-14.346-33.955-10.969-36.614,0.04C389.565,161.802,388.818,169.493,389.336,175.278z"/>
					<path style="fill:#470E0E;" d="M389.343,158.074c2.922-2.576,5.208-5.869,6.6-9.507c4.381,7.328,13.222,11.726,21.71,10.801
						c-0.606,4.231,1.651,8.551,5.069,11.117s7.819,3.552,12.093,3.523c1.085-6.992,0.385-14.405-1.612-21.193
						c-0.827-2.811-1.969-5.637-4.07-7.679c-1.565-1.521-3.567-2.511-5.598-3.309c-7.334-2.882-15.53-3.528-23.224-1.831
						c-2.525,0.557-5.073,1.402-7.015,3.109c-2.005,1.762-3.191,4.309-3.772,6.915C388.942,152.626,389.368,155.404,389.343,158.074
						z"/>
					<path style="fill:#8E4136;" d="M406.186,178.932c-0.281-0.17-0.715-0.092-0.876,0.215c-0.406,0.774-1.396,1.105-2.189,1.313
						c-0.972,0.254-1.999,0.298-2.987,0.109c-0.338-0.065-0.688,0.08-0.791,0.432c-0.09,0.306,0.092,0.726,0.432,0.792
						c1.25,0.239,2.534,0.215,3.764-0.125c1.079-0.298,2.313-0.815,2.861-1.859C406.561,179.503,406.494,179.118,406.186,178.932z"
						/>
					<g>
						<path style="fill:#C16B5B;" d="M401.687,173.537c-0.386-0.196-0.797-0.314-1.231-0.339c-0.386-0.023-0.812,0.029-1.133,0.262
							c-0.344,0.251-0.517,0.639-0.55,1.056c-0.032,0.399,0.099,0.792,0.247,1.156c0.08,0.195,0.268,0.359,0.495,0.288
							c0.187-0.058,0.374-0.285,0.288-0.495c-0.109-0.266-0.228-0.555-0.225-0.847c0.001-0.15,0.04-0.302,0.129-0.423
							c-0.005,0.008-0.01,0.015-0.015,0.023c0.082-0.129,0.24-0.176,0.382-0.202c0.011-0.002,0.022-0.003,0.038-0.006
							c0.03-0.001,0.061-0.005,0.092-0.006c0.081-0.003,0.162-0.002,0.243,0.003c0.041,0.002,0.082,0.006,0.123,0.01
							c0.022,0.002,0.024,0.002,0.03,0.002c0.007,0.002,0.007,0.002,0.026,0.005c0.252,0.045,0.467,0.148,0.705,0.232
							c0.18,0.064,0.4,0.01,0.495-0.165C401.925,173.911,401.889,173.64,401.687,173.537z"/>
						<path style="fill:#470E0E;" d="M392.667,163.841c1.957-1.42,4.499-1.868,6.797-1.04c0.562,0.202,0.946,0.862,0.721,1.447
							c-0.292,0.76-0.985,0.852-1.674,0.644c-1.415-0.427-2.919-0.221-4.175,0.557c-0.041,0.026-0.082,0.052-0.148,0.095
							c-0.483,0.344-1.184,0.418-1.603-0.088C392.225,165.022,392.15,164.216,392.667,163.841z"/>
						<path style="fill:#470E0E;" d="M406.619,163.153c2.321-0.678,4.866-0.244,6.751,1.31c0.461,0.38,0.601,1.13,0.191,1.606
							c-0.396,0.461-1.112,0.599-1.606,0.192c-0.56-0.462-1.208-0.795-1.903-1.006c0.03,0.014,0.06,0.027,0.089,0.041
							c-0.866-0.242-1.741-0.219-2.615-0.038c-0.596,0.124-1.289,0.048-1.528-0.612
							C405.806,164.115,406.006,163.331,406.619,163.153z"/>
						<g>
							<g>
								<path d="M410.985,171.199c0.036,1.021-0.762,1.878-1.784,1.914c-1.021,0.036-1.878-0.762-1.914-1.783
									c-0.036-1.021,0.762-1.878,1.784-1.914C410.092,169.38,410.949,170.178,410.985,171.199z"/>
								<path style="fill:#FFFFFF;" d="M409.007,170.677c0.011,0.298-0.222,0.547-0.52,0.558c-0.297,0.011-0.547-0.222-0.558-0.52
									c-0.01-0.297,0.222-0.547,0.52-0.558C408.747,170.147,408.997,170.379,409.007,170.677z"/>
							</g>
							<g>
								<path d="M397.489,170.853c0.036,1.021-0.762,1.878-1.783,1.914c-1.021,0.036-1.878-0.762-1.914-1.783
									c-0.036-1.021,0.762-1.878,1.783-1.914C396.597,169.033,397.453,169.832,397.489,170.853z"/>
								<path style="fill:#FFFFFF;" d="M395.511,170.331c0.011,0.298-0.222,0.547-0.52,0.558c-0.298,0.011-0.547-0.222-0.558-0.52
									c-0.01-0.298,0.222-0.547,0.52-0.558C395.251,169.801,395.501,170.033,395.511,170.331z"/>
							</g>
						</g>
					</g>
					<g>
						<path style="fill:#F0A57D;" d="M436.743,179.795c-2.44,2.621-6.104,3.176-8.185,1.24c-2.08-1.936-1.789-5.631,0.65-8.252
							c2.44-2.622,6.104-3.177,8.185-1.24C439.473,173.479,439.182,177.174,436.743,179.795z"/>
						<path style="fill:#C16B5B;" d="M435.823,172.806c-0.95-0.567-2.254-0.611-3.486-0.112c-0.615,0.247-1.067,0.564-1.386,0.967
							c-0.421,0.534-0.566,1.225-0.378,1.802c0.168,0.518,0.555,0.868,0.898,1.178c0.248,0.224,0.482,0.436,0.609,0.68
							c0.193,0.376,0.113,0.885-0.187,1.183c-0.3,0.298-0.808,0.372-1.183,0.175c-0.221-0.116-0.492-0.031-0.608,0.189
							c-0.115,0.219-0.031,0.492,0.188,0.608c0.241,0.127,0.505,0.195,0.773,0.209c0.533,0.027,1.079-0.161,1.462-0.543
							c0.577-0.573,0.724-1.511,0.352-2.233c-0.201-0.389-0.522-0.679-0.805-0.935c-0.284-0.256-0.552-0.499-0.646-0.789
							c-0.095-0.291-0.005-0.669,0.229-0.966c0.094-0.119,0.22-0.225,0.358-0.326c0.446,0.019,0.997,0.185,1.263,0.508
							c0.299,0.364,0.424,0.876,0.324,1.336c-0.053,0.243,0.101,0.482,0.343,0.535c0.024,0.006,0.049,0.009,0.073,0.01
							c0.216,0.011,0.414-0.135,0.461-0.353c0.161-0.733-0.029-1.518-0.507-2.099c-0.178-0.216-0.407-0.368-0.648-0.494
							c0.753-0.162,1.484-0.084,2.037,0.245c0.684,0.407,1.164,1.393,0.763,2.155c-0.115,0.22-0.031,0.492,0.188,0.607
							c0.22,0.115,0.491,0.031,0.607-0.188C437.504,175.043,437.002,173.51,435.823,172.806z"/>
					</g>
				</g>
			</g>
			<g>
				<path style="fill:#470E0E;" d="M399.077,193.966c-0.121,0.359-0.243,0.717-0.365,1.076c-0.329,0.972-0.658,1.943-0.988,2.915
					c-0.487,1.436-0.973,2.872-1.46,4.308c-0.596,1.758-1.191,3.515-1.787,5.273c-0.648,1.912-1.296,3.825-1.945,5.737
					c-0.659,1.943-1.317,3.886-1.976,5.829c-0.612,1.806-1.224,3.611-1.836,5.417c-0.517,1.526-1.034,3.052-1.552,4.579
					c-0.373,1.101-0.746,2.201-1.119,3.302c-0.176,0.518-0.364,1.034-0.528,1.557c-0.007,0.022-0.015,0.044-0.022,0.066
					c-0.178,0.525,0.651,0.75,0.828,0.228c0.121-0.359,0.243-0.717,0.365-1.076c0.329-0.971,0.659-1.943,0.988-2.915
					c0.487-1.436,0.973-2.872,1.46-4.308c0.596-1.757,1.191-3.515,1.787-5.273c0.648-1.913,1.296-3.825,1.945-5.738
					c0.658-1.943,1.317-3.886,1.975-5.829c0.612-1.806,1.224-3.612,1.836-5.417c0.517-1.526,1.035-3.052,1.552-4.579
					c0.373-1.101,0.746-2.201,1.119-3.302c0.176-0.518,0.364-1.034,0.528-1.557c0.007-0.022,0.015-0.044,0.023-0.066
					C400.083,193.67,399.254,193.445,399.077,193.966L399.077,193.966z"/>
				<path style="fill:#470E0E;" d="M401.599,194.408c-0.188,0.327-0.375,0.655-0.563,0.982c-0.511,0.891-1.022,1.782-1.532,2.673
					c-0.755,1.318-1.511,2.635-2.266,3.953c-0.922,1.607-1.843,3.215-2.765,4.822c-1.009,1.76-2.019,3.521-3.028,5.281
					c-1.016,1.771-2.031,3.543-3.047,5.314c-0.947,1.652-1.894,3.304-2.841,4.956c-0.803,1.4-1.606,2.801-2.409,4.201
					c-0.577,1.007-1.155,2.014-1.732,3.021c-0.273,0.477-0.552,0.95-0.82,1.43c-0.011,0.02-0.023,0.041-0.035,0.061
					c-0.275,0.48,0.466,0.913,0.741,0.433c0.188-0.327,0.375-0.655,0.563-0.982c0.511-0.891,1.022-1.782,1.532-2.673
					c0.755-1.317,1.511-2.635,2.266-3.952c0.922-1.607,1.843-3.215,2.765-4.822c1.009-1.76,2.019-3.521,3.028-5.281
					c1.016-1.771,2.031-3.543,3.047-5.314c0.947-1.652,1.894-3.304,2.841-4.956c0.803-1.4,1.606-2.801,2.409-4.201
					c0.577-1.007,1.155-2.014,1.732-3.021c0.273-0.477,0.552-0.95,0.82-1.43c0.012-0.02,0.023-0.041,0.035-0.061
					C402.615,194.361,401.874,193.928,401.599,194.408L401.599,194.408z"/>
			</g>
			<g>
				<path style="fill:#F0A57D;" d="M436.538,207.798c16.532,4.509,6.033,46.443,2.558,57.803
					c-3.475,11.359-18.676,9.606-22.915-0.772c-4.239-10.378-16.57-44.836-16.57-44.836l10.465-6.614l16.587,35.664L436.538,207.798
					z"/>
				<g>
					<path style="fill:#F0A57D;" d="M400.906,222.489c-4.602-0.95-3.865-7.822-3.865-7.822c-1.847-1.032-4.798-0.52-6.31-1.122
						c-1.512-0.601-1.338-2.642,0.036-3.082c-1.461-0.983-0.107-2.384,0.381-2.629c-1.819-1.34,0.117-5.145,8.985-2.998
						c-4.332-2.976-6.095-1.596-7.926-2.475c-1.831-0.879-1.587-2.907,1.67-3.09c3.257-0.183,9.827,2.541,10.842,4.756
						c2.103,4.588,5.357,9.48,5.357,9.48L400.906,222.489z"/>
					<path style="fill:#C06B5B;" d="M393.152,206.813c2.683,0.045,5.336,0.736,7.7,2.007c0.121,0.065,0.228-0.119,0.108-0.184
						c-2.397-1.289-5.087-1.99-7.807-2.036C393.015,206.597,393.015,206.81,393.152,206.813L393.152,206.813z"/>
					<path style="fill:#C06B5B;" d="M392.675,209.585c1.9,0.257,3.744,0.845,5.441,1.738c0.121,0.064,0.229-0.12,0.108-0.184
						c-1.713-0.901-3.574-1.499-5.492-1.759C392.597,209.361,392.539,209.566,392.675,209.585L392.675,209.585z"/>
				</g>
			</g>
			<path style="fill:#D1580C;" d="M436.538,207.798c16.764,4.704,8.579,40.758,8.579,40.758
				c-11.206-0.877-18.417-3.703-19.001-5.944L436.538,207.798z"/>
			<path style="fill:#99201D;" d="M428.178,216.927c-0.663,3.177-1.164,6.387-1.498,9.616c-0.336,3.239-0.505,6.494-0.505,9.75
				c0,1.831,0.053,3.661,0.159,5.489c0.01,0.182,0.294,0.183,0.284,0c-0.187-3.239-0.209-6.487-0.063-9.728
				c0.145-3.228,0.455-6.449,0.931-9.646c0.27-1.811,0.592-3.613,0.966-5.405C428.489,216.825,428.215,216.748,428.178,216.927
				L428.178,216.927z"/>
		</g>
	</g>
	<g>
		<g>
			<rect x="520.013" y="434.818" style="fill:#8F2A05;" width="81.918" height="3.508"/>
			<polygon style="fill:#470E0E;" points="602.186,360.078 586.839,360.078 603.721,475.734 613.148,475.734 			"/>
			<polygon style="fill:#470E0E;" points="519.757,360.078 535.104,360.078 518.223,475.734 508.795,475.734 			"/>
			<path style="fill:#845584;" d="M607.864,339.03h-91.75c-2.906,0-5.262,2.356-5.262,5.262v10.524c0,2.906,2.356,5.262,5.262,5.262
				h91.75c2.906,0,5.262-2.356,5.262-5.262v-10.524C613.126,341.386,610.77,339.03,607.864,339.03z"/>
		</g>
		<g>
			<g>
				<g>
					<path style="fill:#8F2A05;" d="M476.133,471.505c-0.132,1.466-0.421,2.894-0.913,4.228h-64.235c0-1.48,0.112-2.9,0.375-4.228
						c1.053-5.307,4.537-9.203,13.09-10.11c10.694-1.133,20.088-2.842,27.954-7.539c0,0,1.615,2.004,20.326-0.04
						C472.73,453.816,476.895,463.233,476.133,471.505z"/>
					<path style="fill:#C13A30;" d="M411.361,471.505h64.773c-0.132,1.466-0.421,2.894-0.913,4.228h-64.235
						C410.986,474.253,411.097,472.833,411.361,471.505z"/>
				</g>
				<path style="fill:#6B1515;" d="M530.475,283.028l-2.282,5.501c0,0-75.388,3.486-84.585,29.503
					c-7.772,21.987,2.85,136.372,2.85,136.372c9.305,2.396,32.595,0.292,32.595,0.292l-1.462-115.666c0,0,32.87,7.198,67.455,4.214
					c34.584-2.984,41.08-58.987,41.08-58.987L530.475,283.028z"/>
				<g>
					<path style="fill:#8F2A05;" d="M545.764,471.505c-0.132,1.466-0.421,2.894-0.913,4.228h-64.235c0-1.48,0.112-2.9,0.375-4.228
						c1.053-5.307,4.537-9.203,13.09-10.11c10.694-1.133,20.085-2.842,27.954-7.539c0,0,1.612,2.004,20.326-0.04
						C542.361,453.816,546.526,463.233,545.764,471.505z"/>
					<path style="fill:#C13A30;" d="M545.764,471.505c-0.132,1.466-0.421,2.894-0.913,4.228h-64.235c0-1.48,0.112-2.9,0.375-4.228
						H545.764z"/>
				</g>
				<path style="fill:#6B1515;" d="M611.669,288.529c3.95,16.883,2.121,50.501-34.753,58.226c-36.874,7.725-71.335-1.39-71.335-1.39
					l40.276,106.846c-25.845,10.962-38.666,3.569-38.666,3.569S452.38,336.314,461.513,317.74
					c11.62-23.633,80.021-25.091,80.021-25.091l3.161-3.535L611.669,288.529z"/>
				<path style="fill:#470E0E;" d="M476.864,383.321c-4.301-9.047-8.028-18.365-11.147-27.884c-1.553-4.739-2.96-9.528-4.205-14.357
					c-1.259-4.881-2.338-9.93-1.95-14.999c0.335-4.374,1.931-8.482,4.497-12.027c2.433-3.361,5.618-6.161,9.143-8.333
					c4.046-2.491,8.515-4.207,13.072-5.504c4.714-1.343,9.545-2.301,14.374-3.126c10.214-1.744,20.574-2.631,30.936-2.651
					c1.275-0.003,2.55,0.009,3.825,0.032c0.183,0.003,0.183-0.281,0-0.284c-10.445-0.19-20.901,0.495-31.231,2.05
					c-5.071,0.763-10.134,1.701-15.112,2.941c-4.607,1.148-9.162,2.628-13.388,4.817c-7.287,3.775-13.808,10.075-15.803,18.267
					c-1.19,4.884-0.64,9.98,0.397,14.838c1.06,4.969,2.496,9.877,3.998,14.728c2.986,9.646,6.592,19.099,10.787,28.284
					c0.512,1.121,1.033,2.238,1.563,3.351C476.697,383.629,476.942,383.485,476.864,383.321L476.864,383.321z"/>
				<path style="fill:#470E0E;" d="M532.419,291.448c-2.646,0.416-5.241,1.143-7.717,2.167c-0.701,0.29-1.392,0.603-2.073,0.938
					c-0.164,0.081-0.02,0.326,0.143,0.245c2.392-1.177,4.921-2.071,7.523-2.657c0.728-0.164,1.462-0.303,2.199-0.419
					C532.674,291.693,532.598,291.419,532.419,291.448L532.419,291.448z"/>
				<path style="fill:#470E0E;" d="M494.012,338.334c2.405,2.568,5.358,4.603,8.605,5.955c0.929,0.386,1.881,0.714,2.85,0.984
					c0.176,0.049,0.252-0.225,0.076-0.274c-3.359-0.935-6.51-2.594-9.183-4.833c-0.756-0.633-1.472-1.313-2.146-2.032
					C494.088,337.999,493.888,338.201,494.012,338.334L494.012,338.334z"/>
				<g>
					<g>
						<path style="fill:#470E0E;" d="M505.622,345.703c0.717,0,0.718-1.114,0-1.114
							C504.905,344.589,504.904,345.703,505.622,345.703L505.622,345.703z"/>
					</g>
				</g>
				<path style="fill:#470E0E;" d="M494.079,343.392c2.397,0.43,4.833,0.625,7.269,0.578c0.182-0.004,0.183-0.288,0-0.284
					c-2.41,0.046-4.82-0.143-7.193-0.568C493.976,343.086,493.899,343.36,494.079,343.392L494.079,343.392z"/>
			</g>
			<g>
				<g>
					<g>
						<g>
							<path style="fill:#FFC09E;" d="M462.988,190.51c-1.007-1.92,3.963-13.233,1.658-14.499c-2.108-1.159-5.33,3.057-5.247,5.787
								c-1.803-2.927-5.39-16.347-8.062-15.23c-1.976,0.827,1.856,10.608,1.856,10.608s-5.682-10.859-8.041-9.341
								c-2.359,1.518,4.755,11.845,4.755,11.845s-6.552-8.403-8.227-6.878c-1.647,1.499,5.86,9.654,5.86,9.654
								s-6.865-5.535-7.739-4.617c-0.875,0.917,2.525,5.263,6.059,7.788c1.925,7.27,7.792,10.543,7.792,10.543L462.988,190.51z"/>
						</g>
					</g>
					<path style="fill:#E24340;" d="M539.126,178.104c-14.847,5.676-40.703,60.268-40.703,60.268l-33.177-50.995
						c-4.817-0.918-17.631,12.115-17.631,12.115s23.61,45.344,34.714,57.15c11.547,12.278,25.384,11.109,33.818,1.496
						c13.239-15.089,23.625-43.884,23.625-43.884L539.126,178.104z"/>
				</g>
				<g>
					<path style="fill:#FCB447;" d="M503.003,179.851c-0.982-2.772-3.53-4.869-6.393-5.542c-2.863-0.674-5.966,0.005-8.436,1.602
						c-2.47,1.596-4.324,4.054-5.433,6.778c-0.295-1.958-2.066-3.593-4.042-3.73c-1.976-0.137-3.955,1.237-4.518,3.137
						c-2.078-1.806-4.212-3.647-6.78-4.637c-2.569-0.99-5.703-0.976-7.852,0.744c-1.776,1.422-2.602,3.802-2.535,6.076
						c0.067,2.274,0.93,4.457,2.034,6.447l42.418-0.444C503.017,187.021,504.208,183.252,503.003,179.851z"/>
					<path style="fill:#FF8A15;" d="M456.3,190.043c0.851-3.154,3.272-5.743,6.164-7.262c2.892-1.519,6.219-2.053,9.486-2.044
						c3.048,0.008,6.145,0.488,8.874,1.846c2.729,1.358,5.064,3.667,6.036,6.556c1.389-3.306,5.187-5.577,8.765-5.335
						c3.578,0.242,6.857,2.937,7.788,6.4C487.753,192.484,472.018,191.883,456.3,190.043z"/>
					<path style="fill:#845584;" d="M453.822,187.775c0,14.818,12.013,26.831,26.831,26.831c14.818,0,26.831-12.013,26.831-26.831
						H453.822z"/>
				</g>
				<g>
					<g>
						<g>
							<g>
								<g>
									<g>
										<g>
											<path style="fill:#E24340;" d="M527.819,287.279c2.153,8.532,53.174,9.575,85.036,0.228l-18.521-113.79l-19.385-2.65
												l-16.822,1.208l-19,5.828L527.819,287.279z"/>
										</g>
									</g>
								</g>
							</g>
						</g>
					</g>
				</g>
				<g>
					<path style="fill:#470E0E;" d="M589.984,118.467c-1.118-2.663-3.089-5.042-5.714-6.246
						c-5.19-8.327-14.236-14.119-24.037-14.595c-6.31-0.307-12.8,1.459-17.744,5.393c-4.943,3.934-8.181,10.11-8.047,16.427
						c3.628,3.87,6.997,8.021,10.625,11.891l33.822,22.505c7.723-6.646,12.4-16.7,12.51-26.888
						C591.431,124.065,591.102,121.13,589.984,118.467z"/>
					<path style="fill:#FFC09E;" d="M582.016,146.031c0,0-6.523,13.324-6.816,31.133c-3.765,8.048-14.659,6.76-17.289-0.498
						c0.188-6.771-0.978-9.954-3.113-12.3c-0.177-0.197-0.354-0.37-0.539-0.558c-0.126-0.134-0.252-0.251-0.395-0.376
						c-0.252-0.235-0.544-0.452-0.82-0.694c-0.393-0.312-0.801-0.622-1.226-0.94l-0.008,0c-1.675-1.249-3.637-2.57-5.817-4.533
						c-3.176-2.838-5.535-6.727-6.443-12.794c-0.019-0.072-0.029-0.145-0.04-0.226c-0.019-0.089-0.03-0.178-0.042-0.267
						c-0.022-0.161-0.035-0.307-0.048-0.461c-0.019-0.072-0.021-0.137-0.031-0.202c-0.676-5.937-0.089-13.858,2.285-24.781
						c2.467-11.324,30.08-15.413,37.494-0.858C582.217,123.685,582.016,146.031,582.016,146.031z"/>
					<path style="fill:#470E0E;" d="M540.359,125.371c1.07-2.339,2.139-4.678,3.209-7.017c2.17,2.554,5.725,3.436,9.067,3.684
						c6.232,0.463,12.583-0.81,18.156-3.637c-0.697,1.505-0.593,3.355,0.268,4.772c0.861,1.418,2.454,2.363,4.111,2.439
						c-1.141,5.887,1.907,12.345,7.177,15.206c1.236-5.122,2.525-10.468,2.432-15.736c-0.093-5.268-1.674-10.711-5.384-14.452
						c-4.339-4.375-10.884-5.786-17.045-5.781c-3.898,0.003-7.838,0.5-11.462,1.936c-3.624,1.436-6.924,3.863-8.986,7.171
						C539.839,117.263,539.067,121.694,540.359,125.371z"/>
					<path style="fill:#C16B5B;" d="M556.658,147.311c-1.651,1.337-3.876,1.645-5.847,0.882c-0.738-0.286-1.117,0.882-0.383,1.166
						c2.386,0.924,5.075,0.464,7.054-1.139C558.097,147.721,557.27,146.815,556.658,147.311z"/>
					<g>
						<path style="fill:#C16B5B;" d="M552.491,141.435c-0.397-0.202-0.82-0.324-1.266-0.35c-0.398-0.024-0.836,0.029-1.166,0.269
							c-0.354,0.257-0.532,0.657-0.567,1.086c-0.033,0.411,0.102,0.815,0.254,1.19c0.082,0.201,0.275,0.37,0.509,0.297
							c0.193-0.06,0.385-0.293,0.297-0.509c-0.112-0.274-0.234-0.571-0.231-0.872c0.001-0.154,0.042-0.311,0.133-0.435
							c-0.005,0.008-0.01,0.016-0.015,0.024c0.084-0.133,0.247-0.181,0.393-0.207c0.011-0.002,0.022-0.004,0.039-0.006
							c0.031,0,0.063-0.005,0.094-0.006c0.083-0.004,0.167-0.002,0.25,0.003c0.042,0.002,0.084,0.007,0.127,0.011
							c0.022,0.002,0.024,0.002,0.031,0.002c0.007,0.001,0.008,0.002,0.027,0.005c0.26,0.047,0.48,0.152,0.725,0.239
							c0.185,0.066,0.411,0.011,0.509-0.169C552.735,141.82,552.698,141.541,552.491,141.435z"/>
						<path style="fill:#470E0E;" d="M543.27,130.977c2.187-1.186,4.841-1.302,7.075-0.149c0.547,0.282,0.85,1.006,0.542,1.574
							c-0.4,0.736-1.119,0.737-1.795,0.432c-0.602-0.272-1.252-0.438-1.91-0.49c0.002-0.036,0.058,0.026,0.022,0.025
							c-0.844-0.045-1.678,0.127-2.446,0.474c-0.046,0.02-0.091,0.042-0.163,0.077c-0.539,0.286-1.264,0.268-1.624-0.305
							C542.66,132.123,542.692,131.29,543.27,130.977z"/>
						<path style="fill:#470E0E;" d="M557.46,131.059c2.317-0.906,4.965-0.693,7.039,0.728c0.508,0.348,0.719,1.104,0.343,1.629
							c-0.364,0.509-1.085,0.715-1.629,0.343c-0.209-0.143-0.425-0.267-0.645-0.391c-0.022-0.011-0.018-0.009-0.031-0.016
							c-0.04-0.018-0.08-0.036-0.12-0.053c-0.087-0.037-0.174-0.072-0.263-0.105c-0.235-0.088-0.477-0.162-0.721-0.221
							c-0.061-0.015-0.454-0.133-0.152-0.037c-0.101-0.032-0.222-0.034-0.327-0.046c-0.234-0.027-0.47-0.041-0.706-0.042
							c-0.126-0.001-0.251,0.006-0.377,0.01c-0.014,0.001-0.018,0-0.028,0.001c-0.018,0.003-0.043,0.006-0.08,0.01
							c-0.234,0.029-0.466,0.071-0.695,0.126c-0.122,0.03-0.243,0.063-0.363,0.1c-0.048,0.015-0.095,0.031-0.143,0.047
							c-0.009,0.003-0.005,0.002-0.016,0.006c-0.003,0.001-0.007,0.001-0.01,0.002c-0.003,0.001-0.007,0.003-0.011,0.004
							c0.005-0.002,0.003-0.001,0.008-0.003c-0.57,0.217-1.287,0.109-1.574-0.504C556.714,132.12,556.848,131.298,557.46,131.059z"
							/>
						<g>
							<path d="M562.161,139.004c0.056,1.028-0.732,1.906-1.759,1.962c-1.028,0.056-1.906-0.732-1.962-1.759
								c-0.056-1.028,0.732-1.906,1.76-1.962C561.227,137.188,562.105,137.976,562.161,139.004z"/>
							<path style="fill:#FFFFFF;" d="M560.077,138.599c0.014,0.266-0.189,0.493-0.455,0.507c-0.266,0.014-0.493-0.189-0.507-0.455
								c-0.014-0.266,0.189-0.493,0.455-0.507C559.836,138.13,560.063,138.333,560.077,138.599z"/>
						</g>
						<g>
							<path d="M547.942,138.374c0.056,1.028-0.732,1.906-1.76,1.962c-1.028,0.056-1.906-0.732-1.962-1.759
								c-0.056-1.028,0.732-1.906,1.76-1.962C547.008,136.559,547.886,137.346,547.942,138.374z"/>
							<path style="fill:#FFFFFF;" d="M545.858,137.969c0.015,0.266-0.189,0.493-0.455,0.507c-0.266,0.014-0.493-0.189-0.507-0.455
								c-0.015-0.266,0.189-0.493,0.455-0.507C545.617,137.5,545.844,137.704,545.858,137.969z"/>
						</g>
					</g>
					<g>
						<path style="fill:#FFC09E;" d="M588.022,146.713c-2.437,2.741-6.177,3.394-8.353,1.46c-2.175-1.935-1.963-5.725,0.475-8.466
							c2.438-2.741,6.177-3.394,8.353-1.459C590.672,140.182,590.46,143.973,588.022,146.713z"/>
						<path style="fill:#C16B5B;" d="M586.919,139.577c-0.986-0.559-2.323-0.573-3.573-0.035c-0.623,0.267-1.079,0.602-1.397,1.022
							c-0.419,0.556-0.552,1.267-0.345,1.854c0.184,0.526,0.589,0.876,0.947,1.186c0.259,0.224,0.504,0.435,0.639,0.683
							c0.207,0.38,0.137,0.903-0.164,1.215c-0.3,0.312-0.819,0.4-1.207,0.207c-0.229-0.114-0.504-0.02-0.618,0.207
							c-0.113,0.227-0.021,0.504,0.207,0.618c0.249,0.124,0.522,0.188,0.797,0.196c0.547,0.016,1.101-0.19,1.485-0.589
							c0.577-0.6,0.707-1.564,0.309-2.295c-0.215-0.394-0.55-0.684-0.846-0.939c-0.297-0.256-0.577-0.498-0.68-0.794
							c-0.104-0.295-0.021-0.685,0.212-0.994c0.094-0.124,0.22-0.236,0.359-0.343c0.457,0.009,1.026,0.167,1.306,0.491
							c0.315,0.366,0.454,0.887,0.362,1.36c-0.049,0.25,0.114,0.491,0.364,0.54c0.025,0.005,0.05,0.008,0.075,0.008
							c0.221,0.006,0.421-0.148,0.464-0.372c0.148-0.754-0.065-1.553-0.568-2.138c-0.188-0.217-0.425-0.367-0.676-0.49
							c0.768-0.183,1.518-0.121,2.092,0.204c0.709,0.402,1.224,1.4,0.831,2.189c-0.113,0.228-0.02,0.504,0.207,0.618
							c0.228,0.113,0.503,0.021,0.618-0.207C588.693,141.829,588.143,140.272,586.919,139.577z"/>
					</g>
				</g>
				<path style="fill:#E24340;" d="M552.246,174.08l3.474-6.378c2.631,6.614,6.943,8.77,6.943,8.77l1.617,5.884l2.11-5.811
					c8.039-1.023,10.682-10.467,10.682-10.467l4.947,5.957c0,0-4.082,14.157-15.995,15.181
					C554.112,188.238,552.246,174.08,552.246,174.08z"/>
				<path style="fill:#99201D;" d="M550.821,178.779c0.654,2.182,1.859,4.188,3.474,5.794c1.698,1.688,3.84,2.896,6.156,3.499
					c1.344,0.35,2.739,0.495,4.126,0.425c0.182-0.009,0.183-0.293,0-0.284c-2.41,0.121-4.84-0.418-6.972-1.549
					c-2.009-1.066-3.718-2.654-4.947-4.566c-0.677-1.053-1.204-2.195-1.563-3.394C551.043,178.529,550.769,178.603,550.821,178.779
					L550.821,178.779z"/>
				<path style="fill:#99201D;" d="M563.874,190.367c-0.183,3.439-0.365,6.878-0.547,10.316c-0.183,3.439-0.365,6.878-0.547,10.316
					c-0.102,1.928-0.205,3.855-0.307,5.783c-0.01,0.183,0.274,0.182,0.284,0c0.182-3.439,0.365-6.878,0.548-10.316
					c0.182-3.439,0.365-6.878,0.547-10.316c0.102-1.928,0.204-3.855,0.307-5.783C564.168,190.185,563.884,190.185,563.874,190.367
					L563.874,190.367z"/>
				<g>
					<path style="fill:#FFC09E;" d="M504.307,208.332c0,0-2.115-4.759-5.354-5.989c-4.133-1.569-11.475-1.708-12.209,0.662
						c-0.733,2.369,6.377,4.098,6.377,4.098s-6.738,4.037-10.122,3.299c-3.384-0.738-8.533-7.608-10.522-7.192
						c-1.989,0.417-1.257,3.633-1.257,3.633s-2.219,1.61-0.563,4.625c1.656,3.015,4.87,5.883,10.118,7.144
						c5.248,1.262,12.156,0.496,14.35,2.32L504.307,208.332z"/>
					<path style="fill:#E24340;" d="M594.334,173.718c11.609,1.4,19.414,11.91,5.999,36.034
						c-7.345,13.208-19.972,30.635-26.098,33.766c-14.122,7.217-80.001-21.018-80.001-21.018s3.688-15.54,8.793-19.712
						l59.028,17.425L594.334,173.718z"/>
				</g>
				<path style="fill:#99201D;" d="M504.269,226.761c1.258,0.523,2.524,1.027,3.791,1.527c3.274,1.293,6.564,2.543,9.869,3.754
					c4.536,1.662,9.1,3.25,13.695,4.742c5.045,1.638,10.13,3.164,15.266,4.49c4.804,1.241,9.665,2.328,14.584,2.999
					c2.083,0.284,4.18,0.494,6.282,0.555c1.683,0.049,3.285-0.007,4.888-0.57c3.592-1.262,6.614-3.961,9.216-6.654
					c3.194-3.306,5.981-7.002,8.57-10.794c2.349-3.441,4.532-6.994,6.591-10.616c1.139-2.004,2.247-4.027,3.289-6.083
					c0.049-0.096,0.098-0.193,0.146-0.29c0.082-0.165-0.165-0.31-0.247-0.145c-0.71,1.43-1.471,2.837-2.24,4.236
					c-1.838,3.344-3.784,6.63-5.852,9.836c-2.505,3.884-5.188,7.675-8.208,11.179c-2.65,3.075-5.624,6.125-9.216,8.092
					c-1.423,0.779-2.987,1.384-4.616,1.509c-1.912,0.147-3.888-0.03-5.792-0.214c-4.76-0.46-9.47-1.412-14.116-2.522
					c-5.116-1.223-10.177-2.673-15.196-4.244c-4.744-1.484-9.453-3.081-14.132-4.758c-3.64-1.305-7.262-2.658-10.865-4.06
					c-1.804-0.702-3.605-1.414-5.395-2.151c-0.079-0.032-0.158-0.065-0.236-0.098C504.175,226.415,504.101,226.692,504.269,226.761
					L504.269,226.761z"/>
				<path style="fill:#99201D;" d="M514.844,206.633c2.409,0.625,4.812,1.274,7.213,1.928c3.551,0.967,7.098,1.95,10.641,2.95
					c3.998,1.128,7.99,2.276,11.974,3.455c3.749,1.11,7.491,2.245,11.212,3.445c2.806,0.905,5.616,1.827,8.355,2.92
					c0.242,0.097,0.484,0.195,0.725,0.296c0.168,0.071,0.242-0.204,0.076-0.274c-2.566-1.076-5.219-1.954-7.862-2.82
					c-3.64-1.193-7.304-2.313-10.974-3.409c-3.989-1.19-7.988-2.346-11.993-3.482c-3.634-1.03-7.273-2.043-10.916-3.039
					c-2.579-0.705-5.159-1.404-7.745-2.081c-0.209-0.055-0.419-0.109-0.629-0.164C514.743,206.313,514.667,206.587,514.844,206.633
					L514.844,206.633z"/>
				<path style="fill:#99201D;" d="M562.176,220.284c1.885-2.773,3.777-5.542,5.676-8.305c1.879-2.734,3.764-5.463,5.654-8.189
					c1.872-2.7,3.75-5.397,5.63-8.092c1.896-2.717,3.794-5.433,5.694-8.147c1.918-2.741,3.837-5.481,5.755-8.222
					c0.238-0.341,0.477-0.682,0.715-1.023c0.105-0.15-0.141-0.292-0.245-0.143c-1.922,2.747-3.845,5.494-5.768,8.241
					c-1.902,2.718-3.803,5.436-5.702,8.156c-1.881,2.694-3.759,5.391-5.632,8.09c-1.889,2.722-3.773,5.447-5.652,8.176
					c-1.896,2.756-3.786,5.516-5.668,8.282c-0.234,0.344-0.468,0.688-0.702,1.032C561.828,220.292,562.074,220.435,562.176,220.284
					L562.176,220.284z"/>
				<path style="fill:#99201D;" d="M538.773,181.15c-0.425,3.894-0.849,7.788-1.274,11.683c-0.423,3.884-0.847,7.769-1.271,11.653
					c-0.239,2.192-0.478,4.383-0.717,6.575c-0.02,0.181,0.264,0.18,0.284,0c0.425-3.898,0.85-7.795,1.275-11.693
					c0.423-3.883,0.847-7.766,1.27-11.649c0.239-2.19,0.477-4.38,0.716-6.569C539.077,180.968,538.793,180.97,538.773,181.15
					L538.773,181.15z"/>
			</g>
		</g>
	</g>
	<g>
		<g>
			<rect x="138.851" y="434.818" style="fill:#8F2A05;" width="81.918" height="3.508"/>
			<polygon style="fill:#470E0E;" points="221.024,360.078 205.677,360.078 222.559,475.734 231.986,475.734 			"/>
			<polygon style="fill:#470E0E;" points="138.595,360.078 153.942,360.078 137.06,475.734 127.633,475.734 			"/>
			<path style="fill:#845584;" d="M226.702,339.03h-91.75c-2.906,0-5.262,2.356-5.262,5.262v10.524c0,2.906,2.356,5.262,5.262,5.262
				h91.75c2.906,0,5.262-2.356,5.262-5.262v-10.524C231.964,341.386,229.608,339.03,226.702,339.03z"/>
		</g>
		<g>
			<g>
				<g>
					<path style="fill:#FF8A15;" d="M255.574,475.733l-62.322-15.557c-0.182-1.671-0.056-3.404,0.275-5.118
						c1.532-7.934,7.45-15.544,7.45-15.544c17.662,6.515,19.711,4.962,19.711,4.962c6.497,6.463,15.195,10.396,25.296,14.085
						c7.662,2.801,10.251,7.105,10.269,12.155C256.26,472.32,256.006,474,255.574,475.733z"/>
					<path style="fill:#FCB447;" d="M255.574,475.733l-62.322-15.557c-0.182-1.671-0.056-3.404,0.275-5.118l62.725,15.658
						C256.26,472.32,256.006,474,255.574,475.733z"/>
				</g>
				<path style="fill:#E24340;" d="M245.334,343.394c-4.338,0.896-42.063,2.467-60.049-5.241
					c-19.662-8.427-25.104-47.049-25.104-47.049l38.749-2.575l2.42,5.15c0,0,75.118,12.332,81.814,34.332
					c9.281,30.488-62.393,116.337-62.393,116.337s-10.689,2.017-19.693-5.035C201.078,439.313,227.778,356.56,245.334,343.394z"/>
				<g>
					<path style="fill:#FF8A15;" d="M341.421,475.733h-64.235c-0.581-1.577-0.879-3.289-0.973-5.032
						c-0.435-8.069,3.464-16.885,3.464-16.885c18.714,2.044,20.326,0.04,20.326,0.04c7.869,4.697,17.26,6.406,27.954,7.539
						c8.112,0.862,11.667,4.411,12.907,9.306C341.261,472.255,341.421,473.947,341.421,475.733z"/>
					<path style="fill:#FCB447;" d="M341.421,475.733h-64.235c-0.581-1.577-0.879-3.289-0.973-5.032h64.65
						C341.261,472.255,341.421,473.947,341.421,475.733z"/>
				</g>
				<path style="fill:#E24340;" d="M127.813,293.005c-3.358,24.297,8.771,47.975,42.712,52.434
					c48.484,6.368,80.701-3.581,80.701-3.581c-2.754,38.973,28.449,111.959,28.449,111.959c11.919,4.826,20.326,0.04,20.326,0.04
					s-1.637-106.08-20.054-136.117c-9.903-16.151-90.133-19.175-90.133-19.175l-6.987-8.427L127.813,293.005z"/>
				<path style="fill:#470E0E;" d="M244.999,343.456c3.759-0.539,7.348-2.094,10.336-4.434c0.852-0.667,1.652-1.399,2.393-2.188
					c0.125-0.133-0.075-0.334-0.201-0.201c-2.58,2.745-5.887,4.78-9.494,5.863c-1.018,0.306-2.058,0.534-3.11,0.685
					C244.743,343.208,244.82,343.482,244.999,343.456L244.999,343.456z"/>
				<path style="fill:#470E0E;" d="M250.933,341.507c-0.237,3.398-0.321,6.806-0.25,10.212c0.071,3.39,0.294,6.776,0.667,10.146
					c0.373,3.367,0.894,6.717,1.564,10.038c0.67,3.324,1.488,6.617,2.451,9.868c0.968,3.266,2.084,6.487,3.344,9.652
					c0.157,0.394,0.316,0.786,0.477,1.178c0.069,0.167,0.343,0.094,0.274-0.075c-1.289-3.136-2.437-6.329-3.439-9.569
					c-1.001-3.239-1.858-6.523-2.566-9.839c-0.712-3.334-1.276-6.7-1.686-10.085c-0.406-3.35-0.663-6.718-0.77-10.091
					c-0.108-3.389-0.063-6.782,0.136-10.167c0.025-0.423,0.052-0.846,0.082-1.269C251.229,341.324,250.945,341.325,250.933,341.507
					L250.933,341.507z"/>
				<path style="fill:#470E0E;" d="M239.142,303.199c-5.004-0.847-10.024-1.596-15.057-2.246
					c-5.021-0.648-10.054-1.198-15.096-1.648c-2.838-0.254-5.678-0.475-8.521-0.666c-0.182-0.012-0.182,0.272,0,0.284
					c5.051,0.339,10.095,0.777,15.128,1.314c5.021,0.536,10.031,1.17,15.027,1.903c2.819,0.414,5.633,0.859,8.442,1.334
					C239.245,303.504,239.322,303.23,239.142,303.199L239.142,303.199z"/>
				<path style="fill:#470E0E;" d="M202.205,295.995c2.068,1.178,4.135,2.356,6.202,3.534c0.159,0.091,0.302-0.155,0.143-0.245
					c-2.067-1.178-4.135-2.356-6.202-3.534C202.189,295.659,202.046,295.904,202.205,295.995L202.205,295.995z"/>
			</g>
			<g>
				<path style="fill:#470E0E;" d="M159.253,132.9c-4.257,5.683-5.965,13.129-7.185,20.119c-1.237,7.088-2.24,14.374-5.539,20.769
					c-1.444,2.799-3.351,5.512-3.617,8.65c-0.288,3.404,1.482,6.737,3.985,9.061c2.503,2.324,5.674,3.787,8.849,5.048
					c6.707,2.665,13.781,4.619,20.996,4.794c7.215,0.175,14.604-1.527,20.526-5.651c5.922-4.124,10.208-10.827,10.579-18.034
					c0.295-5.716-1.784-11.081-3.09-16.549c-1.802-7.543,0.943-15.609-1.219-23.034c-4.468-15.343-26.808-18.309-38.744-10.428
					C162.571,129.113,160.753,130.897,159.253,132.9z"/>
				<g>
					<path style="fill:#FFC09E;" d="M193.249,197.46c23.264,7.343,44.346,26.962,44.346,26.962l-9.043-50.703l12.517-2.278
						c0.031,0.124,13.466,38.467,16.078,56.701c2.777,19.389-13.837,20.219-24.166,16.127c-17.753-7.034-39.367-21.73-39.367-21.73
						L193.249,197.46z"/>
					<path style="fill:#FF8A15;" d="M193.249,197.46c18.441,5.541,32.103,14.749,32.103,14.749
						c2.123,9.939-12.785,23.094-12.785,23.094l-22.374-11.839L193.249,197.46z"/>
					<g>
						<g>
							<path style="fill:#FFC09E;" d="M231.357,176.742c-1.104-1.865-13.34-3.583-13.207-6.21c0.122-2.402,5.402-2.928,7.68-1.422
								c-1.543-3.073-11.074-13.177-8.719-14.863c1.742-1.247,8.05,7.154,8.05,7.154s-6.252-10.541-3.721-11.75
								c2.531-1.209,7.578,10.271,7.578,10.271s-3.705-9.991-1.528-10.614c2.141-0.613,5.133,10.06,5.133,10.06
								s-1.1-8.749,0.14-9.011c1.24-0.262,3.15,4.914,3.441,9.248c5.173,5.458,4.874,12.17,4.874,12.17L231.357,176.742z"/>
						</g>
					</g>
				</g>
				<g>
					<g>
						<g>
							<g>
								<g>
									<g>
										<g>
											<g>
												<g>
													<g>
														<g>
															<g>
																<g>
																	<g>
																		<g>
																			<g>
																				<g>
																					<g>
																						<g>
																							<g>
																								<g>
																									<g>
																										<g>
																											<path style="fill:#FF8A15;" d="M127.035,294.264c70.963,20.071,73.964-2.047,73.964-2.047l-7.333-42.788
																												c12.049-2.391,9.788-24.004,1.278-30.661l-1.696-21.308l-11.753-3.436l-16.145-1.647l-14.041,3.105
																												l-0.839,6.863l-7.59,56.704C130.023,279.756,127.035,294.264,127.035,294.264z"/>
																										</g>
																									</g>
																								</g>
																							</g>
																						</g>
																					</g>
																				</g>
																			</g>
																		</g>
																	</g>
																</g>
															</g>
														</g>
													</g>
												</g>
											</g>
										</g>
									</g>
								</g>
							</g>
						</g>
					</g>
				</g>
				<path style="fill:#99201D;" d="M195.294,218.907c2.22,1.908,3.911,4.41,4.859,7.179c0.267,0.779,0.474,1.577,0.621,2.387
					c0.033,0.179,0.306,0.104,0.274-0.075c-0.529-2.91-1.851-5.657-3.77-7.905c-0.547-0.641-1.144-1.238-1.783-1.787
					C195.357,218.587,195.155,218.787,195.294,218.907L195.294,218.907z"/>
				<path style="fill:#845584;" d="M159.609,224.248c14.066-0.339,24.83,0.253,38.624,3.026c1.706,3.842,2.464,8.633,1.424,12.706
					c-1.169,4.579-2.662,6.88-5.991,9.448c3.037,12.432,7.587,25.891,10.624,38.322c12.545,3.856,25.522,7.426,38.375,10.081
					c-6.12,14.081-18.649,25.434-33.214,30.29c-9.969-0.381-19.542-3.89-28.081-9.047c-8.54-5.157-16.14-11.706-23.695-18.222
					C158.17,275.422,159.115,249.681,159.609,224.248z"/>
				<polygon style="fill:#845584;" points="163.277,192.836 166.332,224.236 160.777,224.236 156.579,194.317 				"/>
				<polygon style="fill:#845584;" points="187.025,195.641 191.871,226.225 195.773,226.842 192.929,197.367 				"/>
				<g>
					<g>
						<path style="fill:#FFC09E;" d="M200.374,164.897c-0.008,0.112-0.026,0.225-0.035,0.337c-0.018,0.133-0.026,0.245-0.044,0.378
							c-0.794,6.318-3.141,10.286-6.361,13.22c-1.726,1.582-3.327,2.743-4.736,3.778c-0.453,0.334-0.876,0.648-1.288,0.961
							c-0.322,0.24-0.624,0.491-0.935,0.751c-3.146,2.576-4.941,5.433-4.649,13.71c-2.564,7.165-13.31,8.531-17.073,0.613
							c-0.241-10.022-2.445-18.601-4.319-24.115c-0.474-1.44-0.935-2.666-1.33-3.648c-0.748-1.884-1.276-2.915-1.276-2.915
							s-0.314-22.035,2.648-27.993c7.218-14.378,34.479-10.523,36.984,0.641C200.365,151.281,200.994,159.062,200.374,164.897z"/>
						<path style="fill:#470E0E;" d="M200.65,147.519c-2.909-2.65-5.164-6.014-6.511-9.711c-4.546,7.33-13.548,11.628-22.107,10.553
							c0.543,4.284-1.809,8.611-5.303,11.147c-3.495,2.536-7.956,3.46-12.273,3.36c-0.981-7.08-0.152-14.557,1.976-21.381
							c0.881-2.826,2.081-5.662,4.238-7.69c1.606-1.51,3.644-2.478,5.709-3.251c7.455-2.791,15.744-3.309,23.489-1.469
							c2.541,0.604,5.101,1.5,7.035,3.256c1.997,1.813,3.152,4.405,3.697,7.047C201.145,142.022,200.669,144.822,200.65,147.519z"/>
						<path style="fill:#8E4136;" d="M183.294,168.312c0.286-0.167,0.724-0.081,0.881,0.231c0.398,0.789,1.392,1.139,2.19,1.362
							c0.977,0.273,2.015,0.334,3.015,0.159c0.342-0.06,0.694,0.092,0.792,0.45c0.085,0.311-0.105,0.732-0.45,0.792
							c-1.266,0.221-2.563,0.176-3.8-0.188c-1.085-0.319-2.323-0.861-2.859-1.925C182.907,168.882,182.981,168.495,183.294,168.312z
							"/>
						<g>
							<path style="fill:#C16B5B;" d="M187.927,162.936c0.393-0.192,0.811-0.304,1.249-0.323c0.391-0.016,0.82,0.042,1.14,0.283
								c0.343,0.259,0.511,0.654,0.538,1.076c0.026,0.403-0.113,0.799-0.269,1.164c-0.084,0.196-0.276,0.358-0.505,0.283
								c-0.188-0.062-0.373-0.294-0.283-0.505c0.114-0.267,0.239-0.557,0.241-0.852c0.001-0.151-0.036-0.306-0.124-0.429
								c0.005,0.008,0.01,0.016,0.015,0.023c-0.081-0.132-0.24-0.182-0.382-0.21c-0.011-0.002-0.022-0.004-0.038-0.006
								c-0.031-0.001-0.062-0.006-0.092-0.007c-0.081-0.005-0.163-0.005-0.245-0.002c-0.042,0.002-0.083,0.005-0.125,0.008
								c-0.022,0.002-0.024,0.001-0.03,0.002c-0.007,0.001-0.007,0.002-0.026,0.005c-0.256,0.042-0.474,0.141-0.716,0.223
								c-0.182,0.061-0.404,0.004-0.497-0.174C187.681,163.31,187.722,163.036,187.927,162.936z"/>
							<path style="fill:#470E0E;" d="M197.198,153.29c-1.953-1.466-4.514-1.961-6.849-1.162c-0.571,0.195-0.97,0.855-0.752,1.45
								c0.282,0.773,0.981,0.877,1.681,0.678c1.437-0.408,2.952-0.176,4.208,0.632c0.041,0.026,0.082,0.054,0.148,0.098
								c0.482,0.355,1.189,0.442,1.621-0.063C197.625,154.49,197.714,153.677,197.198,153.29z"/>
							<path style="fill:#470E0E;" d="M183.116,152.365c-2.333-0.723-4.911-0.326-6.84,1.213c-0.472,0.377-0.625,1.132-0.22,1.619
								c0.393,0.472,1.113,0.623,1.619,0.22c0.574-0.457,1.234-0.783,1.939-0.985c-0.03,0.013-0.061,0.027-0.091,0.04
								c0.879-0.23,1.763-0.193,2.643,0.005c0.6,0.135,1.301,0.07,1.554-0.593C183.922,153.351,183.732,152.556,183.116,152.365z"/>
							<path d="M183.085,160.838c-0.203-0.762-0.434-1.526-0.943-2.145c-0.464-0.564-1.195-0.973-1.942-0.898
								c-0.773,0.078-1.432,0.555-1.84,1.205c-0.43,0.685-0.541,1.515-0.582,2.306c-0.016,0.303,0.269,0.561,0.561,0.561
								c0.317,0,0.546-0.257,0.561-0.561c0.03-0.567,0.092-1.156,0.38-1.658c0.109-0.19,0.278-0.389,0.431-0.5
								c0.05-0.037,0.104-0.07,0.159-0.101c-0.004,0.002,0.15-0.077,0.09-0.051c0.056-0.024,0.117-0.042,0.176-0.058
								c0.04-0.011,0.08-0.02,0.121-0.027c-0.037,0.004-0.035,0.005,0.004,0.001c0.062-0.005,0.125-0.005,0.187-0.001
								c0.04,0.003,0.042,0.003,0.005-0.002c0.041,0.007,0.081,0.016,0.121,0.026c0.06,0.015,0.12,0.033,0.176,0.057
								c-0.06-0.025,0.094,0.051,0.09,0.05c0.193,0.108,0.382,0.281,0.495,0.432c0.364,0.484,0.511,1.087,0.665,1.663
								c0.078,0.293,0.4,0.472,0.691,0.392C182.988,161.447,183.163,161.132,183.085,160.838z"/>
							<path d="M196.722,160.533c-0.203-0.761-0.434-1.526-0.943-2.145c-0.464-0.564-1.195-0.973-1.942-0.897
								c-0.773,0.078-1.432,0.555-1.84,1.205c-0.43,0.684-0.541,1.515-0.582,2.306c-0.016,0.303,0.269,0.561,0.561,0.561
								c0.317,0,0.546-0.257,0.561-0.561c0.029-0.567,0.092-1.156,0.38-1.658c0.109-0.19,0.278-0.389,0.431-0.5
								c0.051-0.037,0.105-0.07,0.159-0.101c-0.004,0.002,0.15-0.077,0.09-0.051c0.057-0.024,0.117-0.042,0.176-0.058
								c0.04-0.011,0.08-0.02,0.121-0.027c-0.037,0.004-0.035,0.005,0.004,0.001c0.063-0.005,0.125-0.005,0.187-0.001
								c0.04,0.003,0.042,0.003,0.006-0.002c0.041,0.007,0.081,0.016,0.121,0.026c0.06,0.015,0.12,0.033,0.177,0.057
								c-0.06-0.025,0.093,0.051,0.09,0.05c0.193,0.108,0.382,0.281,0.495,0.432c0.364,0.484,0.511,1.087,0.664,1.663
								c0.078,0.293,0.4,0.472,0.691,0.392C196.626,161.143,196.801,160.827,196.722,160.533z"/>
						</g>
						<g>
							<path style="fill:#FFC09E;" d="M152.415,168.682c2.422,2.687,6.114,3.309,8.248,1.387c2.133-1.922,1.9-5.659-0.521-8.346
								c-2.422-2.688-6.114-3.309-8.247-1.387C149.761,162.257,149.994,165.994,152.415,168.682z"/>
							<path style="fill:#C16B5B;" d="M153.459,161.637c0.969-0.557,2.287-0.58,3.524-0.056c0.617,0.26,1.068,0.587,1.384,0.999
								c0.417,0.546,0.552,1.246,0.352,1.826c-0.178,0.52-0.575,0.868-0.927,1.175c-0.254,0.222-0.494,0.432-0.626,0.677
								c-0.201,0.376-0.129,0.891,0.169,1.198c0.298,0.305,0.81,0.389,1.192,0.197c0.225-0.114,0.497-0.023,0.611,0.2
								c0.112,0.223,0.024,0.497-0.2,0.611c-0.245,0.124-0.514,0.189-0.785,0.198c-0.539,0.019-1.087-0.181-1.468-0.572
								c-0.573-0.588-0.707-1.538-0.319-2.262c0.209-0.39,0.538-0.677,0.828-0.931c0.291-0.254,0.565-0.495,0.665-0.787
								c0.101-0.292,0.016-0.676-0.216-0.98c-0.093-0.122-0.219-0.231-0.356-0.335c-0.451,0.012-1.01,0.171-1.285,0.492
								c-0.309,0.363-0.442,0.878-0.349,1.344c0.05,0.246-0.11,0.485-0.355,0.535c-0.025,0.005-0.049,0.008-0.074,0.009
								c-0.218,0.008-0.416-0.143-0.46-0.364c-0.15-0.743,0.054-1.533,0.546-2.112c0.184-0.215,0.417-0.365,0.663-0.488
								c-0.758-0.176-1.497-0.109-2.062,0.215c-0.697,0.4-1.199,1.388-0.806,2.164c0.113,0.224,0.023,0.497-0.2,0.611
								c-0.224,0.113-0.497,0.024-0.611-0.2C151.723,163.869,152.256,162.329,153.459,161.637z"/>
						</g>
					</g>
				</g>
				<g>
					<path style="fill:#470E0E;" d="M235.211,220.066c0.115,0.36,0.23,0.72,0.345,1.081c0.313,0.98,0.625,1.96,0.938,2.94
						c0.461,1.444,0.921,2.888,1.381,4.332c0.561,1.761,1.123,3.521,1.685,5.282c0.617,1.935,1.234,3.87,1.851,5.804
						c0.623,1.953,1.246,3.906,1.868,5.859c0.579,1.815,1.158,3.63,1.736,5.444c0.489,1.534,0.978,3.068,1.468,4.602
						c0.353,1.106,0.706,2.213,1.059,3.319c0.167,0.522,0.327,1.046,0.5,1.567c0.007,0.022,0.014,0.045,0.021,0.068
						c0.167,0.524,0.997,0.3,0.828-0.228c-0.115-0.36-0.23-0.72-0.344-1.08c-0.313-0.98-0.625-1.96-0.938-2.94
						c-0.461-1.444-0.921-2.888-1.381-4.331c-0.561-1.761-1.123-3.521-1.684-5.282c-0.617-1.935-1.234-3.87-1.851-5.804
						c-0.623-1.953-1.246-3.906-1.868-5.859c-0.579-1.815-1.158-3.63-1.736-5.444c-0.489-1.534-0.978-3.068-1.467-4.602
						c-0.353-1.107-0.706-2.213-1.059-3.319c-0.167-0.522-0.327-1.047-0.5-1.567c-0.008-0.022-0.014-0.045-0.021-0.067
						C235.872,219.314,235.043,219.538,235.211,220.066L235.211,220.066z"/>
					<path style="fill:#470E0E;" d="M232.68,223.604c0.182,0.332,0.365,0.663,0.547,0.995c0.494,0.899,0.988,1.798,1.482,2.697
						c0.733,1.333,1.465,2.667,2.198,4c0.891,1.622,1.782,3.243,2.674,4.865c0.976,1.776,1.952,3.551,2.928,5.327
						c0.985,1.792,1.97,3.584,2.955,5.377c0.918,1.671,1.837,3.342,2.755,5.013c0.776,1.412,1.552,2.824,2.329,4.237
						c0.558,1.016,1.117,2.032,1.675,3.048c0.265,0.482,0.523,0.968,0.795,1.446c0.012,0.021,0.023,0.042,0.034,0.063
						c0.266,0.484,1.008,0.052,0.742-0.433c-0.182-0.332-0.365-0.663-0.547-0.995c-0.494-0.899-0.988-1.798-1.482-2.697
						c-0.733-1.333-1.465-2.667-2.198-4c-0.891-1.622-1.782-3.243-2.674-4.865c-0.976-1.776-1.952-3.551-2.928-5.327
						c-0.985-1.792-1.97-3.584-2.955-5.377c-0.918-1.671-1.837-3.342-2.755-5.013c-0.776-1.412-1.552-2.825-2.328-4.237
						c-0.558-1.016-1.117-2.032-1.675-3.048c-0.265-0.482-0.523-0.968-0.795-1.446c-0.012-0.021-0.023-0.042-0.035-0.063
						C233.155,222.686,232.414,223.119,232.68,223.604L232.68,223.604z"/>
				</g>
				<g>
					<g>
						<path style="fill:#FFC09E;" d="M228.138,253.958c3.625,0.749,7.302-5.686,7.302-5.686c2.077-0.405,4.721,1.002,6.345,0.902
							c1.624-0.1,2.096-2.093,0.927-2.939c1.694-0.478,0.846-2.231,0.458-2.617c2.146-0.706,1.494-4.925-7.602-5.652
							c5.044-1.476,6.289,0.385,8.302,0.121c2.014-0.264,2.415-2.267-0.623-3.457c-3.038-1.19-10.129-0.651-11.784,1.137
							c-3.429,3.704-8.046,7.336-8.046,7.336L228.138,253.958z"/>
						<path style="fill:#C06B5B;" d="M226.666,240.556c1.62-0.884,2.661-2.46,3.855-3.809c0.599-0.677,1.255-1.322,2.044-1.774
							c1.009-0.577,2.167-0.743,3.312-0.787c1.169-0.045,2.35-0.042,3.519,0.009c1.185,0.051,2.374,0.184,3.514,0.528
							c0.529,0.159,1.069,0.351,1.539,0.645c0.42,0.263,0.818,0.663,0.817,1.191c-0.001,0.545-0.401,1.016-0.878,1.235
							c-0.536,0.246-1.16,0.224-1.727,0.118c-0.592-0.111-1.166-0.302-1.758-0.414c-0.561-0.106-1.132-0.164-1.703-0.172
							c-1.154-0.015-2.313,0.17-3.402,0.551c-0.259,0.091-0.514,0.193-0.764,0.304c-0.125,0.055-0.017,0.239,0.107,0.184
							c1.138-0.503,2.37-0.783,3.614-0.822c0.615-0.02,1.234,0.017,1.842,0.116c0.615,0.1,1.207,0.288,1.814,0.419
							c1.01,0.219,2.313,0.197,2.882-0.831c0.231-0.417,0.25-0.909,0.016-1.329c-0.234-0.419-0.656-0.706-1.076-0.914
							c-2.17-1.076-4.734-1.06-7.098-1.049c-1.21,0.005-2.453,0.005-3.618,0.374c-0.93,0.295-1.73,0.844-2.428,1.515
							c-1.376,1.325-2.363,3.054-3.943,4.166c-0.188,0.132-0.383,0.253-0.585,0.363
							C226.438,240.438,226.546,240.622,226.666,240.556L226.666,240.556z"/>
						<path style="fill:#C06B5B;" d="M235.87,238.164c1.541,0.182,3.097,0.347,4.578,0.834c0.716,0.235,1.41,0.544,2.046,0.949
							c0.626,0.399,1.253,0.909,1.508,1.631c0.257,0.727,0.021,1.669-0.801,1.888c-0.132,0.035-0.076,0.241,0.057,0.205
							c0.652-0.174,1.062-0.812,1.067-1.469c0.006-0.798-0.485-1.485-1.077-1.974c-1.257-1.04-2.89-1.575-4.471-1.874
							c-0.961-0.182-1.935-0.289-2.906-0.403C235.734,237.935,235.735,238.148,235.87,238.164L235.87,238.164z"/>
						<path style="fill:#C06B5B;" d="M241.646,241.818c-2.6-0.806-5.374-0.975-8.054-0.498c-0.135,0.024-0.078,0.229,0.057,0.206
							c2.642-0.47,5.378-0.296,7.94,0.498C241.721,242.064,241.777,241.859,241.646,241.818L241.646,241.818z"/>
						<path style="fill:#C06B5B;" d="M241.207,244.595c-1.915-0.353-3.876-0.368-5.796-0.044c-0.135,0.023-0.078,0.228,0.057,0.205
							c1.88-0.317,3.808-0.302,5.682,0.044C241.285,244.825,241.342,244.62,241.207,244.595L241.207,244.595z"/>
					</g>
					<path style="fill:#FFC09E;" d="M151.31,195.482c-24.543,4.742-12.333,30.875-6.379,45.652
						c5.954,14.778,12.093,30.022,25.686,31.827c13.593,1.806,58.32-18.949,58.32-18.949l-4.58-11.571l-50.232,11.717
						L151.31,195.482z"/>
					<path style="fill:#FF8A15;" d="M151.31,195.482c-31.997,6.106-9.342,48.94-9.342,48.94
						c21.73-2.241,27.187-11.847,27.187-12.139C169.155,231.99,151.31,195.482,151.31,195.482z"/>
					<path style="fill:#99201D;" d="M153.875,201.056c1.072,2.111,2.136,4.226,3.187,6.348c0.884,1.784,1.759,3.573,2.626,5.366
						c0.824,1.704,1.64,3.412,2.454,5.12c0.891,1.87,1.779,3.741,2.671,5.61c1.088,2.281,2.18,4.56,3.277,6.836
						c0.158,0.327,0.316,0.654,0.474,0.981c0.079,0.165,0.324,0.021,0.245-0.143c-1.132-2.344-2.259-4.692-3.38-7.041
						c-0.91-1.907-1.817-3.816-2.726-5.724c-0.817-1.715-1.635-3.43-2.46-5.141c-0.853-1.769-1.713-3.534-2.583-5.295
						c-1.021-2.067-2.054-4.128-3.095-6.184c-0.148-0.292-0.296-0.584-0.444-0.876C154.038,200.75,153.792,200.893,153.875,201.056
						L153.875,201.056z"/>
				</g>
			</g>
		</g>
	</g>
	<g>
		<g>
			<path style="fill:#FCB447;" d="M267.006,259.407c-0.779-1.738-2.593-3.074-4.492-2.93c-1.238,0.094-2.345,0.763-3.508,1.198
				c-1.163,0.434-2.596,0.593-3.54-0.213c-0.819-0.7-0.991-1.876-1.45-2.851c-1.113-2.367-4.32-3.469-6.652-2.286
				c-2.544,1.29-3.775,4.663-6.546,5.338c-2.706,0.659-5.602-1.642-8.206-0.652c-1.439,0.547-2.382,2.049-2.525,3.582
				c-0.143,1.533,0.419,3.067,1.284,4.341c0.865,1.274,2.018,2.321,3.184,3.326l29.809,1.753c1.049-1.59,2.093-3.213,2.695-5.02
				C267.661,263.183,267.785,261.146,267.006,259.407z"/>
			<path style="fill:#FF8A15;" d="M255.525,259.773c0.78-1.738,2.593-3.074,4.492-2.931c1.238,0.094,2.345,0.763,3.508,1.198
				c1.163,0.435,2.596,0.593,3.54-0.214c0.819-0.7,0.991-1.876,1.45-2.851c1.113-2.366,4.32-3.469,6.652-2.286
				c2.544,1.29,3.775,4.662,6.546,5.338c2.706,0.66,5.602-1.641,8.206-0.652c1.439,0.547,2.382,2.049,2.525,3.582
				c0.143,1.533-0.419,3.067-1.284,4.341c-0.865,1.274-2.018,2.321-3.184,3.326l-29.809,1.753c-1.049-1.59-2.093-3.213-2.695-5.02
				C254.871,263.549,254.746,261.511,255.525,259.773z"/>
			<path style="fill:#99201D;" d="M266.601,266.263c0,3.321-6.839,3.628-15.274,3.628c-8.436,0-15.274-0.307-15.274-3.628
				s6.838-8.398,15.274-8.398C259.762,257.865,266.601,262.943,266.601,266.263z"/>
			<path style="fill:#C13A30;" d="M287.746,265.794c0,2.667-5.493,2.914-12.268,2.914c-6.775,0-12.268-0.247-12.268-2.914
				c0-2.667,5.493-6.745,12.268-6.745C282.253,259.049,287.746,263.127,287.746,265.794z"/>
			<path style="fill:#D1580C;" d="M227.429,266.263L227.429,266.263c0,4.036,3.272,7.308,7.308,7.308h49.111
				c4.036,0,7.308-3.272,7.308-7.308l0,0H227.429z"/>
		</g>
		<g>
			<rect x="172.771" y="309.738" style="fill:#8F2A05;" width="388.192" height="4.204"/>
			<rect x="149.18" y="273.572" style="fill:#470E0E;" width="439.031" height="14.061"/>
			<g>
				<path style="fill:#FF6666;" d="M216.722,273.572c0,114.083,234.79,151.593,270.989,0H216.722z"/>
				<path style="fill:#C13A30;" d="M241.525,273.572c0,93.199,191.81,123.844,221.383,0H241.525z"/>
				<path style="fill:#FF6666;" d="M266.638,273.572c0,72.055,148.294,95.747,171.158,0H266.638z"/>
			</g>
			<polygon style="fill:#470E0E;" points="169.95,287.632 143.867,475.734 152.01,475.734 184.826,287.632 			"/>
			<polygon style="fill:#470E0E;" points="567.442,287.632 593.524,475.734 585.382,475.734 552.565,287.632 			"/>
		</g>
		<g>
			<path style="fill:#99201D;" d="M311.232,247.639c-3.849-2.799-6.179-7.57-6.021-12.327c0.07-2.084,0.673-4.289,2.266-5.636
				c1.886-1.596,4.774-1.573,6.981-0.462c2.207,1.111,3.83,3.12,5.109,5.234c2.473,4.087,3.911,8.795,4.143,13.566
				c0.533-4.581,1.828-9.056,4.13-13.052c1.122-1.948,2.495-3.839,4.429-4.987c1.933-1.148,4.533-1.4,6.382-0.12
				c1.691,1.17,2.425,3.369,2.358,5.424c-0.067,2.055-0.811,4.021-1.546,5.941c1.473-1.939,3.947-3.072,6.377-2.92
				c0.966,0.06,1.99,0.356,2.585,1.12c0.58,0.744,0.632,1.765,0.58,2.707c-0.153,2.765-0.998,5.488-2.436,7.854
				C335.251,254.132,320.983,254.73,311.232,247.639z"/>
			<path style="fill:#FCB447;" d="M365.246,238.325c-0.194-1.1-0.88-2.169-1.929-2.555s-2.419,0.122-2.748,1.19
				c0.82-2.649,1.482-5.348,1.981-8.076c0.19-1.035,0.339-2.174-0.194-3.081c-0.54-0.918-1.684-1.354-2.747-1.3
				c-1.064,0.054-2.063,0.522-2.983,1.059c-4.447,2.595-7.737,7.098-8.857,12.124c-0.897-1.255-2.195-2.251-3.688-2.641
				c-1.493-0.39-3.175-0.128-4.391,0.822c-1.42,1.11-2.054,3.014-1.976,4.815c0.077,1.801,0.778,3.518,1.622,5.111l23.45,0.536
				c0.907-1.464,1.619-3.05,2.11-4.701C365.213,240.556,365.44,239.425,365.246,238.325z"/>
			<ellipse style="fill:#D1580C;" cx="323.995" cy="244.172" rx="13.593" ry="8.039"/>
			<path style="fill:#D1580C;" d="M360.066,244.172c0,2.997-4.108,5.427-9.177,5.427c-5.068,0-9.177-2.43-9.177-5.427
				c0-2.997,4.109-5.427,9.177-5.427C355.957,238.745,360.066,241.174,360.066,244.172z"/>
			<path style="fill:#FF8A15;" d="M367.345,243.781h-63.28c0,9.01,8.519,16.696,20.493,19.694
				c-4.777,2.299-7.887,6.035-7.887,10.256h38.068c0-4.221-3.11-7.956-7.887-10.256
				C358.826,260.477,367.345,252.791,367.345,243.781z"/>
			<path style="fill:#99201D;" d="M325.043,263.614c3.728,0.897,7.587,1.235,11.414,0.994c1.071-0.067,2.139-0.182,3.201-0.338
				c0.18-0.027,0.104-0.3-0.076-0.274c-3.743,0.55-7.57,0.539-11.31-0.035c-1.06-0.163-2.112-0.371-3.155-0.621
				C324.94,263.297,324.865,263.571,325.043,263.614L325.043,263.614z"/>
		</g>
		<g>
			<g>
				<path style="fill:#FFFFFF;" d="M498.006,273.366h-17.879l-3.185-33.529h24.249l-0.015,0.157L498.006,273.366z M480.387,273.08
					h17.358l3.131-32.956h-23.62L480.387,273.08z"/>
				<path style="fill:#FFFFFF;" d="M498.25,273.634h-18.366l-3.236-34.064h24.837l-0.042,0.449L498.25,273.634z M480.63,272.812
					h16.872l3.08-32.421H477.55L480.63,272.812z"/>
			</g>
			<polygon style="fill:#FFFFFF;" points="495.84,270.564 482.293,270.564 479.865,245.004 498.268,245.004 			"/>
		</g>
		<g>
			<g>
				<path style="fill:#FFFFFF;" d="M408.019,273.366H390.14l-3.185-33.529h24.25l-0.015,0.157L408.019,273.366z M390.4,273.08
					h17.358l3.131-32.956h-23.62L390.4,273.08z"/>
				<path style="fill:#FFFFFF;" d="M408.262,273.634h-18.365l-3.236-34.064h24.837l-0.042,0.449L408.262,273.634z M390.644,272.812
					h16.872l3.08-32.421h-23.032L390.644,272.812z"/>
			</g>
			<polygon style="fill:#FFFFFF;" points="405.853,270.564 392.306,270.564 389.878,245.004 408.281,245.004 			"/>
		</g>
		<g>
			<g>
				<path style="fill:#FFFFFF;" d="M213.116,273.366h-17.879l-3.185-33.529h24.249l-0.015,0.157L213.116,273.366z M195.497,273.08
					h17.358l3.131-32.956h-23.62L195.497,273.08z"/>
				<path style="fill:#FFFFFF;" d="M213.359,273.634h-18.366l-3.235-34.064h24.837l-0.042,0.449L213.359,273.634z M195.741,272.812
					h16.871l3.081-32.421h-23.032L195.741,272.812z"/>
			</g>
			<polygon style="fill:#FFFFFF;" points="210.95,270.564 197.403,270.564 194.975,245.004 213.378,245.004 			"/>
		</g>
	</g>
</g>
</svg>
