<?xml version="1.0" encoding="utf-8"?>
<!-- Generator: Adobe Illustrator 27.5.0, SVG Export Plug-In . SVG Version: 6.00 Build 0)  -->
<svg version="1.1" xmlns="http://www.w3.org/2000/svg" xmlns:xlink="http://www.w3.org/1999/xlink" x="0px" y="0px"
	 viewBox="0 0 3710 3710" style="enable-background:new 0 0 3710 3710;" xml:space="preserve">
<g id="Background">
	<g>
		<g>
			<rect style="fill:#ffdab9;" width="3710" height="3710"/>
		</g>
	</g>
</g>
<g id="Illustration">
	<g>
		<linearGradient id="SVGID_1_" gradientUnits="userSpaceOnUse" x1="3445.854" y1="3280.4175" x2="1434.6722" y2="1520.6348">
			<stop  offset="0" style="stop-color:#DAE3FE"/>
			<stop  offset="1" style="stop-color:#E9EFFD"/>
		</linearGradient>
		<path style="fill:url(#SVGID_1_);" d="M3096.525,2370.395c-258.302,617.092-946.359,962.791-1543.044,869.54
			c-97.093-15.174-363.275-60.374-598.942-273.614c-453.676-410.503-550.698-1223.353-184.731-1796.187
			c266.359-416.923,743.835-653.263,1197.531-641.441c97.726,2.546,472.254,18.24,801.398,293.615
			c48.345,40.447,154.974,136.561,251.073,289.039C3245.467,1469.392,3264.863,1968.228,3096.525,2370.395z"/>
		<g>
			
				<linearGradient id="SVGID_00000165948342911853531910000007149591322758242969_" gradientUnits="userSpaceOnUse" x1="1569.6445" y1="654.7253" x2="-583.6176" y2="3995.998" gradientTransform="matrix(-1 0 0 1 2257.3284 0)">
				<stop  offset="0" style="stop-color:#4F52FF"/>
				<stop  offset="1" style="stop-color:#4042E2"/>
			</linearGradient>
			<path style="fill:url(#SVGID_00000165948342911853531910000007149591322758242969_);" d="M479.144,2255.246
				c44.102-188.235,188.316-336.002,371.908-381.193c126.221-31.069,247.319-14.397,349.676,35.947
				c33.949,16.697,74.292-2.205,83.698-39.588c90.482-359.6,408.928-625.261,787.909-625.261
				c449.386,0,813.685,373.525,813.685,834.29c0,12.232-0.241,28.938-0.449,44.972c1.591,34.456,16.264,49.086,38.166,52.759
				c176.067,18.789,314.438,167.613,322.115,351.173c8.816,210.767-158.49,385.386-364.24,385.386H978.465
				C652.673,2913.732,397.586,2603.345,479.144,2255.246z"/>
			<path style="opacity:0.21;fill:#91B3FA;" d="M626.541,2325.79c39.377-168.069,168.142-300.006,332.065-340.355
				c112.699-27.741,220.824-12.855,312.215,32.096c30.312,14.909,66.333-1.969,74.731-35.346
				c80.788-321.076,365.119-558.276,703.499-558.276c401.242,0,726.514,333.509,726.514,744.912c0,10.921-0.215,25.838-0.401,40.154
				c1.42,30.765,14.522,43.827,34.077,47.107c157.205,16.776,280.751,149.656,287.607,313.551
				c7.872,188.187-141.511,344.099-325.219,344.099H1072.369C781.48,2913.732,553.721,2636.597,626.541,2325.79z"/>
		</g>
		<g>
			
				<linearGradient id="SVGID_00000126307912099093160000000001946023030029818013_" gradientUnits="userSpaceOnUse" x1="-617.4517" y1="3100.1987" x2="-258.9354" y2="2024.6469" gradientTransform="matrix(-1 0 0 1 1155.7772 0)">
				<stop  offset="0" style="stop-color:#09005D"/>
				<stop  offset="1" style="stop-color:#1A0F91"/>
			</linearGradient>
			<path style="fill:url(#SVGID_00000126307912099093160000000001946023030029818013_);" d="M847.51,3139.216
				c0,15.425,12.632,28.044,28.071,28.044h1517.99c15.439,0,28.071-12.62,28.071-28.044l12.631-872.347
				c0-15.424-18.172-45.537-51.477-43.274L899.25,2185.209c-19.372-0.501-38.102,6.955-51.82,20.628s-21.224,32.368-20.766,51.722
				L847.51,3139.216z"/>
			<path style="fill:#7D97F4;" d="M875.224,3112.311c0,14.606,11.951,26.557,26.557,26.557h1455.183
				c14.607,0,26.558-11.951,26.558-26.557l11.919-791.925c-1.404-47.656-43.185-64.784-68.512-63.773l-1421.845-38.146
				c-13.609-0.365-26.768,4.878-36.407,14.493c-9.639,9.615-14.94,22.772-14.599,36.383L875.224,3112.311z"/>
			<g>
				<path style="fill:#FFFFFF;" d="M2367.798,2736.092c-0.02,0-0.039,0-0.039,0c-2.17-0.031-3.887-1.799-3.854-3.951l0.942-64.224
					c0.031-2.129,1.768-3.834,3.889-3.834c0.019,0,0.039,0,0.039,0c2.17,0.031,3.887,1.799,3.854,3.951l-0.942,64.224
					C2371.656,2734.386,2369.919,2736.092,2367.798,2736.092z"/>
				<path style="fill:#FFFFFF;" d="M2370.109,2578.71c0,0-0.039,0-0.058,0c-2.15-0.031-3.867-1.802-3.834-3.951l3.611-245.979
					c-0.068-14.611-4.502-26.277-13.183-34.594c-16.204-15.524-41.929-14.731-43.013-14.681l-454.453-12.187
					c-2.148-0.054-3.844-1.845-3.786-3.994c0.056-2.148,1.707-3.978,3.995-3.784l454.183,12.187
					c2.826-0.167,30.216-0.641,48.457,16.837c10.262,9.833,15.504,23.379,15.582,40.254l-3.613,246.056
					C2373.967,2577.005,2372.23,2578.71,2370.109,2578.71z"/>
			</g>
			
				<linearGradient id="SVGID_00000157278641023165020130000009540218466995093917_" gradientUnits="userSpaceOnUse" x1="216.7059" y1="3035.9185" x2="-1379.6344" y2="3424.2173" gradientTransform="matrix(-1 0 0 1 1155.7772 0)">
				<stop  offset="0" style="stop-color:#09005D"/>
				<stop  offset="1" style="stop-color:#1A0F91"/>
			</linearGradient>
			<path style="fill:url(#SVGID_00000157278641023165020130000009540218466995093917_);" d="M730.018,3239.677h1778.342
				c3.11,0,5.654-2.544,5.654-5.654v-65.34c0-3.11-2.544-5.654-5.654-5.654H730.018c-3.11,0-5.654,2.544-5.654,5.654v65.34
				C724.365,3237.132,726.909,3239.677,730.018,3239.677z"/>
			<path style="fill:#91B3FA;" d="M1506.549,3100.237H946.267c-20.658,0-37.405-16.747-37.405-37.405v-731.34
				c0-21.219,17.632-38.189,38.835-37.377l560.281,21.441c20.087,0.769,35.974,17.276,35.974,37.377v709.899
				C1543.953,3083.49,1527.207,3100.237,1506.549,3100.237z"/>
			<g>
				<path style="opacity:0.51;fill:#FFFFFF;" d="M1395.107,2630.333h-371.123c-2.945,0-5.333-2.388-5.333-5.333v-38.656
					c0-2.946,2.388-5.333,5.333-5.333h371.123c2.946,0,5.333,2.388,5.333,5.333v38.656
					C1400.441,2627.945,1398.053,2630.333,1395.107,2630.333z"/>
				<path style="opacity:0.51;fill:#FFFFFF;" d="M1395.858,2709.096h-371.123c-2.945,0-5.333-2.388-5.333-5.333v-38.656
					c0-2.946,2.388-5.333,5.333-5.333h371.123c2.946,0,5.333,2.388,5.333,5.333v38.656
					C1401.192,2706.708,1398.804,2709.096,1395.858,2709.096z"/>
				<path style="opacity:0.51;fill:#FFFFFF;" d="M1398.095,2789.51h-371.123c-2.945,0-5.333-2.388-5.333-5.333v-38.656
					c0-2.946,2.388-5.333,5.333-5.333h371.123c2.946,0,5.333,2.388,5.333,5.333v38.656
					C1403.428,2787.122,1401.041,2789.51,1398.095,2789.51z"/>
				<path style="opacity:0.51;fill:#FFFFFF;" d="M1398.846,2868.273h-371.123c-2.946,0-5.333-2.388-5.333-5.333v-38.656
					c0-2.946,2.388-5.333,5.333-5.333h371.123c2.946,0,5.333,2.388,5.333,5.333v38.656
					C1404.179,2865.885,1401.791,2868.273,1398.846,2868.273z"/>
			</g>
			<g>
				<path style="opacity:0.51;fill:#FFFFFF;" d="M2209.016,2630.275h-538.234c-2.946,0-5.333-2.388-5.333-5.333v-38.656
					c0-2.946,2.388-5.333,5.333-5.333h538.234c2.946,0,5.333,2.388,5.333,5.333v38.656
					C2214.35,2627.887,2211.962,2630.275,2209.016,2630.275z"/>
				<path style="opacity:0.51;fill:#FFFFFF;" d="M2210.713,2709.096h-538.234c-2.946,0-5.333-2.388-5.333-5.333v-38.656
					c0-2.946,2.388-5.333,5.333-5.333h538.234c2.946,0,5.333,2.388,5.333,5.333v38.656
					C2216.046,2706.708,2213.659,2709.096,2210.713,2709.096z"/>
				<path style="opacity:0.51;fill:#FFFFFF;" d="M1987.065,2789.51h-314.586c-2.946,0-5.333-2.388-5.333-5.333v-38.656
					c0-2.946,2.388-5.333,5.333-5.333h314.586c2.945,0,5.333,2.388,5.333,5.333v38.656
					C1992.398,2787.122,1990.01,2789.51,1987.065,2789.51z"/>
				<g style="opacity:0.51;">
					<path style="fill:#FFFFFF;" d="M1956.834,2397.129h-8.361c-4.152,0-7.517-3.365-7.517-7.517v-28.578
						c0-10.23-8.293-18.522-18.522-18.522h-51.807c-10.23,0-18.522,8.292-18.522,18.522v28.578c0,4.152-3.365,7.517-7.517,7.517
						h-8.361c-4.152,0-7.517-3.365-7.517-7.517v-28.578c0-23.151,18.767-41.918,41.918-41.918h51.807
						c23.151,0,41.918,18.767,41.918,41.918v28.578C1964.351,2393.764,1960.985,2397.129,1956.834,2397.129z"/>
					<path style="fill:#FFFFFF;" d="M1967.197,2403.874h-141.336c-8.661,0-15.682,7.021-15.682,15.682v108.469
						c0,8.661,7.021,15.682,15.682,15.682h141.336c8.661,0,15.682-7.021,15.682-15.682v-108.469
						C1982.879,2410.895,1975.858,2403.874,1967.197,2403.874z M1916.751,2508.711c0.878,3.654-1.892,7.167-5.649,7.167h-29.145
						c-3.758,0-6.527-3.513-5.649-7.168l6.801-28.309c-8.028-4.799-13.276-13.769-12.739-23.92
						c0.694-13.147,11.348-23.909,24.487-24.725c15.227-0.946,27.871,11.123,27.871,26.146c0,9.563-5.125,17.925-12.777,22.5
						L1916.751,2508.711z"/>
				</g>
			</g>
		</g>
		<g>
			<g>
				<g>
					<path style="fill:#91B3FA;" d="M2368.249,1130.812c-0.552,0-1.115-0.135-1.631-0.424c-1.627-0.904-2.213-2.952-1.308-4.576
						c2.167-3.899,4.267-7.825,6.306-11.777c0.852-1.65,2.877-2.295,4.537-1.447c1.65,0.851,2.298,2.883,1.447,4.537
						c-2.071,4.011-4.205,7.996-6.405,11.954C2370.58,1130.187,2369.433,1130.812,2368.249,1130.812z"/>
					<path style="fill:#91B3FA;" d="M1974.42,1362.614c-1.989,0-3.975-0.013-5.964-0.039c-1.858-0.026-3.344-1.552-3.321-3.413
						c0.026-1.841,1.529-3.321,3.367-3.321h0.046c8.709,0.118,17.504-0.026,26.196-0.421c1.733-0.118,3.432,1.351,3.515,3.212
						c0.086,1.857-1.354,3.429-3.212,3.514C1988.208,1362.456,1981.268,1362.614,1974.42,1362.614z M1925.696,1359.987
						c-0.122,0-0.243-0.007-0.365-0.02c-8.795-0.953-17.658-2.173-26.344-3.63c-1.834-0.309-3.071-2.045-2.765-3.876
						c0.306-1.834,2.052-3.084,3.876-2.765c8.561,1.437,17.293,2.64,25.956,3.577c1.848,0.2,3.186,1.861,2.985,3.708
						C1928.852,1358.708,1927.392,1359.987,1925.696,1359.987z M2037.599,1358.182c-1.654,0-3.094-1.217-3.33-2.896
						c-0.26-1.841,1.022-3.544,2.864-3.804c8.617-1.213,17.306-2.699,25.828-4.415c1.805-0.365,3.597,0.815,3.965,2.637
						c0.365,1.821-0.815,3.597-2.637,3.965c-8.65,1.743-17.471,3.248-26.216,4.481
						C2037.912,1358.172,2037.754,1358.182,2037.599,1358.182z M1857.637,1347.3c-0.289,0-0.582-0.036-0.871-0.115
						c-8.532-2.278-17.103-4.839-25.48-7.611c-1.766-0.582-2.722-2.489-2.137-4.254c0.582-1.762,2.476-2.716,4.254-2.137
						c8.252,2.729,16.695,5.254,25.098,7.499c1.798,0.48,2.864,2.324,2.384,4.12C1860.485,1346.307,1859.124,1347.3,1857.637,1347.3
						z M2105.22,1343.272c-1.447,0-2.781-0.937-3.222-2.39c-0.539-1.779,0.467-3.659,2.246-4.198
						c8.341-2.528,16.698-5.333,24.845-8.334c1.739-0.641,3.679,0.25,4.323,1.996c0.641,1.746-0.25,3.679-1.996,4.323
						c-8.269,3.048-16.754,5.895-25.22,8.459C2105.872,1343.226,2105.543,1343.272,2105.22,1343.272z M1792.318,1324.342
						c-0.454,0-0.914-0.092-1.354-0.286c-8.094-3.567-16.169-7.417-24.004-11.438c-1.654-0.848-2.305-2.88-1.456-4.534
						c0.852-1.647,2.873-2.305,4.534-1.456c7.716,3.962,15.669,7.752,23.642,11.267c1.703,0.75,2.472,2.739,1.723,4.438
						C1794.846,1323.592,1793.613,1324.342,1792.318,1324.342z M2169.738,1318.131c-1.253,0-2.456-0.7-3.038-1.907
						c-0.805-1.673-0.102-3.685,1.575-4.494c7.831-3.771,15.659-7.831,23.267-12.069c1.634-0.901,3.672-0.319,4.58,1.305
						c0.904,1.624,0.319,3.676-1.305,4.58c-7.723,4.3-15.669,8.423-23.622,12.253
						C2170.725,1318.026,2170.228,1318.131,2169.738,1318.131z M1731.338,1291.606c-0.621,0-1.253-0.171-1.815-0.533
						c-7.433-4.767-14.818-9.817-21.949-15.005c-1.502-1.095-1.834-3.199-0.74-4.705c1.098-1.502,3.202-1.831,4.705-0.74
						c7.019,5.112,14.295,10.083,21.62,14.781c1.565,1.003,2.019,3.087,1.016,4.652
						C1733.53,1291.06,1732.445,1291.606,1731.338,1291.606z M2229.607,1283.331c-1.069,0-2.121-0.506-2.775-1.453
						c-1.055-1.532-0.671-3.63,0.858-4.685c7.164-4.941,14.275-10.159,21.136-15.511c1.466-1.141,3.584-0.881,4.728,0.585
						c1.141,1.466,0.881,3.583-0.585,4.728c-6.967,5.428-14.183,10.724-21.452,15.741
						C2230.932,1283.137,2230.265,1283.331,2229.607,1283.331z M1676.144,1249.862c-0.796,0-1.591-0.279-2.232-0.845
						c-6.589-5.832-13.115-11.954-19.391-18.198c-1.318-1.312-1.325-3.442-0.013-4.76c1.312-1.315,3.442-1.325,4.76-0.013
						c6.184,6.148,12.615,12.181,19.108,17.928c1.391,1.233,1.522,3.36,0.289,4.754
						C1677.998,1249.478,1677.074,1249.862,1676.144,1249.862z M2283.466,1239.756c-0.894,0-1.785-0.355-2.449-1.055
						c-1.276-1.354-1.213-3.485,0.138-4.761c6.335-5.977,12.572-12.207,18.533-18.523c1.279-1.348,3.409-1.407,4.761-0.138
						c1.351,1.279,1.414,3.409,0.138,4.761c-6.052,6.408-12.381,12.733-18.809,18.799
						C2285.126,1239.45,2284.295,1239.756,2283.466,1239.756z M1627.933,1200.156c-0.966,0-1.923-0.414-2.591-1.213
						c-5.642-6.773-11.165-13.812-16.419-20.92c-1.105-1.496-0.786-3.603,0.707-4.711c1.506-1.105,3.607-0.782,4.711,0.707
						c5.175,7.006,10.616,13.943,16.176,20.617c1.19,1.427,0.996,3.551-0.434,4.741
						C1629.455,1199.899,1628.692,1200.156,1627.933,1200.156z M2330.063,1188.557c-0.723,0-1.45-0.23-2.065-0.71
						c-1.466-1.141-1.729-3.258-0.588-4.724c5.362-6.888,10.57-13.999,15.482-21.137c1.059-1.532,3.156-1.92,4.682-0.868
						c1.532,1.055,1.92,3.153,0.868,4.682c-4.988,7.249-10.274,14.469-15.719,21.459
						C2332.058,1188.11,2331.065,1188.557,2330.063,1188.557z M1587.82,1143.716c-1.144,0-2.259-0.582-2.89-1.634
						c-4.563-7.598-8.943-15.403-13.016-23.198c-0.858-1.647-0.224-3.682,1.427-4.544c1.644-0.858,3.682-0.224,4.544,1.427
						c4.011,7.677,8.324,15.363,12.819,22.849c0.957,1.594,0.441,3.662-1.154,4.619
						C1589.007,1143.561,1588.408,1143.716,1587.82,1143.716z M1556.869,1081.776c-1.328,0-2.587-0.792-3.12-2.101
						c-3.33-8.203-6.45-16.59-9.275-24.927c-0.595-1.759,0.348-3.672,2.111-4.267c1.746-0.595,3.669,0.349,4.268,2.111
						c2.781,8.209,5.852,16.468,9.136,24.552c0.7,1.723-0.131,3.685-1.854,4.386
						C1557.721,1081.697,1557.294,1081.776,1556.869,1081.776z"/>
					<path style="fill:#91B3FA;" d="M1535.805,1015.624c-1.529,0-2.91-1.045-3.275-2.597c-1.032-4.406-2.002-8.821-2.903-13.246
						c-0.371-1.821,0.806-3.6,2.627-3.968c1.818-0.368,3.6,0.799,3.968,2.627c0.888,4.36,1.844,8.709,2.864,13.049
						c0.424,1.812-0.7,3.623-2.509,4.047C1536.318,1015.594,1536.062,1015.624,1535.805,1015.624z"/>
				</g>
				<g>
					<path style="fill:#91B3FA;" d="M1592.886,672.307c-0.615,0-1.233-0.168-1.792-0.52c-1.572-0.99-2.045-3.071-1.052-4.642
						c2.403-3.814,4.869-7.604,7.394-11.362c1.036-1.542,3.13-1.959,4.672-0.917c1.545,1.039,1.953,3.13,0.917,4.672
						c-2.492,3.705-4.918,7.437-7.289,11.198C1595.099,671.751,1594.004,672.307,1592.886,672.307z"/>
					<path style="fill:#91B3FA;" d="M2406.551,785.088c-1.457,0-2.801-0.95-3.232-2.42c-2.571-8.775-5.454-17.583-8.565-26.183
						c-0.631-1.746,0.273-3.676,2.022-4.31c1.742-0.638,3.679,0.273,4.31,2.022c3.159,8.726,6.082,17.668,8.696,26.578
						c0.523,1.785-0.5,3.656-2.285,4.179C2407.182,785.045,2406.863,785.088,2406.551,785.088z M2380.463,717.134
						c-1.256,0-2.459-0.704-3.038-1.907c-3.971-8.259-8.242-16.484-12.7-24.447c-0.907-1.621-0.329-3.672,1.295-4.583
						c1.624-0.901,3.676-0.326,4.583,1.295c4.521,8.081,8.86,16.432,12.891,24.815c0.806,1.677,0.099,3.689-1.575,4.494
						C2381.449,717.029,2380.953,717.134,2380.463,717.134z M2343.697,654.307c-1.062,0-2.107-0.5-2.762-1.437
						c-5.237-7.479-10.784-14.906-16.485-22.07c-1.157-1.456-0.917-3.574,0.536-4.731c1.46-1.164,3.574-0.917,4.731,0.536
						c5.786,7.276,11.418,14.811,16.735,22.406c1.065,1.522,0.697,3.62-0.829,4.688
						C2345.038,654.109,2344.364,654.307,2343.697,654.307z M1627.243,624.924c-0.756,0-1.519-0.253-2.147-0.776
						c-1.43-1.187-1.627-3.311-0.441-4.741c5.908-7.115,12.135-14.167,18.506-20.956c1.272-1.358,3.4-1.424,4.761-0.151
						c1.354,1.276,1.424,3.406,0.151,4.761c-6.283,6.69-12.418,13.637-18.237,20.647
						C1629.169,624.51,1628.212,624.924,1627.243,624.924z M2297.301,598.212c-0.878,0-1.756-0.342-2.417-1.022
						c-6.342-6.539-12.993-12.986-19.769-19.164c-1.374-1.253-1.473-3.383-0.22-4.757c1.253-1.381,3.386-1.476,4.757-0.22
						c6.878,6.273,13.627,12.815,20.065,19.453c1.295,1.335,1.262,3.465-0.072,4.761
						C2298.99,597.896,2298.146,598.212,2297.301,598.212z M1678.074,572.821c-0.937,0-1.871-0.391-2.535-1.151
						c-1.223-1.401-1.082-3.528,0.319-4.751c7.006-6.118,14.279-12.092,21.617-17.757c1.483-1.131,3.59-0.858,4.724,0.608
						c1.134,1.473,0.861,3.587-0.608,4.724c-7.233,5.579-14.4,11.464-21.301,17.494
						C1679.652,572.548,1678.859,572.821,1678.074,572.821z M2242.594,550.241c-0.697,0-1.4-0.217-2.006-0.664
						c-7.338-5.454-14.939-10.744-22.596-15.728c-1.558-1.013-1.999-3.1-0.983-4.659c1.012-1.555,3.09-1.999,4.659-0.983
						c7.769,5.06,15.488,10.429,22.938,15.965c1.492,1.108,1.802,3.219,0.694,4.711
						C2244.638,549.771,2243.623,550.241,2242.594,550.241z M1736.575,529.466c-1.124,0-2.223-0.562-2.86-1.588
						c-0.983-1.578-0.5-3.653,1.078-4.636c7.874-4.902,16.014-9.63,24.191-14.045c1.644-0.891,3.682-0.27,4.563,1.361
						c0.884,1.637,0.273,3.679-1.361,4.563c-8.058,4.35-16.077,9.005-23.836,13.835
						C1737.798,529.302,1737.183,529.466,1736.575,529.466z M2180.851,511.739c-0.519,0-1.045-0.118-1.539-0.375
						c-8.117-4.185-16.478-8.173-24.852-11.855c-1.703-0.746-2.476-2.732-1.726-4.435c0.743-1.703,2.729-2.482,4.435-1.726
						c8.499,3.735,16.988,7.782,25.227,12.033c1.654,0.851,2.301,2.883,1.45,4.534
						C2183.247,511.075,2182.07,511.739,2180.851,511.739z M1801.3,496.132c-1.318,0-2.571-0.779-3.11-2.074
						c-0.714-1.716,0.102-3.685,1.818-4.402c8.551-3.554,17.349-6.898,26.147-9.929c1.766-0.602,3.676,0.325,4.281,2.084
						c0.605,1.759-0.329,3.676-2.084,4.281c-8.666,2.988-17.333,6.279-25.759,9.784C1802.171,496.05,1801.73,496.132,1801.3,496.132
						z M2113.683,483.744c-0.342,0-0.694-0.053-1.039-0.164c-8.689-2.818-17.589-5.402-26.446-7.683
						c-1.802-0.464-2.887-2.301-2.423-4.1c0.464-1.802,2.328-2.883,4.1-2.423c8.992,2.318,18.026,4.941,26.847,7.802
						c1.769,0.572,2.735,2.472,2.163,4.241C2116.425,482.84,2115.103,483.744,2113.683,483.744z M1870.561,473.743
						c-1.526,0-2.91-1.045-3.275-2.594c-0.424-1.808,0.697-3.623,2.505-4.05c9.054-2.134,18.276-4.008,27.406-5.569
						c1.874-0.296,3.574,0.917,3.886,2.749c0.316,1.835-0.917,3.574-2.748,3.886c-8.995,1.539-18.079,3.386-26.999,5.49
						C1871.078,473.714,1870.818,473.743,1870.561,473.743z M2042.873,466.951c-0.168,0-0.342-0.013-0.513-0.04
						c-9.041-1.387-18.24-2.508-27.347-3.337c-1.851-0.168-3.215-1.808-3.048-3.659c0.171-1.851,1.769-3.222,3.659-3.048
						c9.242,0.842,18.582,1.983,27.755,3.39c1.838,0.283,3.1,1.999,2.818,3.837C2045.943,465.761,2044.507,466.951,2042.873,466.951
						z M1942.532,462.821c-1.752,0-3.232-1.358-3.353-3.13c-0.132-1.857,1.266-3.465,3.12-3.593
						c9.245-0.651,18.644-1.019,27.939-1.098h0.03c1.848,0,3.35,1.489,3.367,3.337c0.016,1.861-1.479,3.38-3.337,3.396
						c-9.159,0.079-18.421,0.441-27.525,1.078C1942.69,462.818,1942.611,462.821,1942.532,462.821z"/>
					<path style="fill:#91B3FA;" d="M2419.35,842.405c-1.631,0-3.064-1.187-3.324-2.847c-0.684-4.396-1.433-8.785-2.255-13.167
						c-0.339-1.828,0.865-3.587,2.693-3.929c1.818-0.316,3.587,0.868,3.929,2.693c0.828,4.448,1.591,8.903,2.288,13.365
						c0.286,1.838-0.97,3.561-2.808,3.847C2419.695,842.392,2419.521,842.405,2419.35,842.405z"/>
				</g>
				<g>
					<path style="fill:#91B3FA;" d="M2320.187,898.737c0.179-2.299-1.12-4.461-3.235-5.38L2256.6,867.14
						c-4.662-30.373-14.201-60.222-28.736-88.308l33.305-56.7c1.169-1.989,0.945-4.499-0.553-6.252l-51.305-59.976
						c-1.5-1.753-3.947-2.361-6.091-1.516l-61.175,24.121c-25.496-18.708-53.506-32.757-82.791-42.067l-16.554-63.685
						c-0.58-2.232-2.512-3.85-4.811-4.029l-78.689-6.131c-2.302-0.179-4.461,1.12-5.379,3.236l-26.218,60.352
						c-30.374,4.662-60.222,14.202-88.307,28.736l-56.701-33.305c-1.989-1.169-4.499-0.947-6.252,0.553l-59.977,51.307
						c-1.753,1.499-2.361,3.945-1.515,6.091l24.121,61.175c-18.709,25.496-32.757,53.505-42.067,82.79l-63.686,16.553
						c-2.231,0.581-3.85,2.514-4.029,4.812l-6.131,78.688c-0.18,2.3,1.12,4.46,3.236,5.379l60.351,26.217
						c4.661,30.373,14.201,60.222,28.735,88.308l-33.306,56.701c-1.167,1.988-0.946,4.499,0.553,6.251l51.307,59.978
						c1.498,1.753,3.946,2.36,6.091,1.514l61.175-24.121c25.495,18.71,53.507,32.758,82.792,42.067l16.553,63.684
						c0.578,2.233,2.513,3.851,4.812,4.03l78.688,6.131c2.299,0.179,4.46-1.12,5.379-3.236l26.218-60.351
						c30.373-4.662,60.222-14.202,88.307-28.737l56.702,33.307c1.987,1.167,4.499,0.945,6.251-0.554l59.977-51.306
						c1.753-1.499,2.361-3.945,1.517-6.091l-24.121-61.175c18.709-25.496,32.755-53.507,42.066-82.79l63.685-16.554
						c2.233-0.58,3.851-2.512,4.031-4.813L2320.187,898.737z"/>
					<path style="opacity:0.7;fill:#FFFFFF;" d="M1971.464,986.311c-15.409,0.003-30.411-4.741-43.243-13.821
						c-33.817-23.931-41.859-70.912-17.928-104.729c11.592-16.383,28.872-27.268,48.655-30.654
						c19.782-3.376,39.696,1.138,56.075,12.727c16.382,11.596,27.271,28.873,30.654,48.651c3.386,19.782-1.134,39.699-12.727,56.078
						c-11.592,16.383-28.869,27.268-48.651,30.654C1980.015,985.949,1975.722,986.311,1971.464,986.311z M1971.76,846.111
						c-3.686,0-7.401,0.316-11.109,0.95c-17.122,2.929-32.078,12.352-42.112,26.532c-20.716,29.27-13.756,69.939,15.515,90.652
						c14.18,10.037,31.411,13.94,48.543,11.017c17.122-2.929,32.075-12.352,42.109-26.532c10.037-14.18,13.95-31.417,11.02-48.54
						c-2.933-17.122-12.355-32.078-26.535-42.112l0,0C1998.081,850.217,1985.098,846.111,1971.76,846.111z"/>
					<path style="opacity:0.7;fill:#FFFFFF;" d="M1970.257,1106.68c-5.145,0-10.314-0.201-15.498-0.605
						c-52.064-4.054-99.43-28.143-133.372-67.825c-30.566-35.727-46.955-80.246-46.955-126.764c0-5.149,0.2-10.317,0.605-15.505
						c4.057-52.061,28.143-99.426,67.828-133.372c39.676-33.942,90.201-50.404,142.265-46.347
						c52.064,4.054,99.43,28.143,133.372,67.825c9.064,10.593,16.994,22.136,23.566,34.304l-8.883,4.8
						c-6.234-11.54-13.756-22.488-22.356-32.538c-32.19-37.634-77.109-60.477-126.481-64.324
						c-49.371-3.814-97.286,11.767-134.92,43.953c-37.631,32.193-60.474,77.113-64.324,126.484
						c-0.381,4.918-0.572,9.82-0.572,14.703c0,44.114,15.544,86.335,44.529,120.218c32.19,37.631,77.109,60.474,126.481,64.32
						c49.407,3.85,97.293-11.763,134.92-43.953c25.542-21.85,44.65-50.154,55.26-81.85l9.58,3.209
						c-11.191,33.429-31.345,63.278-58.278,86.315C2061.297,1090.291,2016.775,1106.68,1970.257,1106.68z"/>
				</g>
			</g>
			<g>
				<g>
					<path style="fill:#91B3FA;" d="M2747.984,1241.324c-0.582,0-1.174-0.151-1.713-0.47c-1.601-0.947-2.127-3.012-1.18-4.613
						c2.262-3.82,4.425-7.723,6.427-11.602c0.852-1.651,2.877-2.295,4.537-1.447c1.65,0.851,2.298,2.883,1.447,4.537
						c-2.061,3.995-4.287,8.012-6.618,11.944C2750.256,1240.736,2749.135,1241.324,2747.984,1241.324z"/>
					<path style="fill:#91B3FA;" d="M2530.701,1354c-0.089,0-0.177-0.003-0.266-0.01c-9.13-0.72-18.306-1.983-27.265-3.751
						c-1.824-0.362-3.011-2.134-2.653-3.955c0.365-1.825,2.14-3.015,3.955-2.653c8.709,1.723,17.619,2.949,26.489,3.646
						c1.854,0.148,3.238,1.769,3.094,3.62C2533.916,1352.662,2532.44,1354,2530.701,1354z M2574.733,1353.287
						c-1.693,0-3.15-1.272-3.344-2.992c-0.207-1.848,1.125-3.515,2.972-3.722c8.861-0.993,17.727-2.512,26.354-4.517
						c1.795-0.44,3.62,0.7,4.041,2.515c0.421,1.812-0.704,3.62-2.515,4.041c-8.884,2.068-18.01,3.633-27.13,4.655
						C2574.983,1353.28,2574.858,1353.287,2574.733,1353.287z M2461.616,1337.693c-0.424,0-0.852-0.079-1.269-0.247
						c-8.463-3.439-16.82-7.424-24.842-11.842c-1.627-0.898-2.223-2.946-1.325-4.573c0.897-1.627,2.939-2.216,4.573-1.325
						c7.792,4.29,15.913,8.16,24.132,11.5c1.719,0.7,2.551,2.666,1.851,4.389
						C2464.204,1336.901,2462.945,1337.693,2461.616,1337.693z M2643.235,1334.672c-1.289,0-2.518-0.743-3.077-1.992
						c-0.759-1.7,0.003-3.689,1.7-4.448c8.117-3.626,16.103-7.775,23.73-12.329c1.588-0.957,3.659-0.434,4.616,1.164
						c0.953,1.598,0.434,3.663-1.164,4.616c-7.854,4.692-16.077,8.962-24.434,12.697
						C2644.159,1334.58,2643.692,1334.672,2643.235,1334.672z M2400.791,1301.16c-0.76,0-1.525-0.256-2.154-0.782
						c-7-5.842-13.749-12.181-20.058-18.835c-1.279-1.351-1.223-3.482,0.125-4.761c1.351-1.276,3.485-1.223,4.76,0.125
						c6.132,6.47,12.687,12.625,19.486,18.303c1.427,1.19,1.621,3.314,0.427,4.741
						C2402.714,1300.749,2401.757,1301.16,2400.791,1301.16z M2702.811,1296.084c-0.924,0-1.848-0.381-2.512-1.124
						c-1.239-1.387-1.118-3.518,0.27-4.754l1.979-1.785c5.921-5.402,11.615-11.165,16.925-17.132
						c1.233-1.397,3.36-1.522,4.751-0.279c1.391,1.236,1.516,3.363,0.28,4.751c-5.461,6.145-11.323,12.079-17.418,17.638
						l-2.032,1.831C2704.409,1295.801,2703.61,1296.084,2702.811,1296.084z M2353.856,1247.923c-1.108,0-2.196-0.546-2.837-1.552
						c-4.935-7.7-9.462-15.778-13.46-24.017c-0.812-1.673-0.115-3.686,1.558-4.498c1.68-0.809,3.686-0.112,4.498,1.558
						c3.883,7.999,8.282,15.847,13.072,23.326c1.003,1.565,0.549,3.646-1.019,4.649
						C2355.105,1247.752,2354.477,1247.923,2353.856,1247.923z"/>
					<path style="fill:#91B3FA;" d="M2325.22,1182.826c-1.489,0-2.85-0.996-3.251-2.505c-1.161-4.376-2.206-8.85-3.11-13.292
						c-0.372-1.821,0.802-3.597,2.627-3.968c1.821-0.371,3.603,0.802,3.968,2.627c0.881,4.313,1.897,8.656,3.024,12.911
						c0.477,1.795-0.595,3.64-2.393,4.116C2325.795,1182.79,2325.506,1182.826,2325.22,1182.826z"/>
				</g>
				<g>
					<path style="fill:#91B3FA;" d="M2352.951,1000.123c-0.615,0-1.233-0.168-1.792-0.52c-1.572-0.99-2.045-3.067-1.052-4.642
						c2.417-3.84,4.981-7.654,7.614-11.339c1.082-1.509,3.186-1.861,4.695-0.782c1.516,1.082,1.864,3.183,0.782,4.695
						c-2.558,3.58-5.047,7.286-7.397,11.017C2355.164,999.567,2354.069,1000.123,2352.951,1000.123z"/>
					<path style="fill:#91B3FA;" d="M2761.908,1032.865c-1.309,0-2.554-0.769-3.1-2.052c-3.413-8.042-7.338-15.972-11.671-23.57
						c-0.92-1.614-0.355-3.672,1.259-4.593c1.614-0.921,3.669-0.355,4.593,1.259c4.458,7.825,8.502,15.991,12.02,24.273
						c0.727,1.71-0.072,3.689-1.785,4.415C2762.795,1032.779,2762.348,1032.865,2761.908,1032.865z M2725.174,973.469
						c-0.95,0-1.897-0.401-2.564-1.183c-1.716-2.019-3.475-4.014-5.277-5.99c-4.11-4.501-8.443-8.89-12.888-13.046
						c-1.358-1.272-1.427-3.403-0.158-4.76c1.272-1.361,3.399-1.43,4.76-0.158c4.57,4.277,9.031,8.795,13.256,13.427
						c1.854,2.029,3.666,4.083,5.435,6.161c1.203,1.417,1.032,3.541-0.381,4.747
						C2726.723,973.206,2725.947,973.469,2725.174,973.469z M2388.853,956.202c-0.887,0-1.775-0.348-2.436-1.042
						c-1.282-1.348-1.233-3.478,0.112-4.761c1.364-1.299,2.742-2.587,4.136-3.863c5.26-4.8,10.797-9.413,16.458-13.71
						c1.479-1.128,3.59-0.842,4.715,0.644c1.128,1.479,0.838,3.59-0.644,4.715c-5.497,4.179-10.879,8.66-15.988,13.322
						c-1.358,1.243-2.703,2.499-4.028,3.764C2390.523,955.893,2389.688,956.202,2388.853,956.202z M2672.466,927.652
						c-0.615,0-1.236-0.168-1.795-0.519c-7.391-4.672-15.127-8.956-22.997-12.737c-1.677-0.805-2.384-2.814-1.578-4.491
						c0.802-1.677,2.804-2.394,4.491-1.578c8.104,3.893,16.073,8.305,23.681,13.111c1.572,0.996,2.042,3.074,1.049,4.646
						C2674.675,927.096,2673.584,927.652,2672.466,927.652z M2445.977,916.023c-1.24,0-2.43-0.684-3.018-1.867
						c-0.829-1.667-0.148-3.685,1.516-4.514c8.045-3.998,16.425-7.572,24.914-10.629c1.759-0.625,3.676,0.279,4.307,2.029
						c0.631,1.749-0.276,3.679-2.025,4.307c-8.246,2.969-16.389,6.441-24.198,10.323
						C2446.99,915.912,2446.48,916.023,2445.977,916.023z M2608.491,899.726c-0.286,0-0.579-0.036-0.868-0.112
						c-8.443-2.242-17.112-4.018-25.766-5.277c-1.841-0.266-3.117-1.976-2.847-3.814c0.266-1.844,1.963-3.163,3.814-2.847
						c8.91,1.295,17.833,3.12,26.529,5.428c1.795,0.477,2.867,2.321,2.39,4.119C2611.341,898.73,2609.98,899.726,2608.491,899.726z
						 M2512.5,894.801c-1.627,0-3.061-1.183-3.321-2.84c-0.293-1.838,0.96-3.561,2.798-3.85c8.867-1.404,17.934-2.308,26.946-2.689
						c1.861-0.039,3.429,1.361,3.505,3.222c0.079,1.857-1.365,3.426-3.222,3.505c-8.755,0.368-17.563,1.249-26.177,2.61
						C2512.852,894.788,2512.674,894.801,2512.5,894.801z"/>
					<path style="fill:#91B3FA;" d="M2777.491,1087.496c-1.631,0-3.064-1.187-3.324-2.847c-0.677-4.35-1.493-8.735-2.42-13.039
						c-0.391-1.818,0.763-3.61,2.581-4.001c1.848-0.391,3.61,0.766,4.001,2.581c0.954,4.428,1.792,8.946,2.492,13.42
						c0.286,1.838-0.97,3.56-2.808,3.847C2777.837,1087.483,2777.662,1087.496,2777.491,1087.496z"/>
				</g>
				<g>
					<path style="fill:#91B3FA;" d="M2726.556,1114.796c0.092-1.181-0.575-2.291-1.662-2.763l-31.002-13.467
						c-2.395-15.602-7.295-30.935-14.761-45.362l17.108-29.126c0.601-1.021,0.486-2.311-0.284-3.212l-26.354-30.809
						c-0.771-0.9-2.028-1.212-3.129-0.778l-31.425,12.391c-13.097-9.61-27.485-16.827-42.528-21.609l-8.504-32.714
						c-0.298-1.146-1.29-1.977-2.471-2.069l-40.421-3.149c-1.182-0.092-2.291,0.575-2.763,1.662l-13.467,31.001
						c-15.603,2.395-30.935,7.295-45.362,14.762l-29.126-17.109c-1.021-0.601-2.311-0.486-3.211,0.284l-30.809,26.356
						c-0.9,0.77-1.213,2.026-0.778,3.129l12.391,31.424c-9.611,13.097-16.827,27.485-21.609,42.528l-32.714,8.503
						c-1.146,0.298-1.977,1.291-2.07,2.472l-3.149,40.421c-0.093,1.181,0.575,2.291,1.662,2.763l31.001,13.467
						c2.395,15.602,7.295,30.935,14.761,45.362l-17.108,29.126c-0.6,1.021-0.486,2.311,0.284,3.211l26.355,30.81
						c0.77,0.9,2.027,1.212,3.129,0.778l31.425-12.391c13.096,9.611,27.485,16.827,42.529,21.609l8.502,32.713
						c0.298,1.147,1.292,1.978,2.472,2.071l40.421,3.149c1.181,0.092,2.291-0.575,2.763-1.662l13.467-31.001
						c15.602-2.395,30.935-7.296,45.362-14.762l29.126,17.109c1.021,0.599,2.311,0.485,3.211-0.285l30.808-26.354
						c0.901-0.771,1.213-2.027,0.779-3.129l-12.391-31.424c9.611-13.097,16.826-27.485,21.609-42.528l32.713-8.503
						c1.147-0.298,1.978-1.29,2.071-2.472L2726.556,1114.796z"/>
					<path style="opacity:0.7;fill:#FFFFFF;" d="M2547.419,1162.239c-8.42,0-16.616-2.591-23.625-7.552
						c-18.477-13.075-22.869-38.745-9.797-57.222c6.335-8.952,15.778-14.9,26.584-16.748c10.81-1.851,21.692,0.621,30.638,6.954
						c8.952,6.335,14.9,15.774,16.748,26.581c1.851,10.81-0.618,21.692-6.954,30.641c-6.335,8.952-15.774,14.9-26.581,16.747
						C2552.09,1162.042,2549.746,1162.239,2547.419,1162.239z M2547.547,1090.238c-9.712,0-19.279,4.547-25.305,13.059
						c-9.856,13.933-6.546,33.288,7.384,43.144c6.75,4.777,14.972,6.641,23.099,5.244c8.15-1.394,15.268-5.878,20.042-12.625
						c4.777-6.75,6.638-14.956,5.244-23.103c-1.394-8.15-5.878-15.268-12.625-20.042l0,0
						C2559.968,1092.079,2553.728,1090.238,2547.547,1090.238z"/>
					<path style="opacity:0.7;fill:#FFFFFF;" d="M2546.81,1224.07c-2.709,0-5.431-0.105-8.16-0.319
						c-27.396-2.134-52.324-14.811-70.186-35.694c-16.557-19.351-24.658-43.135-24.654-66.806c0-29.047,12.204-57.929,35.957-78.247
						c43.105-36.881,108.178-31.809,145.053,11.303c0.289,0.335,0.575,0.677,0.861,1.016c3.998,4.8,7.555,9.949,10.603,15.344
						c0.013,0.023,0.026,0.043,0.036,0.063c0.046,0.082,0.092,0.161,0.135,0.24c0.079,0.141,0.158,0.283,0.237,0.421
						c0.043,0.079,0.085,0.158,0.128,0.233c0.135,0.243,0.266,0.49,0.398,0.733l-8.883,4.8c-3.12-5.773-6.884-11.25-11.188-16.287
						l0,0c-23.55-27.525-59.843-37.845-92.822-29.734c-13.601,3.347-26.643,9.833-37.996,19.542
						c-21.419,18.326-32.423,44.371-32.427,70.567c0,21.347,7.305,42.796,22.235,60.25c33.255,38.87,91.94,43.45,130.817,10.192
						c12.779-10.932,22.34-25.095,27.65-40.958l9.58,3.209c-5.892,17.596-16.494,33.301-30.668,45.423
						C2594.719,1215.443,2571.287,1224.07,2546.81,1224.07z"/>
				</g>
			</g>
		</g>
		<g>
			<g>
				
					<linearGradient id="SVGID_00000116937235121046943840000015267506543920335290_" gradientUnits="userSpaceOnUse" x1="3668.749" y1="742.1304" x2="3204.1814" y2="1196.5988">
					<stop  offset="0" style="stop-color:#FF928E"/>
					<stop  offset="1" style="stop-color:#FE7062"/>
				</linearGradient>
				<path style="fill:url(#SVGID_00000116937235121046943840000015267506543920335290_);" d="M1891.237,1585.262
					c8.3-7.773,19.522-11.637,30.851-10.619c121.175,10.897,347.254-47.471,495.011-198.653c10.26-10.498,28.961-4.564,40.722,4.224
					c164.326,122.816,436.716,148.249,531.274,153.449c19.559,1.076,35.429,16.249,37.45,35.736
					c85.992,830.543-454.768,1131.503-566.923,1184.627c-12.26,5.808-26.693,4.965-38.21-2.207
					c-558.973-348.175-535.062-800.968-542.793-1136.465C1878.357,1603.984,1882.936,1593.037,1891.237,1585.262z"/>
				<path style="opacity:0.61;fill:#FFFFFF;" d="M2444.497,2693.699c-2.497,0-4.995-0.701-7.168-2.088
					c-214.296-136.99-353.967-300.763-426.993-500.675c-65.221-178.547-68.411-360.356-71.23-520.763l-0.383-21.387
					c-0.066-3.568,1.275-6.934,3.773-9.479c2.519-2.564,5.898-3.977,9.511-3.977h0.005c132.713,0,331.908-58.6,478.008-189.514
					c4.484-4.02,11.124-4.503,16.156-1.166c160.529,106.514,389.511,137.529,511.719,146.536c6.501,0.481,11.634,5.55,12.205,12.056
					c28.406,324.065-38.999,598.098-200.34,814.49c-120.502,161.607-263.39,245.813-319.232,274.517l0,0
					C2448.638,2693.218,2446.566,2693.699,2444.497,2693.699z M2448.041,2687.408l1.243,2.42L2448.041,2687.408
					c55.505-28.528,197.537-112.232,317.357-272.928c160.518-215.29,227.567-488.069,199.283-810.763
					c-0.337-3.834-3.358-6.823-7.184-7.107c-122.739-9.046-352.769-40.226-514.328-147.428c-2.962-1.966-6.876-1.684-9.519,0.688
					c-147.168,131.873-347.888,190.901-481.525,190.901h-0.003c-2.256,0-4.256,0.834-5.744,2.351
					c-1.467,1.49-2.253,3.467-2.213,5.563l0.383,21.387c2.808,159.984,5.994,341.307,70.901,518.999
					c72.601,198.749,211.557,361.632,424.814,497.955C2442.597,2688.519,2445.581,2688.67,2448.041,2687.408z"/>
			</g>
			<g>
				<path style="opacity:0.61;fill:#FFFFFF;" d="M2639.888,1898.781h-25.277c-12.552,0-22.727-10.175-22.727-22.727v-86.398
					c0-30.926-25.071-55.997-55.998-55.997h-156.626c-30.927,0-55.997,25.071-55.997,55.997v86.398
					c0,12.552-10.175,22.727-22.727,22.727h-25.277c-12.551,0-22.727-10.175-22.727-22.727v-86.398
					c0-69.99,56.738-126.727,126.728-126.727h156.626c69.99,0,126.728,56.737,126.728,126.727v86.398
					C2662.615,1888.606,2652.439,1898.781,2639.888,1898.781z"/>
				<path style="opacity:0.61;fill:#FFFFFF;" d="M2671.219,1919.172h-427.29c-26.184,0-47.41,21.226-47.41,47.409v327.928
					c0,26.184,21.226,47.411,47.41,47.411h427.29c26.184,0,47.41-21.228,47.41-47.411v-327.928
					C2718.629,1940.398,2697.403,1919.172,2671.219,1919.172z M2518.709,2236.117c2.654,11.046-5.719,21.668-17.079,21.668h-88.112
					c-11.361,0-19.733-10.622-17.079-21.67l20.561-85.584c-24.271-14.509-40.135-41.627-38.514-72.316
					c2.099-39.745,34.306-72.282,74.031-74.75c46.034-2.86,84.261,33.628,84.261,79.045c0,28.91-15.496,54.192-38.628,68.021
					L2518.709,2236.117z"/>
			</g>
		</g>
		<g>
			
				<linearGradient id="SVGID_00000119830565239643301160000016991508384536618175_" gradientUnits="userSpaceOnUse" x1="1693.7308" y1="1879.6465" x2="1819.1893" y2="2010.6809" gradientTransform="matrix(-1 0 0 1 2478.4575 0)">
				<stop  offset="0" style="stop-color:#09005D"/>
				<stop  offset="1" style="stop-color:#1A0F91"/>
			</linearGradient>
			<path style="fill:url(#SVGID_00000119830565239643301160000016991508384536618175_);" d="M819.696,1811.972
				c0,0,34.607,1.831,38.851,73.029c0,0-80.248,71.938-188.647,89.061c-8.138,1.286,11.377-55.552,14.31-63.25
				C698.169,1874.178,742.13,1850.585,819.696,1811.972z"/>
			<path style="fill:#7D97F4;" d="M1209.444,1728.255h-73.03c0,0-224.147-247.549-371.159-272.524c0,0-102.335,130.629,5.45,374.705
				c8.671,19.634,32.921,28.357,51.01,16.804c5.41-3.455,9.295-8.087,11.655-13.893l-8.667-208.401
				c0,0,191.198,167.224,224.432,199.495C1082.368,1856.712,1251.297,1837.042,1209.444,1728.255z"/>
			
				<linearGradient id="SVGID_00000143608710641851556020000009079167423167123881_" gradientUnits="userSpaceOnUse" x1="1860.1589" y1="2208.543" x2="2097.468" y2="2382.7148" gradientTransform="matrix(-1 0 0 1 2478.4575 0)">
				<stop  offset="0" style="stop-color:#09005D"/>
				<stop  offset="1" style="stop-color:#1A0F91"/>
			</linearGradient>
			<path style="fill:url(#SVGID_00000143608710641851556020000009079167423167123881_);" d="M503.403,2247.998
				c30.603-26.815,79.364-56.907,149.757-65.535l23.806,14.562c0,0-15.181,22.391-42.913,46.043
				c-25.487,14.804-64.844,34.854-97.473,39.2C504.858,2286.493,500.18,2267.324,503.403,2247.998z"/>
			<path style="fill:#91B3FA;" d="M684.21,1910.812c18.853,6.102,27.146,32.813,74.985,15.149
				c46.285-17.089,80.692-39.127,98.394-51.837c0.395,3.444,0.728,7.041,0.957,10.878c0,0-84.613,80.481-193.012,97.603
				c-8.138,1.286-14.588-6.838-11.653-14.537C659.144,1954.254,668.635,1933.302,684.21,1910.812z"/>
			<path style="fill:#91B3FA;" d="M480.348,2270.898c6.033-6.857,13.733-14.732,23.055-22.9
				c-3.224,19.326,1.455,38.495,33.178,34.27c32.628-4.345,71.985-24.396,97.473-39.2c-31.945,27.245-80.55,56.162-141.897,54.464
				C478.53,2297.154,471.344,2281.132,480.348,2270.898z"/>
			<path style="fill:#7D97F4;" d="M1206.771,1781.096l-341.991,3.703c0,0-195.302,161.584-230.727,407.974
				c0,0-5.88,18.122,29.423,21.222c0,0,118.078-77.12,195.07-213.467c94.404-167.181,281.43-91.926,281.43-91.926
				c89.852,19.83,161.367,12.452,213.703-68.086L1206.771,1781.096z"/>
			
				<linearGradient id="SVGID_00000073712071013958062350000002588476120425750680_" gradientUnits="userSpaceOnUse" x1="1476.7593" y1="1564.8405" x2="1315.6505" y2="1756.4292" gradientTransform="matrix(-1 0 0 1 2478.4575 0)">
				<stop  offset="0" style="stop-color:#FEBBBA"/>
				<stop  offset="1" style="stop-color:#FF928E"/>
			</linearGradient>
			<path style="fill:url(#SVGID_00000073712071013958062350000002588476120425750680_);" d="M1198.696,1505.605
				c0,0-36.817,184.506-217.204,257.498l-64.166-7.562l-15.141,24.142l150.513,4.796c0,0,128.657-50.958,196.823-189.813
				C1251.773,1590.078,1289.31,1512.573,1198.696,1505.605z"/>
			
				<linearGradient id="SVGID_00000103943226899016706250000009334000216519514299_" gradientUnits="userSpaceOnUse" x1="1800.5353" y1="1093.2788" x2="1315.7433" y2="1598.2697">
				<stop  offset="0" style="stop-color:#FF928E"/>
				<stop  offset="1" style="stop-color:#FE7062"/>
			</linearGradient>
			<path style="fill:url(#SVGID_00000103943226899016706250000009334000216519514299_);" d="M1178.967,1778.08
				c0,0,41.865-113.803,50.863-224.382c0,0-30.628-26.323-49.772-37.679c-6.199-3.678-8.54-11.456-5.406-17.948
				c14.075-29.157,99.192-143.644,105.567-145.235c34.656-8.649,176.785-76.227,276.886,60.695
				c42.96,58.763-8.525,239.653-203.425,426.985C1290.965,1850.726,1232.332,1832.656,1178.967,1778.08z"/>
			
				<linearGradient id="SVGID_00000147196988771659462430000015095837840771187867_" gradientUnits="userSpaceOnUse" x1="1288.8999" y1="1739.1638" x2="1610.9313" y2="1298.6074" gradientTransform="matrix(-1 0 0 1 2478.4575 0)">
				<stop  offset="0" style="stop-color:#FEBBBA"/>
				<stop  offset="1" style="stop-color:#FF928E"/>
			</linearGradient>
			<path style="fill:url(#SVGID_00000147196988771659462430000015095837840771187867_);" d="M1340.288,1578.635
				c0,0-116.317,137.726-265.029,157.859c0,0-38.433-35.038-67.012-22.529c-28.579,12.51-67.766,67.727-67.766,67.727h190.946
				c0,0,180.547-6.361,270.766-115.845C1394.934,1627.537,1373.193,1604.653,1340.288,1578.635z"/>
			
				<linearGradient id="SVGID_00000107590349984198676560000002339586573799051652_" gradientUnits="userSpaceOnUse" x1="1091.9044" y1="1374.0756" x2="1103.7662" y2="1267.3191" gradientTransform="matrix(-1 0 0 1 2478.4575 0)">
				<stop  offset="0" style="stop-color:#FEBBBA"/>
				<stop  offset="1" style="stop-color:#FF928E"/>
			</linearGradient>
			<path style="fill:url(#SVGID_00000107590349984198676560000002339586573799051652_);" d="M1408.144,1256.236l25.45,84.883
				c1.167,3.889-0.274,8.101-3.624,10.395c-12.253,8.391-44.278,25.081-88.21,8.862c-5.025-1.855-8.468-6.547-8.903-11.885
				l-6.034-73.947L1408.144,1256.236z"/>
			<g>
				
					<linearGradient id="SVGID_00000151544763910918803110000017404400526015288489_" gradientUnits="userSpaceOnUse" x1="1155.1716" y1="1280.9521" x2="1102.8887" y2="1108.5105" gradientTransform="matrix(-1 0 0 1 2478.4575 0)">
					<stop  offset="0" style="stop-color:#FEBBBA"/>
					<stop  offset="1" style="stop-color:#FF928E"/>
				</linearGradient>
				<path style="fill:url(#SVGID_00000151544763910918803110000017404400526015288489_);" d="M1259.117,1187.493
					c0,0,12.513,87.991,46.314,115.05c33.8,27.059,99.655,6.685,121.898-59.65l-44.319-113.419L1259.117,1187.493z"/>
				
					<linearGradient id="SVGID_00000002369316032871584310000015037487138225561736_" gradientUnits="userSpaceOnUse" x1="1107.9917" y1="964.3203" x2="1156.601" y2="1241.5731" gradientTransform="matrix(-1 0 0 1 2478.4575 0)">
					<stop  offset="0" style="stop-color:#09005D"/>
					<stop  offset="1" style="stop-color:#1A0F91"/>
				</linearGradient>
				<path style="fill:url(#SVGID_00000002369316032871584310000015037487138225561736_);" d="M1388.003,1202.869
					c-2.571,0.829-5.263-0.819-5.664-3.49c-1.221-8.123-4.266-24.197-10.433-35.147c0,0,3.226-11.544-29.175,5.895
					c-32.401,17.439-81.065,43.057-109.718,27.802c-27.934-14.873-56.23-89.724,17.596-75.856c2.809,0.528,5.392-1.71,5.182-4.561
					c-0.907-12.302,0.313-40.604,28.974-49.688c26.82-8.501,41.504,3.606,47.554,10.914c1.78,2.15,5.083,2.107,6.781-0.109
					c8.035-10.489,29.854-32.814,61.975-18.659c26.456,11.66,30.571,27.955,30.135,38.11c-0.142,3.29,3.197,5.52,6.188,4.142
					c8.102-3.732,21.135-5.671,33.62,9.972c17.26,21.625-7.405,40.378-14.804,45.295c-1.212,0.806-1.966,2.141-1.975,3.597
					c-0.07,11.246-1.821,60.303-26.408,87.975c-2.129,2.396-6.064,1.693-7.304-1.262l-18.931-45.106
					c-0.879-2.095-3.215-3.168-5.377-2.471L1388.003,1202.869z"/>
				
					<linearGradient id="SVGID_00000031909676848309850470000003424688774541139335_" gradientUnits="userSpaceOnUse" x1="1101.0172" y1="1297.3715" x2="1048.7341" y2="1124.9296" gradientTransform="matrix(-1 0 0 1 2478.4575 0)">
					<stop  offset="0" style="stop-color:#FEBBBA"/>
					<stop  offset="1" style="stop-color:#FF928E"/>
				</linearGradient>
				<path style="fill:url(#SVGID_00000031909676848309850470000003424688774541139335_);" d="M1387.604,1212.026
					c0,0,11.56-47.085,29.121-31.798c17.561,15.287-4.578,48.935-24.695,55.348L1387.604,1212.026z"/>
			</g>
			
				<linearGradient id="SVGID_00000134959599808266112090000004650635818367499964_" gradientUnits="userSpaceOnUse" x1="1528.3632" y1="1639.4886" x2="1773.4126" y2="1639.4886" gradientTransform="matrix(-1 0 0 1 2478.4575 0)">
				<stop  offset="0" style="stop-color:#09005D"/>
				<stop  offset="1" style="stop-color:#1A0F91"/>
			</linearGradient>
			<path style="fill:url(#SVGID_00000134959599808266112090000004650635818367499964_);" d="M950.094,1792.38l-85.734-285.916
				c-3.497-11.664-13.86-19.94-26.008-20.77l-115.753-7.92c-11.766-0.805-20.518,10.688-16.611,21.816l95.843,273.047
				c3.088,8.796,10.985,15.014,20.26,15.95l113.986,12.658L950.094,1792.38z"/>
			<path style="fill:#91B3FA;" d="M791.977,1603.368c6.401,12.921,17.455,20.49,24.69,16.905c7.235-3.584,7.911-16.963,1.51-29.884
				c-6.401-12.921-17.454-20.49-24.689-16.905C786.253,1577.068,785.576,1590.448,791.977,1603.368z"/>
			
				<linearGradient id="SVGID_00000138534683064251897990000008850454287296472468_" gradientUnits="userSpaceOnUse" x1="1558.1051" y1="1746.6063" x2="1362.162" y2="1800.3092" gradientTransform="matrix(-1 0 0 1 2478.4575 0)">
				<stop  offset="0" style="stop-color:#09005D"/>
				<stop  offset="1" style="stop-color:#1A0F91"/>
			</linearGradient>
			<path style="fill:url(#SVGID_00000138534683064251897990000008850454287296472468_);" d="M936.078,1801.244
				c0.186,0,0.372-0.004,0.559-0.015l242.879-12.276c6.004-0.302,10.625-5.415,10.322-11.419
				c-0.303-6.006-5.439-10.726-11.422-10.322l-242.879,12.276c-6.004,0.302-10.625,5.416-10.322,11.42
				C925.51,1796.724,930.318,1801.244,936.078,1801.244z"/>
			
				<linearGradient id="SVGID_00000041292557843461338910000003814575372029250966_" gradientUnits="userSpaceOnUse" x1="1283.0676" y1="821.8323" x2="1207.3228" y2="1988.3004">
				<stop  offset="0" style="stop-color:#E1473D"/>
				<stop  offset="1" style="stop-color:#E9605A"/>
			</linearGradient>
			<path style="fill:url(#SVGID_00000041292557843461338910000003814575372029250966_);" d="M1229.829,1555.381
				c-0.927,0-1.68-0.75-1.683-1.677c-0.169-51.272,19.56-119.126,19.759-119.807c0.261-0.888,1.193-1.401,2.089-1.141
				c0.893,0.26,1.404,1.197,1.142,2.088c-0.199,0.674-19.792,68.072-19.624,118.847c0.003,0.931-0.748,1.687-1.678,1.69H1229.829z"
				/>
			
				<linearGradient id="SVGID_00000037664886588905855580000005843973629041365411_" gradientUnits="userSpaceOnUse" x1="1420.9672" y1="830.7864" x2="1345.2223" y2="1997.2546">
				<stop  offset="0" style="stop-color:#E1473D"/>
				<stop  offset="1" style="stop-color:#E9605A"/>
			</linearGradient>
			<path style="fill:url(#SVGID_00000037664886588905855580000005843973629041365411_);" d="M1340.286,1580.318
				c-0.365,0-0.733-0.118-1.042-0.362c-0.728-0.575-0.853-1.634-0.278-2.364c0.531-0.674,53.323-67.786,71.392-113.573
				c0.34-0.865,1.312-1.305,2.185-0.947c0.865,0.342,1.289,1.318,0.949,2.183c-18.253,46.248-71.348,113.748-71.882,114.422
				C1341.277,1580.098,1340.784,1580.318,1340.286,1580.318z"/>
			
				<linearGradient id="SVGID_00000129899545913018442230000018158297278387276965_" gradientUnits="userSpaceOnUse" x1="1523.5696" y1="837.449" x2="1447.8246" y2="2003.9169">
				<stop  offset="0" style="stop-color:#E1473D"/>
				<stop  offset="1" style="stop-color:#E9605A"/>
			</linearGradient>
			<path style="fill:url(#SVGID_00000129899545913018442230000018158297278387276965_);" d="M1415.124,1683.509l-9.605-13.582
				c-0.537-0.759-0.357-1.812,0.403-2.347c0.756-0.542,1.808-0.358,2.346,0.401l8.03,11.356
				c74.91-32.841,121.286-122.457,121.748-123.364c0.421-0.825,1.432-1.161,2.264-0.733c0.828,0.421,1.157,1.437,0.735,2.265
				c-0.47,0.921-47.893,92.595-124.669,125.468L1415.124,1683.509z"/>
		</g>
	</g>
</g>
</svg>
